<svg xmlns="http://www.w3.org/2000/svg" xmlns:xlink="http://www.w3.org/1999/xlink" width="192" height="166"><defs><path id="a" d="M79.496.49C35.591.49 0 36.081 0 79.986c0 43.904 35.591 79.496 79.496 79.496 43.904 0 79.496-35.592 79.496-79.496C158.992 36.081 123.4.49 79.496.49z"/><path id="c" d="M79.496.49C35.591.49 0 36.081 0 79.986c0 43.904 35.591 79.496 79.496 79.496 43.904 0 79.496-35.592 79.496-79.496"/><path id="e" d="M79.496.49C35.591.49 0 36.081 0 79.986c0 43.904 35.591 79.496 79.496 79.496 43.904 0 79.496-35.592 79.496-79.496C158.992 36.081 123.4.49 79.496.49z"/><path id="g" d="M79.496.49C35.591.49 0 36.081 0 79.986c0 43.904 35.591 79.496 79.496 79.496 43.904 0 79.496-35.592 79.496-79.496"/><path id="i" d="M79.496.49C35.591.49 0 36.081 0 79.986c0 43.904 35.591 79.496 79.496 79.496 43.904 0 79.496-35.592 79.496-79.496"/><path id="k" d="M79.496.49C35.591.49 0 36.081 0 79.986c0 43.904 35.591 79.496 79.496 79.496 43.904 0 79.496-35.592 79.496-79.496"/><path id="m" d="M79.496.49C35.591.49 0 36.081 0 79.986c0 43.904 35.591 79.496 79.496 79.496 43.904 0 79.496-35.592 79.496-79.496"/><path id="o" d="M79.496.49C35.591.49 0 36.081 0 79.986c0 43.904 35.591 79.496 79.496 79.496 43.904 0 79.496-35.592 79.496-79.496"/><path id="q" d="M79.496.49C35.591.49 0 36.081 0 79.986c0 43.904 35.591 79.496 79.496 79.496 43.904 0 79.496-35.592 79.496-79.496C158.992 36.081 123.4.49 79.496.49z"/><path id="s" d="M79.496.49C35.591.49 0 36.081 0 79.986c0 43.904 35.591 79.496 79.496 79.496 43.904 0 79.496-35.592 79.496-79.496"/><path id="u" d="M79.496.49C35.591.49 0 36.081 0 79.986c0 43.904 35.591 79.496 79.496 79.496 43.904 0 79.496-35.592 79.496-79.496C158.992 36.081 123.4.49 79.496.49z"/><path id="w" d="M79.496.49C35.591.49 0 36.081 0 79.986c0 43.904 35.591 79.496 79.496 79.496 43.904 0 79.496-35.592 79.496-79.496C158.992 36.081 123.4.49 79.496.49z"/><path id="y" d="M.884.916h41.039v38.536H.883z"/></defs><g fill="none" fill-rule="evenodd"><circle cx="79.495" cy="79.495" r="79.495" fill="#0679A4"/><mask id="b" fill="#fff"><use xlink:href="#a"/></mask><path fill="#08729A" d="M100.754 125.132l6.263 14.658 34.987-31.575 4.5 9.25-48.212 45.488-13.27-35.616z" mask="url(#b)"/><mask id="d" fill="#fff"><use xlink:href="#c"/></mask><path fill="#27A3D1" d="M38.31 62.005c0 13.227 10.901 23.952 24.35 23.952 13.448 0 24.35-10.724 24.35-23.952 0-13.229-10.902-23.953-24.35-23.953a24.67 24.67 0 00-7.498 1.159C45.382 42.319 38.31 51.35 38.31 62.005" mask="url(#d)"/><mask id="f" fill="#fff"><use xlink:href="#e"/></mask><path fill="#27A3D1" d="M56.37 74.904l-1.141 42.557 20.98-3.934-3.473-37.773z" mask="url(#f)"/><mask id="h" fill="#fff"><use xlink:href="#g"/></mask><path fill="#0A85B3" d="M70.255 46.849s-13.178-.14-21.325-4.744c0 0 5.466-3.965 12.041-4.322 13.781-.748 26.622 7.32 26.04 24.221 0 0-15.622-7.503-16.756-15.155z" mask="url(#h)"/><mask id="j" fill="#fff"><use xlink:href="#i"/></mask><path fill="#0A85B3" d="M55.87 93.044s-1.588 17.423 8.502 17.423 10.202-17.423 10.202-17.423 19.513 9.089 28.512 35.707l-6.549 3.825L99.338 211l-57.513-10.49-15.071 1.456s.938-61.413.938-65.5c0-34.5 28.178-43.422 28.178-43.422z" mask="url(#j)"/><mask id="l" fill="#fff"><use xlink:href="#k"/></mask><path fill="#0A85B3" d="M66.011 38.783l-27.41 23.222s-1.974-11.226 6.43-18.851c7.867-7.14 20.98-4.371 20.98-4.371" mask="url(#l)"/><mask id="n" fill="#fff"><use xlink:href="#m"/></mask><path fill="#0F91C2" d="M39.785 50.439h45.459s-3.716-17.557-22.73-17.557c-21.417 0-22.73 17.557-22.73 17.557" mask="url(#n)"/><mask id="p" fill="#fff"><use xlink:href="#o"/></mask><path fill="#0679A4" d="M39.785 50.439h45.459s-6.12 7.868-21.418 7.868c-17.266 0-24.041-7.868-24.041-7.868" mask="url(#p)"/><mask id="r" fill="#fff"><use xlink:href="#q"/></mask><path fill="#27A3D1" d="M98.23 162.712c-5.022-4.894-7.214-17.166-6.52-36.475.51-14.181 2.455-27.162 2.474-27.292l2.473.374c-.02.128-1.946 12.988-2.449 27.029-.657 18.302 1.337 30.257 5.766 34.574l-1.745 1.79z" mask="url(#r)"/><g><mask id="t" fill="#fff"><use xlink:href="#s"/></mask><path fill="#0A85B3" d="M92.774 102.062l-6.429-2.202a2.828 2.828 0 01-1.76-3.594l4.274-12.482a2.831 2.831 0 013.595-1.761l6.428 2.202a2.828 2.828 0 011.761 3.594L96.369 100.3a2.831 2.831 0 01-3.595 1.76" mask="url(#t)"/></g><g><mask id="v" fill="#fff"><use xlink:href="#u"/></mask><path fill="#27A3D1" d="M85.07 101.109s-1.724-5.745-.958-7.852c.767-2.107 2.873-6.128 3.639-4.788.766 1.342.382 6.129.382 6.129s11.988-4.106 12.179-5.064c.192-.958 1.442 6.854 1.442 9.727 0 1.62-4.038 3.977-6.485 6.486l-1.981 5.043-8.793-3.936.575-5.745z" mask="url(#v)"/></g><g><mask id="x" fill="#fff"><use xlink:href="#w"/></mask><path fill="#0679A4" d="M46.004 126.716l26.5 18 12.082-41.083 10.168 4.833-16 58-39-24.75z" mask="url(#x)"/></g><g><path fill="#27A3D1" d="M141.004 108.716s1.75-9.75 3.5-10.5 4.5 3.75 4.5 3.75l5.5 7.75-10 9.75-3.5-10.75z"/><g transform="translate(150 65)"><mask id="z" fill="#fff"><use xlink:href="#y"/></mask><path fill="#0A85B3" d="M4.54 35.586s20.29-3.739 32.863 3.448a3 3 0 004.433-3.319L34.288 3.291a3 3 0 00-5.443-1.019C20.739 14.273.884 19.88.884 19.88L4.54 35.586z" mask="url(#z)"/></g><path fill="#0F91C2" d="M159.548 100.268l-19.29 4.491a4.07 4.07 0 01-4.886-3.04l-2.145-9.213a4.07 4.07 0 013.04-4.887l19.29-4.49 3.99 17.14z"/><path fill="#0A85B3" d="M158.658 117.622l-4.22 2.217-9.153-17.417 8.658-.845z"/><path fill="#27A3D1" d="M155.004 100.716s-10.204 2.184-9 7c1.204 4.816.888 10.755 4.5 9.25 3.612-1.505 7.397-2.842 8-5.25.602-2.408-3.5-11-3.5-11m-60.795 25.632c-.268 7.444-.096 13.838.499 19.096.869 7.668 2.64 12.917 5.267 15.478 1.538 1.5 3.358 2.037 5.56 1.646 7.999-1.419 16.174-12.23 23.639-31.267 5.732-14.618 8.995-28.967 9.027-29.11l2.44.55c-.54 2.387-13.428 58.52-34.668 62.29a10.32 10.32 0 01-1.79.162c-2.264 0-4.261-.83-5.953-2.48-3.084-3.007-5.1-8.794-6.037-17.285-.588-5.336-.75-11.74-.482-19.19l2.498.11z"/></g></g></svg>