<svg xmlns="http://www.w3.org/2000/svg" xmlns:xlink="http://www.w3.org/1999/xlink" width="162" height="160" viewBox="0 0 162 160">
    <defs>
        <path id="a" d="M79.496.007C35.591.007 0 35.6 0 79.503c0 43.905 35.591 79.496 79.496 79.496 43.904 0 79.496-35.591 79.496-79.496"/>
        <path id="c" d="M.993.317h12.073V22.81H.993z"/>
    </defs>
    <g fill="none" fill-rule="evenodd">
        <path fill="#0679A4" d="M158.992 80.496c0 43.904-35.592 79.497-79.496 79.497C35.592 159.993 0 124.4 0 80.497 0 36.592 35.592 1 79.496 1c43.904 0 79.496 35.592 79.496 79.495"/>
        <g transform="translate(0 .993)">
            <mask id="b" fill="#fff">
                <use xlink:href="#a"/>
            </mask>
            <path fill="#0A85B3" d="M91.313 94.025s10.15-4.092 15.438 6.096c3.5 6.743 1.382 56.682 2.646 62.53 4.45 20.576-1.312 26.35-1.312 26.35l-68.344-6.275s2.868-40.273 7.586-60.058c4.798-20.125 23.475-27.655 25.442-27.373 1.967.28 18.544-1.27 18.544-1.27" mask="url(#b)"/>
        </g>
        <path fill="#27A3D1" d="M87.365 99.85l42.403-29.572 19.593-43.59 8.4 1.4-18.193 49.89-38.085 29.457z"/>
        <path fill="#0A85B3" d="M81.817 100.379l21.525-11.025 9.976 9.975-13.125 12.075z"/>
        <g transform="translate(148 11.993)">
            <mask id="d" fill="#fff">
                <use xlink:href="#c"/>
            </mask>
            <path fill="#27A3D1" d="M8.272 20.003c4.11-6.006 5.26-12.276 4.636-14.646-.376-1.43-2.436-6.284-4.74-4.741C5.86 2.159.112 9.271 1.107 16.631c.993 7.36 5.195 6.098 5.195 6.098l1.97-2.726z" mask="url(#d)"/>
        </g>
        <path fill="#27A3D1" d="M153.67 28.507s-6.207-7.051-8.13-6.747c-1.921.305 4.535 9.625 4.535 9.625l3.596-2.878z"/>
        <path fill="#0679A4" d="M145.691 34.989l1.86-4.646 8.296 3.518-1.792 5.045z"/>
        <path fill="#0A85B3" d="M145.947 33.682l8.85 4.004-14.75 41.724-39.196 32.03-11.379-15.804 39.617-25.92z"/>
        <path fill="#27A3D1" d="M72.77 69.877V96.85l18.543-.843-2.317-25.287z"/>
        <path fill="#27A3D1" d="M72.385 96.285s-1.306 10.237 9.927 9.676c11.232-.56 10.11-10.943 10.11-10.943l-20.037 1.267z"/>
        <path fill="#27A3D1" d="M77.118 104.757l5.71 1.195 5.31-2.39"/>
        <path fill="#0A85B3" d="M55.913 62.677l-.562 17.14h50.012l-.039-20.935s-42.422-19.806-49.411 3.795"/>
        <path fill="#27A3D1" d="M57.073 61.827c0 13.115 10.81 23.747 24.143 23.747 13.334 0 24.142-10.632 24.142-23.747S94.55 38.08 81.216 38.08c-2.594 0-5.093.403-7.435 1.147-9.695 3.084-16.708 12.037-16.708 22.6"/>
        <path fill="#0A85B3" d="M105.324 58.882s-11.34-2.737-19.559-14.75c0 0-9.412 20.723-29.852 18.545 0 0 .772-24.727 24.374-24.727 16.317 0 23.285 6.289 25.037 20.932"/>
        <path fill="#0F91C2" d="M69.418 96.909l3.319-5.561 4.912 5.173 1.66 9.43s-2.786-.066-6.44-3.517c-3.653-3.451-3.451-5.525-3.451-5.525M94.378 96.643l-3.32-5.561-4.911 5.173-1.992 9.441s2.786.322 6.439-3.13c3.653-3.451 3.784-5.923 3.784-5.923"/>
    </g>
</svg>
