<svg xmlns="http://www.w3.org/2000/svg" xmlns:xlink="http://www.w3.org/1999/xlink" width="236" height="236" viewBox="0 0 236 236">
    <defs>
        <path id="a" d="M0 0h236v236H0z"/>
        <path id="c" d="M0 236h236V0H0z"/>
    </defs>
    <g fill="none" fill-rule="evenodd">
        <path fill="#DF71DB" d="M187.864 195.197H48.135a7.332 7.332 0 0 1-7.332-7.332V48.135a7.332 7.332 0 0 1 7.332-7.331h139.73a7.332 7.332 0 0 1 7.331 7.332v139.729a7.332 7.332 0 0 1-7.332 7.332"/>
        <path fill="#FF8F8F" d="M93.71 120.26c-.042 12.962 10.606 23.504 23.784 23.546 13.178.043 23.895-10.43 23.937-23.392.042-12.962-10.608-23.504-23.785-23.547a24.228 24.228 0 0 0-7.35 1.11c-9.594 3.017-16.553 11.843-16.586 22.283"/>
        <path fill="#0679A4" d="M141.733 119.303s-15.86-6.85-16.947-14.35c0 0-11.57 14.057-31.764 11.84 0 0 4.37-20.812 22.694-20.753 16.128.052 25.228 9.654 26.017 23.263"/>
        <mask id="b" fill="#fff">
            <use xlink:href="#a"/>
        </mask>
        <path fill="#0F91C2" d="M118 64.852c-29.353 0-53.148 23.795-53.148 53.148S88.647 171.148 118 171.148s53.147-23.795 53.147-53.148S147.353 64.852 118 64.852M236 118c0 65.17-52.83 118-118 118S0 183.17 0 118 52.83 0 118 0s118 52.83 118 118" mask="url(#b)"/>
        <path fill="#FFF" d="M132.236 30.75c-1.304 2.064-1.525 5.036-.242 7.09a60.42 60.42 0 0 0 19.338 19.338c2.054 1.284 5.025 1.062 7.089-.242l1.01-.796.001-.001 1.293-1.292.71-.711a2.791 2.791 0 0 0 0-3.946l-3.722-3.723a2.79 2.79 0 0 0-3.947 0l-1.052 1.053a2.198 2.198 0 0 1-2.947.146 60.506 60.506 0 0 1-8.261-8.262 2.195 2.195 0 0 1 .145-2.946l1.053-1.053a2.791 2.791 0 0 0 0-3.946l-3.724-3.723a2.79 2.79 0 0 0-3.945 0l-2.8 3.015z"/>
        <path stroke="#0679A4" stroke-width="1.5" d="M157.308 42.968a8.477 8.477 0 0 0-11.066-11.067M161.767 43.824c1.498-4.51.472-9.672-3.12-13.263-3.59-3.59-8.751-4.616-13.261-3.118"/>
        <path fill="#FFF" d="M210.408 110.609h-23.613a1.651 1.651 0 0 1-1.65-1.65v-28.74c0-.911.74-1.651 1.65-1.651h23.613c.911 0 1.65.74 1.65 1.65v28.74a1.65 1.65 0 0 1-1.65 1.65"/>
        <mask id="d" fill="#fff">
            <use xlink:href="#c"/>
        </mask>
        <path fill="#0679A4" d="M190.813 80.454h15.578v-3.582h-15.578z" mask="url(#d)"/>
        <path stroke="#0F91C2" stroke-width="1.5" d="M190.091 87.996l1.675 1.675 3.164-3.164M197.98 89.05h9.133M190.091 95.125l1.675 1.675 3.164-3.164M197.98 96.18h9.133M190.091 102.254l1.675 1.675 3.164-3.164M197.98 103.308h9.133" mask="url(#d)"/>
        <path fill="#0679A4" d="M200.559 77.212a1.957 1.957 0 1 1-3.914 0 1.957 1.957 0 0 1 3.914 0" mask="url(#d)"/>
        <path fill="#FFF" d="M97.588 201.971h-3.271v-3.866h3.271v-3.06c0-1.615.454-2.867 1.36-3.761.907-.892 2.111-1.337 3.612-1.337 1.218 0 2.21.056 2.974.169v3.442h-2.039c-.764 0-1.289.17-1.572.51-.228.283-.34.736-.34 1.36v2.677h3.611l-.509 3.866h-3.102v9.73h-3.995v-9.73zM138.27 196.957c0 2.04-.495 4.008-1.487 5.906-1.02 2.011-2.45 3.612-4.291 4.802-2.011 1.331-4.32 1.997-6.926 1.997-2.492 0-4.773-.666-6.841-1.997.312.028.666.042 1.063.042 2.067 0 3.923-.637 5.566-1.912-.992 0-1.862-.29-2.614-.87a4.441 4.441 0 0 1-1.551-2.189c.283.028.553.042.808.042.396 0 .794-.042 1.189-.127a4.498 4.498 0 0 1-2.55-1.572c-.678-.822-1.02-1.757-1.02-2.805v-.085a4.203 4.203 0 0 0 1.998.595 4.959 4.959 0 0 1-1.444-1.614 4.282 4.282 0 0 1-.553-2.147c0-.778.213-1.522.637-2.23a12.305 12.305 0 0 0 4.058 3.314 12.353 12.353 0 0 0 5.12 1.36 6.16 6.16 0 0 1-.085-1.02c0-.793.198-1.537.596-2.23a4.36 4.36 0 0 1 1.614-1.636 4.306 4.306 0 0 1 2.21-.596c.65 0 1.253.128 1.805.383a5.044 5.044 0 0 1 1.467 1.02 9.117 9.117 0 0 0 2.846-1.062c-.34 1.048-.991 1.87-1.955 2.464a9.574 9.574 0 0 0 2.55-.722 9.805 9.805 0 0 1-2.252 2.337c.028.113.042.297.042.552M58.755 165.335l-3.265-3.388c2.392-.82 3.188-3.081 3.188-5.751a6.083 6.083 0 0 0-12.164 0c0 2.67.795 4.932 3.187 5.75l-3.265 3.389a10.07 10.07 0 0 0-3.742 7.833v6.623h19.802v-6.623c0-3.041-1.375-5.921-3.741-7.833" mask="url(#d)"/>
        <path fill="#0679A4" d="M53.112 176.12a7.987 7.987 0 1 0 15.974-.002 7.987 7.987 0 0 0-15.974.002" mask="url(#d)"/>
        <path stroke="#FFF" stroke-width="1.5" d="M61.1 171.74v8.76M65.48 176.12h-8.761" mask="url(#d)"/>
        <path fill="#FFF" d="M46.003 120.507H21.02a2.6 2.6 0 0 1-2.6-2.6v-14.674a2.6 2.6 0 0 1 2.6-2.6h24.984a2.6 2.6 0 0 1 2.6 2.6v14.674a2.6 2.6 0 0 1-2.6 2.6" mask="url(#d)"/>
        <path stroke="#0F91C2" stroke-width="1.5" d="M22.137 106.094l11.374 7.23 11.373-7.23" mask="url(#d)"/>
        <path fill="#DF71DB" d="M198.503 161.123c0 14.01-11.358 25.369-25.368 25.369-14.01 0-25.369-11.358-25.369-25.37 0-14.01 11.358-25.368 25.37-25.368 14.01 0 25.367 11.358 25.367 25.369" mask="url(#d)"/>
        <path fill="#0F91C2" d="M184.225 153.14a2.012 2.012 0 0 0-2.013-2.011h-18.286a2.013 2.013 0 0 0-2.013 2.012v4.387h22.312v-4.387z" mask="url(#d)"/>
        <path fill="#79E7F4" d="M161.913 157.528v12.381c0 1.112.901 2.013 2.013 2.013h18.286a2.013 2.013 0 0 0 2.013-2.013v-12.38h-22.312z" mask="url(#d)"/>
        <path fill="#0679A4" d="M165.916 154.177h-.092a.636.636 0 0 1-.636-.635v-4.502c0-.35.286-.635.636-.635h.092c.351 0 .635.284.635.635v4.502a.635.635 0 0 1-.635.635M180.315 154.177h-.092a.636.636 0 0 1-.636-.635v-4.502c0-.35.286-.635.636-.635h.092c.35 0 .635.284.635.635v4.502a.635.635 0 0 1-.635.635" mask="url(#d)"/>
        <path stroke="#0F91C2" stroke-width="1.5" d="M167.516 162.445h11.106M169.637 166.083h6.865" mask="url(#d)"/>
        <path fill="#FFF" d="M79.744 66.706H52.26a3.59 3.59 0 0 1-3.59-3.59V42.296a3.591 3.591 0 0 1 3.59-3.59h27.484a3.592 3.592 0 0 1 3.592 3.59v20.818a3.592 3.592 0 0 1-3.592 3.591" mask="url(#d)"/>
        <path fill="#0F91C2" d="M54.586 50.019h5.666v-5.667h-5.666z" mask="url(#d)"/>
        <path stroke="#0F91C2" stroke-width="1.5" d="M64.42 45.102h13M64.42 49.269h13" mask="url(#d)"/>
        <path fill="#0F91C2" d="M54.586 61.061h5.666v-5.667h-5.666z" mask="url(#d)"/>
        <path stroke="#0F91C2" stroke-width="1.5" d="M64.42 56.144h13M64.42 60.31h13" mask="url(#d)"/>
    </g>
</svg>
