<svg xmlns="http://www.w3.org/2000/svg" width="41" height="42" viewBox="0 0 41 42">
    <g fill="none" fill-rule="evenodd">
        <path fill="#79E7F4" d="M37.685 41.417H2.675A2.675 2.675 0 0 1 0 38.743V7h40.36v31.743a2.675 2.675 0 0 1-2.675 2.674"/>
        <path fill="#0F91C2" d="M40.359 7.365H0v-4.69A2.675 2.675 0 0 1 2.674 0h35.01a2.675 2.675 0 0 1 2.675 2.675v4.69z"/>
        <path fill="#79E7F4" d="M36.778 4.511H21.255a1.255 1.255 0 1 1 0-2.511h15.523a1.256 1.256 0 0 1 0 2.511"/>
        <path fill="#FDD455" d="M28.517 4.511h-7.262a1.255 1.255 0 0 1 0-2.511h7.262a1.255 1.255 0 0 1 0 2.511"/>
        <path fill="#FFF" d="M5.965 3.982a1.982 1.982 0 1 1-3.964 0 1.982 1.982 0 0 1 3.964 0"/>
        <path fill="#0F91C2" d="M7 18.511h26.309V16H7zM7 25.511h17.055V23H7z"/>
    </g>
</svg>
