<svg xmlns="http://www.w3.org/2000/svg" xmlns:xlink="http://www.w3.org/1999/xlink" width="49" height="42" viewBox="0 0 49 42">
    <defs>
        <path id="a" d="M.058.92h30.848v35.086H.058z"/>
    </defs>
    <g fill="none" fill-rule="evenodd">
        <g transform="translate(18)">
            <mask id="b" fill="#fff">
                <use xlink:href="#a"/>
            </mask>
            <path fill="#79E7F4" d="M.058 25.527s17.463.924 26.424 9.731c1.65 1.622 4.295.44 4.305-1.965l.12-29.64c.009-2.406-2.625-3.609-4.288-2C17.585 10.384.117 11.168.117 11.168l-.06 14.358z" mask="url(#b)"/>
        </g>
        <path fill="#0F91C2" d="M21.77 26.222l-17.038-.068a4.071 4.071 0 0 1-4.054-4.086l.03-7.421a4.07 4.07 0 0 1 4.085-4.053l17.04.069-.063 15.559z"/>
        <path fill="#0F91C2" d="M17.466 40.97l-4.081 1.048-4.323-16.852 7.62 1.039z"/>
    </g>
</svg>
