<svg xmlns="http://www.w3.org/2000/svg" xmlns:xlink="http://www.w3.org/1999/xlink" width="43" height="43"><defs><path id="a" d="M0 .094h5.467v5.468H0z"/><path id="c" d="M0 .561h5.467V6.03H0z"/><path id="e" d="M0 .532h5.467V6H0z"/></defs><g fill="none" fill-rule="evenodd"><path fill="#79E7F4" d="M11.401 7.628a2.734 2.734 0 11-3.867 3.868 2.734 2.734 0 013.867-3.868"/><mask id="b" fill="#fff"><use xlink:href="#a"/></mask><path fill="#79E7F4" d="M4.667.894A2.735 2.735 0 11.798 4.761 2.735 2.735 0 014.667.894" mask="url(#b)"/><g transform="translate(0 13)"><mask id="d" fill="#fff"><use xlink:href="#c"/></mask><path fill="#79E7F4" d="M4.667 5.229a2.735 2.735 0 11-3.866-3.87 2.735 2.735 0 013.866 3.87" mask="url(#d)"/></g><path fill="#79E7F4" d="M18.135 4.76A2.735 2.735 0 1114.269.893a2.735 2.735 0 013.866 3.869m23.97 33.571a2.735 2.735 0 11-3.868 3.866 2.735 2.735 0 013.868-3.866m-6.733-6.734a2.734 2.734 0 11-3.867 3.868 2.734 2.734 0 013.867-3.868M28.638 42.2a2.735 2.735 0 11-3.866-3.87 2.735 2.735 0 013.866 3.87m13.467-13.469a2.735 2.735 0 11-3.865-3.869 2.735 2.735 0 013.865 3.87"/><path stroke="#79E7F4" stroke-width="1.5" d="M3.432 3.525L39.62 39.713M2.518 16.502l13.89-13.891m10.08 37.862L40.38 26.582"/><path fill="#79E7F4" d="M35.372 11.495a2.734 2.734 0 11-3.868-3.867 2.734 2.734 0 013.868 3.867m6.733-6.735A2.735 2.735 0 1138.24.893a2.735 2.735 0 013.865 3.869M24.771 4.76a2.735 2.735 0 113.87-3.865 2.735 2.735 0 01-3.87 3.866M38.24 18.229a2.735 2.735 0 113.868-3.866 2.735 2.735 0 01-3.869 3.866"/><g transform="translate(0 37)"><mask id="f" fill="#fff"><use xlink:href="#e"/></mask><path fill="#79E7F4" d="M4.667 5.2A2.735 2.735 0 11.801 1.33 2.735 2.735 0 014.667 5.2" mask="url(#f)"/></g><path fill="#79E7F4" d="M11.401 35.466a2.734 2.734 0 11-3.868-3.867 2.734 2.734 0 013.868 3.867M.8 28.731a2.735 2.735 0 113.87-3.866A2.735 2.735 0 01.8 28.731M14.269 42.2a2.735 2.735 0 113.869-3.867 2.735 2.735 0 01-3.87 3.866"/><path stroke="#79E7F4" stroke-width="1.5" d="M39.475 3.525L3.287 39.713M26.498 2.611l13.891 13.891M2.527 26.582l13.891 13.891"/><path fill="#0F91C2" d="M27.602 15.398a8.695 8.695 0 010 12.299 8.695 8.695 0 01-12.299 0 8.695 8.695 0 010-12.3 8.695 8.695 0 0112.3 0"/></g></svg>