<svg xmlns="http://www.w3.org/2000/svg" xmlns:xlink="http://www.w3.org/1999/xlink" width="376" height="159" viewBox="0 0 376 159">
    <defs>
        <path id="a" d="M.353.958H247.89V159H.353z"/>
    </defs>
    <g fill="none" fill-rule="evenodd">
        <g transform="translate(128)">
            <mask id="b" fill="#fff">
                <use xlink:href="#a"/>
            </mask>
            <path fill="#0F91C2" d="M237.89 159H10.352c-5.523 0-10-4.477-10-10V10.958c0-5.523 4.477-10 10-10H237.89c5.522 0 10 4.477 10 10V149c0 5.523-4.478 10-10 10" mask="url(#b)"/>
        </g>
        <path fill="#FF8F8F" d="M152 19a5 5 0 1 1-10 0 5 5 0 0 1 10 0"/>
        <path fill="#FDD455" d="M170 19a5 5 0 1 1-10 0 5 5 0 0 1 10 0"/>
        <path fill="#7AF5A3" d="M188 19a5 5 0 1 1-10 0 5 5 0 0 1 10 0"/>
        <path fill="#0679A4" d="M290 58.918c0-3.82-3.029-6.918-6.765-6.918h-61.47c-3.736 0-6.765 3.097-6.765 6.918V74h75V58.918z"/>
        <path fill="#79E7F4" d="M215 73v41.289c0 3.707 3.029 6.711 6.764 6.711h61.47c3.737 0 6.766-3.004 6.766-6.711V73h-75z"/>
        <path fill="#FFF" d="M228.5 62c-1.381 0-2.5-1.003-2.5-2.24V45.241c0-1.238 1.119-2.242 2.5-2.242s2.5 1.004 2.5 2.242v14.517c0 1.238-1.119 2.241-2.5 2.241M276.5 62c-1.38 0-2.5-1.003-2.5-2.24V45.241c0-1.238 1.12-2.242 2.5-2.242 1.381 0 2.5 1.004 2.5 2.242v14.517c0 1.238-1.119 2.241-2.5 2.241"/>
        <path fill="#0F91C2" d="M234 93h38v-6h-38zM241 105h23v-6h-23z"/>
        <path fill="#FDD455" d="M95.476 62l-26.082-.084A7.418 7.418 0 0 1 62 54.475l.084-26.082A7.418 7.418 0 0 1 69.525 21l26.082.084a7.416 7.416 0 0 1 7.393 7.44l-.084 26.082A7.417 7.417 0 0 1 95.476 62"/>
        <path fill="#FF8F8F" d="M69 41.957C68.978 49.137 74.78 54.977 81.96 55c7.18.023 13.018-5.778 13.04-12.957.025-7.18-5.778-13.019-12.958-13.043a12.967 12.967 0 0 0-4.004.616c-5.227 1.67-9.018 6.559-9.037 12.341"/>
        <path fill="#0679A4" d="M94.984 42s-4.356-4.628-4.946-8.89c0 0-3.886 1.797-7.527 1.516-3.638-.28-7.538-2.237-7.901-2.378-.249-.097.283 2.899-1.412 5.186C71.462 39.776 69 40.665 69 40.665c.012-3.651 3.075-13.699 13.303-13.665 8.064.028 13.02 5.592 12.68 15"/>
        <path fill="#DF71DB" d="M95.476 139l-26.082-.084a7.417 7.417 0 0 1-7.394-7.44l.084-26.083A7.418 7.418 0 0 1 69.525 98l26.082.084a7.416 7.416 0 0 1 7.393 7.441l-.084 26.082a7.417 7.417 0 0 1-7.44 7.393"/>
        <path fill="#FF8F8F" d="M69 117.957c-.023 7.18 6.001 13.02 13.457 13.043 7.456.024 13.52-5.778 13.543-12.957.023-7.18-6.001-13.02-13.458-13.043-1.45-.005-2.848.21-4.159.615-5.427 1.67-9.364 6.56-9.383 12.342"/>
        <path fill="#0679A4" d="M95 118s-8.791-3.828-9.393-8.02c0 0-6.413 7.856-17.607 6.617 0 0 2.424-11.63 12.58-11.597 8.94.029 13.983 5.395 14.42 13"/>
        <path stroke="#0679A4" stroke-width="1.5" d="M92 80h106"/>
        <path fill="#0679A4" d="M33.476 153l-26.082-.084A7.418 7.418 0 0 1 0 145.476l.085-26.083A7.417 7.417 0 0 1 7.526 112l26.082.084A7.416 7.416 0 0 1 41 119.525l-.084 26.082a7.416 7.416 0 0 1-7.44 7.393"/>
        <path fill="#61A1E7" d="M28 129.482a5.5 5.5 0 1 0 11.002.034A5.5 5.5 0 0 0 28 129.482"/>
        <path fill="#FF8F8F" d="M7 131.958c-.023 7.179 6 13.018 13.456 13.042 7.456.024 13.52-5.778 13.544-12.957.023-7.18-6.002-13.02-13.458-13.043a13.994 13.994 0 0 0-4.16.616c-5.426 1.67-9.363 6.56-9.382 12.342"/>
        <path fill="#61A1E7" d="M33 130.837s-8.525-2.56-9.13-6.833c0 0-10.586 11.16-21.87 9.896 0 0 2.956-14.943 15.989-14.9 9.01.03 13.716 4.317 15.011 11.837"/>
        <path fill="#79E7F4" d="M44.475 102l-26.082-.084A7.416 7.416 0 0 1 11 94.476l.084-26.083A7.417 7.417 0 0 1 18.525 61l26.082.084A7.417 7.417 0 0 1 52 68.525l-.085 26.082a7.416 7.416 0 0 1-7.44 7.393"/>
        <path fill="#DF71DB" d="M16 80.852l.737 10.053L45.661 91 46 81.265S37.415 71.5 33.724 71.016C30.033 70.534 16 80.852 16 80.852"/>
        <path fill="#F0BB70" d="M18 81.957c-.023 7.18 6.001 13.02 13.457 13.043 7.456.024 13.519-5.777 13.543-12.957.023-7.18-6.002-13.02-13.458-13.043-1.45-.005-2.848.21-4.159.615-5.427 1.671-9.364 6.56-9.383 12.342"/>
        <path fill="#DF71DB" d="M32.336 72.507s-8.716 9.412-16.02 9.388c-1.296-.004.978-14.94 14.754-14.895C45.36 67.046 46 80.911 46 80.911s-7.548 5.549-13.664-8.404"/>
        <path fill="#FF8F8F" d="M33.476 52l-26.082-.084A7.419 7.419 0 0 1 0 44.475l.085-26.082A7.417 7.417 0 0 1 7.526 11l26.082.084A7.415 7.415 0 0 1 41 18.524l-.084 26.082A7.416 7.416 0 0 1 33.476 52"/>
        <path fill="#0679A4" d="M19.275 40.987c-8.826-.367-15.658-8.27-15.258-17.65.399-9.383 7.879-16.69 16.707-16.324 8.827.366 15.66 8.27 15.26 17.65-.4 9.382-7.88 16.69-16.709 16.324"/>
        <path fill="#F0BB70" d="M33 33c0 6.627-5.597 12-12.5 12S8 39.627 8 33c0-6.628 5.597-12 12.5-12 1.343 0 2.636.203 3.85.58C29.37 23.138 33 27.662 33 33"/>
        <path fill="#0679A4" d="M13.885 22s1.453 6.293-5.959 9.67c-5.365 2.444 2.18-9.517 2.18-9.517L13.885 22zM26.115 22s-1.453 6.293 5.96 9.67c5.363 2.444-2.18-9.517-2.18-9.517L26.114 22z"/>
        <path fill="#0679A4" d="M12 22.5s1.466 2.5 7.474 2.5C25.483 25 29 22.353 29 22.353L15.81 20 12 22.5z"/>
        <path fill="#0F91C2" d="M73.852 87l13.142-13.142a3.43 3.43 0 1 0-4.853-4.853L69 82.148 73.852 87z"/>
        <path fill="#FDD455" d="M69.035 82L67 89l7-2.034z"/>
        <path fill="#0679A4" d="M67.872 86L67 89l3-.872zM203 80l-9-5v10z"/>
    </g>
</svg>
