<svg xmlns="http://www.w3.org/2000/svg" xmlns:xlink="http://www.w3.org/1999/xlink" width="208" height="156"><defs><path id="a" d="M0 155h207.214V.52H0z"/></defs><g fill="none" fill-rule="evenodd"><path fill="#61A1E7" d="M30.24 36.09h39.636l-4.028-12.526-35.092-1.279z"/><g transform="translate(0 .48)"><path fill="#FDD455" d="M64.297 23.106c.13 8.679-6.801 15.82-15.479 15.95-8.68.13-15.822-6.8-15.952-15.478-.131-8.68 6.8-15.822 15.48-15.951.079-.002.159-.002.239-.002 1.641.002 3.271.257 4.833.756a15.49 15.49 0 0110.879 14.725"/><path fill="#61A1E7" d="M46.94 11.931s.992 19.58 19.096 16.288c1.51-.275-1.285-22.81-17.577-22.81-16.897 0-17.704 16.375-17.704 16.375s9.771 2.046 16.185-9.853"/><path fill="#FDD455" d="M44.617 31.71V50.1l12.645-.575-1.58-17.242z"/><path fill="#0679A4" d="M56.688 43.205s4.55 1.218 8.046 9.297c1.149 2.655 1.58 58.102 1.58 58.102l-27.346-.332s3.37-17.082 2.874-29.703c-.575-14.61 2.2-31.388 2.2-31.388l12.646-5.976z"/><mask id="b" fill="#fff"><use xlink:href="#a"/></mask><path fill="#DF71DB" d="M1.05 108.033h49.286V42.106H1.05z" mask="url(#b)"/><path fill="#FDD455" d="M47.385 59.555l-11.01 16.854-31.333 7.443.72 3.813s33.852-5.1 34.28-5.59c.226-.258 14.978-14.451 17.424-17.867a.497.497 0 00-.226-.752l-9.855-3.901z" mask="url(#b)"/><path fill="#FDD455" d="M6.087 83.596L3.724 80.61c-.662-.525-1.605.075-1.343.854l.802 1.782c.113.19-1.301.073-1.723-.44-.752-.917-.677-1.025-.677-1.025-1.478-.019-.79 4.751 1.441 5.49 2.028.672 3.615.351 4.413.325a.106.106 0 00.102-.125l-.609-3.803a.123.123 0 00-.043-.072m20.827-41.49s-3.448 3.448-5.173 4.023c-1.724.575-1.149-3.448 0-4.598 1.15-1.15 2.3-1.724 4.598-1.724 2.3 0 4.455 2.299 4.455 2.299h-3.88z" mask="url(#b)"/><path fill="#0679A4" d="M50.71 52.242l-7.5 12.833 8.062 7.109L62.71 57.909z" mask="url(#b)"/><path fill="#F0BB70" d="M160.356 35.553v16.114l11.078-.504-1.385-15.107z" mask="url(#b)"/><path fill="#DF71DB" d="M149.235 50.325l10.824-4.028 5.035 3.777 6.043-3.777 8.815 4.532z" mask="url(#b)"/><path fill="#DF71DB" d="M177.015 50.573s10.523 5.123 13.04 11.5c2.519 6.379 3.358 25.178 3.358 25.178L153.8 89.6l-1.846-28.702s6.042-9.736 7.217-9.568c1.176.168 17.844-.758 17.844-.758" mask="url(#b)"/><path fill="#61A1E7" d="M119.226 106.908h86.114V49.149h-86.114z" mask="url(#b)"/><path fill="#F0BB70" d="M119.103 67.828s3.029 3.014 3.536 4.523c.508 1.51-3.018 1.015-4.028.01-1.01-1.005-1.516-2.01-1.521-4.025-.005-2.014 2.005-3.907 2.005-3.907l.008 3.4zm86.098 0s-3.029 3.014-3.536 4.523c-.507 1.51 3.018 1.015 4.028.01 1.01-1.005 1.516-2.01 1.521-4.025.005-2.014-2.005-3.907-2.005-3.907l-.008 3.4z" mask="url(#b)"/><path fill="#0679A4" d="M163.527 37.477c-9.474-.398-16.807-8.991-16.377-19.193.43-10.201 8.457-18.148 17.931-17.749 9.474.398 16.806 8.991 16.378 19.192-.429 10.202-8.457 18.149-17.932 17.75" mask="url(#b)"/><path fill="#F0BB70" d="M177.846 29.062c0 7.291-6.01 13.202-13.423 13.202-7.412 0-13.422-5.911-13.422-13.202 0-7.292 6.01-13.202 13.422-13.202 1.443 0 2.832.223 4.134.638 5.39 1.714 9.289 6.691 9.289 12.564" mask="url(#b)"/><path fill="#0679A4" d="M157.257 16.695s1.606 6.585-6.585 10.119c-5.93 2.557 2.409-9.96 2.409-9.96l4.176-.16zm13.419 0s-1.606 6.585 6.585 10.119c5.929 2.557-2.41-9.96-2.41-9.96l-4.175-.16z" mask="url(#b)"/><path fill="#0679A4" d="M155.812 16.855s1.606 2.73 8.19 2.73c6.587 0 10.442-2.89 10.442-2.89l-14.455-2.57-4.177 2.73zM84.95 107.11v18.167h28.414l-1.584-19.284z" mask="url(#b)"/><path fill="#FF8F8F" d="M92.825 30.065v17.887l12.297-.559-1.537-16.769z" mask="url(#b)"/><path fill="#79E7F4" d="M75.448 56.059c2.98-8.478 17.048-14.067 17.048-14.067l5.59 4.192 6.708-4.192s12.203 6.149 18.538 21.52l-3.354 2.609-.745 1.863 1.842 30.103-31.42-1.916-13.028-2.683 3.665-19.876-7.173-8.144s1.437-6.875 2.33-9.41" mask="url(#b)"/><path fill="#FF8F8F" d="M76.627 93.489l-7.546.279 4.038-28.3 10.062 1.677zm46.705-29.977l15.651 33.165-5.403 2.608-21.24-33.724z" mask="url(#b)"/><path fill="#DF71DB" d="M101.592 92.465s11.682 5.686 14.477 12.767c2.794 7.08 3.726 27.947 3.726 27.947l-43.972 2.61-2.05-31.862s6.709-10.806 8.012-10.62c1.305.186 19.807-.842 19.807-.842" mask="url(#b)"/><path fill="#FDD455" d="M26.96 155h116.559V90.885H26.96z" mask="url(#b)"/><path fill="#FF8F8F" d="M67.002 90.86s-.401 3.966-1.755 5.104c-1.353 1.137-3.133-2.19-3.128-3.772.007-2.05.49-3.138 2.569-3.96 2.079-.824 4.984 2.654 4.984 2.654l-2.67-.026zm76.361 20.387s-3.362 3.346-3.925 5.021c-.563 1.676 3.351 1.126 4.472.011 1.12-1.115 1.682-2.232 1.687-4.468.006-2.235-2.225-4.337-2.225-4.337l-.009 3.773zM81.352 21.739c0 8.553 7.049 15.487 15.744 15.487 8.696 0 15.745-6.934 15.745-15.487S105.79 6.252 97.096 6.252c-1.691 0-3.32.262-4.848.748-6.323 2.01-10.896 7.849-10.896 14.739" mask="url(#b)"/><path fill="#0679A4" d="M112.84 21.739s-10.1-4.853-10.832-9.8c0 0-8.521-.09-13.79-3.068 0 0 3.535-2.564 7.786-2.794 8.91-.484 17.214 4.734 16.837 15.662" mask="url(#b)"/><path fill="#0679A4" d="M99.263 6.724L81.54 21.739s-1.276-7.26 4.158-12.19c5.086-4.615 13.565-2.825 13.565-2.825" mask="url(#b)"/><path fill="#FDD455" d="M82.306 14.26h29.393S109.296 2.908 97.002 2.908c-13.848 0-14.696 11.352-14.696 11.352" mask="url(#b)"/><path fill="#F0BB70" d="M82.306 14.26h29.393s-3.957 5.087-13.85 5.087c-11.162 0-15.543-5.087-15.543-5.087" mask="url(#b)"/></g></g></svg>