<svg xmlns="http://www.w3.org/2000/svg" xmlns:xlink="http://www.w3.org/1999/xlink" width="284" height="142" viewBox="0 0 284 142">
    <defs>
        <path id="a" d="M0 141.417h283.632V0H0z"/>
    </defs>
    <g fill="none" fill-rule="evenodd">
        <path stroke="#0679A4" stroke-width="1.5" d="M265 97v30.573c0 7.232-5.862 13.094-13.094 13.094H36.094c-7.232 0-13.094-5.862-13.094-13.094v-27.079M143 108v32.667"/>
        <path fill="#0F91C2" d="M195.575 22.341c0-5.159-4.183-9.341-9.342-9.341h-84.891A9.341 9.341 0 0 0 92 22.341v20.366h103.575V22.341z"/>
        <path fill="#79E7F4" d="M92 43v57.478a9.342 9.342 0 0 0 9.342 9.342h84.891a9.341 9.341 0 0 0 9.342-9.342V43H92zM111.03 26.797h-1.737A2.293 2.293 0 0 1 107 24.504V2.293A2.292 2.292 0 0 1 109.293 0h1.737a2.292 2.292 0 0 1 2.293 2.293v22.211a2.293 2.293 0 0 1-2.293 2.293M178.03 26.797h-1.737A2.293 2.293 0 0 1 174 24.504V2.293A2.292 2.292 0 0 1 176.293 0h1.737a2.292 2.292 0 0 1 2.293 2.293v22.211a2.293 2.293 0 0 1-2.293 2.293"/>
        <mask id="b" fill="#fff">
            <use xlink:href="#a"/>
        </mask>
        <path fill="#0F91C2" d="M118 69.829h51.788V62H118zM127 86.828h32.167V79H127z" mask="url(#b)"/>
        <path fill="#79E7F4" d="M283.797 63.899c0 10.438-18.898 45.32-18.898 45.32S246 74.337 246 63.899C246 53.461 254.461 45 264.899 45c10.437 0 18.898 8.461 18.898 18.899" mask="url(#b)"/>
        <path fill="#0F91C2" d="M276.558 64.279c0 6.229-5.05 11.278-11.279 11.278S254 70.508 254 64.279 259.05 53 265.279 53s11.279 5.05 11.279 11.279" mask="url(#b)"/>
        <path fill="#FFF" d="M271.522 63.762a6.761 6.761 0 1 1-13.522 0 6.761 6.761 0 0 1 13.522 0" mask="url(#b)"/>
        <path fill="#79E7F4" d="M43.14 109.399H3.062A3.062 3.062 0 0 1 0 106.337V70h46.202v36.337a3.063 3.063 0 0 1-3.062 3.062" mask="url(#b)"/>
        <path fill="#0F91C2" d="M46.201 70.431H0v-5.369A3.062 3.062 0 0 1 3.061 62h40.078a3.062 3.062 0 0 1 3.062 3.062v5.369z" mask="url(#b)"/>
        <path fill="#79E7F4" d="M42.207 67.875h-17.77a1.438 1.438 0 0 1 0-2.875h17.77a1.437 1.437 0 0 1 0 2.875" mask="url(#b)"/>
        <path fill="#FDD455" d="M32.749 67.875h-8.312a1.438 1.438 0 0 1 0-2.875h8.312a1.437 1.437 0 0 1 0 2.875" mask="url(#b)"/>
        <path fill="#FFF" d="M7.539 66.27a2.27 2.27 0 1 1-4.54 0 2.27 2.27 0 0 1 4.54 0" mask="url(#b)"/>
        <path fill="#0F91C2" d="M8 83.875h30.117V81H8zM8 90.875h19.523V88H8z" mask="url(#b)"/>
    </g>
</svg>
