<svg xmlns="http://www.w3.org/2000/svg" xmlns:xlink="http://www.w3.org/1999/xlink" width="312" height="160" viewBox="0 0 312 160">
    <defs>
        <path id="a" d="M0 .958h247.536V159H0z"/>
        <path id="c" d="M0 159.042h311.162V1H0z"/>
    </defs>
    <g fill="none" fill-rule="evenodd">
        <mask id="b" fill="#fff">
            <use xlink:href="#a"/>
        </mask>
        <path fill="#0F91C2" d="M237.536 159H10c-5.524 0-10-4.478-10-10V10.958c0-5.523 4.476-10 10-10h227.535c5.523 0 10 4.477 10 10V149c0 5.522-4.477 10-10 10" mask="url(#b)"/>
        <path fill="#FF8F8F" d="M23.473 19.236A5.237 5.237 0 1 1 13 19.235a5.237 5.237 0 0 1 10.473.001"/>
        <path fill="#FDD455" d="M41.473 19.236A5.237 5.237 0 1 1 31 19.235a5.237 5.237 0 0 1 10.473.001"/>
        <path fill="#7AF5A3" d="M60.473 19.236A5.237 5.237 0 1 1 50 19.235a5.237 5.237 0 0 1 10.473.001"/>
        <path fill="#0679A4" d="M161.11 59.774A6.774 6.774 0 0 0 154.335 53H92.774A6.774 6.774 0 0 0 86 59.774v14.769h75.11V59.774z"/>
        <path fill="#79E7F4" d="M86 74v41.682a6.775 6.775 0 0 0 6.774 6.775h61.561a6.775 6.775 0 0 0 6.775-6.775V74H86z"/>
        <path fill="#FFF" d="M99.293 62.433A2.292 2.292 0 0 1 97 60.14V45.293a2.293 2.293 0 1 1 4.585 0V60.14a2.292 2.292 0 0 1-2.292 2.293M147.293 62.433A2.293 2.293 0 0 1 145 60.14V45.293a2.293 2.293 0 0 1 4.586 0V60.14a2.292 2.292 0 0 1-2.293 2.293"/>
        <mask id="d" fill="#fff">
            <use xlink:href="#c"/>
        </mask>
        <path fill="#0F91C2" d="M105 93.677h37.556V88H105zM112 105.677h23.327V100H112z" mask="url(#d)"/>
        <path fill="#79E7F4" d="M155 122.5h155.333V74H155z" mask="url(#d)"/>
        <path fill="#FDD455" d="M183 97.671h21.833V86H183zM225 110.671h21.833V99H225zM183 122.671h21.833V111H183zM267 97.671h21.833V86H267zM289 122.671h21.833V111H289z" mask="url(#d)"/>
        <path stroke="#FFF" stroke-width="1.5" d="M311.334 86H247M311.334 98H247M311.334 110H247" mask="url(#d)"/>
        <path stroke="#0F91C2" stroke-width="1.5" d="M161 74v48.667M183 74v48.667M204 74v48.667M225 74v48.667M247 74v48.667" mask="url(#d)"/>
        <path stroke="#FFF" stroke-width="1.5" d="M268 73v51.013M289 73v51.013" mask="url(#d)"/>
        <path stroke="#0F91C2" stroke-width="1.5" d="M161 86h85.333M161 98h85.333M161 110h85.333" mask="url(#d)"/>
    </g>
</svg>
