<svg xmlns="http://www.w3.org/2000/svg" xmlns:xlink="http://www.w3.org/1999/xlink" width="261" height="130" viewBox="0 0 261 130">
    <defs>
        <path id="a" d="M0 130h260.107V.753H0z"/>
    </defs>
    <g fill="none" fill-rule="evenodd">
        <path stroke="#0679A4" stroke-width="1.5" d="M172.83 61.216H72.69"/>
        <g>
            <path stroke="#0679A4" stroke-width="1.5" d="M64.512 96.86l-56.454-.183A7.333 7.333 0 0 1 .75 89.321l.183-56.454a7.332 7.332 0 0 1 7.355-7.308l56.454.182a7.333 7.333 0 0 1 7.31 7.356l-.184 56.454a7.33 7.33 0 0 1-7.355 7.308z"/>
            <path fill="#F0BB70" d="M13.374 61.782c-.04 12.534 10.257 22.727 22.999 22.768 12.742.04 23.105-10.086 23.146-22.62.04-12.533-10.257-22.727-23-22.768-2.48-.007-4.868.37-7.108 1.074-9.275 2.917-16.005 11.45-16.037 21.546"/>
            <path fill="#0679A4" d="M59.518 61.93s-7.754-7.874-8.805-15.127c0 0-6.919 3.058-13.399 2.579-6.48-.478-13.42-3.806-14.067-4.05-.443-.165.504 4.935-2.514 8.828-3.09 3.985-7.473 5.498-7.473 5.498.021-6.212 5.472-23.313 23.682-23.255 14.357.047 23.18 9.516 22.576 25.528"/>
            <path fill="#FDD455" d="M124.545 61.21c0 9.756-7.91 17.666-17.667 17.666-9.757 0-17.666-7.91-17.666-17.667 0-9.757 7.909-17.667 17.666-17.667 9.758 0 17.667 7.91 17.667 17.667"/>
            <path stroke="#0F91C2" stroke-width="1.5" d="M97.025 60.36l7.135 7.135 12.57-12.571"/>
            <path fill="#0F91C2" d="M242.075 22.74c0-5.158-4.183-9.34-9.342-9.34h-84.891a9.341 9.341 0 0 0-9.342 9.34v20.367h103.575V22.74z"/>
            <path fill="#79E7F4" d="M138.5 43.107v57.478a9.342 9.342 0 0 0 9.342 9.342h84.89a9.341 9.341 0 0 0 9.343-9.342V43.107H138.5zM157.735 27.55h-1.737a2.293 2.293 0 0 1-2.293-2.292V3.047a2.292 2.292 0 0 1 2.293-2.293h1.737a2.292 2.292 0 0 1 2.293 2.293v22.21a2.293 2.293 0 0 1-2.293 2.294M224.577 27.55h-1.737a2.293 2.293 0 0 1-2.293-2.292V3.047A2.292 2.292 0 0 1 222.84.754h1.737a2.292 2.292 0 0 1 2.293 2.293v22.21a2.293 2.293 0 0 1-2.293 2.294"/>
            <mask id="b" fill="#fff">
                <use xlink:href="#a"/>
            </mask>
            <path fill="#0F91C2" d="M164.393 70.004h51.788v-7.829h-51.788zM174.204 86.865h32.167v-7.828h-32.167z" mask="url(#b)"/>
            <path fill="#DF71DB" d="M252.668 130l-25.782-.083a7.332 7.332 0 0 1-7.31-7.355l.085-25.783a7.332 7.332 0 0 1 7.356-7.308l25.782.083a7.33 7.33 0 0 1 7.307 7.356l-.083 25.782a7.33 7.33 0 0 1-7.355 7.308" mask="url(#b)"/>
            <path fill="#FF8F8F" d="M226.597 109.82c-.023 7.256 5.937 13.157 13.314 13.18 7.376.025 13.375-5.838 13.4-13.093.022-7.256-5.939-13.157-13.316-13.181a13.565 13.565 0 0 0-4.114.622c-5.37 1.688-9.265 6.629-9.284 12.473" mask="url(#b)"/>
            <path fill="#0679A4" d="M253.48 109.285s-8.879-3.834-9.487-8.032c0 0-6.477 7.868-17.78 6.627 0 0 2.446-11.65 12.703-11.617 9.027.03 14.121 5.404 14.563 13.022" mask="url(#b)"/>
        </g>
    </g>
</svg>
