<svg xmlns="http://www.w3.org/2000/svg" xmlns:xlink="http://www.w3.org/1999/xlink" width="366" height="159" viewBox="0 0 366 159">
    <defs>
        <path id="a" d="M0 .958h247.536V159H0z"/>
    </defs>
    <g fill="none" fill-rule="evenodd">
        <g>
            <mask id="b" fill="#fff">
                <use xlink:href="#a"/>
            </mask>
            <path fill="#0F91C2" d="M237.536 159H10c-5.524 0-10-4.477-10-10V10.958c0-5.523 4.476-10 10-10h227.536c5.522 0 10 4.477 10 10V149c0 5.523-4.478 10-10 10" mask="url(#b)"/>
        </g>
        <path fill="#FF8F8F" d="M23.473 19.236a5.236 5.236 0 1 1-10.473 0 5.236 5.236 0 0 1 10.473 0"/>
        <path fill="#FDD455" d="M41.473 19.236a5.236 5.236 0 1 1-10.473 0 5.236 5.236 0 0 1 10.473 0"/>
        <path fill="#7AF5A3" d="M60.473 19.236a5.236 5.236 0 1 1-10.473 0 5.236 5.236 0 0 1 10.473 0"/>
        <path fill="#0679A4" d="M121.638 65.19a6.19 6.19 0 0 0-6.19-6.19H59.191A6.19 6.19 0 0 0 53 65.19v13.496h68.638V65.19z"/>
        <path fill="#79E7F4" d="M53 79v38.09a6.19 6.19 0 0 0 6.19 6.191h56.257a6.191 6.191 0 0 0 6.191-6.191V79H53z"/>
        <path fill="#FFF" d="M65.336 68.758h-.482A1.854 1.854 0 0 1 63 66.904v-14.05C63 51.83 63.83 51 64.854 51h.482c1.024 0 1.854.83 1.854 1.854v14.05c0 1.024-.83 1.854-1.854 1.854M109.337 68.758h-.483A1.854 1.854 0 0 1 107 66.904v-14.05c0-1.024.83-1.854 1.854-1.854h.483c1.023 0 1.854.83 1.854 1.854v14.05a1.855 1.855 0 0 1-1.854 1.854"/>
        <path fill="#0F91C2" d="M70 96.188h34.319V91H70zM76 108.187h21.317V103H76z"/>
        <path fill="#79E7F4" d="M187.057 68.028c0 12.718-23.028 55.224-23.028 55.224S141 80.746 141 68.028C141 55.31 151.31 45 164.029 45c12.717 0 23.028 10.31 23.028 23.028"/>
        <path fill="#0F91C2" d="M177.486 68.743c0 7.59-6.153 13.743-13.743 13.743-7.59 0-13.743-6.153-13.743-13.743C150 61.153 156.153 55 163.743 55c7.59 0 13.743 6.153 13.743 13.743"/>
        <path fill="#FFF" d="M172.478 68.239a8.24 8.24 0 1 1-16.477-.001 8.24 8.24 0 0 1 16.477.001M236.249 71.499h13.217V61h-13.217a5.25 5.25 0 0 0 0 10.499M236.249 99.499h13.217V89h-13.217a5.25 5.25 0 0 0 0 10.499"/>
        <path fill="#DF71DB" d="M355.146 121.431H293c-5.523 0-10-4.478-10-10V49c0-5.523 4.477-10 10-10h62.146c5.522 0 10 4.477 10 10v62.431c0 5.522-4.478 10-10 10"/>
        <path fill="#FFF" d="M301 80.134v-.174c0-4.689 3.228-7.96 7.567-7.96 3.577 0 6.346 1.788 6.695 5.452h-2.944c-.327-2.072-1.483-3.141-3.729-3.141-2.747 0-4.536 2.138-4.536 5.627v.175c0 3.51 1.679 5.582 4.558 5.582 2.159 0 3.686-1.091 3.991-3.293h2.835c-.458 3.751-3.119 5.648-6.826 5.648-4.884 0-7.611-3.119-7.611-7.916M323.234 79.218c1.941 0 2.966-.829 2.966-2.486v-.087c0-1.788-1.112-2.399-2.966-2.399h-2.333v4.972h2.333zM318 72h5.234c3.424 0 5.822 1.396 5.822 4.58v.087c0 2.442-1.526 3.685-3.467 4.187l4.383 6.738h-3.14l-4.077-6.302h-1.854v6.302H318V72zM332 72h3.882l4.099 10.642L343.994 72h3.838v15.592h-2.9V75.816l-4.645 11.776h-.937l-4.733-11.776v11.776H332z"/>
        <path fill="#DF71DB" d="M271.249 71.499h18.217V61h-18.217a5.249 5.249 0 1 0 0 10.499M271.249 99.499h18.217V89h-18.217a5.249 5.249 0 1 0 0 10.499"/>
    </g>
</svg>
