<svg xmlns="http://www.w3.org/2000/svg" xmlns:xlink="http://www.w3.org/1999/xlink" width="311" height="119"><defs><path id="a" d="M18.262.579C7.727 1.207-.302 10.255.325 20.789c.628 10.534 9.676 18.564 20.21 17.936 10.534-.627 18.564-9.675 17.936-20.209C37.867 8.369 29.45.545 19.417.545c-.383 0-.768.011-1.155.034"/></defs><g fill="none" fill-rule="evenodd"><path fill="#79E7F4" d="M154.347 54.545s-10.63 1.143-17.875 6.334c-8.958 6.416-14.75 41.04-14.75 41.04s53.75-2.25 59.5-1.874c5.75.375 6.452-13.166 6.452-13.166s-4.202-31.084-23.952-32.084c-5.852-.296-9.375-.25-9.375-.25"/><path fill="#FF8F8F" d="M135.722 25.697c0 11.275 9.293 20.416 20.757 20.416 11.463 0 20.756-9.141 20.756-20.416S167.942 5.28 156.479 5.28c-2.231 0-4.38.346-6.392.987-8.336 2.65-14.365 10.347-14.365 19.429"/><path fill="#7086F4" d="M177.235 25.697S163.92 19.3 162.954 12.779c0 0-11.233-.12-18.178-4.044 0 0 4.658-3.38 10.264-3.684 11.747-.638 22.692 6.24 22.195 20.646"/><path fill="#7086F4" d="M159.335 5.903l-23.364 19.793s-1.682-9.568 5.48-16.067c6.706-6.086 17.884-3.726 17.884-3.726"/><path fill="#FDD455" d="M136.98 15.838h38.748S172.56.873 156.354.873c-18.256 0-19.373 14.965-19.373 14.965"/><path fill="#F0BB70" d="M136.98 15.838h38.748s-5.216 6.707-18.256 6.707c-14.717 0-20.491-6.707-20.491-6.707"/><path fill="#61A1E7" d="M25.75 41.545l35.637-.117c4.033 0 8.863-4.883 8.113-10.633l-1.219-6.381-47.667-1.736-.423 11.32c-.152 4.058 1.498 7.547 5.56 7.547"/><path fill="#FDD455" d="M66.172 24.444c.178 11.789-9.236 21.49-21.025 21.667-11.789.177-21.49-9.237-21.666-21.026-.178-11.79 9.236-21.49 21.025-21.666a21.696 21.696 0 016.89 1.025 21.035 21.035 0 0114.776 20"/><path fill="#61A1E7" d="M42.596 9.265s1.349 26.594 25.938 22.124C70.587 31.015 66.79.405 44.66.405c-22.951 0-24.045 22.243-24.045 22.243s13.27 2.78 21.98-13.383"/><path fill="#79E7F4" d="M39.25 52.795S17 57.045 9.5 72.67C3.69 84.775 3.25 93.045 3.25 93.045l5 14.25 51.75-2.25 15.5-12.75s-13.25-39-28.75-39.25l-7.5-.25z"/><path fill="#0679A4" d="M80.489 77.922l-15.585-3.624 1.02-4.383 15.584 3.624z"/><path fill="#0679A4" d="M76.23 72.587a2.645 2.645 0 11-5.148-1.197 2.645 2.645 0 015.148 1.197"/><path fill="#61A1E7" d="M77.226 119l-27.517-6.397 9.343-40.18 27.516 6.399z"/><path fill="#FDD455" d="M42.782 59.215a6.25 6.25 0 01-6.25-6.25v-10.25a6.25 6.25 0 1112.5 0v10.25a6.25 6.25 0 01-6.25 6.25M12 101.795h40l-.375 5L0 111.17l3.25-18.125 10.5 1.75z"/><path fill="#FDD455" d="M47.25 102.545s3.688-3.563 5.937-4.812l-.062 3.312s6.375-.125 8.875.125.75 3.875-.75 5.125-14.75.375-14.75.375l.75-4.125z"/><path fill="#FFF" d="M81.805 84.711a3.5 3.5 0 11-6.999.002 3.5 3.5 0 016.999-.002"/><path fill="#FF8F8F" d="M156.055 59.878a5.5 5.5 0 01-5.5-5.5V41.625a5.5 5.5 0 0111 0v12.753a5.5 5.5 0 01-5.5 5.5"/><path fill="#0679A4" d="M143.207 44.47l-6.18 2.126a3.118 3.118 0 01-3.965-1.935l-6.279-18.253a3.12 3.12 0 011.935-3.964l6.18-2.127a3.12 3.12 0 013.965 1.935l6.28 18.254a3.12 3.12 0 01-1.936 3.964"/><path fill="#FF8F8F" d="M126.4 39.375l-7.197 46.385a4.802 4.802 0 009.489 1.472l5.94-46.939-8.231-.918z"/><path fill="#FF8F8F" d="M126.18 40.48s-.021-6.136-.236-7.746c-.215-1.61-.39-7.01 1.477-4.359l1.62 4.575s8.76-4.91 9.669-5.663c.908-.752 2.406 6.362 1.968 7.808-.437 1.446-7.063 6.913-7.063 6.913l-4.885 1.2-2.55-2.729z"/><path fill="#61A1E7" d="M138.184 106.95l-24.525 4.345-5.825-32.883 24.526-4.344z"/><path fill="#FFF" d="M119.846 85.086a3.5 3.5 0 11-7 0 3.5 3.5 0 017 0"/><path fill="#FF8F8F" d="M178.924 95.628l-39.452 4.417.375 5 51.077-.042-3.25-18.125-10.5 1.75z"/><path fill="#FF8F8F" d="M142.299 100.753s-3.688-3.563-5.937-4.812l.062 3.312s-6.375-.125-8.875.125-.75 3.875.75 5.125 14.75.375 14.75.375l-.75-4.125z"/><path fill="#F0BB70" d="M237.215 25.12c0 11.594 9.556 20.993 21.343 20.993 11.788 0 21.343-9.399 21.343-20.993s-9.555-20.993-21.343-20.993c-2.293 0-4.5.356-6.572 1.014-8.572 2.726-14.77 10.641-14.77 19.979"/><path fill="#0679A4" d="M280.167 24.126s-14.206-6.08-15.199-12.787c0 0-10.309 12.607-28.378 10.683 0 0 3.85-18.629 20.24-18.629 14.425 0 22.592 8.562 23.337 20.733"/><path fill="#79E7F4" d="M256.347 52.211s-10.63 1.143-17.875 6.334c-8.958 6.416-14.75 41.041-14.75 41.041s53.75-2.25 59.5-1.875 6.452-13.166 6.452-13.166-4.202-31.084-23.952-32.084c-5.852-.296-9.375-.25-9.375-.25"/><path fill="#F0BB70" d="M258.139 62.918a6 6 0 01-6-6v-14.78a6 6 0 1112 0v14.78a6 6 0 01-6 6"/><path fill="#61A1E7" d="M309.295 111.562l-91.869 4.904-2.906-54.433 91.87-4.905z"/><path fill="#F0BB70" d="M215.555 80.211s7.334.75 7.334 5.417c0 4.666-6.75 3.666-6.75 3.666s-3.917-.5-4.334-5.5c-.422-5.065 3.417-6.333 3.417-6.333l.333 2.75zm91.675.5s-7.332.75-7.332 5.417c0 4.666 6.75 3.666 6.75 3.666s3.917-.5 4.333-5.5c.423-5.065-3.416-6.333-3.416-6.333l-.334 2.75z"/><path fill="#FFF" d="M280.472 84.516c.627 10.533-7.403 19.581-17.937 20.21-10.534.627-19.582-7.403-20.21-17.938-.627-10.532 7.403-19.581 17.937-20.209 10.534-.627 19.582 7.403 20.21 17.937"/><g transform="translate(242 66)"><mask id="b" fill="#fff"><use xlink:href="#a"/></mask><path fill="#79E7F4" d="M22.442 22.968s2.376-1.127 3.79 1.242c.938 1.568 1.143 13.579 1.53 14.964 1.362 4.874.062 6.34.062 6.34l-16.487-.527s.112-9.704.96-14.518c.865-4.897 5.238-6.971 5.714-6.931.476.039 4.43-.57 4.43-.57" mask="url(#b)"/></g><path fill="#FF8F8F" d="M263.563 90.183l9.75-7.701 4.079-10.738 2.035.215-3.651 12.23-8.717 7.612z"/><path fill="#79E7F4" d="M262.24 90.39l5.007-2.954 2.536 2.25-2.977 3.085z"/><path fill="#FF8F8F" d="M279.125 72.918c.9-1.5 1.087-3.02.903-3.58-.11-.338-.674-1.473-1.205-1.07-.53.403-1.808 2.192-1.465 3.943.344 1.752 1.334 1.39 1.334 1.39l.433-.683z"/><path fill="#FF8F8F" d="M278.451 72.118s-1.59-1.603-2.047-1.502c-.457.1 1.226 2.244 1.226 2.244l.821-.742z"/><path fill="#61A1E7" d="M276.63 73.787l.38-1.142 2.04.727-.357 1.235z"/><path fill="#79E7F4" d="M276.672 73.47l2.181.834-2.943 10.222-8.945 8.245-2.957-3.629 9.135-6.785z"/><path fill="#FF8F8F" d="M259.633 83.2l.386 6.473 4.436-.468-.917-6.034z"/><path fill="#FF8F8F" d="M259.918 89.542s-.167 2.475 2.52 2.18c2.687-.296 2.27-2.77 2.27-2.77l-4.79.59z"/><path fill="#FF8F8F" d="M261.175 91.507l1.387.205 1.24-.649"/><path fill="#0679A4" d="M255.486 81.714l.11 4.12 11.999-.715-.308-5.022s-10.461-4.146-11.801 1.617"/><path fill="#FF8F8F" d="M255.752 81.493c.187 3.147 2.933 5.544 6.132 5.354 3.2-.192 5.64-2.897 5.452-6.044-.188-3.147-2.933-5.543-6.132-5.352a5.875 5.875 0 00-1.766.381c-2.283.878-3.837 3.127-3.686 5.661"/><path fill="#0679A4" d="M267.286 80.097s-2.76-.495-4.903-3.259c0 0-1.962 5.106-6.898 4.876 0 0-.168-5.944 5.494-6.281 3.915-.233 5.677 1.176 6.307 4.664"/><path fill="#61A1E7" d="M259.215 89.734l.717-1.382 1.253 1.171.533 2.24s-.67.023-1.596-.753-.907-1.276-.907-1.276m5.985-.421l-.876-1.287-1.105 1.312-.343 2.293s.673.037 1.501-.842c.827-.88.822-1.476.822-1.476"/></g></svg>