<svg xmlns="http://www.w3.org/2000/svg" xmlns:xlink="http://www.w3.org/1999/xlink" width="208" height="175" viewBox="0 0 208 175">
    <defs>
        <path id="a" d="M.56.128h64.078V109H.56z"/>
        <path id="c" d="M.995.206h35.7v17.83H.995z"/>
        <path id="e" d="M0 .724h37.307v40.16H0z"/>
        <path id="g" d="M.65.379h32.4v15.416H.65z"/>
    </defs>
    <g fill="none" fill-rule="evenodd">
        <g transform="translate(72 66)">
            <mask id="b" fill="#fff">
                <use xlink:href="#a"/>
            </mask>
            <path fill="#79E7F4" d="M64.638 32.168c0 17.694-32.04 76.832-32.04 76.832S.56 49.862.56 32.168C.56 14.473 14.904.128 32.6.128c17.694 0 32.04 14.345 32.04 32.04" mask="url(#b)"/>
        </g>
        <path fill="#0F91C2" d="M123.241 98.121c0 10.56-8.561 19.121-19.121 19.121-10.56 0-19.12-8.561-19.12-19.121C85 87.561 93.56 79 104.12 79s19.121 8.561 19.121 19.121"/>
        <path fill="#FFF" d="M115.925 98.462c0 6.331-5.132 11.463-11.463 11.463-6.33 0-11.462-5.132-11.462-11.463C93 92.131 98.132 87 104.462 87c6.331 0 11.463 5.131 11.463 11.462"/>
        <path fill="#FF8F8F" d="M144 41.23c-.027 8.437 6.906 15.301 15.485 15.328 8.58.028 15.556-6.79 15.583-15.229.028-8.438-6.906-15.302-15.485-15.329a15.745 15.745 0 0 0-4.785.722c-6.245 1.965-10.776 7.71-10.798 14.507"/>
        <path fill="#0679A4" d="M174.145 41.187s-5.221-5.302-5.928-10.186c0 0-4.659 2.06-9.021 1.737-4.363-.322-9.036-2.563-9.472-2.726-.298-.11.34 3.323-1.692 5.944-2.081 2.682-5.032 3.701-5.032 3.701.014-4.182 3.684-15.696 15.945-15.657 9.666.032 15.606 6.407 15.2 17.187"/>
        <path fill="#61A1E7" d="M60 37.328a6.35 6.35 0 1 0 12.699.04A6.35 6.35 0 0 0 60 37.327"/>
        <path fill="#FF8F8F" d="M34 40.502c-.028 8.59 7.03 15.575 15.762 15.604 8.733.028 15.834-6.913 15.862-15.502.028-8.59-7.029-15.576-15.762-15.604a16.047 16.047 0 0 0-4.87.736c-6.358 2-10.97 7.848-10.992 14.766"/>
        <path fill="#61A1E7" d="M65.769 38.767S55.658 35.79 54.938 30.82c0 0-12.555 12.98-25.938 11.51 0 0 3.507-17.378 18.964-17.329 10.687.035 16.27 5.021 17.805 13.767"/>
        <path fill="#DF71DB" d="M87 16.543l.882 11.78 34.595.112.405-11.408S112.613 5.585 108.199 5.02C103.784 4.452 87 16.543 87 16.543"/>
        <path fill="#F0BB70" d="M89 17.501c-.028 8.59 7.03 15.576 15.762 15.604 8.732.028 15.834-6.913 15.862-15.502.027-8.589-7.029-15.576-15.762-15.603a16.022 16.022 0 0 0-4.872.735c-6.356 2-10.968 7.848-10.99 14.766"/>
        <g transform="translate(86)">
            <mask id="d" fill="#fff">
                <use xlink:href="#c"/>
            </mask>
            <path fill="#DF71DB" d="M20.434 6.752S10.062 17.939 1.371 17.91C-.17 17.906 2.534.153 18.927.206 35.933.26 36.695 16.74 36.695 16.74s-8.983 6.596-16.26-9.99" mask="url(#d)"/>
        </g>
        <path fill="#F0BB70" d="M21 142.609c0 8.62 7.105 15.609 15.869 15.609s15.869-6.989 15.869-15.609c0-8.621-7.105-15.609-15.869-15.609-1.705 0-3.347.265-4.887.754C25.609 129.781 21 135.666 21 142.609"/>
        <path fill="#FDD455" d="M52.503 138.912s-4.017 1.523-7.064-6.233c0 0-9.003 3.232-22.439 1.801 0 0 4.585-7.439 13.02-7.48 10.566-.05 15.098 6.233 16.483 11.912"/>
        <path fill="#FF8F8F" d="M156 143.18c0 8.384 6.909 15.18 15.433 15.18 8.523 0 15.432-6.796 15.432-15.18 0-8.383-6.909-15.18-15.432-15.18-1.659 0-3.255.258-4.752.734-6.199 1.971-10.681 7.694-10.681 14.446"/>
        <path fill="#0679A4" d="M187.134 143.381s-9.899-4.756-10.618-9.605c0 0-8.352-.089-13.516-3.007 0 0 3.464-2.513 7.631-2.739 8.734-.474 16.873 4.64 16.503 15.351"/>
        <path fill="#0679A4" d="M173.5 128.334l-17.372 14.717s-1.25-7.114 4.075-11.946c4.986-4.525 13.297-2.77 13.297-2.77"/>
        <path fill="#FDD455" d="M157 136.127h28.81S183.455 125 171.405 125C157.831 125 157 136.127 157 136.127"/>
        <path fill="#F0BB70" d="M157 136h28.81s-3.878 4.986-13.574 4.986C161.294 140.986 157 136 157 136"/>
        <g transform="translate(0 63)">
            <mask id="f" fill="#fff">
                <use xlink:href="#e"/>
            </mask>
            <path fill="#0679A4" d="M17.81 40.868C7.517 40.435-.448 31.1.02 20.02.484 8.939 9.205.307 19.496.74c10.291.433 18.256 9.767 17.79 20.848-.466 11.08-9.187 19.713-19.478 19.28" mask="url(#f)"/>
        </g>
        <path fill="#F0BB70" d="M33.159 94.341c0 7.92-6.528 14.34-14.58 14.34S4 102.261 4 94.341 10.527 80 18.579 80c1.567 0 3.076.243 4.49.693 5.855 1.862 10.09 7.269 10.09 13.648"/>
        <path fill="#0679A4" d="M10.465 81s1.745 7.153-7.153 10.992C-3.128 94.77 5.93 81.174 5.93 81.174L10.465 81zM25.138 81s-1.745 7.153 7.153 10.992c6.44 2.778-2.617-10.818-2.617-10.818L25.138 81z"/>
        <path fill="#0679A4" d="M9 81.966s1.745 2.966 8.898 2.966 11.341-3.14 11.341-3.14L13.536 79 9 81.966z"/>
        <path fill="#FDD455" d="M175 91.608c0 8.621 7.105 15.609 15.869 15.609 8.765 0 15.869-6.988 15.869-15.609 0-8.62-7.104-15.608-15.869-15.608-1.705 0-3.347.264-4.887.754C179.609 78.78 175 84.665 175 91.608"/>
        <g transform="translate(174 75)">
            <mask id="h" fill="#fff">
                <use xlink:href="#g"/>
            </mask>
            <path fill="#0679A4" d="M33.05 15.795s-10.563-4.521-11.302-9.508c0 0-7.664 9.374-21.099 7.943 0 0 2.862-13.851 15.048-13.851 10.726 0 16.8 6.367 17.353 15.416" mask="url(#h)"/>
        </g>
    </g>
</svg>
