<svg xmlns="http://www.w3.org/2000/svg" xmlns:xlink="http://www.w3.org/1999/xlink" width="274" height="158"><defs><path id="a" d="M.214.146h18.154v33.03H.214z"/><path id="c" d="M.327.936h13.26V16H.327z"/><path id="e" d="M0 158.22h273.368V0H0z"/></defs><g fill="none" fill-rule="evenodd"><path fill="#0F91C2" d="M3.737 111.06c-2.062 3.262-2.41 7.961-.383 11.208a95.536 95.536 0 0030.575 30.576c3.25 2.03 7.948 1.68 11.21-.382l1.6-1.26h.001l2.043-2.044 1.123-1.123a4.413 4.413 0 000-6.24l-5.887-5.886a4.411 4.411 0 00-6.239 0l-1.665 1.664a3.472 3.472 0 01-4.658.231 95.597 95.597 0 01-13.064-13.063 3.472 3.472 0 01.232-4.658l1.664-1.665a4.411 4.411 0 000-6.239l-5.887-5.887a4.411 4.411 0 00-6.239 0l-4.426 4.768z"/><path fill="#0679A4" d="M44.55 130.625l-1.492-.614a12.569 12.569 0 00-2.74-13.703 12.573 12.573 0 00-13.704-2.742L26 112.074a14.183 14.183 0 0115.459 3.093 14.176 14.176 0 013.091 15.458"/><path fill="#0679A4" d="M50.922 132.027l-1.532-.508c2.37-7.136.554-14.855-4.737-20.145-5.29-5.291-13.007-7.106-20.144-4.735L24 105.107c7.718-2.564 16.069-.6 21.795 5.126 5.725 5.724 7.69 14.076 5.127 21.794"/><path fill="#0F91C2" d="M234.037 136.03s-17.226-29.696-1.24-32.864c13.765-2.73 11.161 29.143 11.161 29.143l-9.92 3.72zm.963 2.691s1.363 13.021 8.929 11.161c9.289-2.284.744-14.882.744-14.882L235 138.721z"/><g transform="translate(255 111)"><mask id="b" fill="#fff"><use xlink:href="#a"/></mask><path fill="#0F91C2" d="M10.331 33.176S27.557 3.48 11.571.312C-2.194-2.417.41 29.455.41 29.455l9.921 3.721z" mask="url(#b)"/></g><g transform="translate(251 142)"><mask id="d" fill="#fff"><use xlink:href="#c"/></mask><path fill="#0F91C2" d="M13.587 4.657s-1.363 13.02-8.93 11.162C-4.63 13.534 3.915.936 3.915.936l9.673 3.72z" mask="url(#d)"/></g><path fill="#0F91C2" d="M41.623 34.118H2.6a2.6 2.6 0 01-2.6-2.6V7.6A2.6 2.6 0 012.6 5h39.023a2.6 2.6 0 012.6 2.6v23.918a2.6 2.6 0 01-2.6 2.6"/><path stroke="#FFF" stroke-width="1.5" d="M6 13l16.663 10.591L39.326 13"/><path fill="#0F91C2" d="M256.187 22.924l-4.917-5.104c3.603-1.232 4.802-4.639 4.802-8.66 0-5.059-4.103-9.16-9.161-9.16a9.16 9.16 0 00-9.161 9.16c0 4.021 1.199 7.428 4.802 8.66l-4.918 5.104A15.165 15.165 0 00232 34.721v9.974h29.822v-9.974c0-4.581-2.071-8.918-5.635-11.797"/><path fill="#0679A4" d="M248 39.028c0 6.644 5.385 12.029 12.028 12.029 6.643 0 12.029-5.385 12.029-12.029 0-6.643-5.386-12.028-12.029-12.028S248 32.385 248 39.028"/><path stroke="#FFF" stroke-width="1.5" d="M260 33v13.194M266.194 39H253"/><path fill="#0679A4" d="M188.28 37.864A8.864 8.864 0 00179.416 29H98.865A8.864 8.864 0 0090 37.864v19.325h98.28V37.864z"/><path fill="#79E7F4" d="M90 57v54.54a8.864 8.864 0 008.865 8.864h80.551a8.863 8.863 0 008.864-8.864V57H90zm18.707-14.573h-1.414A2.293 2.293 0 01105 40.135V19.292A2.293 2.293 0 01107.293 17h1.414A2.292 2.292 0 01111 19.292v20.843a2.292 2.292 0 01-2.293 2.292m63 0h-1.414A2.292 2.292 0 01168 40.135V19.292A2.292 2.292 0 01170.293 17h1.414A2.292 2.292 0 01174 19.292v20.843a2.292 2.292 0 01-2.293 2.292"/><mask id="f" fill="#fff"><use xlink:href="#e"/></mask><path fill="#0F91C2" d="M115 82.428h49.14V75H115zm9 16h30.522V91H124z" mask="url(#f)"/></g></svg>