<svg xmlns="http://www.w3.org/2000/svg" width="166" height="140" viewBox="0 0 166 140">
    <g fill="none" fill-rule="evenodd">
        <path fill="#EA7D7D" d="M130.327 58.827l2.05-.072c.456.053.572.315.271.605l-.8.568c-.096.048.578.571.907.508.402-.082.325-.872.325-.872 2.1.334-.257 3.824-1.58 3.077a9.669 9.669 0 0 1-2.375-2.103.11.11 0 0 1-.028-.126l.731-1.526s.484-.059.5-.059"/>
        <path fill="#EA7D7D" d="M128.05 56.375l2.966 1.973-1.74 2.4-3.014-2.463z"/>
        <path fill="#5498D6" d="M105.85 25.598l7.226 20.218 16.283 11.146-2.27 2.356s-20.658-11.026-20.73-11.57c-.044-.284-9.901-20.352-10.448-21.767-.548-1.415 1.763-4.13 5.573-3.936 3.576.175 4.366 3.553 4.366 3.553"/>
        <path stroke="#0F91C2" stroke-linecap="round" stroke-width="2" d="M61.193 105.88c-.877 15.23-13.934 26.866-29.164 25.99h-.025" opacity=".15"/>
        <path fill="#79E7F4" d="M77.785 122.812l-8.103-2.04.316-1.547 8.102 2.046z"/>
        <path fill="#FF8F8F" d="M79.414 106.862l-1.55 6.127-5.216-.447 3.005-7.511z"/>
        <path fill="#D27777" d="M78.634 111.86s-2.424 1.289-4.57.484a27.668 27.668 0 0 1-3.238-1.4l-1.318 7.729 20.068 5.214-.484-3.13-10.458-8.897z"/>
        <path fill="#EFC03C" d="M78.74 73.008L58.982 49.82c-.77-1.638 11.19-2.127 11.19-2.127 1.643-.77 4.992-.238 5.762 1.4l11.01 23.436c.771 1.62-8.29.291-8.204.48"/>
        <path fill="#EFC03C" d="M82.35 71.098a3.3 3.3 0 0 1 4.052 2.293l-6.324 33.637c-.46 1.148-4.89-.853-5.374-2.598l3.847-29.314c-.484-1.754 2.055-3.528 3.8-4.018"/>
        <path fill="#FF8F8F" d="M125.113 12.068c-.116 5.324-4.527 9.547-9.853 9.43-5.325-.116-9.546-4.527-9.43-9.851.116-5.325 4.527-9.548 9.851-9.432.052 0 .104.003.156.005a9.67 9.67 0 0 1 2.952.573 9.507 9.507 0 0 1 6.324 9.275"/>
        <path fill="#FF8F8F" d="M112.775 15.838l-6.965 8.22-3.314-3.253 6.974-7.332z"/>
        <path fill="#0679A4" d="M106.213 14.675s5.917-6.077 6.484-9.087a15.158 15.158 0 0 0 12.624 5.331s-1.424-8.496-8.825-8.781c-6.512-.247-12.27 4.754-10.283 12.537"/>
        <path fill="#FF8F8F" d="M110.188 5.739c.587-.691 1.508-.875 2.057-.41.549.466.518 1.404-.068 2.097-.587.691-1.508.876-2.057.41-.55-.466-.52-1.405.068-2.098M124.73 14.083s1.337 2.292 1.317 2.738c-.022.63-2.867.524-2.867.524l1.55-3.262z"/>
        <path fill="#79E7F4" d="M115.236 67.987l-47.798 6.422V71.5l47.798-6.421z"/>
        <path fill="#79E7F4" d="M115.236 67.987l-37.9 45.176-1.455-2.907 37.901-45.176zM33.031 103.854l40.95 6.619.504 3.15-41.454-6.862z"/>
        <path fill="#79E7F4" d="M74.485 113.623L61.623 54.55l2.908-.486 12.861 59.076z"/>
        <path fill="#036D8E" d="M111.078 66.252h4.139V54.559h-4.139z"/>
        <path fill="#036D8E" d="M111.059 57.185v-3.063a.54.54 0 0 1 .485-.533l23.3-1.977a.533.533 0 0 1 .577.533v3.063a.538.538 0 0 1-.485.533l-23.295 1.977a.532.532 0 0 1-.582-.533"/>
        <path fill="#79E7F4" d="M111.078 67.275h4.139v-3.286h-4.139z"/>
        <path fill="#036D8E" d="M126.519 68.331a10.108 10.108 0 0 1-4.362-.97 1.686 1.686 0 0 1-.72-2.273l.013-.024a1.74 1.74 0 0 1 2.32-.702 6.739 6.739 0 0 0 5.303.058c2.607-1.08 2.82-6.959 2.907-9.169 0-.257 0-.484.029-.692a1.723 1.723 0 0 1 3.44.16c0 .193 0 .411-.023.653-.121 3.33-.378 10.25-5.011 12.174a10.138 10.138 0 0 1-3.896.785M60.208 55.063c-2.937-.485-4.71-4.711-4.71-4.711-.848-.848-1.565-1.968-1.119-2.496.775-.775 3.154-2.064 4.008-1.216l18.686 8.607c.848.867-13.923.32-16.865-.184M131.961 70.982c-18.806 0-34.05 15.244-34.05 34.049s15.244 34.05 34.05 34.05c18.805 0 34.049-15.245 34.049-34.05s-15.244-34.05-34.049-34.05m0 2.909c17.198 0 31.141 13.943 31.141 31.14 0 17.2-13.943 31.142-31.141 31.142-17.199 0-31.142-13.942-31.142-31.141.016-17.192 13.95-31.125 31.142-31.141"/>
        <path stroke="#0F91C2" stroke-linecap="round" stroke-width="2" d="M131.476 77.883c15.256 0 27.623 12.367 27.623 27.623" opacity=".15"/>
        <path fill="#036D8E" d="M34.049 70.982c-18.805 0-34.05 15.244-34.05 34.049s15.245 34.05 34.05 34.05 34.049-15.245 34.049-34.05c.003-18.802-15.237-34.046-34.04-34.05h-.01zm0 2.908c17.199 0 31.142 13.943 31.142 31.14 0 17.2-13.943 31.142-31.142 31.142-17.2 0-31.142-13.942-31.142-31.141.02-17.191 13.95-31.122 31.142-31.141z"/>
        <path fill="#79E7F4" d="M129.532 103.844L110.91 65.69l3.387-.117 18.624 38.155z"/>
        <path fill="#036D8E" d="M131.961 101.668a3.362 3.362 0 0 1 3.362 3.362 3.362 3.362 0 1 1-6.725 0 3.362 3.362 0 0 1 3.363-3.362"/>
        <path fill="#79E7F4" d="M33.031 104.338l34.17-28.573 1.454 2.423-34.17 28.573z"/>
        <path fill="#036D8E" d="M34.049 101.668a3.363 3.363 0 1 1 0 6.725 3.363 3.363 0 0 1 0-6.725"/>
        <path stroke="#036D8E" stroke-width="3" d="M75.88 99.288c5.812 0 10.522 4.71 10.522 10.521 0 5.81-4.71 10.521-10.521 10.521-5.811 0-10.521-4.71-10.521-10.52 0-5.812 4.71-10.522 10.52-10.522z"/>
        <path fill="#FDD455" d="M102.099 59.259l-2.53-.484c.693-1.328.557.217.742.314l-36.056-5.297c-1.6-.843 7.638-8.456 7.638-8.456.843-1.599 3.838-3.198 5.442-2.355l23.325 11.097c1.604.854 2.282 3.591 1.439 5.181"/>
        <path fill="#FDD455" d="M67.201 31.093c5.597 0 10.134 5.194 10.134 11.602s-4.537 11.602-10.134 11.602-10.133-5.194-10.133-11.602 4.536-11.602 10.133-11.602"/>
        <path fill="#61A1E7" d="M103.897 14.985s-2.176-1.28-9.416.28c-1.822.394-15.362 6.844-26.562 13.783l-5.607 3.485s11.68 13.438 15.992 10.003c3.843-3.054-2.02 1.124 2.395-1.454 10.845-6.364 23.789-15.508 23.789-15.508l3.45-2.423c.485-.412.64-2.104.112-2.477 0 0-1.115.447-1.778-1.308-.664-1.754.11-1.667-.185-2.364-.436-1.057-2.19-2.017-2.19-2.017"/>
        <path fill="#79E7F4" d="M65.36 96.162l-6.44-5.326.95-1.255 6.44 5.321z"/>
        <path fill="#FF8F8F" d="M75.256 83.902l-4.1 4.803L66.673 86l6.02-5.413z"/>
        <path fill="#FDD455" d="M100.005 55.1a3.305 3.305 0 0 1 2.094 4.159L75.256 84.89c-.567 1.72-4.847-2.182-4.255-3.901l23.62-24.672c.567-1.721 3.663-1.783 5.384-1.217"/>
        <path fill="#D27777" d="M72.828 88.03s-2.743.088-4.313-1.585a26.994 26.994 0 0 1-2.278-2.684l-4.604 6.349 15.692 13.569.97-3.03-5.467-12.618z"/>
        <path stroke="#0F91C2" stroke-linecap="round" stroke-width="2" d="M132.92 132.179c-15.256 0-27.623-12.367-27.623-27.623M6.9 104.193c.88-15.23 13.938-26.865 29.17-25.986h.019" opacity=".15"/>
        <path fill="#FF8F8F" d="M129.566 53.86l4.29-.222c.969.092 1.188.62.543 1.226l-2.264.9c-.208.098 1.454.525 2.16.379a1.672 1.672 0 0 0 1.155-.857c4.362.605-.833 7.754-3.571 6.3-2.492-1.338-3.945-4.396-4.79-5.248-.072-.074.075-2.26-.023-1.003l1.453-1.32c.016-.048 1.013-.154 1.047-.154"/>
        <path fill="#61A1E7" d="M105.85 22.603l7.226 20.218 16.283 11.146-2.27 2.36s-19.688-9.571-19.761-10.12c-.043-.285-9.416-21.806-9.963-23.216-.548-1.41.309-4.134 4.119-3.94 3.576.174 4.366 3.552 4.366 3.552"/>
        <path fill="#036D8E" d="M115.188 16.293l-1.298-.146 1.609-5.873 1.293.146z"/>
        <path fill="#036D8E" d="M110.609 11.204l-1.105.572 4.433 4.798 1.106-.572z"/>
        <path fill="#DF71DB" d="M104.6 12.693C103.422 7.062 105.97-.047 116.434 0c6.3 0 9.149 6.11 9.305 9"/>
        <path fill="#036D8E" d="M114.34 21.12l-.62-5.617 1.235-.14.64 5.82"/>
        <rect width="160" height="3" x="1" y="137" fill="#0F91C2" opacity=".15" rx="1.5"/>
    </g>
</svg>
