<svg xmlns="http://www.w3.org/2000/svg" width="52" height="50" viewBox="0 0 52 50">
    <g fill="none" fill-rule="evenodd">
        <path stroke="#0F91C2" stroke-width="1.5" d="M7.917 26.669c0-11.805 9.568-21.372 21.371-21.372 11.803 0 21.371 9.567 21.371 21.372 0 11.802-9.568 21.37-21.37 21.37-8.298 0-15.49-4.727-19.032-11.638"/>
        <path stroke="#0F91C2" stroke-width="1.5" d="M9.31 43.21v-6.794h6.795"/>
        <path fill="#0F91C2" d="M46.744 38.354c-.595.488-1.18.936-1.978 1.043-.142.02-.293.261-.367.431-.142.321-.232.666-.344 1-.108.322-.273.637-.31.967-.01.09-.028.17-.05.248a21.158 21.158 0 0 0 3.252-3.876c-.063.064-.13.126-.203.187M10.551 18.5c.205-.084.423-.144.637-.203.366-.103.642-.3.774-.671.196-.558.612-.76 1.18-.754.371.004.742-.044 1.114-.066.498-.03.795-.276.883-.774.053-.292.066-.591.09-.887.052-.704.318-.95 1.032-1.036.316-.04.642-.13.925-.272.444-.225.863-.32 1.31-.017l.165-.024c.007-.276.086-.575.006-.823-.138-.432-.39-.827-.564-1.25-.07-.172-.148-.452-.064-.56.533-.69.327-1.336-.032-1.996a1.872 1.872 0 0 1-.096-.226A21.14 21.14 0 0 0 9.62 19.123c.25-.27.565-.472.932-.623M42.234 10.841c-1.42-.274-2.726-.04-3.854.83.154-.398.302-.8.47-1.194.028-.064.14-.093.217-.134.235-.128.49-.226.703-.384.402-.302.796-.289 1.202-.04.428.262.85.532 1.276.8l-.014.122M36.5 22.107c-.32.177-.666.171-.924-.053-.331-.285-.65-.614-.877-.983-.436-.704-.808-.944-1.647-.827-.572.08-1.145.188-1.703.34-.45.122-.795.012-1.076-.324-.21-.249-.417-.51-.568-.796-.347-.653-.89-.876-1.592-.815-.608.051-1.175-.065-1.714-.426.272-.339.449-.662.998-.597.395.047.816-.195 1.233-.268.243-.043.515-.064.746.004.655.192 1.222.527 1.577 1.153.042.075.218.093.335.104.26.026.53-.007.784.05 1.112.25 2.216.547 3.332.78.669.14 1.212.472 1.716.9a.403.403 0 0 1 .136.213c.075.424-.376 1.333-.756 1.545m-5.808-11.752c.637.357 1.208.652 1.749.994.216.136.134.635-.144.763-.483.226-.956.447-1.545.395-.481-.043-.982.141-1.513.23 1.844-.978 1.847-.982 1.453-2.382m7.728-2.683c.492.33.963.702 1.415 1.11-.576.553-1.192.98-1.936 1.195-.734.211-2.282-.342-2.668-.99-.126-.21-.156-.507-.147-.762.01-.339-.125-.497-.436-.447a9.89 9.89 0 0 0-1.207.287 3.23 3.23 0 0 0-.655.28c-.752.41-1.485.52-2.27.04-.193-.118-.553-.08-.79.007-.952.357-1.703 1.458-1.403 2.63.1.395-.005.893-.156 1.293-.278.733-.66 1.427-1.025 2.198-.59-.509-1.415-.736-1.503-1.726-.036-.403-.323-.784-.494-1.169-.413.126-.782.29-1.106.491a3.521 3.521 0 0 0-.832.7c-.043.05-.076.104-.115.156-.067.088-.138.175-.197.27a3.45 3.45 0 0 0-.48 1.53c.023.016.052.053.069.048.638-.199 1.179-.072 1.626.444.069.08.21.102.32.146.108.042.216.081.326.121-.425.95-1.043 1.271-2.012 1.067-.442-.093-.575.003-.61.441-.052.664-.113 1.328-.142 1.994-.004.097.128.25.232.295.228.104.488.137.719.234.449.187.507.584.093.84-.31.19-.671.337-1.028.395-.356.06-.574.205-.697.527-.201.522-.49.968-.965 1.303-.444.315-.412.862-.533 1.331-.068.27-.177.528-.27.79-.05.14-.15.277-.152.416-.01.736-.042 1.475.026 2.205.044.472.127.894-.218 1.304-.094.111-.062.41.019.568.278.54.732.918 1.32 1.06.937.227 1.88.46 2.837.57.558.065 1.144-.098 1.716-.173.22-.029.432-.11.652-.147.568-.096 1.052.07 1.342.578.315.553.628 1.117.849 1.711.282.758.689 1.38 1.297 1.933.707.64.995 1.57.867 2.481-.158 1.126-.227 2.188.282 3.247.14.292.089.673.138 1.012.155 1.058.678 1.89 1.556 2.5.072.05.154.088.236.123.066.03.137.045.265.085.227-1.149 1.146-1.213 2.049-1.344.632-.09 1.207-.372 1.629-.858.694-.8 1.298-1.665 1.544-2.727.02-.082.044-.163.103-.377.235.414.428.724.593 1.047.226.448.59.652 1.078.662.24.005.416-.049.595-.276.16-.202.485-.322.757-.37.309-.057.503-.184.57-.473.169-.723.324-1.45.477-2.177.074-.348-.102-.459-.425-.418-.597.077-1.184.082-1.75-.185-.255-.12-.417-.29-.41-.57.015-.446.017-.894.092-1.329.064-.376.31-.632.666-.838.358-.209.727-.497.935-.845a6.73 6.73 0 0 1 1.605-1.834c.274-.217.533-.493.69-.799.1-.193.079-.532-.03-.728-.13-.24-.124-.387.008-.602.322-.523.193-.894-.404-1.025-.37-.08-.768-.016-1.15-.057-.554-.06-1.115-.12-1.653-.258-.21-.054-.411-.289-.534-.49-.23-.378-.388-.799-.6-1.189-.47-.866-.633-2.558-.251-3.369.093.39.176.694.236 1.002.168.877.554 1.6 1.26 2.19.43.36.72.886 1.087 1.358.469-.059 1.01-.079 1.525-.203 1.025-.249 1.82-.77 2.068-1.905.129-.598.343-1.178.5-1.704.61.15 1.09.297 1.58.378.429.071.755.28.882.662.19.57.309 1.164.423 1.755.044.228.007.476-.021.711-.058.5.123.881.538 1.142.25.16.32.361.276.641-.025.16-.046.342.012.482a.605.605 0 0 0 .333.32c.077.025.243-.115.322-.216.328-.42.363-.88.2-1.39-.262-.815.044-1.528.362-2.23-.334-7.988-5.108-14.827-11.922-18.106M49.177 33.646c-.023.038-.049.077-.07.115-.044.072-.172.113-.269.131-.874.176-1.37.737-1.416 1.665-.024.475-.005.953.012 1.43.007.19-.02.362-.069.52a21.009 21.009 0 0 0 1.812-3.86"/>
        <path stroke="#0F91C2" stroke-width="1.5" d="M17.23 16.297C4.892 28.636-1.4 42.347 3.176 46.924 7.752 51.5 21.464 45.208 33.802 32.87 46.14 20.532 52.432 6.82 47.856 2.244 43.28-2.332 29.568 3.959 17.23 16.297z"/>
    </g>
</svg>
