<svg xmlns="http://www.w3.org/2000/svg" xmlns:xlink="http://www.w3.org/1999/xlink" width="125" height="153"><defs><path id="a" d="M.128.192h7.904V6H.128z"/></defs><g fill="none" fill-rule="evenodd"><path fill="#FDD455" d="M81.815 41.935l-6.43 14.195L62.65 69.935l2.499 3.115L80.46 57.785l6.855-15.183z"/><path fill="#F0BB70" d="M87.662 32.362l26.923 2.713-2.796-22.802-24.366-.888z"/><path fill="#61A1E7" d="M88.677 68.3l3.905 36.406 12.91 37.069 4.397-1.63-9.685-35.708-.021-36.502z"/><path fill="#0679A4" d="M105.354 140.41a2.44 2.44 0 002.607-.429c1.293-1.089 1.465-1.514 1.465-1.514l2.575 5.28-9.443 5.586 2.796-8.924z"/><path fill="#61A1E7" d="M97.746 67.833l-6.968 38.051-3.366 42.322 4.746-1.699 6.823-40.905 11.667-36z"/><path fill="#0679A4" d="M87.485 145.276a2.71 2.71 0 002.667 1.01c1.774-.293 2.155-.587 2.155-.587l-.315 6.16H80.248l7.237-6.583z"/><path fill="#FDD455" d="M103.76 15.576v12.188l-8.38-.38 1.048-11.427z"/><path fill="#FDD455" d="M104.903 27.495s-.629 5.184-5.334 4.93c-4.704-.257-4.189-5.502-4.189-5.502l9.523.572z"/><path fill="#D27777" d="M95.157 26.939s-6.787 2.895-9.176 7.496l2.5 34.162 22.167 1.005s4.333-13.167 1.601-33.936c-1.22-9.27-6.678-8.286-7.57-8.16-.44.066-5.332 4.93-5.332 4.93l-4.19-5.497z"/><path fill="#FDD455" d="M110.183 38.505l8.843 19.021 2.599 20.541 3.174-.586-.984-21.212-7.735-19.05zm.529-26.215c.09 6.025-4.722 10.983-10.749 11.074-6.026.091-10.984-4.72-11.075-10.748C88.798 6.59 93.61 1.631 99.636 1.54h.166c1.14.001 2.271.18 3.356.524a10.757 10.757 0 017.554 10.225"/><path fill="#F0BB70" d="M98.66 4.53s.688 13.594 13.26 11.31C112.97 15.646 111.026 0 99.714 0 87.982 0 87.423 11.37 87.423 11.37s6.784 1.421 11.236-6.84"/><path fill="#D27777" d="M81.377 42.245s3.704-8.154 7.47-11.486c1.894-1.726 2.487-1.78 4.952-2.088 1.465-.184 1.624 2.095.171 2.278-1.809.23-3.358.524-4.73 1.394l4.524 3.73-5.856 9.325s-6.76-2.907-6.53-3.153m35.295-3.555c.071-.328-1.736-5.898-4.031-8.046-1.865-1.758-4.639-3.18-7.456-3.197-1.473-.01-2.32 1.8-.869 2.007 1.803.258 3.348.58 4.705 1.473l-4.586 3.654 5.694 9.422 6.543-5.313z"/><path fill="#F0BB70" d="M36.556 112.985l3.864 20.091 6.739 16.506 2.804-2.593-5.09-14.665-3.067-21.396z"/><path fill="#DF71DB" d="M46.815 148.734l3.377-1.225-1.148-3.166-3.681.841z"/><g transform="translate(43 146.692)"><mask id="b" fill="#fff"><use xlink:href="#a"/></mask><path fill="#61A1E7" d="M3.894 1.175A2.343 2.343 0 005.853.991 5.725 5.725 0 007.208.192l.824 2.943L.128 6l3.766-4.825z" mask="url(#b)"/></g><path fill="#0679A4" d="M35.11 85.165s3.266 1.613 4.57 4.38c1.62 3.43 1.526 4.857 1.526 4.857l-2.287.191s-1.904-1.619-3.046-4.667c-1.143-3.047-.762-4.76-.762-4.76"/><path fill="#F0BB70" d="M34.413 82.955v8.461l-4.712-.264.587-7.93zm-5.687 10.911c-.774-2.383-3.74-1.237-3.74-1.237l-11.745 5.456-9.558-11.4-1.596 1.505 9.97 13.244 11.588-4.444s4.439-.945 5.08-3.124"/><path fill="#F0BB70" d="M1.675 87.272l-1.59-1.609a.49.49 0 01.6-.728l.993.6c.103.081.075-.642-.19-.934C1 84.091.01 84.002.082 83.566c.072-.44.919-.698 1.861-.416a2.894 2.894 0 011.845 2.077c.202.873.267 1.773.192 2.665a.061.061 0 01-.071.05l-.012-.002-1.81.25-.412-.918m24.491 24.058l-2.877 20.855 1.067 18.523 3.197-1.482.064-16.792 4.191-21.25zm8.903-20.017s.346 1.905-2.605 1.722c-2.953-.183-2.667-2.118-2.667-2.118l5.271.396z"/><path fill="#DF71DB" d="M29.777 90.212s-5.143 2.095-5.722 2.906l-.119 36.677 20.507-.254-3.666-37.139-6.428-1.713s.17 1.229-2.164 1.237c-2.233.004-2.408-1.714-2.408-1.714"/><path fill="#0679A4" d="M29.979 86.46s.47 2.791-.735 5.497c-1.377 3.089-2.977 3.997-2.977 3.997s-.99-2.165-.231-4.875c.757-2.709 2.822-5.706 2.822-5.706l1.12 1.087z"/><path fill="#F0BB70" d="M40.17 80.746a7.574 7.574 0 11-7.687-7.457h.124a7.73 7.73 0 012.332.38 7.467 7.467 0 015.23 7.077"/><path fill="#0679A4" d="M34.73 76.595s-4 4.285-11.81 3.618c-.735-.062 1.777-7.98 9.627-7.98 8.144 0 7.8 9.028 7.8 9.028s-5.933 1.694-5.617-4.666"/><path fill="#DF71DB" d="M24.007 149.794h3.413v-3.367l-3.558-.465z"/><path fill="#61A1E7" d="M23.939 148.77s.51.38 1.798.25c1.288-.128 1.722.207 1.722.207l-.12 3.048h-9.01l5.61-3.505z"/><path fill="#F0BB70" d="M37.967 97.163c1.573 1.64 2.285-.38 2.285-.38l13.806-1.599 7.5-16.25-1.167-3.5-8.333 16-14.424.135s-1.24 3.956.333 5.594"/><path fill="#FDD455" d="M65.148 73.05v4.01a.868.868 0 01-1.661.173l-.5-1.986c-.03-.232-.91.713-.921 1.41-.02 1.242 1.112 2.582.48 3.047-.632.465-2.014-.258-2.85-1.782-.921-1.681-.452-3.81.257-4.895 1.226-1.874 2.365-3.101 3.047-3.596a.112.112 0 01.155.015l.013.019 2.585 1.928c.024.004-.597 1.63-.605 1.657"/><path fill="#F0BB70" d="M62.196 77.468s-2.361-2.02-1.325-3.881c.38-.667 2.197.975 2.36 1.718.164.742.03 1.265-.825 1.904l-.21.259zM41.157 96.355l.571 5.237s-4.523-2.285-4.523-7.237 3.952 2 3.952 2"/><path fill="#FDD455" d="M124.968 77.328s.101 5.457-.357 6.71c-.458 1.251-3.428 3.207-3.894 2.631-.465-.575-.078-2.867.313-4.55.389-1.683.496-5.794.496-5.794l3.442 1.003z"/></g></svg>