<svg xmlns="http://www.w3.org/2000/svg" xmlns:xlink="http://www.w3.org/1999/xlink" width="93" height="180"><defs><path id="a" d="M0 .918h12.256v6.75H0z"/><path id="c" d="M.073.063h4.109v11.18H.073z"/></defs><g fill="none" fill-rule="evenodd"><path fill="#F0BB70" d="M21.133 43.455l18.81-7.605L46.207 8 50 9.094l-5.966 29.73L20 50z"/><path fill="#79E7F4" d="M16 44.747L32.604 39 35 44.07 22.334 51z"/><path fill="#DF71DB" d="M76.896 42.358c-1.707 0-3.097 1.562-3.097 3.483s1.39 3.484 3.097 3.484 3.096-1.563 3.096-3.484c0-1.92-1.39-3.483-3.096-3.483m0 8.128c-2.348 0-4.258-2.083-4.258-4.645 0-2.56 1.91-4.644 4.258-4.644s4.257 2.084 4.257 4.644c0 2.562-1.91 4.645-4.257 4.645"/><path fill="#DF71DB" d="M86.138 43.906H65.092c-3.313 0-6 2.451-6 5.474v29.825c0 3.022 2.687 5.472 6 5.472h21.046c3.313 0 6-2.45 6-5.472V49.38c0-3.023-2.687-5.474-6-5.474"/><path fill="#FF8F8F" d="M62.22 117.231l8.407 55.08h3.623l.078-56.46z"/><path fill="#61A1E7" d="M74.25 172.31h-3.623s-4.239.251-4.662 2.51l.062 1.13h8.332l-.109-3.64z"/><path fill="#FF8F8F" d="M75.27 117.231l8.405 55.08h3.623l.079-56.46z"/><path fill="#61A1E7" d="M87.298 172.31h-3.623s-4.238.251-4.661 2.51l.062 1.13h8.332l-.11-3.64z"/><path fill="#0679A4" d="M64.229 88.75v12.233h19.133l-1.067-12.985z"/><path fill="#FF8F8F" d="M69.53 36.87l-.505 18.841 9.29-1.741-1.539-16.724z"/><path fill="#61A1E7" d="M56.834 54.356c2.008-5.709 12.476-9.455 12.476-9.455s-.704 7.714 3.763 7.714 4.517-7.714 4.517-7.714 12.623 4.424 12.623 15.81l-2.398.437-.502 1.255.548 32.922-24.77-2.846-4.468-12.9 2.47-13.386-4.83-5.483s-.029-4.647.571-6.354"/><path fill="#0679A4" d="M60.318 80.481l-4.063-.715.006-19.056 6.775 1.128zm27.544 14.844v36.373H77.257l-3-19.373.5 19.373h-11.15l-6.85-40.373z"/><path fill="#DF71DB" d="M82.12 47.196l1.317 14.643.893 8.5s-3.307-.566-3.37-5.339l-1.646-19.4 2.806 1.596zM63.036 61.839l1.732-14.965 2.903-1.354s-2.16 19.04-2.645 21.092c-.58 2.468-3.193 3.242-3.193 3.242l1.203-8.015z"/><path fill="#79E7F4" d="M83.417 172.337h4.058v-6.322h-4.774zm-13.03 0h4.058v-6.322H69.67z"/><path fill="#61A1E7" d="M25.881 88.7l3.808 37.62-4.062 46.146-4.678-3.057-.116-42.584-7.704-36.829z"/><path fill="#DF71DB" d="M26.208 168.918s-1.09 1.386-2.896 1.087c-1.806-.298-2.75-.596-2.75-.596l.163 6.26h14.586l-9.103-6.751z"/><path fill="#61A1E7" d="M17.006 89.45L5.153 172.466 0 169.41l4.5-86.22z"/><g transform="translate(0 168)"><mask id="b" fill="#fff"><use xlink:href="#a"/></mask><path fill="#DF71DB" d="M5.928.918s-1.93 1.386-3.734 1.087C.387 1.707 0 1.409 0 1.409l.323 6.26h11.933L5.928.918z" mask="url(#b)"/></g><path fill="#F0BB70" d="M4.696 29.583c0 6.022 4.963 10.903 11.085 10.903 6.122 0 11.086-4.881 11.086-10.903 0-6.021-4.964-10.903-11.086-10.903-1.19 0-2.338.184-3.413.526-4.452 1.416-7.672 5.526-7.672 10.377"/><path fill="#F0BB70" d="M11.757 32.94v12.384l8.515-.387-1.065-11.61z"/><path fill="#79E7F4" d="M24.923 44.325s2.166 7.833 2.666 12.167c.5 4.333-1.021 7.253-1.083 10 0 0-.23 24.21.75 23.833l-23-.75S1.274 67.322.693 57.84c-.581-9.483 10.161-12.903 11.064-12.774.903.13 13.166-.74 13.166-.74"/><path fill="#F0BB70" d="M11.757 45.066s-.556 4.71 4.218 4.452c4.773-.258 4.297-5.035 4.297-5.035l-8.515.583z"/><path fill="#FDD455" d="M81.393 97.811C83.23 115.973 56.483 180 56.483 180s-39.025-57.373-40.862-75.535C13.784 86.302 27.018 70.09 45.18 68.251c18.162-1.836 34.375 11.398 36.213 29.56"/><path fill="#61A1E7" d="M73.796 98.741c1.411 13.958-8.759 26.418-22.717 27.83-13.958 1.411-26.418-8.759-27.83-22.717-1.411-13.958 8.759-26.418 22.717-27.83 13.958-1.412 26.418 8.76 27.83 22.717"/><path fill="#FDD455" d="M68.149 99.312c1.097 10.84-6.802 20.515-17.641 21.611-10.838 1.097-20.514-6.8-21.611-17.64-1.097-10.84 6.802-20.515 17.64-21.612 10.84-1.096 20.515 6.802 21.612 17.641"/><path fill="#61A1E7" d="M36.995 96.383l.921-.093.427 4.216 2.111-.214.074.734-3.032.306zm7.675 1.742l-.007-.056c-.102-1.018-.746-1.715-1.716-1.617-.968.098-1.47.869-1.363 1.936l.006.055c.11 1.079.837 1.712 1.736 1.62.935-.094 1.451-.866 1.343-1.938m-4.04.422l-.006-.056c-.146-1.447.783-2.625 2.25-2.773 1.476-.15 2.598.794 2.745 2.247l.006.056c.146 1.447-.733 2.632-2.236 2.785-1.516.153-2.615-.833-2.759-2.26m5.634-.568l-.006-.056c-.15-1.489.769-2.632 2.147-2.77 1.135-.115 2.072.364 2.299 1.514l-.934.096c-.17-.647-.571-.95-1.284-.879-.872.09-1.372.826-1.26 1.934l.006.056c.112 1.114.712 1.716 1.626 1.626.685-.072 1.135-.465 1.16-1.174l.9-.091c-.023 1.205-.807 1.89-1.985 2.01-1.55.157-2.516-.745-2.67-2.266m6.418-.098l1.46-.147-.96-2.225-.5 2.373zm-.122-3.071l1.205-.121 2.135 4.783-.956.097-.52-1.186-1.888.19-.264 1.266-.865.088 1.153-5.117zm3.592-.364l.922-.093.426 4.216 2.111-.214.075.734-3.032.306zm-19.167 12.863l-.006-.057c-.148-1.474.77-2.63 2.216-2.776 1.06-.106 2.05.282 2.3 1.453l-.92.094c-.178-.648-.65-.887-1.292-.82-.97.097-1.457.874-1.348 1.96l.006.055c.107 1.06.672 1.737 1.71 1.633.928-.094 1.252-.694 1.21-1.382l-1.245.126-.07-.692 2.152-.219.046.457c.138 1.37-.635 2.288-2.034 2.43-1.585.16-2.578-.802-2.725-2.262m7.253-.952c.617-.062.916-.357.861-.884l-.003-.027c-.056-.568-.428-.727-1.017-.667l-.74.075.16 1.578.74-.075zm-1.892-2.122l1.661-.169c1.087-.109 1.892.257 1.995 1.268l.004.026c.078.775-.367 1.22-.966 1.441l1.607 1.998-.998.101-1.495-1.869-.59.06.203 2-.922.093-.5-4.949zm8.511 1.656l-.006-.055c-.103-1.017-.748-1.714-1.716-1.616-.968.098-1.471.869-1.363 1.934l.005.055c.109 1.08.838 1.713 1.737 1.623.936-.094 1.45-.868 1.343-1.94m-4.041.422l-.006-.056c-.146-1.446.782-2.625 2.25-2.773 1.476-.15 2.599.794 2.745 2.248l.006.055c.147 1.447-.733 2.633-2.235 2.785-1.517.153-2.615-.832-2.76-2.258m5.897-.031l-.31-3.066.928-.094.303 2.998c.092.906.421 1.25 1.155 1.176.713-.073 1.04-.427.937-1.45l-.297-2.937.928-.094.304 3.011c.131 1.295-.497 2.08-1.804 2.211-1.24.126-2.015-.48-2.144-1.755m6.572-1.336c.61-.062.906-.393.851-.939l-.003-.029c-.06-.588-.429-.78-1.019-.72l-.67.066.17 1.69.671-.068zm-1.834-2.24l1.592-.162c1.108-.113 1.884.306 1.99 1.343l.002.03c.105 1.045-.602 1.584-1.662 1.691l-.692.07.191 1.882-.92.094-.5-4.949z"/><path fill="#FF8F8F" d="M84.66 30.78c0 6.217-5.126 11.257-11.447 11.257-6.322 0-11.447-5.04-11.447-11.258 0-6.218 5.125-11.259 11.447-11.259 1.23 0 2.414.192 3.524.544 4.597 1.462 7.922 5.706 7.922 10.715"/><path fill="#FF8F8F" d="M84.47 30.216s1.69 2.659 1.69 3.19c0 .75-3.377.75-3.377.75l1.688-3.94z"/><path fill="#0679A4" d="M81.43 22.922s-5.402 10.108-12.157 7.857c-2.41-.803-1.501.375-1.501.375l-1.86 8.286s-2.666-2.007-3.646-5.395c-1.13-3.903-.315-9.87 4.313-12.654 8.525-5.13 14.852 1.53 14.852 1.53"/><path fill="#FF8F8F" d="M65.895 31.342c0 1.348.925 2.439 2.064 2.439 1.14 0 2.064-1.091 2.064-2.44 0-1.346-.924-2.438-2.064-2.438-1.14 0-2.064 1.092-2.064 2.439"/><path fill="#FDD455" d="M62.506 26.2h22s-3.125-7.25-11-7.25c-9.125 0-11 7.25-11 7.25"/><path fill="#F0BB70" d="M72.339 26.075s4.792 5.25 16.792 2.5L84.506 26.2l-12.167-.125z"/><path fill="#FF8F8F" d="M65.08 86.209s-4.526-1.644-5.104-1.11c-.58.532 1.183 1.627 1.183 1.627s-4.143 1.72-4.839 2.642c-.695.92 2.77 2.386 5.267 2.43 2.497.045 5.055-2.435 5.055-2.435l-.293-3.196-1.269.042z"/><path fill="#0679A4" d="M66.131 90.2l23.294-9.639.788-19.85-6.775 1.128 1.586 14.917-20.768 9.32z"/><path fill="#F0BB70" d="M2.876 66.258l4.976 18.755 28.991.62.538-2.933-24.973-2.672-2.677-13.68z"/><path fill="#79E7F4" d="M1.006 58.45l3.75 17 6.792-3.245-1.296-10.633z"/><path fill="#F0BB70" d="M36.683 82.088s3.785-2.978 4.502-2.652c.716.325-.616 1.916-.616 1.916s4.473.339 5.422.997c.949.657-1.884 3.133-4.243 3.955-2.357.823-5.563-.733-5.563-.733l-.72-3.128 1.218-.355z"/><path fill="#DF71DB" d="M12.423 23.075s-.985 1.924-.417 6.917c.568 4.992 1.667 6.666 1.667 6.666H3.848s-1.092-5.833.575-10c1.666-4.166 6-8.666 12-8.166s8.666 4.75 8.666 4.75-3.083 2.25-6.333-.167c-2.945-2.19-6.333 0-6.333 0"/><path fill="#DF71DB" d="M19.839 21.908s-1.416 7.75-8.5 7c-3.249-.344-1-7.166-1-7.166l4.917-.834 4.583 1z"/><path fill="#F0BB70" d="M26.638 28.55s1.688 2.659 1.688 3.189c0 .75-3.376.75-3.376.75l1.688-3.94z"/><g transform="translate(46)"><mask id="d" fill="#fff"><use xlink:href="#c"/></mask><path fill="#F0BB70" d="M4.176 8.47C3.38 4.638 4.566.68 4.044.337c-.522-.343-1.412-.538-2.097.507C1.26 1.889-.82 6.027.506 9.2c1.325 3.174 2.819 1.703 2.819 1.703l.85-2.433z" mask="url(#d)"/></g><path fill="#F0BB70" d="M48.219 8.288s2.51-3.357 3.287-3.213c.777.145-1.833 4.583-1.833 4.583l-1.454-1.37z"/></g></svg>