<svg xmlns="http://www.w3.org/2000/svg" width="39" height="42"><g fill="none" fill-rule="evenodd"><path stroke="#0F91C2" stroke-width="1.5" d="M37.291 22.99c0 9.85-7.985 17.836-17.836 17.836-9.85 0-17.835-7.985-17.835-17.835 0-9.851 7.985-17.836 17.835-17.836 9.851 0 17.836 7.985 17.836 17.836z"/><path fill="#0F91C2" d="M24.772 5.488a5.315 5.315 0 01-5.316 5.316 5.315 5.315 0 110-10.631 5.315 5.315 0 015.316 5.315m-12.149 30.76a5.316 5.316 0 11-10.631 0 5.316 5.316 0 0110.631 0m24.297 0a5.316 5.316 0 11-10.631 0 5.316 5.316 0 0110.631 0"/><path stroke="#0F91C2" stroke-width="1.5" d="M26.515 29.402l-7.06-6.652-7.059 6.652m7.059-6.652v-8.215"/></g></svg>