<svg xmlns="http://www.w3.org/2000/svg" xmlns:xlink="http://www.w3.org/1999/xlink" width="420" height="228"><defs><path id="a" d="M0 .959h59.229v38.997H0z"/><path id="c" d="M.311.72h33.011v49.475H.311z"/><path id="e" d="M.205.033h16.483V32H.205z"/><path id="g" d="M.899.437h247.535v158.042H.899z"/></defs><g fill="none" fill-rule="evenodd"><g transform="translate(0 59)"><mask id="b" fill="#fff"><use xlink:href="#a"/></mask><path fill="#FDD455" d="M52.437 39.956H6.792A6.792 6.792 0 010 33.164V7.751A6.792 6.792 0 016.792.958h45.645a6.792 6.792 0 016.792 6.793v25.413a6.792 6.792 0 01-6.792 6.792" mask="url(#b)"/></g><path fill="#FFF" d="M29.913 85.185L7 72.497 7.827 71l22.086 12.231L52 71l.828 1.497z"/><g transform="translate(386 54)"><mask id="d" fill="#fff"><use xlink:href="#c"/></mask><path fill="#F0BB70" d="M27.085 26.095l-5.443-5.648c3.988-1.365 5.315-5.136 5.315-9.587 0-5.6-4.541-10.14-10.14-10.14-5.6 0-10.14 4.54-10.14 10.14 0 4.451 1.326 8.222 5.315 9.587l-5.444 5.648a16.794 16.794 0 00-6.237 13.06v11.04h33.011v-11.04a16.79 16.79 0 00-6.237-13.06" mask="url(#d)"/></g><path fill="#FDD455" d="M387.774 80.375l-5.443-5.648c3.988-1.365 5.314-5.136 5.314-9.587 0-5.6-4.54-10.14-10.14-10.14-5.599 0-10.139 4.54-10.139 10.14 0 4.451 1.326 8.222 5.314 9.587l-5.443 5.648A16.79 16.79 0 00361 93.435v11.04h33.01v-11.04c0-5.072-2.292-9.872-6.236-13.06"/><g transform="translate(173 196)"><mask id="f" fill="#fff"><use xlink:href="#e"/></mask><path fill="#61A1E7" d="M5.012 17.703H.205V12.02h4.807V7.524c0-2.372.667-4.213 1.998-5.524C8.342.688 10.112.032 12.318.032c1.79 0 3.246.085 4.37.25V5.34h-2.996c-1.124 0-1.895.25-2.311.75-.334.417-.5 1.082-.5 1.998v3.933h5.308l-.75 5.681h-4.557v14.299h-5.87V17.703z" mask="url(#f)"/></g><path fill="#79E7F4" d="M243.721 206.305c0 2.997-.729 5.891-2.186 8.679-1.498 2.955-3.599 5.307-6.306 7.055-2.954 1.956-6.347 2.935-10.176 2.935-3.663 0-7.014-.979-10.053-2.935.458.041.979.063 1.562.063 3.038 0 5.764-.937 8.179-2.81-1.457 0-2.737-.427-3.84-1.279-1.104-.854-1.864-1.926-2.28-3.216.416.041.813.062 1.187.062.583 0 1.166-.062 1.748-.187-1.498-.334-2.746-1.103-3.746-2.31-.999-1.207-1.498-2.581-1.498-4.121v-.125a6.161 6.161 0 002.933.875 7.273 7.273 0 01-2.122-2.373c-.542-.958-.811-2.008-.811-3.154 0-1.144.312-2.237.936-3.277a18.086 18.086 0 005.962 4.87 18.146 18.146 0 007.525 1.997 9.111 9.111 0 01-.126-1.497c0-1.167.292-2.259.875-3.278a6.403 6.403 0 012.372-2.404c1-.584 2.081-.875 3.247-.875.957 0 1.842.189 2.653.562a7.435 7.435 0 012.154 1.499 13.35 13.35 0 004.183-1.561c-.499 1.54-1.457 2.747-2.872 3.62a14.006 14.006 0 003.746-1.06 14.391 14.391 0 01-3.308 3.434c.041.166.062.436.062.811"/><g transform="translate(85)"><mask id="h" fill="#fff"><use xlink:href="#g"/></mask><path fill="#0F91C2" d="M238.434 158.479H10.899c-5.524 0-10-4.478-10-10V10.437c0-5.523 4.476-10 10-10h227.535c5.523 0 10 4.477 10 10v138.042c0 5.522-4.477 10-10 10" mask="url(#h)"/></g><path fill="#FF8F8F" d="M110.473 19.236a5.235 5.235 0 01-5.236 5.236 5.236 5.236 0 110-10.472 5.236 5.236 0 015.236 5.236"/><path fill="#FDD455" d="M128.473 19.236a5.235 5.235 0 01-5.236 5.236 5.236 5.236 0 110-10.472 5.236 5.236 0 015.236 5.236"/><path fill="#7AF5A3" d="M146.473 19.236a5.235 5.235 0 01-5.236 5.236 5.236 5.236 0 110-10.472 5.236 5.236 0 015.236 5.236"/><path fill="#FFF" d="M252.408 79.704c0 23.585-19.119 42.704-42.704 42.704S167 103.289 167 79.704 186.119 37 209.704 37s42.704 19.119 42.704 42.704"/><path fill="#0F91C2" d="M198.442 78.517v-.184c0-3.383-1.887-5.892-5.109-5.892-3.224 0-5.134 2.37-5.134 5.915v.183c0 3.591 2.187 5.917 5.179 5.917 3.108 0 5.064-2.371 5.064-5.939M185 78.564v-.186c0-4.809 3.453-8.378 8.333-8.378 4.903 0 8.286 3.477 8.286 8.311v.184c0 4.811-3.291 8.424-8.286 8.424-5.042 0-8.333-3.613-8.333-8.355m25.525-.945c2.049 0 3.13-.876 3.13-2.624v-.092c0-1.888-1.175-2.532-3.13-2.532h-2.465v5.248h2.465zM205 70h5.525c3.614 0 6.146 1.473 6.146 4.834v.092c0 2.579-1.612 3.89-3.661 4.419l4.626 7.113h-3.313l-4.306-6.652h-1.957v6.652H205V70zm14 8.586V78.4c0-4.901 3.407-8.4 8.217-8.4 3.521 0 6.654 1.611 7.091 5.548h-3.061c-.37-2.188-1.843-3.132-3.983-3.132-3.222 0-5.087 2.395-5.087 6.009v.183c0 3.522 1.635 5.94 5.087 5.94 3.085 0 4.35-1.865 4.442-4.144h-4.143v-2.301h7.159v1.517c0 4.559-2.855 7.321-7.505 7.321-5.271 0-8.217-3.499-8.217-8.355"/><path stroke="#FDD455" stroke-width="1.5" d="M210 8v19.686"/><path stroke="#79E7F4" stroke-width="1.5" d="M210 131v49.601M351.685 79H261m-102.211 0H70"/><path stroke="#FDD455" stroke-width="1.5" d="M175 18l9.842 17.048M236 124l9.843 17.048M272.048 44L255 53.842M166.048 105L149 114.843M149 44l17.048 9.842M255 105l17.048 9.843M245.843 18L236 35.048M184.842 124L175 141.048"/></g></svg>