<svg xmlns="http://www.w3.org/2000/svg" xmlns:xlink="http://www.w3.org/1999/xlink" width="276" height="160" viewBox="0 0 276 160">
    <defs>
        <path id="a" d="M.186.692h55.706v55.706H.186z"/>
        <path id="c" d="M.352.915H120.29v21.887H.352z"/>
        <path id="e" d="M0 159.085h275.892V1H0z"/>
    </defs>
    <g fill="none" fill-rule="evenodd">
        <path stroke="#0679A4" stroke-width="1.5" d="M29 91v35.688c0 5.166 4.364 9.354 9.749 9.354h45.084M49.219 90.707l-40.91-.132A7.334 7.334 0 0 1 1 83.219l.133-40.91A7.333 7.333 0 0 1 8.489 35l40.91.132a7.332 7.332 0 0 1 7.308 7.356l-.132 40.91a7.333 7.333 0 0 1-7.356 7.309z"/>
        <path fill="#F0BB70" d="M11 63.676c-.032 9.794 8.015 17.76 17.972 17.792 9.957.032 18.054-7.882 18.087-17.676.031-9.794-8.016-17.76-17.973-17.792a18.29 18.29 0 0 0-5.555.84c-7.248 2.278-12.506 8.947-12.53 16.836"/>
        <path fill="#0679A4" d="M47.147 62.947s-6.06-6.154-6.881-11.822c0 0-5.406 2.39-10.47 2.016-5.064-.374-10.488-2.974-10.994-3.164-.344-.129.396 3.857-1.964 6.898C14.423 59.99 11 61.172 11 61.172c.015-4.855 4.275-18.218 18.505-18.172 11.219.036 18.114 7.435 17.642 19.947"/>
        <g transform="translate(220 34)">
            <mask id="b" fill="#fff">
                <use xlink:href="#a"/>
            </mask>
            <path fill="#79E7F4" d="M48.56 56.398H7.518a7.332 7.332 0 0 1-7.332-7.332V8.024A7.331 7.331 0 0 1 7.518.692H48.56a7.332 7.332 0 0 1 7.332 7.332v41.042a7.332 7.332 0 0 1-7.332 7.332" mask="url(#b)"/>
        </g>
        <path fill="#DF71DB" d="M227 61.508l1.07 13.702h40.248l.428-13.273s-11.988-13.274-17.127-13.916C246.481 47.38 227 61.508 227 61.508"/>
        <path fill="#F0BB70" d="M230 64.095c0 9.992 8.236 18.094 18.396 18.094 10.159 0 18.395-8.102 18.395-18.094 0-9.993-8.236-18.095-18.395-18.095-1.977 0-3.88.307-5.666.874-7.387 2.35-12.73 9.171-12.73 17.221"/>
        <path fill="#DF71DB" d="M250.579 50.609s-12.024 13.054-22.137 13.054C226.648 63.662 229.728 43 248.802 43c19.784 0 20.73 19.17 20.73 19.17s-10.424 7.707-18.953-11.561"/>
        <path fill="#79E7F4" d="M190.99 124.281H86.947A7.947 7.947 0 0 1 79 116.334V22h119.937v94.334a7.947 7.947 0 0 1-7.947 7.947"/>
        <g transform="translate(78)">
            <mask id="d" fill="#fff">
                <use xlink:href="#c"/>
            </mask>
            <path fill="#0F91C2" d="M120.29 22.802H.352V8.862A7.948 7.948 0 0 1 8.3.916h104.043a7.948 7.948 0 0 1 7.947 7.948v13.939z" mask="url(#d)"/>
        </g>
        <path fill="#79E7F4" d="M189.761 15.463h-49.928A1.834 1.834 0 0 1 138 13.629V9.834c0-1.013.821-1.834 1.833-1.834h49.928c1.012 0 1.833.821 1.833 1.834v3.795a1.834 1.834 0 0 1-1.833 1.834"/>
        <path fill="#FFF" d="M95.782 11.892a5.892 5.892 0 1 1-11.784 0 5.892 5.892 0 0 1 11.784 0"/>
        <mask id="f" fill="#fff">
            <use xlink:href="#e"/>
        </mask>
        <path fill="#0F91C2" d="M99 56.462h78.186V49H99zM99 77.462h50.684V70H99zM183.055 134.026c0 13.822-11.205 25.027-25.027 25.027-13.823 0-25.028-11.205-25.028-25.027C133 120.204 144.205 109 158.028 109c13.822 0 25.027 11.204 25.027 25.026" mask="url(#f)"/>
        <path fill="#FDD455" d="M165.208 131.604a6.61 6.61 0 0 0-7.93-6.475c-2.63.511-4.723 2.665-5.177 5.305-.334 1.941.181 3.756 1.234 5.145 1.081 1.425 1.771 3.108 1.771 4.898v.01h6.996v-.016c0-1.716.561-3.392 1.641-4.726a6.555 6.555 0 0 0 1.465-4.14" mask="url(#f)"/>
        <path fill="#0679A4" d="M154 145.277h9.435V143H154zM161.345 147a3.172 3.172 0 1 1-6.345 0h6.345z" mask="url(#f)"/>
        <path stroke="#FDD455" stroke-width="1.5" d="M148.96 132H143M173.959 132H168M158 116v5.959M169.214 121L165 125.214M147 121l4.214 4.214" mask="url(#f)"/>
        <path fill="#FDD455" d="M144.055 134.026c0 13.822-11.205 25.027-25.027 25.027-13.823 0-25.028-11.205-25.028-25.027C94 120.204 105.205 109 119.028 109c13.822 0 25.027 11.204 25.027 25.026" mask="url(#f)"/>
        <path stroke="#0F91C2" stroke-width="1.5" d="M105 132.7l10.107 10.107L132.915 125" mask="url(#f)"/>
        <path stroke="#0679A4" stroke-width="1.5" d="M248.822 101v25.688c0 5.166-4.364 9.354-9.748 9.354H183" mask="url(#f)"/>
        <path fill="#0679A4" d="M85.778 136.068L77 131v10.136zM248.068 99L243 107.778h10.136z" mask="url(#f)"/>
    </g>
</svg>
