<svg xmlns="http://www.w3.org/2000/svg" xmlns:xlink="http://www.w3.org/1999/xlink" width="235" height="213"><defs><path id="a" d="M0 212.329h234.961V0H0z"/></defs><g fill="none" fill-rule="evenodd"><path fill="#FDD455" d="M33.09 115.79l-25.782-.084A7.332 7.332 0 010 108.35l.083-25.782A7.331 7.331 0 017.44 75.26l25.782.083a7.332 7.332 0 017.308 7.355l-.083 25.782a7.332 7.332 0 01-7.356 7.31"/><path fill="#FF8F8F" d="M7.17 95.85c-.024 7.128 5.832 12.925 13.08 12.949 7.245.023 13.14-5.736 13.162-12.864.023-7.128-5.833-12.925-13.08-12.95-1.41-.004-2.768.21-4.043.612-5.274 1.658-9.1 6.512-9.12 12.253"/><path fill="#0679A4" d="M33.412 95.935s-4.41-4.48-5.008-8.604c0 0-3.934 1.739-7.62 1.467-3.685-.272-7.633-2.165-8-2.302-.252-.094.287 2.806-1.43 5.02-1.757 2.266-4.25 3.127-4.25 3.127.012-3.534 3.112-13.26 13.468-13.226 8.165.027 13.183 5.412 12.84 14.518"/><path fill="#DF71DB" d="M33.09 180.801l-25.782-.083A7.332 7.332 0 010 173.362l.083-25.782a7.331 7.331 0 017.356-7.308l25.782.083a7.332 7.332 0 017.308 7.355l-.083 25.782a7.332 7.332 0 01-7.356 7.31"/><path fill="#FF8F8F" d="M7.02 160.621c-.022 7.256 5.937 13.157 13.314 13.181 7.377.023 13.375-5.839 13.399-13.095.023-7.255-5.938-13.156-13.314-13.18a13.536 13.536 0 00-4.115.621c-5.37 1.69-9.264 6.63-9.284 12.473"/><path fill="#0679A4" d="M33.902 160.086s-8.878-3.834-9.486-8.033c0 0-6.477 7.87-17.781 6.628 0 0 2.448-11.65 12.704-11.617 9.028.03 14.122 5.404 14.563 13.022m65.439 52.243l-25.782-.083a7.332 7.332 0 01-7.309-7.355l.083-25.783a7.332 7.332 0 017.356-7.308l25.782.083a7.331 7.331 0 017.308 7.356l-.083 25.782a7.332 7.332 0 01-7.355 7.308"/><path fill="#61A1E7" d="M94.565 188.918a5.362 5.362 0 1010.725.035 5.363 5.363 0 00-10.725-.035"/><path fill="#FF8F8F" d="M73.145 192.15c-.023 7.254 5.937 13.155 13.314 13.18 7.376.023 13.375-5.84 13.399-13.095.023-7.255-5.938-13.157-13.314-13.18a13.567 13.567 0 00-4.115.621c-5.37 1.688-9.264 6.63-9.284 12.473"/><path fill="#61A1E7" d="M99.844 190.606s-8.54-2.515-9.149-6.713c0 0-10.606 10.963-21.91 9.722 0 0 2.962-14.68 16.02-14.638 9.026.029 13.741 4.24 15.04 11.629"/><path fill="#79E7F4" d="M227.523 40.53l-25.782-.084a7.332 7.332 0 01-7.31-7.355l.084-25.783A7.333 7.333 0 01201.87 0l25.782.083a7.331 7.331 0 017.308 7.356l-.083 25.782a7.331 7.331 0 01-7.355 7.308"/><path fill="#DF71DB" d="M199.544 19.448l.745 9.951 29.222.095.343-9.636s-8.674-9.665-12.404-10.145c-3.728-.477-17.906 9.736-17.906 9.736"/><path fill="#F0BB70" d="M201.338 20.85c-.023 7.254 5.937 13.156 13.314 13.18 7.376.023 13.375-5.839 13.4-13.095.022-7.255-5.939-13.157-13.316-13.18a13.534 13.534 0 00-4.114.621c-5.37 1.69-9.265 6.63-9.284 12.473"/><path fill="#DF71DB" d="M216.119 11.42s-8.762 9.45-16.103 9.425c-1.302-.004.982-15 14.83-14.955 14.364.046 15.007 13.967 15.007 13.967s-7.588 5.571-13.734-8.438"/><path fill="#FF8F8F" d="M227.523 101.467l-25.782-.083a7.332 7.332 0 01-7.31-7.356l.084-25.782a7.332 7.332 0 017.356-7.308l25.782.083a7.331 7.331 0 017.308 7.356l-.083 25.781a7.331 7.331 0 01-7.355 7.31"/><path fill="#0679A4" d="M213.984 91.308c-8.692-.365-15.421-8.25-15.027-17.61.394-9.36 7.76-16.652 16.453-16.286 8.693.365 15.42 8.25 15.027 17.61-.393 9.36-7.76 16.652-16.453 16.286"/><path fill="#F0BB70" d="M227.121 83.587c0 6.69-5.514 12.113-12.315 12.113-6.802 0-12.316-5.423-12.316-12.113 0-6.69 5.514-12.114 12.316-12.114 1.323 0 2.597.206 3.792.586 4.946 1.572 8.523 6.14 8.523 11.528"/><path fill="#0679A4" d="M208.23 72.24s1.475 6.041-6.042 9.285c-5.44 2.346 2.21-9.139 2.21-9.139l3.833-.146zm12.312 0s-1.474 6.041 6.043 9.285c5.44 2.346-2.21-9.139-2.21-9.139l-3.833-.146z"/><path fill="#0679A4" d="M206.905 72.387s1.474 2.505 7.516 2.505c6.043 0 9.579-2.652 9.579-2.652l-13.264-2.358-3.831 2.505z"/><path fill="#79E7F4" d="M172.426 154.708H68.44a7.943 7.943 0 01-7.944-7.943V52.481H180.37v94.284a7.943 7.943 0 01-7.943 7.943"/><path fill="#0679A4" d="M180.37 53.39H60.494V39.456a7.943 7.943 0 017.943-7.943h103.988a7.944 7.944 0 017.943 7.943V53.39z"/><path fill="#FDD455" d="M171.386 46.181h-49.898a1.833 1.833 0 01-1.833-1.833v-3.792c0-1.013.82-1.833 1.833-1.833h49.898c1.013 0 1.833.82 1.833 1.833v3.792c0 1.012-.82 1.833-1.833 1.833"/><path fill="#FFF" d="M78.19 42.452a5.889 5.889 0 11-11.778-.001 5.889 5.889 0 0111.778 0"/><mask id="b" fill="#fff"><use xlink:href="#a"/></mask><path fill="#0F91C2" d="M81.359 87.205h78.145v-7.459H81.359zm.001 20.68h50.657v-7.458H81.36z" mask="url(#b)"/><path fill="#FDD455" d="M170.838 112.343c1.892 3.985 6.903 5.328 10.533 2.823 4.968-3.428 11.687.451 11.202 6.467-.355 4.397 3.314 8.065 7.711 7.71 6.016-.485 9.895 6.235 6.467 11.202-2.506 3.631-1.163 8.642 2.822 10.533 5.453 2.588 5.453 10.347 0 12.934-3.985 1.892-5.328 6.903-2.822 10.534 3.428 4.967-.45 11.687-6.467 11.201-4.397-.354-8.066 3.314-7.71 7.711.484 6.016-6.235 9.895-11.203 6.468-3.63-2.506-8.64-1.164-10.533 2.822-2.587 5.452-10.347 5.452-12.934 0-1.89-3.986-6.903-5.328-10.533-2.823v.001c-4.968 3.427-11.687-.452-11.202-6.468.355-4.397-3.313-8.065-7.71-7.71-6.017.485-9.895-6.235-6.468-11.202 2.506-3.63 1.163-8.642-2.822-10.534-5.452-2.587-5.452-10.346 0-12.934 3.985-1.89 5.328-6.902 2.822-10.533-3.427-4.967.451-11.687 6.467-11.202 4.398.355 8.066-3.313 7.711-7.71-.485-6.016 6.234-9.895 11.202-6.468v.001c3.63 2.505 8.642 1.162 10.533-2.823 2.587-5.452 10.347-5.452 12.934 0" mask="url(#b)"/><path stroke="#0679A4" stroke-width="1.5" d="M190.375 149.46a27.231 27.231 0 011.221 8.085c0 15.036-12.19 27.225-27.225 27.225-15.036 0-27.225-12.19-27.225-27.225 0-15.035 12.19-27.224 27.225-27.224 4.615 0 8.962 1.149 12.771 3.175" mask="url(#b)"/><path stroke="#0679A4" stroke-width="1.5" d="M148.666 152.593l12.48 12.479 25.343-25.343" mask="url(#b)"/></g></svg>