<svg xmlns="http://www.w3.org/2000/svg" xmlns:xlink="http://www.w3.org/1999/xlink" width="236" height="236" viewBox="0 0 236 236">
    <defs>
        <path id="a" d="M0 0h236v236H0z"/>
        <path id="c" d="M0 236h236V0H0z"/>
    </defs>
    <g fill="none" fill-rule="evenodd">
        <path fill="#79E7F4" d="M187.865 195.197H48.135a7.333 7.333 0 0 1-7.332-7.332V48.135a7.333 7.333 0 0 1 7.333-7.331h139.729a7.332 7.332 0 0 1 7.332 7.332v139.729a7.332 7.332 0 0 1-7.332 7.332"/>
        <path fill="#DF71DB" d="M90.715 116.619l1.4 17.91h52.61l.56-17.35s-15.672-17.35-22.388-18.19c-6.716-.839-32.182 17.63-32.182 17.63"/>
        <path fill="#F0BB70" d="M93.954 119.13c0 13.063 10.767 23.652 24.047 23.652 13.279 0 24.044-10.589 24.044-23.652s-10.765-23.65-24.044-23.65c-2.585 0-5.073.4-7.406 1.141-9.656 3.071-16.64 11.988-16.64 22.51"/>
        <path fill="#DF71DB" d="M120.508 102.068S104.79 119.13 91.572 119.13c-2.345 0 1.681-27.01 26.613-27.01 25.86 0 27.1 25.059 27.1 25.059s-13.628 10.075-24.777-15.111"/>
        <mask id="b" fill="#fff">
            <use xlink:href="#a"/>
        </mask>
        <path fill="#0F91C2" d="M118 64.852c-29.354 0-53.148 23.795-53.148 53.148S88.646 171.148 118 171.148c29.353 0 53.147-23.795 53.147-53.148S147.353 64.852 118 64.852M236 118c0 65.17-52.83 118-118 118S0 183.17 0 118 52.83 0 118 0s118 52.83 118 118" mask="url(#b)"/>
        <path fill="#0679A4" d="M87.683 37.356a2.639 2.639 0 0 0-2.639-2.639H61.059a2.64 2.64 0 0 0-2.64 2.64v5.753h29.264v-5.754z"/>
        <path fill="#FFF" d="M58.42 43.11v16.24a2.64 2.64 0 0 0 2.64 2.64h23.984a2.639 2.639 0 0 0 2.64-2.64V43.11H58.418zM63.613 38.715h-.008a.888.888 0 0 1-.888-.889v-5.793c0-.49.397-.889.888-.889h.008a.89.89 0 0 1 .89.89v5.792a.89.89 0 0 1-.89.89M82.498 38.715h-.009a.889.889 0 0 1-.888-.889v-5.793c0-.49.398-.889.888-.889h.01c.49 0 .888.398.888.89v5.792a.889.889 0 0 1-.889.89"/>
        <path stroke="#0F91C2" stroke-width="1.5" d="M65.768 49.559h14.567M68.55 54.33h9.004"/>
        <path fill="#FFF" d="M132.235 30.75c-1.303 2.064-1.524 5.036-.241 7.09a60.41 60.41 0 0 0 19.338 19.338c2.054 1.284 5.025 1.062 7.089-.242l1.01-.796.002-.001 1.292-1.292.71-.711a2.79 2.79 0 0 0 0-3.946l-3.722-3.723a2.79 2.79 0 0 0-3.947 0l-1.052 1.053a2.198 2.198 0 0 1-2.947.146 60.45 60.45 0 0 1-8.261-8.262 2.195 2.195 0 0 1 .145-2.946l1.053-1.053a2.79 2.79 0 0 0 0-3.946l-3.723-3.723a2.79 2.79 0 0 0-3.946 0l-2.8 3.015z"/>
        <path stroke="#0679A4" stroke-width="1.5" d="M157.308 42.968a8.478 8.478 0 1 0-11.066-11.067M161.767 43.824c1.498-4.51.471-9.672-3.119-13.263-3.59-3.59-8.752-4.616-13.263-3.118"/>
        <path fill="#FFF" d="M210.408 110.609h-23.612a1.651 1.651 0 0 1-1.651-1.65v-28.74c0-.911.74-1.651 1.65-1.651h23.613c.912 0 1.65.74 1.65 1.65v28.74a1.65 1.65 0 0 1-1.65 1.65"/>
        <mask id="d" fill="#fff">
            <use xlink:href="#c"/>
        </mask>
        <path fill="#0679A4" d="M190.813 80.454h15.577v-3.582h-15.577z" mask="url(#d)"/>
        <path stroke="#0F91C2" stroke-width="1.5" d="M190.091 87.996l1.675 1.675 3.164-3.164M197.98 89.05h9.133M190.091 95.125l1.675 1.675 3.164-3.164M197.98 96.18h9.133M190.091 102.254l1.675 1.675 3.164-3.164M197.98 103.308h9.133" mask="url(#d)"/>
        <path fill="#0679A4" d="M200.558 77.212a1.957 1.957 0 1 1-3.913.001 1.957 1.957 0 0 1 3.913 0" mask="url(#d)"/>
        <path fill="#FFF" d="M97.588 201.971h-3.27v-3.866h3.27v-3.06c0-1.615.454-2.867 1.36-3.761.907-.892 2.111-1.337 3.612-1.337 1.218 0 2.21.056 2.974.169v3.442h-2.039c-.765 0-1.289.17-1.572.51-.228.283-.34.736-.34 1.36v2.677h3.611l-.509 3.866h-3.102v9.73h-3.995v-9.73zM138.27 196.957c0 2.04-.495 4.008-1.487 5.906-1.02 2.011-2.45 3.612-4.291 4.802-2.011 1.331-4.32 1.997-6.926 1.997-2.493 0-4.773-.666-6.841-1.997.31.028.665.042 1.063.042 2.067 0 3.922-.637 5.565-1.912-.991 0-1.862-.29-2.613-.87a4.441 4.441 0 0 1-1.551-2.189c.283.028.553.042.808.042.396 0 .793-.042 1.189-.127a4.498 4.498 0 0 1-2.55-1.572c-.68-.822-1.02-1.757-1.02-2.805v-.085a4.2 4.2 0 0 0 1.998.595 4.962 4.962 0 0 1-1.445-1.614 4.291 4.291 0 0 1-.552-2.147c0-.778.213-1.522.637-2.23a12.305 12.305 0 0 0 4.058 3.314 12.349 12.349 0 0 0 5.12 1.36 6.16 6.16 0 0 1-.085-1.02c0-.793.198-1.537.596-2.23a4.353 4.353 0 0 1 1.614-1.636 4.306 4.306 0 0 1 2.21-.596c.65 0 1.253.128 1.805.383a5.071 5.071 0 0 1 1.467 1.02 9.102 9.102 0 0 0 2.845-1.062c-.34 1.048-.991 1.87-1.954 2.464a9.574 9.574 0 0 0 2.55-.722 9.805 9.805 0 0 1-2.252 2.337c.028.113.042.297.042.552M58.755 165.335l-3.266-3.388c2.393-.82 3.19-3.081 3.19-5.751a6.083 6.083 0 0 0-12.165 0c0 2.67.795 4.932 3.187 5.75l-3.265 3.389a10.07 10.07 0 0 0-3.742 7.833v6.623h19.802v-6.623c0-3.041-1.375-5.921-3.74-7.833" mask="url(#d)"/>
        <path fill="#0679A4" d="M53.113 176.12a7.987 7.987 0 1 0 15.974-.002 7.987 7.987 0 0 0-15.974.002" mask="url(#d)"/>
        <path stroke="#FFF" stroke-width="1.5" d="M61.099 171.74v8.76M65.48 176.12h-8.761" mask="url(#d)"/>
        <path fill="#FFF" d="M46.002 120.507H21.018a2.6 2.6 0 0 1-2.6-2.6v-14.674a2.6 2.6 0 0 1 2.6-2.6h24.984a2.6 2.6 0 0 1 2.601 2.6v14.674a2.6 2.6 0 0 1-2.6 2.6" mask="url(#d)"/>
        <path stroke="#0F91C2" stroke-width="1.5" d="M22.137 106.094l11.373 7.23 11.374-7.23" mask="url(#d)"/>
        <path fill="#79E7F4" d="M198.503 161.123c0 14.01-11.358 25.369-25.369 25.369-14.01 0-25.368-11.358-25.368-25.37 0-14.01 11.357-25.368 25.368-25.368s25.37 11.358 25.37 25.369" mask="url(#d)"/>
        <path fill="#0F91C2" d="M170.338 169.762l13.047-13.048a3.406 3.406 0 1 0-4.818-4.816l-13.046 13.047 4.817 4.817z" mask="url(#d)"/>
        <path fill="#FDD455" d="M165.526 164.939l-1.974 6.79 6.79-1.973z" mask="url(#d)"/>
        <path fill="#0679A4" d="M164.529 168.37l-.977 3.36 3.36-.977z" mask="url(#d)"/>
    </g>
</svg>
