<svg xmlns="http://www.w3.org/2000/svg" xmlns:xlink="http://www.w3.org/1999/xlink" width="272" height="249" viewBox="0 0 272 249">
    <defs>
        <path id="a" d="M.61.199h181.034v306.8H.611z"/>
        <linearGradient id="c" x1="6.644%" x2="72.164%" y1="104.089%" y2="4.209%">
            <stop offset="0%" stop-opacity="0"/>
            <stop offset="100%" stop-opacity=".15"/>
        </linearGradient>
    </defs>
    <g fill="none" fill-rule="evenodd">
        <path fill="#F47A7A" d="M58.155 126.757l23.838 12.316 32.231-21.959 8.9 2.407-40.52 31.063-29.402-11.46z"/>
        <path fill="#F0BB70" d="M59.75 124.705l16.75 10.5-4.75 13-11.25-6.5z"/>
        <g transform="translate(90)">
            <mask id="b" fill="#fff">
                <use xlink:href="#a"/>
            </mask>
            <path fill="#79E7F4" d="M181.385 81.525C186.524 131.31 113.553 307 113.553 307S6.235 149.919 1.097 100.133C-4.043 50.348 32.15 5.823 81.937.685c49.785-5.14 94.309 31.055 99.448 80.84" mask="url(#b)"/>
        </g>
        <path fill="#0F91C2" d="M235.083 85.714c3.066 29.71-18.533 56.284-48.245 59.35-29.711 3.067-56.283-18.533-59.35-48.245-3.066-29.711 18.533-56.283 48.244-59.35 29.712-3.067 56.285 18.534 59.351 48.245"/>
        <path fill="#FFF" d="M213.536 87.938c1.84 17.812-11.11 33.741-28.922 35.58-17.81 1.838-33.74-11.111-35.579-28.923-1.839-17.811 11.11-33.74 28.922-35.579 17.811-1.839 33.741 11.11 35.58 28.922"/>
        <path fill="#0679A4" d="M41.333 199.205l-33 64.334-11.333-6 26.667-65.334z"/>
        <path fill="url(#c)" d="M24.249 198.312l18.292 4.453-26.879 51.96-12.166-5.217z" transform="translate(-3)"/>
        <path fill="#0679A4" d="M29.667 198.205L46 244.539l-8 27.666 9 4.334 12.333-33L52 201.538z"/>
        <path fill="#FF8F8F" d="M74.543 100.94c1.057 9.146-5.625 17.431-14.923 18.505-9.298 1.075-17.692-5.468-18.749-14.614-1.057-9.146 5.624-17.43 14.922-18.505 1.81-.209 3.584-.13 5.277.201 7.01 1.37 12.621 7.047 13.473 14.413"/>
        <path fill="#FF8F8F" d="M62.515 113.547l.493 18.928-13.028-.253 1.164-17.787z"/>
        <path fill="#0679A4" d="M42.426 110.539s8.646-12.144 8.818-17.525c0 0 9.28 9.005 23.359 5.84 0 0-4.735-14.344-17.663-12.85-11.38 1.315-20.035 11.548-14.514 24.535"/>
        <path fill="#FF8F8F" d="M44.581 102.77c.183 1.583 1.351 2.748 2.608 2.603 1.26-.146 2.13-1.547 1.948-3.129-.183-1.583-1.35-2.748-2.61-2.603-1.258.146-2.129 1.546-1.946 3.129"/>
        <path fill="#F0BB70" d="M53.667 205.538s9.115-37.875 12-55.333c2.802-16.959-2.334-22.667-2.334-22.667l-4 1.667L51 122.871s-12.333.095-16.223 12.888c-3.97 13.061-14.444 63.112-14.444 63.112l33.334 6.667z"/>
        <path fill="#FF8F8F" d="M74.078 101.74s2.937 3.624 3.026 4.405c.128 1.104-4.84 1.678-4.84 1.678l1.814-6.083zM56 144.205l17.333 14.667L94 124.205l6 2-24 45.667-27-16.334z"/>
        <path fill="#FF8F8F" d="M94 124.205s-5.667-7.667-5.333-10.333c.333-2.667 1.666-7.667 1.666-7.667s2-.667 2 1 4.334 10.667 5.667 12c1.333 1.333 2 7 2 7h-6.333l.333-2z"/>
    </g>
</svg>
