<svg xmlns="http://www.w3.org/2000/svg" width="141" height="252" viewBox="0 0 141 252">
    <defs>
        <linearGradient id="a" x1="80.489%" x2="0%" y1="54.486%" y2="0%">
            <stop offset="0%" stop-opacity="0"/>
            <stop offset="100%" stop-opacity=".15"/>
        </linearGradient>
    </defs>
    <g fill="none" fill-rule="evenodd" transform="translate(-112)">
        <rect width="51" height="7" x="151" y="228" fill="#0679A4" opacity=".298" rx="3.5"/>
        <rect width="31" height="7" x="86" y="228" fill="#0679A4" opacity=".298" rx="3.5"/>
        <rect width="224" height="7" x="16" y="245" fill="#0679A4" opacity=".298" rx="3.5"/>
        <path fill="#FF8F8F" d="M175.9 217.547l6.029-4.687 1.998 12.154h-6.502z"/>
        <path fill="#FDD455" d="M164.392 101.54l16.012 56.168 2.542 59.472-7.116.665-7.625-59.12-22.493-53.753z"/>
        <path fill="#D27777" d="M183.875 222.537c-.912 1.26-2.41 1.865-3.873 1.563-2.577-.456-3.13-.912-3.13-.912l.458 9.579h17.061l-10.516-10.23z"/>
        <path fill="#FDD455" d="M156.768 101.54l-13.344 57.186-35.95 58.089-7.878-4.066 30.524-53.659 4.708-57.55z"/>
        <path fill="#FF8F8F" d="M159.794 30.713v30.29l-14.357-.583 1.797-29.124z"/>
        <path fill="#FF8F8F" d="M161.285 60.613s-.967 7.922-8.155 7.537c-7.188-.385-6.408-8.393-6.408-8.393l14.563.856z"/>
        <path fill="#61A1E7" d="M138.172 54.444c3.837-7.06 7.802-6.763 7.802-6.763s-.752 3.397 6.64 4.246c7.858.898 6.787-3.745 7.502-3.843.716-.1 6.732.424 7.803 1.048 2.117.876 4.856 2.289 6.08 7.53 1.12 1.297 1.678 32.718 1.678 32.718l11.65 25.192-3.952 2.235-14.345-23.93-1.11-12.466-1.552 27.887-32.249.012V63.168l4.053-8.724z"/>
        <path fill="url(#a)" d="M129.905 70.012h41.625l.749 33.723-42.374-1.872z" transform="rotate(-90 151.092 86.874)"/>
        <path fill="#61A1E7" d="M151.892 52.93c-7.955-2.966-4.981-5.149-5.697-5.243-.716-.093-12.79.627-16.053 4.122-6.527 4.853-2.734 19.433-2.734 19.433l3.549 20.175 33.136 27.708 3.283-4.019L141.565 88.7l-5.553-23.102 9.13-11.4"/>
        <path fill="#79E7F4" d="M174.984 142.06l-72.577 9.745v-4.409l72.577-9.751z"/>
        <path fill="#79E7F4" d="M174.984 142.06l-57.55 68.593-2.207-4.415 57.55-68.593zM50.163 196.51l62.181 10.06.757 4.782-62.938-10.426z"/>
        <path fill="#79E7F4" d="M113.1 211.352L93.583 121.65l4.415-.735 19.519 89.704z"/>
        <path fill="#036D8E" d="M168.67 139.421h6.278v-17.754h-6.278z"/>
        <path fill="#036D8E" d="M168.67 125.628v-4.66a.815.815 0 0 1 .745-.81l35.374-3a.811.811 0 0 1 .88.81v4.66a.81.81 0 0 1-.74.81l-35.38 3a.81.81 0 0 1-.879-.81"/>
        <path fill="#79E7F4" d="M168.67 140.971h6.278v-4.986h-6.278z"/>
        <path fill="#036D8E" d="M192.109 142.602a15.202 15.202 0 0 1-6.617-1.462 2.553 2.553 0 0 1-1.104-3.435c.01-.021.022-.04.033-.06a2.632 2.632 0 0 1 3.524-1.066 10.208 10.208 0 0 0 8.044.082c3.96-1.637 4.287-10.561 4.409-13.922 0-.39 0-.74.047-1.048a2.623 2.623 0 1 1 5.242.238c0 .295-.012.627-.035.996-.187 5.057-.582 15.571-7.613 18.483a15.342 15.342 0 0 1-5.93 1.194M91.45 122.43c-4.462-.769-7.159-7.152-7.159-7.152-1.287-1.293-2.377-2.989-1.7-3.792 1.164-1.165 4.793-3.134 6.086-1.847l31.803 8.86-.483 4.245c1.27 1.317-24.109.45-28.548-.314M200.374 146.597c-28.554 0-51.7 23.147-51.7 51.702 0 28.554 23.146 51.701 51.7 51.701 28.554 0 51.701-23.147 51.701-51.7 0-28.556-23.147-51.703-51.7-51.703m0 4.416c26.114 0 47.285 21.17 47.285 47.286 0 26.115-21.17 47.285-47.286 47.285-26.115 0-47.286-21.17-47.286-47.285.032-26.102 21.184-47.254 47.286-47.286"/>
        <path fill="#79E7F4" d="M196.687 196.504l-28.273-57.939 5.143-.175 28.279 57.934z"/>
        <path fill="#036D8E" d="M200.38 193.19a5.108 5.108 0 1 1 0 10.217 5.108 5.108 0 0 1 0-10.216"/>
        <path stroke="#036D8E" stroke-width="3" d="M115.227 189.579c8.824 0 15.978 7.154 15.978 15.978s-7.154 15.977-15.978 15.977-15.978-7.153-15.978-15.977c0-8.824 7.154-15.978 15.978-15.978z"/>
        <path fill="#FF8F8F" d="M186.055 119.342l5.015-.13c-.167-.292 2.312 1.125 2.928 1.917 1.108 1.423.959 2.71 2.086 2.751 1.127.042 2.086-.694 1.737-3.117-.401-2.645-2.79-4.747-4.542-5.456-3.042-1.223-6.78-1.76-6.79-1.68-.001.013-2.898 3.077-2.898 3.077.017.018.52 1.466 1.038 1.816.543.366 1.41.807 1.426.822M164.093 119.125s2.896 2.97 4.255 3.164c1.358.194 4.659.194 4.659.194s.954 4.568 4.077 5.048c2.525.39 5.009-8.424 1.554-9.319-5.242-1.359-11.262-3.107-11.262-3.107l-3.283 4.02zM173.799 22.247c-.205 9.387-7.979 16.828-17.365 16.624-9.386-.205-16.828-7.98-16.624-17.366.205-9.385 7.98-16.828 17.366-16.622l.273.008c1.777.063 3.532.404 5.203 1.008a16.76 16.76 0 0 1 11.147 16.348"/>
        <path fill="#0679A4" d="M140.486 26.843s10.43-10.712 11.429-16.016a26.72 26.72 0 0 0 22.252 9.396S171.655 5.25 158.612 4.745c-11.48-.435-21.629 8.38-18.126 22.098"/>
        <path fill="#FF8F8F" d="M147.491 11.093c1.034-1.22 2.657-1.544 3.625-.723.968.821.914 2.475-.12 3.695-1.034 1.22-2.657 1.544-3.625.722-.968-.82-.914-2.474.12-3.694M173.124 25.801s2.357 4.04 2.323 4.826c-.043 1.111-5.056.923-5.056.923l2.733-5.749z"/>
        <path fill="#036D8E" d="M156.305 29.697l-2.29-.257 2.837-10.352 2.28.255z"/>
        <path fill="#036D8E" d="M148.233 20.727l-1.947 1.008 7.815 8.457 1.948-1.008z"/>
        <path fill="#DF71DB" d="M137.64 23.35C135.567 13.424 140.06.893 158.5.978c11.105 0 16.127 10.771 16.4 15.862"/>
        <path fill="#036D8E" d="M161.747 38.397l-6.356-10.566-1.833 1.213 6.14 10.196z"/>
    </g>
</svg>
