<svg xmlns="http://www.w3.org/2000/svg" width="345" height="266"><defs><linearGradient id="a" x1="35.304%" x2="35.304%" y1="100%" y2="0%"><stop offset="0%" stop-opacity="0"/><stop offset="100%" stop-opacity=".15"/></linearGradient><linearGradient id="b" x1="35.304%" x2="35.304%" y1="100%" y2="5.263%"><stop offset="0%" stop-opacity="0"/><stop offset="100%" stop-opacity=".15"/></linearGradient></defs><g fill="none" fill-rule="evenodd"><rect width="49" height="7" x="33" y="252" fill="#0679A4" opacity=".298" rx="3.5"/><rect width="84" height="7" x="170" y="252" fill="#0679A4" opacity=".298" rx="3.5"/><rect width="51" height="7" x="291" y="252" fill="#0679A4" opacity=".298" rx="3.5"/><rect width="43" height="7" x="141" y="259" fill="#0679A4" opacity=".298" rx="3.5"/><rect width="67" height="7" x="88" y="252" fill="#0679A4" opacity=".298" rx="3.5"/><path fill="#FDD455" d="M251.555 105.736s-2.618-.982-3.75-1.4c-1.13-.42-3-.327-3-.327s-5.082 2.034-6.488 3.11c-1.407 1.078 2.812 5.185 6.487 6.275 3.674 1.09 12.34-1.627 12.34-1.627l-2.71-4.647-2.879-1.384z"/><path fill="#DF71DB" d="M179.208 55h32.296c5.085 0 9.208 3.761 9.208 8.399v45.769c0 4.639-4.123 8.399-9.208 8.399h-32.296c-5.085 0-9.208-3.76-9.208-8.399V63.399c0-4.638 4.123-8.399 9.208-8.399"/><path fill="#0679A4" d="M224.677 81l-.538 23.579-4.605 24.81L218 85.397z"/><path fill="#DF71DB" d="M193.533 52.782c2.62 0 4.752 2.397 4.752 5.345s-2.132 5.345-4.752 5.345c-2.62 0-4.751-2.397-4.751-5.345s2.131-5.345 4.751-5.345m0 12.473c3.603 0 6.533-3.198 6.533-7.128S197.136 51 193.533 51 187 54.197 187 58.127c0 3.93 2.93 7.128 6.533 7.128"/><path fill="#FF8F8F" d="M215.58 167.118l-12.9 84.522h-5.559L197 165zm-20 0l-12.9 84.522h-5.56L177 165z"/><path fill="#0679A4" d="M212.361 123.155v18.772H183L184.636 122z"/><path fill="#FF8F8F" d="M204.479 44l.775 28.913L191 70.24l2.36-25.662z"/><path fill="#61A1E7" d="M204.69 56s1.08 11.838-5.776 11.838c-6.855 0-6.932-11.838-6.932-11.838s-24.586 6.917-19.215 20.217l4.295 9.044v3.232l-.84 45.908 43.35.128v-25.454l-1.497-23.139 6.93-4.672s-.249-8.134-1.17-10.754C220.754 61.75 204.69 56 204.69 56z"/><path fill="#0679A4" d="M177 134v55.817h16.275l3.836-27.909v27.909h17.109l5.18-55.689z"/><path fill="url(#a)" d="M7 118h42.136l-2.027 25.9H7z" transform="translate(170 16)"/><path fill="#DF71DB" d="M185.84 57L185 93.063l6.551 3.773s-2.067-1.935-1.969-9.261l1.969-31.613L185.84 57zm32.158 28.39l-5.1-25.63L207 57s5.653 28.308 6.394 31.459c.891 3.786 4.008 6.566 4.008 6.566l1.875.595-.767-5.626-.512-4.604z"/><path fill="#79E7F4" d="M183.227 251.7H177V242h7.326zm20 0H197V242h7.326z"/><path fill="#FF8F8F" d="M218.13 34.276c0 9.542-7.864 17.277-17.565 17.277S183 43.818 183 34.276C183 24.735 190.864 17 200.565 17c1.887 0 3.705.293 5.409.835 7.053 2.243 12.156 8.756 12.156 16.441"/><path fill="#61A1E7" d="M197.169 251h5.559s6.505.386 7.154 3.851l-.096 1.733H197l.169-5.584z"/><path fill="#FF8F8F" d="M217.592 34s2.591 4.08 2.591 4.895c0 1.152-5.183 1.152-5.183 1.152L217.592 34z"/><path fill="#61A1E7" d="M177.168 251h5.56s6.504.386 7.154 3.851l-.096 1.733H177l.168-5.584z"/><path fill="#0679A4" d="M213.107 22.328s-8.293 15.513-18.659 12.057c-3.696-1.232-2.303.576-2.303.576l-2.852 12.715s-4.092-3.08-5.596-8.279c-1.734-5.99-.486-15.147 6.617-19.42 13.083-7.87 22.793 2.351 22.793 2.351"/><path fill="#FF8F8F" d="M189 35.743c0 2.067 1.418 3.743 3.167 3.743 1.75 0 3.168-1.676 3.168-3.743S193.917 32 192.167 32c-1.749 0-3.167 1.676-3.167 3.743"/><path fill="#FDD455" d="M184 27.125h33.761S212.966 16 200.881 16C186.878 16 184 27.125 184 27.125"/><path fill="#F0BB70" d="M199 27s7.353 8.057 25.768 3.836l-7.098-3.645L199 27z"/><path fill="#FF8F8F" d="M237.29 107.815c-1.109 0 3.402-5.6 7.014-3.23 2.088 1.37-.653 1.174-.653 1.174s4.763 6.003 8.026 6.785c1.721.414-1.697 2.415-5.741 3.132-3.775.67-8.548-2.805-8.548-2.805l-2.388-4.26 2.29-.796z"/><path fill="url(#b)" d="M6.961 66.136l15.016 13.575 10.358 14.375H51.44l-1.143 15.994-44.037-1.286z" transform="translate(170 16)"/><path fill="#0679A4" d="M238.344 112.985l-38.509 3.7L186 95.459 194.476 87l9.172 20.223 34.268-1.178z"/><path fill="#61A1E7" d="M183.595 67l14.067 26.088-12.788 5.371L175 81.528l-1.21-5.228"/><path fill="#FDD455" d="M244.305 104.02c-.541.038-3.654 1.825-3.273 2.908.727 2.06 4.726-1.212 4.726-1.212l4.242.121s-2.303-2.059-5.695-1.817"/><path fill="#61A1E7" d="M302.84 119.74l10.646 130.249 7.776-3.651V119z"/><path fill="#0679A4" d="M313.511 244s.604 2.918 3.473 2.444c2.869-.473 4.368-.946 4.368-.946l-.259 9.942H301L313.511 244z"/><path fill="#61A1E7" d="M316 119.473l10.792 129.973 7.447-3.164L335.262 119z"/><path fill="url(#a)" d="M51.347 107.776L82.859 109v23.83l-29.156-.946z" transform="translate(252 18)"/><path fill="#0679A4" d="M326.69 245s1.424 2.099 4.293 1.625c2.868-.474 3.483-.946 3.483-.946l-.512 9.942H315L326.69 245z"/><path fill="#FDD455" d="M292.224 84l-7.83 23.092-31.807-.196-.587 4.992 38.266 2.446 10.668-29.066z"/><path fill="#F0BB70" d="M298.376 67.848l42.158 4.246-4.379-35.704L298 35z"/><path fill="#FDD455" d="M323.122 42v19.087L310 60.49l1.641-17.893z"/><path fill="#FDD455" d="M324.938 60.895s-.984 8.118-8.351 7.718c-7.366-.4-6.561-8.613-6.561-8.613l14.912.895z"/><path fill="#D27777" d="M310.001 60S301.152 63.071 299 71.488l3.914 55.588 31.344-.271s6.786-20.617 2.507-53.14c-1.91-14.516-10.456-12.973-11.852-12.776-.692.101-8.35 7.718-8.35 7.718L310.001 60z"/><path fill="#FDD455" d="M334.414 82l.968 33.1L328 146.852l4.93 1.116 10.121-31.729.645-32.454zm-.239-45.168c.142 9.437-7.394 17.201-16.83 17.343-9.437.141-17.201-7.394-17.343-16.83-.142-9.437 7.393-17.201 16.83-17.343.087-.002.173-.002.26-.002a17.35 17.35 0 015.255.823 16.838 16.838 0 0111.828 16.009"/><path fill="#F0BB70" d="M315.596 25.092s1.08 21.288 20.763 17.709C338.002 42.502 334.963 18 317.248 18 298.877 18 298 35.805 298 35.805s10.623 2.225 17.596-10.713"/><path fill="#D27777" d="M292.01 84.43s2.27-13.206 8.166-18.424c2.966-2.702 6.37-5.523 10.23-6.006 0 0 .067 6.018-2.209 6.304-2.83.357-5.257.82-7.406 2.183l7.084 5.839-6.21 16.238s-10.014-5.747-9.656-6.134m52.048 2.103c.112-.516-1.044-15.658-7.03-21.084-2.92-2.752-7.264-4.977-11.676-5.006-2.306-.014-11.853 10.164-9.582 10.488 2.825.406 13.465-6.436 15.59-5.038l-7.182 5.72 8.916 14.756 10.964.164z"/><path fill="#FDD455" d="M333.061 148.012s-1.987 7.06-3.109 8.821c-1.12 1.759-6.32 3.751-6.839 2.714-.518-1.038.846-4.413 2.008-6.854 1.163-2.441 3.41-7.022 3.41-7.022l4.53 2.341z"/><g><path fill="#F0BB70" d="M156.221 83.175v12.918L148 95.31l.979-13.31z"/><path fill="#61A1E7" d="M132.968 121l5.962 58.906-5.203 70.942-8.663-2.297v-67.853L113 123.029z"/><path fill="url(#a)" d="M33 171.12l10.691 1.933 1.166 12.339L42.587 217H33z" transform="translate(92 22)"/><path fill="#DF71DB" d="M133.84 247s-1.706 2.169-4.534 1.702c-2.828-.467-4.306-.932-4.306-.932l.255 9.801h22.838L133.84 247z"/><path fill="#61A1E7" d="M118.629 121.936l-18.013 129.117-8.161-2.321 6.7-133.321z"/><path fill="url(#a)" d="M7.146 93.96l17.412 7.618-1.729 22.735-5.604 42.645-13.53-6.691z" transform="translate(92 22)"/><path fill="#DF71DB" d="M101.282 247s-3.02 2.169-5.848 1.702c-2.828-.467-3.434-.932-3.434-.932l.505 9.801h18.686L101.282 247z"/><path fill="#F0BB70" d="M142.275 29.894c-5.585 7.597-3.852 18.359 3.872 24.038 7.725 5.679 18.514 4.123 24.1-3.475 5.585-7.597 3.85-18.36-3.872-24.038a17.67 17.67 0 00-4.796-2.502c-6.93-2.342-14.805-.143-19.304 5.977"/><path fill="#F0BB70" d="M147.245 40L139 57.554l12.326 5.119 6.221-17.164z"/><path fill="#79E7F4" d="M155.832 83.726h-4.307c.138 1.07-.109 10.827-5.623 14.1 0 0-16.444 34.16-14.803 34.28L99 115.73s10.587-33.526 16.077-47.352c5.489-13.825 22.99-11.522 24.185-10.737 1.194.784 12.154 5.485 12.154 5.485s6.592 14.124 4.416 20.6z"/><path fill="#F0BB70" d="M139.105 57s-3.923 6.306 3.015 9.118c6.937 2.812 9.44-4.275 9.44-4.275L139.106 57z"/><path fill="#FDD455" d="M168.572 264s-61.108-89.839-63.985-118.279c-2.877-28.439 17.845-53.826 46.286-56.703 28.439-2.877 53.826 17.846 56.703 46.285C210.453 163.743 168.572 264 168.572 264z"/><path fill="#61A1E7" d="M195.353 136.776c2.211 21.856-13.715 41.366-35.571 43.577-21.856 2.211-41.367-13.715-43.577-35.57-2.211-21.857 13.714-41.367 35.571-43.578 21.856-2.211 41.366 13.715 43.577 35.571"/><path fill="#FDD455" d="M186.623 137.782c1.717 16.973-10.65 32.124-27.623 33.841-16.973 1.717-32.124-10.65-33.84-27.623-1.718-16.973 10.65-32.124 27.622-33.84 16.973-1.718 32.124 10.65 33.841 27.622"/><path fill="#61A1E7" d="M138 133.146l1.441-.146.669 6.602 3.306-.335.116 1.149-4.748.479zm12.359 2.648l-.01-.087c-.16-1.595-1.167-2.686-2.685-2.532-1.518.152-2.303 1.36-2.135 3.03l.009.088c.172 1.69 1.31 2.681 2.718 2.536 1.464-.148 2.273-1.356 2.103-3.035m-6.326.661l-.01-.088c-.228-2.265 1.228-4.11 3.524-4.343 2.31-.233 4.068 1.244 4.298 3.52l.01.088c.228 2.265-1.148 4.121-3.502 4.36-2.373.24-4.095-1.304-4.32-3.537m9.002-1.003l-.01-.088c-.235-2.33 1.204-4.119 3.362-4.338 1.778-.18 3.245.571 3.601 2.373l-1.464.149c-.265-1.014-.894-1.488-2.01-1.375-1.366.139-2.149 1.293-1.973 3.026l.01.088c.175 1.744 1.114 2.689 2.546 2.546 1.073-.11 1.776-.729 1.818-1.838l1.408-.143c-.037 1.887-1.265 2.962-3.109 3.149-2.427.246-3.939-1.165-4.179-3.549m9.962.549l2.286-.232-1.502-3.484-.784 3.716zm-.191-4.812l1.887-.189 3.343 7.49-1.497.152-.813-1.857-2.958.3-.414 1.98-1.354.138 1.806-8.014zm5.194-1.043l1.442-.146.668 6.602 3.307-.335.116 1.149-4.748.48zm-29.967 20.316l-.009-.087c-.232-2.31 1.205-4.118 3.47-4.348 1.66-.168 3.21.443 3.602 2.274l-1.44.147c-.279-1.012-1.017-1.387-2.024-1.285-1.519.153-2.282 1.369-2.11 3.07l.008.088c.17 1.66 1.053 2.719 2.68 2.555 1.451-.146 1.96-1.085 1.894-2.163l-1.95.197-.11-1.084 3.37-.342.071.716c.217 2.146-.994 3.583-3.185 3.805-2.482.25-4.036-1.257-4.267-3.543m10.931-1.845c.965-.097 1.433-.56 1.349-1.384l-.005-.043c-.089-.889-.673-1.137-1.594-1.045l-1.159.118.25 2.471 1.159-.117zM146 145.294l2.602-.265c1.701-.17 2.963.402 3.124 1.985l.004.041c.123 1.214-.574 1.91-1.512 2.257l2.517 3.13-1.562.156-2.343-2.926-.922.093.317 3.132-1.442.147-.783-7.75zm13.36 2.498l-.01-.087c-.161-1.594-1.17-2.684-2.685-2.53-1.517.152-2.305 1.36-2.135 3.028l.008.087c.17 1.691 1.31 2.683 2.719 2.54 1.466-.148 2.273-1.357 2.104-3.038m-6.328.662l-.01-.087c-.228-2.264 1.226-4.11 3.525-4.343 2.309-.234 4.068 1.242 4.297 3.52l.009.086c.23 2.266-1.148 4.124-3.5 4.361-2.375.24-4.095-1.303-4.321-3.537m9.451-.026l-.484-4.801 1.452-.147.474 4.694c.144 1.42.66 1.958 1.809 1.842 1.116-.113 1.629-.669 1.467-2.273l-.465-4.596 1.453-.147.477 4.714c.205 2.027-.779 3.256-2.827 3.462-1.941.197-3.154-.752-3.356-2.748m10.388-1.638c.954-.096 1.419-.614 1.331-1.471l-.004-.044c-.094-.921-.672-1.223-1.595-1.131l-1.049.106.266 2.645 1.051-.105zM170 143.28l2.492-.252c1.735-.176 2.95.48 3.115 2.105l.005.044c.165 1.637-.942 2.482-2.603 2.65l-1.082.109.298 2.948-1.442.146-.783-7.75z"/><path fill="url(#a)" d="M17.696 99.703l23.855.016 34.732 2.386c6.336-2.582 11.903-3.496 16.7-2.742 4.799.754 12.774 4.943 23.926 12.568l7.311 22.451-108.129 3.997c-2.722-8.516-3.637-16.062-2.745-22.638.891-6.576 2.341-11.922 4.35-16.038z" transform="rotate(35 79.73 275.637)"/><path fill="#F0BB70" d="M126 89.027l16.092 25.771 38.221 21.237 2.452-4.727-36.154-26.071L136.3 86z"/><path fill="#79E7F4" d="M119 77.785l13.449 23.711 8.668-7.987L133.449 74z"/><path fill="#F0BB70" d="M182.679 130.596s7.519-.584 8.168.462c.65 1.046-2.469 1.959-2.469 1.959s5.531 4.333 6.196 6.014c.663 1.68-5.179 2.44-8.965 1.461-3.786-.979-6.609-5.792-6.609-5.792l1.783-4.7 1.896.596z"/><path fill="#DF71DB" d="M157.807 28.902s-3.078 1.54-7.056 8.478c-3.98 6.94-4.149 10.123-4.149 10.123L134 38.24s4.1-8.511 10.167-12.284c6.067-3.773 15.869-5.46 23.093.84 7.224 6.299 6.637 14.266 6.637 14.266s-6.077-.022-7.967-6.187c-1.712-5.587-8.123-5.972-8.123-5.972"/><path fill="#DF71DB" d="M168.7 33.797s-9.125 8.604-17.504.963c-3.842-3.505 5.476-10.136 5.476-10.136l7.093 3.568 4.936 5.605z"/><path fill="#F0BB70" d="M170.785 49s-.336 4.921-.828 5.591c-.696.947-4.957-2.186-4.957-2.186L170.785 49z"/></g><g><path fill="#F0BB70" d="M238 192.227l2.203 32.658 1.673 29.004 5.004-2.32.101-26.295-.148-33.274z"/><path fill="#DF71DB" d="M241.248 252h5.808v-5.272L241 246z"/><path fill="#61A1E7" d="M241.206 251s.838.597 2.949.394c2.113-.203 2.826.322 2.826.322l-.194 4.771H232l9.206-5.487z"/><path fill="#0679A4" d="M243.34 148s3.992 4.071 4.494 8.836c.622 5.904-.256 7.967-.256 7.967l-3.477-.9s-1.98-3.377-2.094-8.471c-.115-5.095 1.333-7.432 1.333-7.432"/><path fill="#F0BB70" d="M238.378 147v15l-7.378-.467.919-14.06zm-11.908 21.704c2.576-2.959-1.35-6.017-1.35-6.017l-20.961-5.64L195.172 138 191 139.251l8.87 21.716 24.01 9.394s-.852-.763 2.59-1.657"/><path fill="#F0BB70" d="M191.391 138.477l-2.86-2.089a.769.769 0 01.744-1.275l1.686.676c.18.101-.045-1.01-.528-1.395-.881-.663-2.434-.552-2.433-1.248.002-.695 1.245-1.308 2.773-1.108a4.533 4.533 0 013.372 2.75 13.49 13.49 0 01.964 4.07.095.095 0 01-.096.095c-.007 0-.015 0-.021-.002l-2.734.84s-.848-1.29-.867-1.314M226 192.227l2.203 32.658 1.673 29.004 5.005-2.32.1-26.295-.148-33.274z"/><path fill="url(#a)" d="M40 90h7.109l-.342 18h-5.762zm12 0h7.109l-.342 18h-5.762z" transform="translate(188 130)"/><path fill="#F0BB70" d="M240.267 160.62s.543 2.982-4.08 2.696c-4.622-.287-4.175-3.316-4.175-3.316l8.255.62z"/><path fill="#DF71DB" d="M222.501 161.839L222 220.981l32.5-.397-4.714-46.032-1.417-12.122-10.065-2.685s.268 1.927-3.388 1.939c-3.496.005-3.77-2.684-3.77-2.684s-7.738 1.568-8.645 2.839z"/><path fill="#0679A4" d="M232.623 150.703s.736 4.37-1.152 8.607c-2.156 4.836-4.66 6.258-4.66 6.258s-1.55-3.389-.364-7.633c1.188-4.243 4.42-8.935 4.42-8.935l1.756 1.703z"/><path fill="#F0BB70" d="M245.063 149.9c-3.335 5.636-10.608 7.5-16.243 4.164-5.636-3.336-7.5-10.608-4.165-16.244 3.336-5.636 10.608-7.5 16.244-4.164l.167.1a12.123 12.123 0 012.802 2.415 11.69 11.69 0 011.195 13.729"/><path fill="#0679A4" d="M240.79 139.99s-8.847 2.451-18.729-4.825c-.93-.686 8.897-9.204 19.38-2.783 10.875 6.66 3.034 18.434 3.034 18.434s-9.31-2.59-3.686-10.826"/><path fill="#DF71DB" d="M229.247 252h5.81v-5.272L229 246z"/><path fill="#61A1E7" d="M229.786 251s.799.597 2.815.394c2.016-.203 2.696.322 2.696.322l-.185 4.771H221l8.786-5.487z"/><path fill="#F0BB70" d="M244.249 169.76c2.463 2.565 3.579-.596 3.579-.596l4.116 8.6-.587 12.919 1.371 12.136 3.867-24.255-4.674-13.261a4.44 4.44 0 00-2.953-2.788L243.727 161s-1.942 6.196.522 8.76"/><path fill="url(#a)" d="M63.235 69.153l1.405-12.682 2.48 15.122-3.357 1.181z" transform="matrix(1 0 0 -1 188 259.246)"/><path fill="#F0BB70" d="M249.21 168.92l.899 8.2S243 173.541 243 165.787s6.21 3.132 6.21 3.132"/></g><g><path fill="#FF8F8F" d="M59.371 74.591L25.444 50.059 9.264 13 3 14.044l15.137 41.757L56.239 85.03z"/><path fill="#DF71DB" d="M61.488 72.221L45.438 64 38 71.438l9.787 9.004z"/><path fill="#FF8F8F" d="M3.012 13.163C4.477 7.162 2.291.966 3.255.429c.963-.537 2.602-.843 3.867.793 1.266 1.635 5.1 8.115 2.656 13.085-2.444 4.969-5.199 2.666-5.199 2.666l-1.567-3.81z"/><path fill="#FF8F8F" d="M6.328 13.037S1.7 7.78.266 8.007c-1.433.226 3.38 7.176 3.38 7.176l2.682-2.146zM52 214.593l1.187 34.558 6.458.464 1.056-35.022z"/><path fill="#61A1E7" d="M40.876 134.459l10.325 80.134h9.317L60.876 134z"/><path fill="#FDD455" d="M53.318 244s.397 4.133 3.18 3.673c2.781-.459 3.378-.918 3.378-.918l-.497 9.641H41L53.318 244z"/><path fill="#FF8F8F" d="M65 214.593l1.187 34.558 6.458.464 1.055-35.022z"/><path fill="#61A1E7" d="M54 134.459l10.326 80.134h9.315L74 134z"/><path fill="url(#a)" d="M51 161h22.447v23.887H51z"/><path fill="#FDD455" d="M66.319 244s.397 4.133 3.179 3.673c2.782-.459 3.378-.918 3.378-.918l-.497 9.641H54L66.319 244z"/><path fill="#61A1E7" d="M70 32.855a6.855 6.855 0 1013.71-.002 6.855 6.855 0 00-13.71.002"/><path fill="#FF8F8F" d="M43 37.358c0 8.962 7.387 16.229 16.5 16.229S76 46.32 76 37.357c0-8.963-7.387-16.23-16.5-16.23-1.773 0-3.48.276-5.082.785C47.793 24.019 43 30.137 43 37.358"/><path fill="#FF8F8F" d="M55 46v20.981l13.113-.656-1.638-19.67z"/><path fill="#61A1E7" d="M76.689 34.803s-10.929-3.18-11.724-8.544c0 0-13.51 14.058-27.965 12.518C37 38.777 40.725 20 57.416 20 68.955 20 75 25.365 76.689 34.803"/><path fill="#DF71DB" d="M83.872 107.957s-.993-22.253-3.974-29.804c-2.98-7.55-11.673-12.915-11.673-12.915S57.595 66.566 55.246 65c0 0-7.242 6.068-9.982 12.724C42.523 84.378 34 161.723 34 161.723h53.448l-3.576-53.766z"/><path fill="url(#a)" d="M50.488 137.161c10.118-9.731 16.384-16.67 18.798-20.816 2.415-4.147 6.743-13.037 12.986-26.67l2.94 38.733 2.268 33.35H54.144l-3.656-24.597z"/><path fill="#FDD455" d="M11 210.373h51.114V142H11z"/><path fill="#61A1E7" d="M31.697 165.245v-.092c0-1.686-.94-2.936-2.546-2.936-1.605 0-2.558 1.18-2.558 2.947v.092c0 1.789 1.09 2.946 2.582 2.946 1.546 0 2.522-1.181 2.522-2.957m-6.697.021v-.091c0-2.397 1.72-4.175 4.151-4.175 2.442 0 4.129 1.732 4.129 4.141v.091c0 2.399-1.641 4.199-4.129 4.199-2.512 0-4.151-1.8-4.151-4.165m9 .011v-.092c0-2.465 1.697-4.185 3.979-4.185 1.88 0 3.337.94 3.521 2.867h-1.549c-.171-1.089-.78-1.652-1.96-1.652-1.445 0-2.386 1.125-2.386 2.959v.092c0 1.846.884 2.936 2.398 2.936 1.135 0 1.937-.573 2.099-1.733h1.49c-.24 1.973-1.641 2.972-3.589 2.972-2.568 0-4.003-1.642-4.003-4.164m11.283-2.074H43V162h6.101v1.203h-2.283v6.996h-1.535zM21 193.859l7.263-7.667c1.831-1.937 2.933-3.633 2.933-5.462 0-1.803-1.023-2.933-2.88-2.933-1.91 0-3.119 1.104-3.443 3.822h-3.282c.242-4.198 2.771-6.619 6.834-6.619 3.982 0 6.349 2.286 6.349 5.676 0 2.502-1.48 4.681-3.766 6.888l-4.279 4.17h8.18v2.771H21v-.646zm16-5.299h3.256c.187 2.017 1.317 3.524 3.9 3.524 2.502 0 3.658-1.211 3.658-3.121 0-2.099-1.128-3.148-3.469-3.148h-1.481v-2.555h1.372c2.206 0 3.202-1.023 3.202-2.826 0-1.56-.996-2.718-2.987-2.718-2.044 0-3.362 1.24-3.578 3.177h-3.175c.189-3.337 2.692-5.893 6.807-5.893 4.01 0 6.35 2.315 6.35 5.166 0 2.179-1.264 3.498-3.121 4.197 2.233.51 3.713 2.097 3.713 4.654 0 3.551-2.798 5.758-7.211 5.758-4.572 0-7.076-2.529-7.236-6.215m-14-32.823h27.364V153H23z"/><path fill="#FF8F8F" d="M72.427 89.003l-.021 16.49L50 136.134l6.209 1.599s19.54-23.917 21.637-25.904c.282-.267 4.652-22.825 4.652-22.825H72.427z"/><path fill="#FF8F8F" d="M49.718 136.315s-6.069 4.958-5.702 6.16l3.431-.38s-.591 7.009.283 8.67c.874 1.66 5.839-1.975 7.859-5.37 2.022-3.395.205-8.809.205-8.809L52.208 134l-2.49 2.315z"/></g></g></svg>