<svg xmlns="http://www.w3.org/2000/svg" width="65" height="46"><g fill="none" fill-rule="evenodd"><path stroke="#0F91C2" stroke-width="1.5" d="M1.244 8.599l8.343-.897 3.264 8.077 4.145.302 8.188 9.122 11.608-1.795 4.352 6.283h9.431s3.265 4.039 3.628 5.385c.362 1.346 9.068 3.14 9.068 3.14"/><path fill="#0F91C2" d="M46.47 34.692H19.496a4.256 4.256 0 01-4.256-4.257V15.582a4.257 4.257 0 014.256-4.257H46.47a4.256 4.256 0 014.257 4.257v14.853a4.256 4.256 0 01-4.257 4.257"/><path stroke="#FFF" stroke-width="1.5" d="M19.501 18.195l13.482 7.466 13.482-7.466"/><path stroke="#0F91C2" stroke-width="1.5" d="M64.722 44.5H1.244V0M1 36.676h5.135M1 27.385h5.135M1 18.093h5.135"/></g></svg>