<svg xmlns="http://www.w3.org/2000/svg" width="50" height="49"><g fill="none" fill-rule="evenodd"><path fill="#0F91C2" d="M12.354 11.77l-2.307-2.396c1.69-.58 2.253-2.181 2.253-4.07A4.302 4.302 0 008 1a4.303 4.303 0 00-4.3 4.304c0 1.889.562 3.49 2.255 4.07l-2.31 2.397A7.129 7.129 0 001 17.314V22h14v-4.686a7.13 7.13 0 00-2.646-5.543"/><path stroke="#0F91C2" stroke-width="1.5" d="M12.354 37.77l-2.307-2.396c1.69-.58 2.253-2.181 2.253-4.07A4.303 4.303 0 008 27a4.304 4.304 0 00-4.3 4.304c0 1.889.562 3.49 2.255 4.07l-2.31 2.397A7.129 7.129 0 001 43.314V48h14v-4.686a7.13 7.13 0 00-2.646-5.543zm34-26l-2.307-2.396c1.69-.58 2.253-2.181 2.253-4.07A4.302 4.302 0 0042 1a4.302 4.302 0 00-4.3 4.304c0 1.889.561 3.49 2.254 4.07l-2.31 2.397A7.129 7.129 0 0035 17.314V22h14v-4.686a7.13 7.13 0 00-2.646-5.543z"/><path fill="#0F91C2" d="M46.354 37.77l-2.307-2.396c1.69-.58 2.253-2.181 2.253-4.07A4.302 4.302 0 0042 27a4.303 4.303 0 00-4.3 4.304c0 1.889.561 3.49 2.254 4.07l-2.31 2.397A7.129 7.129 0 0035 43.314V48h14v-4.686a7.13 7.13 0 00-2.646-5.543"/><path stroke="#0F91C2" stroke-width="1.5" d="M33 25L18 36m15 0L18 25"/></g></svg>