<svg xmlns="http://www.w3.org/2000/svg" width="301" height="305" viewBox="0 0 301 305">
    <g fill="none" fill-rule="evenodd">
        <path fill="#FFF" d="M256.732 107.306c0 58.71-47.595 106.305-106.305 106.305-58.71 0-106.305-47.595-106.305-106.305C44.122 48.595 91.716 1 150.427 1c58.71 0 106.305 47.595 106.305 106.306"/>
        <path stroke="#999" stroke-width="1.5" d="M256.732 107.306c0 58.71-47.595 106.305-106.305 106.305-58.71 0-106.305-47.595-106.305-106.305C44.122 48.595 91.716 1 150.427 1c58.71 0 106.305 47.595 106.305 106.306z"/>
        <path fill="#999" stroke="#999" stroke-width="1.5" d="M236.998 107.306c0 47.812-38.759 86.57-86.57 86.57-47.812 0-86.572-38.758-86.572-86.57 0-47.812 38.76-86.571 86.572-86.571 47.811 0 86.57 38.759 86.57 86.571z"/>
        <path fill="#FFF" d="M137.932 104.878v-.205c0-3.77-2.103-6.566-5.694-6.566-3.591 0-5.72 2.641-5.72 6.591v.205c0 4.001 2.436 6.592 5.77 6.592 3.464 0 5.644-2.64 5.644-6.617m-14.98.051v-.205c0-5.36 3.848-9.337 9.286-9.337 5.464 0 9.234 3.874 9.234 9.26v.205c0 5.361-3.668 9.388-9.234 9.388-5.618 0-9.285-4.027-9.285-9.31M150.914 104.134c2.282 0 3.488-.975 3.488-2.924v-.102c0-2.104-1.308-2.823-3.488-2.823h-2.745v5.85h2.745zm-6.156-8.49h6.156c4.026 0 6.848 1.641 6.848 5.386v.103c0 2.873-1.795 4.335-4.078 4.925l5.156 7.926h-3.695l-4.795-7.413h-2.18v7.413h-3.412v-18.34zM160.381 104.929v-.205c0-5.463 3.797-9.362 9.157-9.362 3.925 0 7.413 1.796 7.901 6.181h-3.412c-.411-2.436-2.052-3.488-4.437-3.488-3.592 0-5.669 2.668-5.669 6.694v.205c0 3.925 1.821 6.619 5.669 6.619 3.437 0 4.848-2.078 4.95-4.618h-4.617v-2.564h7.978v1.692c0 5.079-3.181 8.158-8.363 8.158-5.874 0-9.157-3.9-9.157-9.312"/>
        <path stroke="#999" stroke-width="1.5" d="M150.428 193.043v50"/>
        <path fill="#FFF" d="M102.522 284.724l-4.363-4.528c3.197-1.094 4.26-4.118 4.26-7.686a8.128 8.128 0 0 0-8.128-8.128 8.128 8.128 0 0 0-8.13 8.128c0 3.568 1.064 6.592 4.26 7.686l-4.363 4.528a13.462 13.462 0 0 0-5 10.47v8.849h26.464v-8.85c0-4.066-1.837-7.913-5-10.47"/>
        <path stroke="#999" stroke-width="1.5" d="M102.522 284.724l-4.363-4.528c3.197-1.094 4.26-4.118 4.26-7.686a8.128 8.128 0 0 0-8.128-8.128 8.128 8.128 0 0 0-8.13 8.128c0 3.568 1.064 6.592 4.26 7.686l-4.363 4.528a13.462 13.462 0 0 0-5 10.47v8.849h26.464v-8.85c0-4.066-1.837-7.913-5-10.47z"/>
        <path fill="#FFF" d="M22.464 284.724l-4.363-4.528c3.197-1.094 4.26-4.118 4.26-7.686a8.128 8.128 0 0 0-8.128-8.128 8.128 8.128 0 0 0-8.129 8.128c0 3.568 1.063 6.592 4.26 7.686L6 284.724a13.462 13.462 0 0 0-5 10.47v8.849h26.464v-8.85c0-4.066-1.837-7.913-5-10.47"/>
        <path stroke="#999" stroke-width="1.5" d="M22.464 284.724l-4.363-4.528c3.197-1.094 4.26-4.118 4.26-7.686a8.128 8.128 0 0 0-8.128-8.128 8.128 8.128 0 0 0-8.129 8.128c0 3.568 1.063 6.592 4.26 7.686L6 284.724a13.462 13.462 0 0 0-5 10.47v8.849h26.464v-8.85c0-4.066-1.837-7.913-5-10.47zM27.464 295.194h19.391v-52.15h104"/>
        <path stroke="#999" stroke-width="1.5" d="M107.464 295.194h19.391v-52.15"/>
        <path fill="#FFF" d="M198.333 284.724l4.363-4.528c-3.196-1.094-4.26-4.118-4.26-7.686a8.129 8.129 0 0 1 16.257 0c0 3.568-1.063 6.592-4.26 7.686l4.364 4.528c3.162 2.556 5 6.403 5 10.47v8.849h-26.464v-8.85c0-4.066 1.838-7.913 5-10.47"/>
        <path stroke="#999" stroke-width="1.5" d="M198.333 284.724l4.363-4.528c-3.196-1.094-4.26-4.118-4.26-7.686a8.129 8.129 0 0 1 16.257 0c0 3.568-1.063 6.592-4.26 7.686l4.364 4.528c3.162 2.556 5 6.403 5 10.47v8.849h-26.464v-8.85c0-4.066 1.838-7.913 5-10.47z"/>
        <path fill="#FFF" d="M278.39 284.724l4.364-4.528c-3.196-1.094-4.26-4.118-4.26-7.686a8.129 8.129 0 0 1 16.257 0c0 3.568-1.063 6.592-4.26 7.686l4.364 4.528c3.162 2.556 5 6.403 5 10.47v8.849H273.39v-8.85c0-4.066 1.838-7.913 5-10.47"/>
        <path stroke="#999" stroke-width="1.5" d="M278.39 284.724l4.364-4.528c-3.196-1.094-4.26-4.118-4.26-7.686a8.129 8.129 0 0 1 16.257 0c0 3.568-1.063 6.592-4.26 7.686l4.364 4.528c3.162 2.556 5 6.403 5 10.47v8.849H273.39v-8.85c0-4.066 1.838-7.913 5-10.47zM273.39 295.194H254v-52.15H150"/>
        <path stroke="#999" stroke-width="1.5" d="M193.39 295.194H174v-52.15"/>
    </g>
</svg>
