<svg xmlns="http://www.w3.org/2000/svg" width="150" height="150"><g fill="none" fill-rule="evenodd"><path stroke="#0F91C2" stroke-width="1.3" d="M148.538 74.769c0 40.742-33.027 73.77-73.77 73.77C34.027 148.539 1 115.511 1 74.769 1 34.028 34.027 1 74.768 1c40.743 0 73.77 33.028 73.77 73.769zM40.806 108.732l-28.48 28.479M137.21 12.327l-26.317 26.319m-74.541-2.293L12.326 12.327M137.21 137.211l-27.68-27.68"/><path stroke="#0F91C2" stroke-width="1.3" d="M125.916 74.769c0 28.248-22.9 51.148-51.147 51.148-28.25 0-51.148-22.9-51.148-51.148 0-28.248 22.899-51.147 51.148-51.147 28.248 0 51.147 22.899 51.147 51.147z"/><path fill="#DF71DB" d="M21.915 104.593l.777 9.947h29.223l.31-9.636S43.52 95.266 39.79 94.8c-3.73-.467-17.875 9.793-17.875 9.793"/><path fill="#F0BB70" d="M23.714 105.988c0 7.256 5.979 13.138 13.356 13.138 7.376 0 13.357-5.882 13.357-13.138S44.446 92.85 37.07 92.85c-1.435 0-2.817.223-4.113.635-5.364 1.706-9.243 6.659-9.243 12.503"/><path fill="#DF71DB" d="M38.463 96.51s-8.73 9.478-16.072 9.478c-1.303 0 .933-15.003 14.782-15.003 14.364 0 15.053 13.92 15.053 13.92s-7.57 5.594-13.763-8.395"/><path fill="#FF8F8F" d="M94.53 35.208c0 7.256 5.98 13.138 13.356 13.138 7.376 0 13.357-5.882 13.357-13.138s-5.98-13.138-13.357-13.138c-1.435 0-2.817.223-4.113.634-5.364 1.706-9.243 6.66-9.243 12.504"/><path fill="#0679A4" d="M121.41 34.585s-8.89-3.806-9.513-8.002c0 0-6.45 7.89-17.758 6.686 0 0 2.41-11.659 12.666-11.659 9.027 0 14.138 5.36 14.605 12.975"/><path fill="#61A1E7" d="M116.106 102.74a5.362 5.362 0 105.362-5.363 5.362 5.362 0 00-5.362 5.364"/><path fill="#FF8F8F" d="M94.697 106.04c0 7.256 5.98 13.138 13.356 13.138 7.377 0 13.357-5.882 13.357-13.138s-5.98-13.138-13.357-13.138c-1.435 0-2.817.224-4.113.635-5.363 1.706-9.243 6.66-9.243 12.503"/><path fill="#61A1E7" d="M121.39 104.412s-8.549-2.487-9.17-6.684c0 0-10.57 10.997-21.879 9.792 0 0 2.916-14.688 15.973-14.688 9.027 0 13.756 4.196 15.077 11.58"/><path fill="#0679A4" d="M36.093 43.712c-9.168-.386-16.265-8.7-15.85-18.574.416-9.872 8.185-17.563 17.354-17.177 9.169.386 16.265 8.701 15.85 18.574-.416 9.872-8.185 17.563-17.354 17.177"/><path fill="#F0BB70" d="M49.95 35.569c0 7.056-5.816 12.776-12.99 12.776s-12.99-5.72-12.99-12.776c0-7.057 5.816-12.776 12.99-12.776 1.395 0 2.74.215 4 .617 5.217 1.658 8.99 6.475 8.99 12.159"/><path fill="#0679A4" d="M30.025 23.6s1.554 6.373-6.373 9.793c-5.738 2.475 2.331-9.638 2.331-9.638l4.042-.155zm12.985 0s-1.554 6.373 6.374 9.793c5.737 2.475-2.332-9.638-2.332-9.638L43.01 23.6z"/><path fill="#0679A4" d="M28.626 23.755s1.555 2.643 7.928 2.643S46.657 23.6 46.657 23.6l-13.99-2.488-4.041 2.643z"/><path fill="#FFF" d="M97.019 74.769c0 12.289-9.962 22.25-22.25 22.25-12.289 0-22.25-9.961-22.25-22.25 0-12.288 9.962-22.25 22.25-22.25s22.25 9.962 22.25 22.25"/><path stroke="#0F91C2" stroke-dasharray="3.038,3.038" stroke-width="1.5" d="M97.019 74.769c0 12.289-9.962 22.25-22.25 22.25-12.289 0-22.25-9.961-22.25-22.25 0-12.288 9.962-22.25 22.25-22.25s22.25 9.962 22.25 22.25z"/><path fill="#0F91C2" d="M68.92 74.306v-.096c0-1.762-.982-3.07-2.661-3.07-1.68 0-2.675 1.235-2.675 3.082v.096c0 1.871 1.14 3.083 2.698 3.083 1.619 0 2.639-1.236 2.639-3.095m-7.004.024v-.096c0-2.506 1.799-4.365 4.342-4.365 2.555 0 4.317 1.811 4.317 4.33v.095c0 2.507-1.715 4.39-4.317 4.39-2.627 0-4.342-1.883-4.342-4.354m13.078-.371c1.067 0 1.631-.457 1.631-1.368v-.047c0-.983-.612-1.32-1.631-1.32h-1.284v2.734h1.284zm-2.879-3.97h2.879c1.883 0 3.202.767 3.202 2.518v.048c0 1.343-.84 2.027-1.907 2.302l2.41 3.707h-1.726l-2.244-3.465h-1.019v3.465h-1.595v-8.575zm7.309 4.341v-.096c0-2.553 1.775-4.377 4.28-4.377 1.836 0 3.468.84 3.696 2.89h-1.595c-.193-1.14-.96-1.632-2.075-1.632-1.68 0-2.651 1.249-2.651 3.132v.096c0 1.834.852 3.093 2.65 3.093 1.608 0 2.267-.97 2.315-2.159h-2.158V74.08h3.729v.79c0 2.376-1.487 3.816-3.91 3.816-2.746 0-4.281-1.825-4.281-4.355"/></g></svg>