<svg xmlns="http://www.w3.org/2000/svg" xmlns:xlink="http://www.w3.org/1999/xlink" width="133" height="105" viewBox="0 0 133 105">
    <defs>
        <path id="a" d="M.708.416h42.319v21.085H.707z"/>
    </defs>
    <g fill="none" fill-rule="evenodd">
        <path stroke="#0F91C2" stroke-width="1.3" d="M16.932 31.5l98 52M16.932 83.5l98-52"/>
        <path fill="#79E7F4" d="M95.299 79.394V69.25c0-17.75-20.606-22.584-20.606-22.584s-14.806 1.205-16.563.987c-1.757-.22-22.65 5.564-21.521 21.597.877 12.465 3.325 24.967 4.372 29.917h51.69c1.123-2.858 2.628-8.744 2.628-19.773"/>
        <path fill="#DF71DB" d="M44.49 19.514l1.091 13.96h41.01l.436-13.523S74.811 6.425 69.577 5.77C64.34 5.117 44.49 19.514 44.49 19.514"/>
        <path fill="#F0BB70" d="M47.015 21.47c0 10.184 8.392 18.438 18.744 18.438s18.744-8.254 18.744-18.437c0-10.183-8.392-18.437-18.744-18.437-2.014 0-3.954.313-5.772.89-7.528 2.395-12.972 9.346-12.972 17.547"/>
        <path fill="#F0BB70" d="M58.953 27.146v20.941l14.397-.654.115-19.633z"/>
        <g transform="translate(44)">
            <mask id="b" fill="#fff">
                <use xlink:href="#a"/>
            </mask>
            <path fill="#DF71DB" d="M23.714 8.17S11.46 21.47 1.158 21.47C-.67 21.47 2.468.417 21.903.417c20.159 0 21.124 19.534 21.124 19.534S32.405 27.803 23.714 8.17" mask="url(#b)"/>
        </g>
        <path fill="#F0BB70" d="M58.953 47.652s-.938 7.964 7.133 7.527c8.071-.436 7.264-8.513 7.264-8.513l-14.397.986zM36.564 105h10.053V69.25H36.564zM85.245 105h10.054V69.25H85.245z"/>
        <path fill="#FF8F8F" d="M107.713 29.237c0 5.425 4.47 9.821 9.985 9.821s9.986-4.396 9.986-9.82c0-5.425-4.471-9.822-9.986-9.822-1.073 0-2.106.166-3.075.474-4.01 1.276-6.91 4.978-6.91 9.347"/>
        <path fill="#0679A4" d="M127.809 28.773s-6.646-2.846-7.111-5.982c0 0-4.824 5.898-13.278 4.997 0 0 1.802-8.715 9.47-8.715 6.749 0 10.57 4.005 10.919 9.7"/>
        <path fill="#61A1E7" d="M124.18 79.726a4.01 4.01 0 1 0 8.018-.001 4.01 4.01 0 0 0-8.018 0"/>
        <path fill="#FF8F8F" d="M108.175 82.192c0 5.425 4.47 9.822 9.985 9.822s9.986-4.397 9.986-9.822c0-5.424-4.471-9.82-9.986-9.82-1.073 0-2.106.165-3.075.473-4.01 1.276-6.91 4.978-6.91 9.347"/>
        <path fill="#61A1E7" d="M128.13 80.975s-6.391-1.86-6.855-4.997c0 0-7.902 8.222-16.356 7.32 0 0 2.179-10.98 11.94-10.98 6.75 0 10.285 3.137 11.272 8.657"/>
        <path fill="#0679A4" d="M11.862 88.55C5.008 88.264-.298 82.047.012 74.666c.311-7.381 6.12-13.13 12.974-12.842 6.855.289 12.16 6.505 11.85 13.886-.312 7.38-6.12 13.13-12.974 12.842"/>
        <path fill="#F0BB70" d="M22.22 82.463c0 5.274-4.347 9.552-9.71 9.552s-9.711-4.278-9.711-9.552c0-5.275 4.348-9.552 9.71-9.552a9.86 9.86 0 0 1 2.99.46c3.902 1.24 6.722 4.843 6.722 9.092"/>
        <path fill="#0679A4" d="M7.325 73.515s1.162 4.765-4.765 7.32c-4.289 1.852 1.744-7.204 1.744-7.204l3.021-.116zM17.033 73.515s-1.162 4.765 4.765 7.32c4.29 1.852-1.744-7.204-1.744-7.204l-3.02-.116z"/>
        <path fill="#0679A4" d="M6.28 73.63s1.161 1.977 5.926 1.977c4.764 0 7.553-2.092 7.553-2.092L9.3 71.655 6.28 73.63z"/>
        <path fill="#FF8F8F" d="M2.774 29.402c0 5.333 4.396 9.656 9.818 9.656s9.818-4.323 9.818-9.656-4.396-9.657-9.818-9.657a9.958 9.958 0 0 0-3.023.467c-3.943 1.253-6.795 4.894-6.795 9.19"/>
        <path fill="#0679A4" d="M22.41 29.402s-6.298-3.026-6.755-6.11c0 0-5.313-.057-8.598-1.913 0 0 2.204-1.599 4.855-1.743 5.556-.3 10.733 2.952 10.498 9.766"/>
        <path fill="#0679A4" d="M13.943 20.04l-11.05 9.362s-.797-4.526 2.591-7.6c3.172-2.878 8.46-1.762 8.46-1.762"/>
        <path fill="#FDD455" d="M3.37 24.74h18.327s-1.497-7.08-9.163-7.08c-8.636 0-9.164 7.08-9.164 7.08"/>
        <path fill="#F0BB70" d="M3.37 24.74h18.327s-2.467 3.171-8.635 3.171c-6.96 0-9.692-3.172-9.692-3.172"/>
    </g>
</svg>
