<svg xmlns="http://www.w3.org/2000/svg" width="121" height="102" viewBox="0 0 121 102">
    <g fill="none" fill-rule="evenodd">
        <path fill="#999" d="M75.772 6.838c-1.916 3.032-2.24 7.398-.355 10.417a88.768 88.768 0 0 0 28.415 28.415c3.019 1.887 7.385 1.561 10.417-.355l1.487-1.17 1.9-1.9h-.001l1.043-1.044a4.1 4.1 0 0 0 0-5.799l-5.47-5.47a4.1 4.1 0 0 0-5.799 0l-1.547 1.547a3.228 3.228 0 0 1-4.328.214 88.768 88.768 0 0 1-12.14-12.14 3.225 3.225 0 0 1 .215-4.329l1.546-1.547a4.101 4.101 0 0 0 0-5.799l-5.472-5.47a4.101 4.101 0 0 0-5.799 0l-4.112 4.43z"/>
        <path stroke="#999" stroke-width="1.5" d="M112.614 24.79c1.855-4.51.953-9.887-2.71-13.55-3.664-3.664-9.04-4.566-13.55-2.712"/>
        <path stroke="#999" stroke-width="1.5" d="M119.166 26.048c2.2-6.627.692-14.213-4.583-19.488-5.274-5.275-12.86-6.783-19.488-4.582"/>
        <path fill="#999" d="M93.27 58.75a3.272 3.272 0 0 0 4.816 1.29c2.27-1.567 5.341.205 5.12 2.955a3.27 3.27 0 0 0 3.525 3.525c2.75-.22 4.523 2.85 2.957 5.121a3.27 3.27 0 0 0 1.29 4.814c2.492 1.184 2.492 4.731 0 5.913a3.272 3.272 0 0 0-1.29 4.815c1.566 2.27-.207 5.342-2.957 5.12a3.272 3.272 0 0 0-3.524 3.525c.22 2.75-2.85 4.524-5.121 2.956a3.273 3.273 0 0 0-4.816 1.29c-1.182 2.492-4.728 2.492-5.911 0a3.273 3.273 0 0 0-4.816-1.29c-2.27 1.568-5.342-.206-5.12-2.956a3.272 3.272 0 0 0-3.525-3.525c-2.75.222-4.523-2.85-2.956-5.12a3.273 3.273 0 0 0-1.29-4.815c-2.492-1.182-2.492-4.729 0-5.913a3.272 3.272 0 0 0 1.29-4.814c-1.567-2.27.207-5.342 2.957-5.12a3.271 3.271 0 0 0 3.523-3.526c-.22-2.75 2.852-4.522 5.121-2.956a3.272 3.272 0 0 0 4.816-1.29c1.183-2.492 4.729-2.492 5.912 0"/>
        <path fill="#999" d="M102.201 75.716c.363 1.168.56 2.409.56 3.696 0 6.873-5.574 12.445-12.447 12.445-6.873 0-12.444-5.572-12.444-12.445s5.571-12.445 12.444-12.445c2.11 0 4.097.525 5.838 1.451"/>
        <path stroke="#E2E2E2" stroke-width="1.5" d="M102.201 75.716c.363 1.168.56 2.409.56 3.696 0 6.873-5.574 12.445-12.447 12.445-6.873 0-12.444-5.572-12.444-12.445s5.571-12.445 12.444-12.445c2.11 0 4.097.525 5.838 1.451"/>
        <path fill="#999" d="M83.136 77.148l5.705 5.705 11.585-11.585"/>
        <path stroke="#E2E2E2" stroke-width="1.5" d="M83.136 77.148l5.705 5.705 11.585-11.585"/>
        <path fill="#999" d="M46.752 96.525H8.356a6.793 6.793 0 0 1-6.792-6.792V69.092a6.793 6.793 0 0 1 6.792-6.793h38.396a6.792 6.792 0 0 1 6.792 6.793v20.64a6.792 6.792 0 0 1-6.792 6.793"/>
        <path stroke="#E2E2E2" stroke-width="1.5" d="M7.808 72.362l19.746 10.935L47.3 72.362"/>
        <path fill="#999" d="M58.707 26.978l-4.776-4.957c3.499-1.197 4.664-4.508 4.664-8.414a8.9 8.9 0 0 0-17.798 0c0 3.906 1.164 7.217 4.664 8.414l-4.777 4.957a14.737 14.737 0 0 0-5.474 11.46v9.69h28.971v-9.69c0-4.45-2.012-8.662-5.474-11.46"/>
        <path fill="#E2E2E2" d="M74.584 40.872c0 5.876-4.763 10.64-10.639 10.64-5.876 0-10.639-4.764-10.639-10.64s4.763-10.639 10.639-10.639c5.876 0 10.639 4.763 10.639 10.64"/>
        <path stroke="#999" stroke-width="1.5" d="M57.808 41.125l3.843 3.843 7.803-7.804"/>
        <path fill="#999" d="M0 39.865V5.078l24.425 24.425H9.569z"/>
        <path stroke="#999" stroke-width="3" d="M9.57 29.503l7.895 19.84"/>
    </g>
</svg>
