<svg xmlns="http://www.w3.org/2000/svg" width="338" height="350"><g fill="none" fill-rule="evenodd"><path fill="#FFF" d="M275.248 182.357c0 58.71-47.594 106.306-106.305 106.306-58.71 0-106.305-47.595-106.305-106.306S110.232 76.052 168.943 76.052c58.711 0 106.305 47.594 106.305 106.305"/><path stroke="#0F91C2" stroke-width="1.5" d="M275.248 182.357c0 58.71-47.594 106.306-106.305 106.306-58.71 0-106.305-47.595-106.305-106.306S110.232 76.052 168.943 76.052c58.711 0 106.305 47.594 106.305 106.305z"/><path fill="#0F91C2" stroke="#0F91C2" stroke-width="1.5" d="M255.514 182.357c0 47.812-38.76 86.57-86.57 86.57-47.812 0-86.571-38.758-86.571-86.57 0-47.812 38.759-86.57 86.57-86.57 47.812 0 86.57 38.758 86.57 86.57z"/><path fill="#FFF" d="M156.447 179.93v-.206c0-3.77-2.103-6.566-5.694-6.566-3.59 0-5.72 2.641-5.72 6.591v.205c0 4.001 2.436 6.592 5.771 6.592 3.463 0 5.643-2.64 5.643-6.617m-14.979.051v-.205c0-5.36 3.847-9.337 9.285-9.337 5.464 0 9.234 3.874 9.234 9.26v.205c0 5.361-3.668 9.388-9.234 9.388-5.618 0-9.285-4.027-9.285-9.31m27.962-.796c2.282 0 3.488-.975 3.488-2.924v-.102c0-2.104-1.308-2.823-3.488-2.823h-2.745v5.849h2.745zm-6.156-8.49h6.156c4.026 0 6.848 1.641 6.848 5.386v.103c0 2.873-1.795 4.335-4.078 4.925l5.156 7.926h-3.695l-4.795-7.413h-2.181v7.413h-3.411v-18.34zm15.623 9.285v-.205c0-5.463 3.797-9.362 9.157-9.362 3.924 0 7.412 1.796 7.9 6.18h-3.412c-.41-2.435-2.052-3.487-4.436-3.487-3.593 0-5.67 2.668-5.67 6.694v.205c0 3.925 1.821 6.619 5.67 6.619 3.436 0 4.847-2.078 4.95-4.618h-4.618v-2.564h7.979v1.692c0 5.079-3.181 8.158-8.363 8.158-5.875 0-9.157-3.9-9.157-9.312"/><path stroke="#0F91C2" stroke-width="1.5" d="M323.231 243.819l-92.826 92.827m92.826 0l-92.826-92.827"/><path fill="#FFF" d="M332.137 236.842l-4.364-4.529c3.197-1.093 4.26-4.117 4.26-7.685a8.129 8.129 0 10-16.256 0c0 3.568 1.062 6.592 4.26 7.685l-4.364 4.53a13.457 13.457 0 00-5 10.468v8.85h26.464v-8.85a13.46 13.46 0 00-5-10.469"/><path stroke="#0F91C2" stroke-width="1.5" d="M332.137 236.842l-4.364-4.529c3.197-1.093 4.26-4.117 4.26-7.685a8.129 8.129 0 10-16.256 0c0 3.568 1.062 6.592 4.26 7.685l-4.364 4.53a13.457 13.457 0 00-5 10.468v8.85h26.464v-8.85a13.46 13.46 0 00-5-10.469z"/><path fill="#FFF" d="M332.137 329.776l-4.364-4.528c3.197-1.094 4.26-4.118 4.26-7.686a8.129 8.129 0 10-16.256 0c0 3.568 1.062 6.592 4.26 7.686l-4.364 4.528a13.457 13.457 0 00-5 10.469v8.85h26.464v-8.85a13.46 13.46 0 00-5-10.47"/><path stroke="#0F91C2" stroke-width="1.5" d="M332.137 329.776l-4.364-4.528c3.197-1.094 4.26-4.118 4.26-7.686a8.129 8.129 0 10-16.256 0c0 3.568 1.062 6.592 4.26 7.686l-4.364 4.528a13.457 13.457 0 00-5 10.469v8.85h26.464v-8.85a13.46 13.46 0 00-5-10.47z"/><path fill="#FFF" d="M237.964 329.776l-4.364-4.528c3.197-1.094 4.26-4.118 4.26-7.686a8.129 8.129 0 10-16.256 0c0 3.568 1.062 6.592 4.26 7.686l-4.364 4.528a13.457 13.457 0 00-5 10.469v8.85h26.464v-8.85a13.46 13.46 0 00-5-10.47"/><path stroke="#0F91C2" stroke-width="1.5" d="M237.964 329.776l-4.364-4.528c3.197-1.094 4.26-4.118 4.26-7.686a8.129 8.129 0 10-16.256 0c0 3.568 1.062 6.592 4.26 7.686l-4.364 4.528a13.457 13.457 0 00-5 10.469v8.85h26.464v-8.85a13.46 13.46 0 00-5-10.47z"/><path fill="#FFF" d="M285.05 283.309l-4.363-4.528c3.197-1.094 4.26-4.118 4.26-7.686a8.129 8.129 0 10-16.257 0c0 3.568 1.063 6.592 4.26 7.686l-4.364 4.528a13.46 13.46 0 00-5 10.469v8.85h26.464v-8.85c0-4.066-1.837-7.914-5-10.469"/><path stroke="#0F91C2" stroke-width="1.5" d="M285.05 283.309l-4.363-4.528c3.197-1.094 4.26-4.118 4.26-7.686a8.129 8.129 0 10-16.257 0c0 3.568 1.063 6.592 4.26 7.686l-4.364 4.528a13.46 13.46 0 00-5 10.469v8.85h26.464v-8.85c0-4.066-1.837-7.914-5-10.469zm38.181-255.24l-92.826 92.827m92.826 0l-92.826-92.827"/><path fill="#FFF" d="M332.137 21.092l-4.364-4.528c3.197-1.094 4.26-4.118 4.26-7.686a8.129 8.129 0 10-16.256 0c0 3.568 1.062 6.592 4.26 7.686l-4.364 4.528a13.457 13.457 0 00-5 10.47v8.85h26.464v-8.85a13.46 13.46 0 00-5-10.47"/><path stroke="#0F91C2" stroke-width="1.5" d="M332.137 21.092l-4.364-4.528c3.197-1.094 4.26-4.118 4.26-7.686a8.129 8.129 0 10-16.256 0c0 3.568 1.062 6.592 4.26 7.686l-4.364 4.528a13.457 13.457 0 00-5 10.47v8.85h26.464v-8.85a13.46 13.46 0 00-5-10.47z"/><path fill="#FFF" d="M237.964 21.092l-4.364-4.528c3.197-1.094 4.26-4.118 4.26-7.686a8.129 8.129 0 10-16.256 0c0 3.568 1.062 6.592 4.26 7.686l-4.364 4.528a13.457 13.457 0 00-5 10.47v8.85h26.464v-8.85a13.46 13.46 0 00-5-10.47"/><path stroke="#0F91C2" stroke-width="1.5" d="M237.964 21.092l-4.364-4.528c3.197-1.094 4.26-4.118 4.26-7.686a8.129 8.129 0 10-16.256 0c0 3.568 1.062 6.592 4.26 7.686l-4.364 4.528a13.457 13.457 0 00-5 10.47v8.85h26.464v-8.85a13.46 13.46 0 00-5-10.47z"/><path fill="#FFF" d="M332.137 114.026l-4.364-4.528c3.197-1.094 4.26-4.118 4.26-7.686a8.129 8.129 0 10-16.256 0c0 3.568 1.062 6.592 4.26 7.686l-4.364 4.528a13.458 13.458 0 00-5 10.469v8.85h26.464v-8.85c0-4.066-1.838-7.913-5-10.47"/><path stroke="#0F91C2" stroke-width="1.5" d="M332.137 114.026l-4.364-4.528c3.197-1.094 4.26-4.118 4.26-7.686a8.129 8.129 0 10-16.256 0c0 3.568 1.062 6.592 4.26 7.686l-4.364 4.528a13.458 13.458 0 00-5 10.469v8.85h26.464v-8.85c0-4.066-1.838-7.913-5-10.47z"/><path fill="#FFF" d="M285.05 67.56l-4.363-4.529c3.197-1.094 4.26-4.118 4.26-7.686a8.129 8.129 0 10-16.257 0c0 3.568 1.063 6.592 4.26 7.686l-4.364 4.528a13.46 13.46 0 00-5 10.47v8.85h26.464v-8.85c0-4.067-1.837-7.915-5-10.47"/><path stroke="#0F91C2" stroke-width="1.5" d="M285.05 67.56l-4.363-4.529c3.197-1.094 4.26-4.118 4.26-7.686a8.129 8.129 0 10-16.257 0c0 3.568 1.063 6.592 4.26 7.686l-4.364 4.528a13.46 13.46 0 00-5 10.47v8.85h26.464v-8.85c0-4.067-1.837-7.915-5-10.47zM107.481 243.819l-92.826 92.827m92.826 0l-92.826-92.827"/><path fill="#FFF" d="M22.214 236.842l-4.363-4.529c3.196-1.093 4.259-4.117 4.259-7.685a8.129 8.129 0 10-16.256 0c0 3.568 1.063 6.592 4.26 7.685l-4.364 4.53a13.46 13.46 0 00-5 10.468v8.85h26.464v-8.85a13.46 13.46 0 00-5-10.469"/><path stroke="#0F91C2" stroke-width="1.5" d="M22.214 236.842l-4.363-4.529c3.196-1.093 4.259-4.117 4.259-7.685a8.129 8.129 0 10-16.256 0c0 3.568 1.063 6.592 4.26 7.685l-4.364 4.53a13.46 13.46 0 00-5 10.468v8.85h26.464v-8.85a13.46 13.46 0 00-5-10.469z"/><path fill="#FFF" d="M116.387 329.776l-4.363-4.528c3.196-1.094 4.259-4.118 4.259-7.686a8.129 8.129 0 10-16.256 0c0 3.568 1.063 6.592 4.26 7.686l-4.364 4.528a13.46 13.46 0 00-5 10.469v8.85h26.464v-8.85a13.46 13.46 0 00-5-10.47"/><path stroke="#0F91C2" stroke-width="1.5" d="M116.387 329.776l-4.363-4.528c3.196-1.094 4.259-4.118 4.259-7.686a8.129 8.129 0 10-16.256 0c0 3.568 1.063 6.592 4.26 7.686l-4.364 4.528a13.46 13.46 0 00-5 10.469v8.85h26.464v-8.85a13.46 13.46 0 00-5-10.47z"/><path fill="#FFF" d="M22.214 329.776l-4.363-4.528c3.196-1.094 4.259-4.118 4.259-7.686a8.129 8.129 0 10-16.256 0c0 3.568 1.063 6.592 4.26 7.686l-4.364 4.528a13.46 13.46 0 00-5 10.469v8.85h26.464v-8.85a13.46 13.46 0 00-5-10.47"/><path stroke="#0F91C2" stroke-width="1.5" d="M22.214 329.776l-4.363-4.528c3.196-1.094 4.259-4.118 4.259-7.686a8.129 8.129 0 10-16.256 0c0 3.568 1.063 6.592 4.26 7.686l-4.364 4.528a13.46 13.46 0 00-5 10.469v8.85h26.464v-8.85a13.46 13.46 0 00-5-10.47z"/><path fill="#FFF" d="M69.3 283.309l-4.363-4.528c3.197-1.094 4.26-4.118 4.26-7.686a8.129 8.129 0 10-16.257 0c0 3.568 1.063 6.592 4.26 7.686l-4.364 4.528a13.46 13.46 0 00-5 10.469v8.85H74.3v-8.85c0-4.066-1.837-7.914-5-10.469"/><path stroke="#0F91C2" stroke-width="1.5" d="M69.3 283.309l-4.363-4.528c3.197-1.094 4.26-4.118 4.26-7.686a8.129 8.129 0 10-16.257 0c0 3.568 1.063 6.592 4.26 7.686l-4.364 4.528a13.46 13.46 0 00-5 10.469v8.85H74.3v-8.85c0-4.066-1.837-7.914-5-10.469zm38.181-255.24l-92.826 92.827m92.826 0L14.656 28.069"/><path fill="#FFF" d="M116.387 21.092l-4.363-4.528c3.196-1.094 4.259-4.118 4.259-7.686a8.129 8.129 0 10-16.256 0c0 3.568 1.063 6.592 4.26 7.686l-4.364 4.528a13.46 13.46 0 00-5 10.47v8.85h26.464v-8.85a13.46 13.46 0 00-5-10.47"/><path stroke="#0F91C2" stroke-width="1.5" d="M116.387 21.092l-4.363-4.528c3.196-1.094 4.259-4.118 4.259-7.686a8.129 8.129 0 10-16.256 0c0 3.568 1.063 6.592 4.26 7.686l-4.364 4.528a13.46 13.46 0 00-5 10.47v8.85h26.464v-8.85a13.46 13.46 0 00-5-10.47z"/><path fill="#FFF" d="M22.214 21.092l-4.363-4.528c3.196-1.094 4.259-4.118 4.259-7.686a8.129 8.129 0 10-16.256 0c0 3.568 1.063 6.592 4.26 7.686L5.75 21.092a13.46 13.46 0 00-5 10.47v8.85h26.464v-8.85a13.46 13.46 0 00-5-10.47"/><path stroke="#0F91C2" stroke-width="1.5" d="M22.214 21.092l-4.363-4.528c3.196-1.094 4.259-4.118 4.259-7.686a8.129 8.129 0 10-16.256 0c0 3.568 1.063 6.592 4.26 7.686L5.75 21.092a13.46 13.46 0 00-5 10.47v8.85h26.464v-8.85a13.46 13.46 0 00-5-10.47z"/><path fill="#FFF" d="M22.214 114.026l-4.363-4.528c3.196-1.094 4.259-4.118 4.259-7.686a8.129 8.129 0 10-16.256 0c0 3.568 1.063 6.592 4.26 7.686l-4.364 4.528a13.461 13.461 0 00-5 10.469v8.85h26.464v-8.85c0-4.066-1.838-7.913-5-10.47"/><path stroke="#0F91C2" stroke-width="1.5" d="M22.214 114.026l-4.363-4.528c3.196-1.094 4.259-4.118 4.259-7.686a8.129 8.129 0 10-16.256 0c0 3.568 1.063 6.592 4.26 7.686l-4.364 4.528a13.461 13.461 0 00-5 10.469v8.85h26.464v-8.85c0-4.066-1.838-7.913-5-10.47z"/><path fill="#FFF" d="M69.3 67.56l-4.363-4.529c3.197-1.094 4.26-4.118 4.26-7.686a8.129 8.129 0 10-16.257 0c0 3.568 1.063 6.592 4.26 7.686l-4.364 4.528a13.46 13.46 0 00-5 10.47v8.85H74.3v-8.85c0-4.067-1.837-7.915-5-10.47"/><path stroke="#0F91C2" stroke-width="1.5" d="M69.3 67.56l-4.363-4.529c3.197-1.094 4.26-4.118 4.26-7.686a8.129 8.129 0 10-16.257 0c0 3.568 1.063 6.592 4.26 7.686l-4.364 4.528a13.46 13.46 0 00-5 10.47v8.85H74.3v-8.85c0-4.067-1.837-7.915-5-10.47z"/></g></svg>