<svg xmlns="http://www.w3.org/2000/svg" xmlns:xlink="http://www.w3.org/1999/xlink" width="161" height="101"><defs><path id="a" d="M.916.671H52.87v51.954H.916z"/><path id="c" d="M.112.259h45.202V45.46H.112z"/></defs><g fill="none" fill-rule="evenodd"><path fill="#FF8F8F" d="M39.102 25.224a5.022 5.022 0 007.388 1.979c3.483-2.404 8.195.317 7.854 4.535a5.021 5.021 0 005.408 5.408c4.219-.341 6.94 4.372 4.536 7.855a5.02 5.02 0 001.979 7.387c3.823 1.815 3.823 7.256 0 9.07a5.02 5.02 0 00-1.979 7.387c2.404 3.483-.317 8.195-4.536 7.856a5.02 5.02 0 00-5.408 5.407c.341 4.219-4.371 6.939-7.854 4.536a5.021 5.021 0 00-7.388 1.978c-1.814 3.825-7.256 3.825-9.07 0a5.02 5.02 0 00-7.387-1.978c-3.483 2.403-8.195-.317-7.855-4.536.249-3.083-2.325-5.656-5.408-5.407-4.218.339-6.939-4.373-4.535-7.856a5.02 5.02 0 00-1.979-7.387c-3.824-1.814-3.824-7.255 0-9.07A5.02 5.02 0 004.847 45c-2.404-3.483.317-8.196 4.535-7.855 3.083.248 5.657-2.324 5.408-5.408-.34-4.218 4.372-6.94 7.855-4.535a5.021 5.021 0 007.387-1.98c1.814-3.823 7.256-3.823 9.07 0"/><path stroke="#0679A4" stroke-width="1.5" d="M52.803 51.253a19.06 19.06 0 01.856 5.67c0 10.544-8.547 19.092-19.092 19.092-10.544 0-19.092-8.548-19.092-19.092 0-10.544 8.548-19.092 19.092-19.092 3.236 0 6.285.805 8.956 2.227"/><path stroke="#0679A4" stroke-width="1.5" d="M23.553 53.45l8.752 8.751 17.773-17.773"/><path fill="#FDD455" d="M95.234 60.42a3.074 3.074 0 004.523 1.212c2.134-1.472 5.02.194 4.81 2.777a3.075 3.075 0 003.313 3.312c2.583-.208 4.249 2.677 2.777 4.81a3.075 3.075 0 001.212 4.524c2.342 1.11 2.342 4.443 0 5.554a3.075 3.075 0 00-1.212 4.524c1.472 2.133-.194 5.018-2.777 4.81a3.075 3.075 0 00-3.312 3.312c.209 2.583-2.677 4.249-4.811 2.777a3.074 3.074 0 00-4.523 1.212c-1.111 2.34-4.443 2.34-5.555 0a3.073 3.073 0 00-4.523-1.212c-2.133 1.472-5.02-.194-4.811-2.777a3.074 3.074 0 00-3.311-3.312c-2.583.208-4.25-2.677-2.778-4.81a3.074 3.074 0 00-1.211-4.524c-2.341-1.111-2.341-4.443 0-5.554a3.074 3.074 0 001.21-4.524c-1.47-2.133.196-5.018 2.779-4.81a3.074 3.074 0 003.31-3.312c-.207-2.583 2.679-4.25 4.812-2.777a3.074 3.074 0 004.523-1.212c1.112-2.342 4.444-2.342 5.555 0"/><path stroke="#0679A4" stroke-width="1.5" d="M103.624 76.36a11.71 11.71 0 01.523 3.472c0 6.457-5.234 11.691-11.69 11.691-6.457 0-11.691-5.234-11.691-11.69 0-6.458 5.233-11.693 11.69-11.693 1.983 0 3.85.493 5.484 1.364"/><path stroke="#0679A4" stroke-width="1.5" d="M85.712 77.705l5.36 5.36 10.883-10.884"/><path fill="#F0BB70" d="M139.811 3.483a1.886 1.886 0 002.775.743c1.31-.903 3.08.12 2.953 1.704a1.886 1.886 0 002.031 2.032c1.586-.127 2.607 1.643 1.704 2.952a1.886 1.886 0 00.744 2.775c1.437.683 1.437 2.727 0 3.41a1.887 1.887 0 00-.744 2.775c.903 1.308-.118 3.08-1.704 2.951a1.886 1.886 0 00-2.031 2.032c.127 1.585-1.643 2.607-2.953 1.704a1.886 1.886 0 00-2.775.743c-.682 1.438-2.727 1.438-3.408 0a1.887 1.887 0 00-2.776-.743c-1.308.903-3.08-.119-2.952-1.704a1.886 1.886 0 00-2.031-2.032c-1.585.128-2.607-1.643-1.704-2.95a1.887 1.887 0 00-.744-2.777c-1.437-.682-1.437-2.726 0-3.409a1.886 1.886 0 00.744-2.775c-.903-1.309.119-3.079 1.704-2.952a1.886 1.886 0 002.031-2.032c-.128-1.585 1.644-2.607 2.952-1.704.957.66 2.278.307 2.776-.743.681-1.437 2.726-1.437 3.408 0"/><path stroke="#0679A4" stroke-width="1.5" d="M144.96 13.264c.208.673.32 1.389.32 2.13a7.173 7.173 0 01-14.347 0 7.173 7.173 0 017.173-7.173c1.216 0 2.362.302 3.366.836"/><path stroke="#0679A4" stroke-width="1.5" d="M133.968 14.089l3.29 3.288 6.677-6.678"/><g transform="translate(67)"><mask id="b" fill="#fff"><use xlink:href="#a"/></mask><path fill="#DF71DB" d="M30.301 2.825a3.772 3.772 0 005.551 1.488c2.618-1.806 6.16.238 5.903 3.408a3.774 3.774 0 004.065 4.064c3.17-.256 5.214 3.285 3.408 5.903a3.771 3.771 0 001.487 5.551c2.873 1.364 2.873 5.453 0 6.816a3.772 3.772 0 00-1.487 5.552c1.806 2.617-.239 6.158-3.408 5.904a3.773 3.773 0 00-4.065 4.063c.256 3.17-3.285 5.215-5.903 3.408a3.773 3.773 0 00-5.55 1.488c-1.365 2.873-5.454 2.873-6.817 0a3.774 3.774 0 00-5.552-1.488c-2.617 1.807-6.158-.238-5.903-3.408a3.772 3.772 0 00-4.064-4.063c-3.17.254-5.215-3.287-3.408-5.904a3.774 3.774 0 00-1.487-5.552c-2.874-1.363-2.874-5.452 0-6.816a3.773 3.773 0 001.487-5.55c-1.807-2.619.238-6.16 3.408-5.904a3.773 3.773 0 004.064-4.064c-.255-3.17 3.286-5.214 5.903-3.408a3.773 3.773 0 005.552-1.488c1.363-2.873 5.452-2.873 6.816 0" mask="url(#b)"/></g><path stroke="#F0BB70" stroke-width="1.5" d="M107.597 22.387c.418 1.346.644 2.777.644 4.26 0 7.925-6.424 14.348-14.348 14.348s-14.348-6.423-14.348-14.347c0-7.924 6.424-14.348 14.348-14.348 2.432 0 4.723.606 6.73 1.674"/><path stroke="#F0BB70" stroke-width="1.5" d="M85.617 24.037l6.576 6.577 13.357-13.356"/><g transform="translate(115 33)"><mask id="d" fill="#fff"><use xlink:href="#c"/></mask><path fill="#0F91C2" d="M25.678 2.134a3.283 3.283 0 004.83 1.294c2.277-1.571 5.358.207 5.136 2.966a3.282 3.282 0 003.535 3.535c2.76-.223 4.537 2.858 2.966 5.136a3.282 3.282 0 001.294 4.83c2.5 1.186 2.5 4.744 0 5.93a3.282 3.282 0 00-1.294 4.83c1.571 2.278-.207 5.358-2.966 5.136a3.282 3.282 0 00-3.535 3.535c.222 2.759-2.859 4.537-5.136 2.966a3.282 3.282 0 00-4.83 1.294c-1.187 2.5-4.744 2.5-5.93 0a3.281 3.281 0 00-4.83-1.294c-2.277 1.57-5.358-.207-5.136-2.966a3.282 3.282 0 00-3.536-3.535c-2.757.222-4.537-2.858-2.964-5.136a3.283 3.283 0 00-1.295-4.83c-2.5-1.186-2.5-4.744 0-5.93a3.283 3.283 0 001.295-4.83c-1.573-2.278.207-5.36 2.964-5.136a3.282 3.282 0 003.536-3.535c-.222-2.76 2.86-4.537 5.136-2.966a3.282 3.282 0 004.83-1.294c1.186-2.5 4.743-2.5 5.93 0" mask="url(#d)"/></g><path stroke="#F0BB70" stroke-width="1.5" d="M149.636 52.152a12.5 12.5 0 01.56 3.707c0 6.895-5.589 12.483-12.483 12.483S125.23 62.754 125.23 55.86c0-6.894 5.59-12.482 12.483-12.482 2.116 0 4.11.526 5.856 1.456"/><path stroke="#F0BB70" stroke-width="1.5" d="M130.512 53.589l5.723 5.722 11.62-11.62"/></g></svg>