<svg xmlns="http://www.w3.org/2000/svg" xmlns:xlink="http://www.w3.org/1999/xlink" width="174" height="93" viewBox="0 0 174 93">
    <defs>
        <path id="a" d="M.301.725h26.713V27H.301z"/>
        <path id="c" d="M.47.725h26.713V27H.47z"/>
        <path id="e" d="M.38.2h10.725v10.725H.38z"/>
        <path id="g" d="M.971.725h26.713V27H.971z"/>
        <path id="i" d="M0 .603h33.237V36.38H0z"/>
    </defs>
    <g fill="none" fill-rule="evenodd">
        <path fill="#999" d="M47.503 78.138l.777 9.948h29.223l.31-9.637S69.11 68.812 65.38 68.345c-3.73-.466-17.876 9.793-17.876 9.793"/>
        <g transform="translate(49 65.67)">
            <mask id="b" fill="#fff">
                <use xlink:href="#a"/>
            </mask>
            <path fill="#E2E2E2" d="M.301 13.863C.301 21.119 6.281 27 13.657 27c7.377 0 13.357-5.882 13.357-13.138S21.034.725 13.657.725a13.56 13.56 0 0 0-4.113.635C4.181 3.066.301 8.019.301 13.863" mask="url(#b)"/>
        </g>
        <path fill="#999" d="M64.051 70.055s-8.73 9.478-16.072 9.478c-1.303 0 .933-15.003 14.781-15.003 14.365 0 15.053 13.92 15.053 13.92s-7.57 5.594-13.762-8.395"/>
        <g transform="translate(94 65.67)">
            <mask id="d" fill="#fff">
                <use xlink:href="#c"/>
            </mask>
            <path fill="#E2E2E2" d="M.47 13.863C.47 21.119 6.45 27 13.826 27c7.377 0 13.357-5.882 13.357-13.138S21.203.725 13.826.725a13.56 13.56 0 0 0-4.113.635C4.35 3.066.47 8.019.47 13.863" mask="url(#d)"/>
        </g>
        <path fill="#999" d="M121.35 78.91s-8.89-3.804-9.513-8.001c0 0-6.45 7.89-17.758 6.685 0 0 2.41-11.658 12.666-11.658 9.028 0 14.138 5.358 14.605 12.974"/>
        <g transform="translate(162 70.67)">
            <mask id="f" fill="#fff">
                <use xlink:href="#e"/>
            </mask>
            <path fill="#999" d="M.38 5.563a5.363 5.363 0 1 0 10.725-.002A5.363 5.363 0 0 0 .38 5.563" mask="url(#f)"/>
        </g>
        <g transform="translate(140 65.67)">
            <mask id="h" fill="#fff">
                <use xlink:href="#g"/>
            </mask>
            <path fill="#E2E2E2" d="M.971 13.863C.971 21.119 6.951 27 14.327 27c7.376 0 13.357-5.882 13.357-13.138S21.704.725 14.327.725c-1.435 0-2.817.223-4.113.635C4.85 3.066.971 8.019.971 13.863" mask="url(#h)"/>
        </g>
        <path fill="#999" d="M167.665 77.904s-8.55-2.487-9.171-6.685c0 0-10.57 10.998-21.878 9.793 0 0 2.914-14.69 15.972-14.69 9.027 0 13.756 4.198 15.077 11.582"/>
        <g transform="translate(0 51.67)">
            <mask id="j" fill="#fff">
                <use xlink:href="#i"/>
            </mask>
            <path fill="#999" d="M15.867 36.367c-9.17-.386-16.265-8.7-15.85-18.572C.432 7.92 8.202.23 17.37.616c9.168.386 16.265 8.702 15.849 18.575-.416 9.872-8.185 17.563-17.353 17.177" mask="url(#j)"/>
        </g>
        <path fill="#E2E2E2" d="M29.723 79.894c0 7.056-5.816 12.776-12.99 12.776-7.173 0-12.989-5.72-12.989-12.776 0-7.057 5.816-12.776 12.99-12.776 1.395 0 2.74.215 4 .617 5.216 1.659 8.99 6.475 8.99 12.159"/>
        <path fill="#999" d="M9.799 67.925s1.555 6.373-6.373 9.793c-5.738 2.475 2.332-9.638 2.332-9.638l4.04-.155zM22.784 67.925s-1.554 6.373 6.373 9.793c5.738 2.475-2.331-9.638-2.331-9.638l-4.042-.155z"/>
        <path fill="#999" d="M8.4 68.08s1.554 2.643 7.927 2.643c6.373 0 10.103-2.798 10.103-2.798l-13.989-2.488-4.04 2.643z"/>
        <path fill="#FFF" d="M109.021 23c0 12.288-9.96 22.25-22.25 22.25-12.288 0-22.25-9.962-22.25-22.25 0-12.289 9.962-22.25 22.25-22.25 12.29 0 22.25 9.961 22.25 22.25"/>
        <path stroke="#999" stroke-dasharray="3,3" stroke-width="1.5" d="M109.021 23c0 12.288-9.96 22.25-22.25 22.25-12.288 0-22.25-9.962-22.25-22.25 0-12.289 9.962-22.25 22.25-22.25 12.29 0 22.25 9.961 22.25 22.25z"/>
        <path fill="#999" d="M80.924 22.538v-.096c0-1.762-.984-3.07-2.663-3.07-1.68 0-2.674 1.235-2.674 3.081v.096c0 1.872 1.14 3.084 2.697 3.084 1.62 0 2.64-1.236 2.64-3.095m-7.005.023v-.096c0-2.506 1.8-4.364 4.343-4.364 2.555 0 4.317 1.81 4.317 4.33v.095c0 2.506-1.715 4.39-4.317 4.39-2.627 0-4.343-1.884-4.343-4.355M86.998 22.19c1.067 0 1.63-.456 1.63-1.367v-.048c0-.983-.611-1.32-1.63-1.32h-1.284v2.735h1.284zm-2.88-3.97h2.88c1.883 0 3.202.768 3.202 2.519v.048c0 1.343-.84 2.027-1.907 2.302l2.41 3.706h-1.726l-2.244-3.465h-1.02v3.465H84.12V18.22zM91.427 22.562v-.097c0-2.553 1.775-4.377 4.281-4.377 1.835 0 3.467.84 3.695 2.89h-1.595c-.193-1.14-.96-1.631-2.075-1.631-1.679 0-2.65 1.248-2.65 3.13v.097c0 1.835.851 3.094 2.65 3.094 1.607 0 2.266-.971 2.314-2.16H95.89V22.31h3.73v.79c0 2.376-1.488 3.816-3.91 3.816-2.747 0-4.282-1.824-4.282-4.354"/>
    </g>
</svg>
