<svg xmlns="http://www.w3.org/2000/svg" xmlns:xlink="http://www.w3.org/1999/xlink" width="112" height="89"><defs><path id="a" d="M.966.017H18.5v17.721H.966z"/><path id="c" d="M.14.019h35.565V35H.14z"/></defs><g fill="none" fill-rule="evenodd"><path fill="#FF8F8F" d="M40 17.5C40 27.164 31.94 35 22.001 35 12.06 35 4 27.165 4 17.5 4 7.833 12.06 0 22.001 0c1.933 0 3.796.297 5.541.845C34.771 3.117 40 9.715 40 17.5"/><path fill="#0679A4" d="M4.957 24S15.461 12.297 16.29 6.67c0 0 8.613 10.581 23.71 8.965C40 15.635 36.783 0 23.09 0 11.037 0 .754 9.694 4.956 24"/><path fill="#FF8F8F" d="M8 16c0 1.658 1.118 3 2.5 3 1.38 0 2.5-1.342 2.5-3s-1.12-3-2.5-3C9.118 13 8 14.342 8 16m30.5 3s2.5 4.048 2.5 4.857C41 25 36 25 36 25l2.5-6z"/><path fill="#F0BB70" d="M67 18c0 9.39 7.835 17 17.5 17S102 27.39 102 18c0-9.388-7.835-17-17.5-17-1.881 0-3.692.288-5.388.822C72.083 4.029 67 10.437 67 18"/><path fill="#DF71DB" d="M102.054 24s-10.362-7.05-11.18-12.443c0 0-9.805 6.163-20.874-2.773C70 8.784 75.377 1 84.14 1c11.907 0 22.066 9.29 17.914 23"/><path fill="#F0BB70" d="M68.5 19S66 23.05 66 23.857C66 25 71 25 71 25l-2.5-6z"/><path fill="#DF71DB" d="M87.26 14S98.19 25.5 86 37h17V18.4L87.26 14z"/><path fill="#DF71DB" d="M82 10.353c.775.47.31 13.488 11.477 13.646C104.644 24.155 91.617 8 91.617 8L82 10.353z"/><path fill="#0679A4" d="M31.988 81.033c-10.364 5.94-23.46 2.681-29.252-7.279-5.793-9.958-2.087-22.847 8.276-28.787 10.364-5.94 23.46-2.681 29.252 7.279 5.793 9.959 2.087 22.847-8.276 28.787"/><path fill="#F0BB70" d="M49 72c0 9.39-7.835 17-17.5 17S14 81.39 14 72c0-9.388 7.835-17 17.5-17 1.881 0 3.692.288 5.39.822C43.916 58.029 49 64.437 49 72"/><path fill="#0679A4" d="M14.805 78s10.21-11.325 11.016-16.772c0 0 9.38-.099 15.179-3.378 0 0-6.965-8.85-11.652-8.85-11.716 0-27.38 16.18-14.543 29"/><path fill="#F0BB70" d="M18 70c0 1.656 1.12 3 2.5 3s2.5-1.344 2.5-3-1.12-3-2.5-3-2.5 1.344-2.5 3m30.5 2s2.5 4.05 2.5 4.857C51 78 46 78 46 78l2.5-6z"/><g transform="translate(93 53)"><mask id="b" fill="#fff"><use xlink:href="#a"/></mask><path fill="#61A1E7" d="M.966 8.887C.97 13.78 4.9 17.743 9.744 17.738c4.841-.006 8.762-3.977 8.759-8.87C18.497 3.974 14.567.012 9.725.017 4.882.02.96 3.993.965 8.887" mask="url(#b)"/></g><g transform="translate(65 54)"><mask id="d" fill="#fff"><use xlink:href="#c"/></mask><path fill="#FF8F8F" d="M.14 17.528C.15 27.188 8.12 35.01 17.94 35c9.822-.01 17.774-7.85 17.765-17.51C35.694 7.83 27.725.009 17.904.02c-1.91.001-3.75.3-5.475.85C5.29 3.149.132 9.747.14 17.529" mask="url(#d)"/></g><path fill="#FF8F8F" d="M68.067 72L63 77.68 76 78z"/><path fill="#61A1E7" d="M99.514 77S84.616 68.7 83.79 63.159c0 0-7.848 7.45-22.79 5.875 0 0 2.757-16.016 20.007-16.034 11.927-.013 21.262 6.753 18.507 24"/><path fill="#0679A4" d="M53.816 35h13.369C69.843 35 72 37.177 72 39.861v3.885c0 2.684-2.157 4.86-4.815 4.86H64.7L66.963 55l-9.115-6.394h-4.032c-2.66 0-4.816-2.176-4.816-4.86v-3.885C49 37.177 51.157 35 53.816 35"/><path fill="#0F91C2" d="M57.184 29H43.815C41.155 29 39 31.177 39 33.861v3.885c0 2.684 2.156 4.86 4.815 4.86H46.3L44.037 49l9.116-6.394h4.03c2.661 0 4.817-2.176 4.817-4.86v-3.885C62 31.177 59.844 29 57.184 29"/></g></svg>