<svg xmlns="http://www.w3.org/2000/svg" xmlns:xlink="http://www.w3.org/1999/xlink" width="389" height="229"><defs><path id="a" d="M0 228.444h388.51V0H0z"/></defs><g fill="none" fill-rule="evenodd"><path fill="#0F91C2" d="M240.767 114.01c0 7.048-12.764 26.325-12.764 26.325s-12.763-19.277-12.763-26.326c0-7.049 5.715-12.763 12.763-12.763 7.05 0 12.764 5.715 12.764 12.764"/><path fill="#FFF" d="M233.253 113.824a5.25 5.25 0 11-10.501-.001 5.25 5.25 0 0110.501.001"/><path fill="#0F91C2" d="M263.266 190.506c0 7.049-12.765 26.326-12.765 26.326s-12.763-19.277-12.763-26.326c0-7.05 5.715-12.764 12.763-12.764 7.05 0 12.765 5.715 12.765 12.764"/><path fill="#FFF" d="M255.751 190.32a5.25 5.25 0 11-10.5 0 5.25 5.25 0 0110.5 0"/><path fill="#0F91C2" d="M388.51 195.755c0 7.05-12.765 26.326-12.765 26.326s-12.763-19.277-12.763-26.326c0-7.049 5.715-12.764 12.763-12.764 7.05 0 12.764 5.715 12.764 12.764"/><path fill="#FFF" d="M380.995 195.57a5.25 5.25 0 11-10.5 0 5.25 5.25 0 0110.5 0"/><path fill="#0F91C2" d="M25.528 131.258c0 7.05-12.764 26.325-12.764 26.325S0 138.308 0 131.258c0-7.049 5.714-12.764 12.763-12.764 7.049 0 12.764 5.716 12.764 12.764"/><path fill="#FFF" d="M18.014 131.073a5.25 5.25 0 11-10.501-.001 5.25 5.25 0 0110.501.001"/><path fill="#0F91C2" d="M211.519 12.764c0 7.05-12.765 26.325-12.765 26.325s-12.763-19.276-12.763-26.325C185.991 5.715 191.706 0 198.754 0c7.05 0 12.765 5.715 12.765 12.764"/><path fill="#FFF" d="M204.004 12.579a5.25 5.25 0 11-10.501-.001 5.25 5.25 0 0110.501 0"/><path fill="#79E7F4" d="M352.725 115.347H263.84a6.79 6.79 0 01-6.789-6.79V27.968h102.464v80.59a6.79 6.79 0 01-6.79 6.79"/><path fill="#0F91C2" d="M359.515 28.743H257.051V16.835a6.79 6.79 0 016.789-6.79h88.885a6.79 6.79 0 016.79 6.79v11.908z"/><path fill="#79E7F4" d="M350.216 22.582h-39.41a3.188 3.188 0 110-6.375h39.41a3.188 3.188 0 010 6.375"/><path fill="#FDD455" d="M329.24 22.582h-18.434a3.188 3.188 0 010-6.375h18.435a3.188 3.188 0 010 6.375"/><path fill="#FFF" d="M272.175 19.395a5.033 5.033 0 11-10.065 0 5.033 5.033 0 0110.065 0"/><mask id="b" fill="#fff"><use xlink:href="#a"/></mask><path fill="#0F91C2" d="M274.885 57.648h66.795v-6.375h-66.795zm0 17.676h43.3v-6.375h-43.3z" mask="url(#b)"/><path fill="#0679A4" d="M376.909 127.567h-25.782a7.332 7.332 0 01-7.332-7.332V94.453a7.331 7.331 0 017.332-7.332h25.782a7.332 7.332 0 017.332 7.332v25.782a7.332 7.332 0 01-7.332 7.332" mask="url(#b)"/><path fill="#61A1E7" d="M372.057 104.172a5.362 5.362 0 1010.725 0 5.363 5.363 0 10-10.725 0" mask="url(#b)"/><path fill="#FF8F8F" d="M350.648 107.472c0 7.255 5.979 13.137 13.356 13.137s13.357-5.882 13.357-13.137c0-7.256-5.98-13.138-13.357-13.138a13.56 13.56 0 00-4.113.635c-5.363 1.706-9.243 6.659-9.243 12.503" mask="url(#b)"/><path fill="#61A1E7" d="M377.341 105.843s-8.549-2.487-9.17-6.684c0 0-10.57 10.996-21.879 9.792 0 0 2.915-14.688 15.972-14.688 9.027 0 13.757 4.197 15.077 11.58" mask="url(#b)"/><path fill="#79E7F4" d="M327.374 108.187l-19.092 19.092-19.092-19.092 19.092-19.092z" mask="url(#b)"/><path fill="#0F91C2" d="M320.914 150.118c0 7.05-12.763 26.326-12.763 26.326s-12.764-19.277-12.764-26.326c0-7.049 5.714-12.764 12.764-12.764 7.048 0 12.763 5.715 12.763 12.764" mask="url(#b)"/><path fill="#FFF" d="M313.4 149.933a5.25 5.25 0 11-10.5 0 5.25 5.25 0 0110.5 0" mask="url(#b)"/><path fill="#79E7F4" d="M160.725 167.347H71.84a6.79 6.79 0 01-6.789-6.79V79.968h102.464v80.59a6.79 6.79 0 01-6.79 6.79" mask="url(#b)"/><path fill="#0F91C2" d="M167.515 80.743H65.051V68.835a6.79 6.79 0 016.789-6.79h88.885a6.79 6.79 0 016.79 6.79v11.908z" mask="url(#b)"/><path fill="#79E7F4" d="M158.216 74.582h-39.41a3.188 3.188 0 110-6.375h39.41a3.188 3.188 0 010 6.375" mask="url(#b)"/><path fill="#FDD455" d="M146.067 74.582h-27.261a3.188 3.188 0 010-6.375h27.26a3.187 3.187 0 110 6.375" mask="url(#b)"/><path fill="#FFF" d="M80.175 71.395a5.033 5.033 0 11-10.065 0 5.033 5.033 0 0110.065 0" mask="url(#b)"/><path fill="#0F91C2" d="M82.885 109.648h66.795v-6.375H82.885zm0 17.676h43.3v-6.375h-43.3z" mask="url(#b)"/><path fill="#79E7F4" d="M135.374 160.187l-19.092 19.092-19.092-19.092 19.092-19.092z" mask="url(#b)"/><path fill="#FDD455" d="M184.802 179.567l-25.782-.083a7.332 7.332 0 01-7.309-7.356l.083-25.782a7.332 7.332 0 017.356-7.308l25.782.083a7.331 7.331 0 017.308 7.356l-.083 25.781a7.332 7.332 0 01-7.355 7.31" mask="url(#b)"/><path fill="#FF8F8F" d="M158.88 159.628c-.023 7.128 5.833 12.925 13.08 12.95 7.247.022 13.14-5.738 13.163-12.866.023-7.127-5.833-12.925-13.08-12.948-1.41-.005-2.768.21-4.043.61-5.274 1.66-9.1 6.513-9.12 12.254" mask="url(#b)"/><path fill="#0679A4" d="M185.123 159.713s-4.41-4.48-5.008-8.604c0 0-3.934 1.74-7.62 1.467-3.685-.272-7.633-2.165-8-2.302-.252-.094.287 2.807-1.43 5.02-1.757 2.266-4.25 3.127-4.25 3.127.012-3.533 3.113-13.26 13.468-13.226 8.165.027 13.184 5.412 12.84 14.518" mask="url(#b)"/><path fill="#0F91C2" d="M128.915 202.118c0 7.05-12.764 26.326-12.764 26.326s-12.764-19.277-12.764-26.326c0-7.049 5.715-12.764 12.763-12.764 7.05 0 12.764 5.715 12.764 12.764" mask="url(#b)"/><path fill="#FFF" d="M121.4 201.933a5.25 5.25 0 11-10.5 0 5.25 5.25 0 0110.5 0" mask="url(#b)"/></g></svg>