<svg xmlns="http://www.w3.org/2000/svg" xmlns:xlink="http://www.w3.org/1999/xlink" width="769" height="282" viewBox="0 0 769 282">
    <defs>
        <linearGradient id="a" x1="78.94%" x2="16.373%" y1="72.609%" y2="72.609%">
            <stop offset="0%" stop-opacity="0"/>
            <stop offset="100%" stop-opacity=".15"/>
        </linearGradient>
        <linearGradient id="b" x1="50%" x2="50%" y1="70.583%" y2="0%">
            <stop offset="0%" stop-opacity="0"/>
            <stop offset="100%" stop-opacity=".15"/>
        </linearGradient>
        <linearGradient id="c" x1="61.257%" x2="16.373%" y1="72.609%" y2="72.609%">
            <stop offset="0%" stop-opacity="0"/>
            <stop offset="100%" stop-opacity=".15"/>
        </linearGradient>
        <linearGradient id="d" x1="35.304%" x2="35.304%" y1="100%" y2="0%">
            <stop offset="0%" stop-opacity="0"/>
            <stop offset="100%" stop-opacity=".15"/>
        </linearGradient>
        <linearGradient id="e" x1="37.8%" x2="37.8%" y1="63.556%" y2="9.393%">
            <stop offset="0%" stop-opacity="0"/>
            <stop offset="100%" stop-opacity=".15"/>
        </linearGradient>
        <path id="g" d="M298.612 150.257h-79.154a6.522 6.522 0 0 1-6.52-6.523 6.521 6.521 0 0 1 6.52-6.522h79.154c3.6 0 6.52 2.92 6.52 6.522a6.522 6.522 0 0 1-6.52 6.523"/>
        <filter id="f" width="107.6%" height="153.7%" x="-3.8%" y="-26.8%" filterUnits="objectBoundingBox">
            <feGaussianBlur in="SourceAlpha" result="shadowBlurInner1" stdDeviation="2"/>
            <feOffset dy="3" in="shadowBlurInner1" result="shadowOffsetInner1"/>
            <feComposite in="shadowOffsetInner1" in2="SourceAlpha" k2="-1" k3="1" operator="arithmetic" result="shadowInnerInner1"/>
            <feColorMatrix in="shadowInnerInner1" values="0 0 0 0 0.0666666667 0 0 0 0 0.0666666667 0 0 0 0 0.0666666667 0 0 0 0.2 0"/>
        </filter>
        <path id="i" d="M381.553 96.099h-81.39a6.706 6.706 0 0 1-6.705-6.707 6.706 6.706 0 0 1 6.705-6.707h81.39a6.706 6.706 0 0 1 6.705 6.707 6.706 6.706 0 0 1-6.705 6.707"/>
        <filter id="h" width="107.4%" height="152.2%" x="-3.7%" y="-26.1%" filterUnits="objectBoundingBox">
            <feGaussianBlur in="SourceAlpha" result="shadowBlurInner1" stdDeviation="2"/>
            <feOffset dy="3" in="shadowBlurInner1" result="shadowOffsetInner1"/>
            <feComposite in="shadowOffsetInner1" in2="SourceAlpha" k2="-1" k3="1" operator="arithmetic" result="shadowInnerInner1"/>
            <feColorMatrix in="shadowInnerInner1" values="0 0 0 0 0.0666666667 0 0 0 0 0.0666666667 0 0 0 0 0.0666666667 0 0 0 0.2 0"/>
        </filter>
        <linearGradient id="j" x1="35.304%" x2="35.304%" y1="100%" y2="19.214%">
            <stop offset="0%" stop-opacity="0"/>
            <stop offset="100%" stop-opacity=".15"/>
        </linearGradient>
        <linearGradient id="k" x1="35.304%" x2="35.304%" y1="100%" y2="1.689%">
            <stop offset="0%" stop-opacity="0"/>
            <stop offset="100%" stop-opacity=".1"/>
        </linearGradient>
        <linearGradient id="l" x1="50%" x2="47.283%" y1="50%" y2="-24.476%">
            <stop offset="0%" stop-opacity="0"/>
            <stop offset="100%" stop-opacity=".15"/>
        </linearGradient>
        <linearGradient id="m" x1="35.304%" x2="35.304%" y1="100%" y2="10.817%">
            <stop offset="0%" stop-opacity="0"/>
            <stop offset="100%" stop-opacity=".15"/>
        </linearGradient>
        <linearGradient id="n" x1="55.567%" x2="16.373%" y1="28.336%" y2="87.939%">
            <stop offset="0%" stop-opacity="0"/>
            <stop offset="100%" stop-opacity=".15"/>
        </linearGradient>
    </defs>
    <g fill="none" fill-rule="evenodd">
        <g fill="#0679A4" opacity=".298" transform="translate(4.366 257.668)">
            <rect width="142.2" height="4.367" y="19.341" rx="2.184"/>
            <rect width="77.337" height="4.367" x="130.973" rx="2.184"/>
            <rect width="43.658" height="4.367" x="252.591" rx="2.184"/>
            <rect width="71.1" height="4.367" x="319.325" rx="2.184"/>
            <rect width="107.897" height="4.367" x="396.662" rx="2.184"/>
            <rect width="43.658" height="4.367" x="520.151" rx="2.184"/>
            <rect width="70.476" height="4.367" x="436.577" y="6.239" rx="2.184"/>
            <rect width="43.658" height="4.367" x="586.885" rx="2.184"/>
            <rect width="253.215" height="4.367" x="503.311" y="16.221" rx="2.184"/>
        </g>
        <path fill="#DF71DB" d="M486.854 45.252c-2.751 0-4.99 2.518-4.99 5.615 0 3.096 2.239 5.615 4.99 5.615 2.751 0 4.99-2.519 4.99-5.615 0-3.097-2.239-5.615-4.99-5.615m0 13.101c-3.783 0-6.86-3.358-6.86-7.486 0-4.129 3.077-7.487 6.86-7.487 3.783 0 6.86 3.358 6.86 7.487 0 4.128-3.077 7.486-6.86 7.486"/>
        <path fill="#DF71DB" d="M501.747 47.747h-33.914c-5.339 0-9.669 3.95-9.669 8.823v48.078c0 4.872 4.33 8.823 9.67 8.823h33.913c5.34 0 9.67-3.95 9.67-8.823V56.57c0-4.872-4.33-8.823-9.67-8.823"/>
        <path fill="#FF8F8F" d="M463.206 165.946l13.547 88.788h5.837l.127-91.012z"/>
        <path fill="#61A1E7" d="M482.59 254.734h-5.837s-6.83.404-7.512 4.044l.1 1.82h13.427l-.178-5.864z"/>
        <path fill="#FF8F8F" d="M484.233 165.946l13.546 88.788h5.838l.127-91.012z"/>
        <path fill="#61A1E7" d="M503.617 254.734h-5.838s-6.83.404-7.512 4.044l.1 1.82h13.427l-.177-5.864z"/>
        <path fill="#0679A4" d="M466.441 120.036v19.72h30.833l-1.718-20.933z"/>
        <path fill="#FF8F8F" d="M462.1 27.198c0 9.441 7.78 17.094 17.374 17.094 9.594 0 17.372-7.653 17.372-17.094 0-9.44-7.778-17.093-17.372-17.093-1.867 0-3.665.29-5.35.825-6.977 2.22-12.023 8.664-12.023 16.268"/>
        <path fill="#FF8F8F" d="M474.986 36.404l-.814 30.372 14.969-2.807-2.479-26.958z"/>
        <path fill="#0679A4" d="M496.846 27.198s-11.144-5.355-11.953-10.816c0 0-9.401-.1-15.214-3.386 0 0 3.898-2.83 8.59-3.085 9.833-.533 18.993 5.226 18.577 17.287"/>
        <path fill="#61A1E7" d="M454.527 64.592c3.235-9.202 20.103-15.242 20.103-15.242s-1.133 12.435 6.065 12.435c7.199 0 7.278-12.435 7.278-12.435s20.341 7.132 20.341 25.484l-3.863.707-.808 2.023 1.997 55.969-41.031-7.487-7.2-20.796 3.978-21.577-7.784-8.84s-.044-7.489.924-10.24"/>
        <path fill="url(#a)" d="M453.818 70.018l59.833-2.064 2.358 7.591 1.386 6.273-3.744 24.817h-59.833z" transform="rotate(-90 485.607 87.295)"/>
        <path fill="#0679A4" d="M460.14 106.705l-6.549-1.152.012-30.72 10.917 1.821zM495.378 114.816l11.667-7.981 1.27-32.001-10.918 1.82 2.554 24.046-12.057 8.5zM504.525 150.586v38.681H465.44l-5.405-31.195z"/>
        <path fill="#DF71DB" d="M495.274 53.05l2.123 23.604 1.437 13.7s-5.327-.91-5.431-8.605l-2.651-31.272 4.522 2.573zM464.52 76.654l2.792-24.124 4.678-2.183s-3.484 30.693-4.262 34.002c-.936 3.977-5.146 5.225-5.146 5.225l1.939-12.92zM399.122 22.791l1.04 13.31h39.084l.416-12.893S428.02 10.314 423.03 9.69c-4.99-.624-23.909 13.101-23.909 13.101"/>
        <path fill="#61A1E7" d="M439.257 122.524l-11.653 132.46-7.538-4.927-.35-128.014z"/>
        <path fill="#DF71DB" d="M428.54 249.265s-1.756 2.233-4.667 1.753c-2.91-.48-4.431-.96-4.431-.96l.262 10.09h23.503l-14.667-10.883z"/>
        <path fill="#61A1E7" d="M420.755 122.524l-9.99 132.46-8.305-4.927-1.247-138.984z"/>
        <path fill="url(#b)" d="M401.028 117.07l38.614 5.68 1.048 105.073-39.039-26.481z"/>
        <path fill="#DF71DB" d="M412.012 249.265s-3.107 2.233-6.017 1.753c-2.911-.48-3.535-.96-3.535-.96l.52 10.09h19.23l-10.198-10.883z"/>
        <path fill="#F0BB70" d="M401.529 24.658c0 9.707 7.997 17.577 17.863 17.577s17.864-7.87 17.864-17.577c0-9.708-7.998-17.577-17.864-17.577-1.92 0-3.767.298-5.5.849-7.175 2.283-12.363 8.909-12.363 16.728"/>
        <path fill="#F0BB70" d="M412.907 30.069v19.964l13.72-.624-1.714-18.717z"/>
        <path fill="#79E7F4" d="M426.628 48.678s10.16 3.695 14.073 11.235c2.591 4.991 5.301 15.636 6.237 19.965 3.292 15.23-7.9 39.097-7.9 39.097l-35.33 3.069s-7.696-36.551-8.631-51.837c-.936-15.285 16.375-20.798 17.83-20.59 1.455.208 13.72-.94 13.72-.94"/>
        <path fill="url(#c)" d="M388.492 72.353l64.227-2.064 2.53 7.591 1.488 6.273-4.018 24.817h-64.227z" transform="rotate(-90 422.615 89.63)"/>
        <path fill="#F0BB70" d="M393.718 78.838l-2.287 31.195 22.452 23.915 3.13-11.424-16.02-17.69 3.119-22.253z"/>
        <path fill="#DF71DB" d="M421.255 11.977s-11.677 12.68-21.496 12.68c-1.742 0 1.249-20.072 19.77-20.072 19.212 0 20.133 18.623 20.133 18.623s-10.124 7.486-18.407-11.23"/>
        <path fill="#FF8F8F" d="M377.517 80.87s3.752 3.735 4.379 5.605c.629 1.87-3.739 1.257-4.99.012-1.25-1.245-1.876-2.49-1.882-4.986-.006-2.496 2.482-4.841 2.482-4.841l.011 4.21z"/>
        <path fill="#F0BB70" d="M412.907 49.617s-.895 7.593 6.797 7.177c7.692-.416 6.924-8.117 6.924-8.117l-13.721.94zM450.264 96.93H439.87V79.879h7.068z"/>
        <path fill="#FDD455" d="M510.05 140.004c0 29.427-53.263 127.774-53.263 127.774s-53.265-98.347-53.265-127.774c0-29.428 23.848-53.283 53.265-53.283s53.264 23.855 53.264 53.283"/>
        <path fill="#61A1E7" d="M497.874 140.074c0 22.615-18.327 40.948-40.934 40.948-22.608 0-40.935-18.333-40.935-40.948 0-22.615 18.327-40.948 40.935-40.948 22.607 0 40.934 18.333 40.934 40.948"/>
        <path fill="#FDD455" d="M488.727 140.074c0 17.562-14.231 31.798-31.787 31.798-17.556 0-31.789-14.236-31.789-31.798 0-17.562 14.233-31.799 31.789-31.799s31.787 14.237 31.787 31.799"/>
        <path fill="#61A1E7" d="M439.257 130.322h1.491v6.83h3.419v1.189h-4.91zM451.276 134.36v-.09c0-1.649-.92-2.871-2.488-2.871-1.57 0-2.5 1.154-2.5 2.882v.09c0 1.749 1.064 2.882 2.522 2.882 1.513 0 2.466-1.155 2.466-2.894m-6.547.023v-.09c0-2.344 1.682-4.082 4.059-4.082 2.387 0 4.035 1.693 4.035 4.048v.09c0 2.343-1.603 4.105-4.035 4.105-2.456 0-4.059-1.762-4.059-4.071M453.856 134.382v-.09c0-2.411 1.659-4.093 3.89-4.093 1.839 0 3.262.92 3.441 2.803h-1.513c-.168-1.065-.762-1.615-1.917-1.615-1.413 0-2.331 1.1-2.331 2.894v.089c0 1.806.862 2.871 2.342 2.871 1.11 0 1.895-.56 2.052-1.693h1.457c-.236 1.929-1.603 2.904-3.51 2.904-2.51 0-3.911-1.603-3.911-4.07M464.16 135.268h2.365l-1.177-3.724-1.188 3.724zm.302-4.946h1.95l2.647 8.018h-1.547l-.64-1.985h-3.06l-.627 1.985h-1.402l2.679-8.018zM470.282 130.322h1.491v6.83h3.42v1.189h-4.911zM437.463 147.842v-.09c0-2.389 1.659-4.093 4.002-4.093 1.715 0 3.24.785 3.453 2.702h-1.49c-.181-1.065-.898-1.524-1.94-1.524-1.57 0-2.478 1.166-2.478 2.926v.09c0 1.716.796 2.893 2.478 2.893 1.501 0 2.118-.908 2.163-2.018h-2.017v-1.122h3.485v.74c0 2.22-1.39 3.566-3.654 3.566-2.567 0-4.002-1.704-4.002-4.07M449.247 147.494c.998 0 1.524-.426 1.524-1.278v-.045c0-.92-.572-1.234-1.524-1.234h-1.2v2.557h1.2zm-2.69-3.712h2.69c1.76 0 2.993.718 2.993 2.355v.044c0 1.257-.785 1.896-1.783 2.154l2.254 3.465h-1.615L449 148.56h-.953v3.24h-1.49v-8.018zM459.932 147.82v-.09c0-1.649-.92-2.871-2.488-2.871-1.57 0-2.5 1.154-2.5 2.882v.09c0 1.749 1.064 2.882 2.522 2.882 1.513 0 2.466-1.155 2.466-2.894m-6.547.023v-.09c0-2.344 1.682-4.082 4.059-4.082 2.387 0 4.035 1.693 4.035 4.048v.09c0 2.343-1.603 4.105-4.035 4.105-2.456 0-4.059-1.762-4.059-4.071M462.848 148.75v-4.968h1.502v4.855c0 1.47.471 2.075 1.66 2.075 1.154 0 1.737-.515 1.737-2.175v-4.755h1.503v4.878c0 2.097-1.133 3.252-3.252 3.252-2.007 0-3.15-1.098-3.15-3.162M473.6 147.674c.987 0 1.514-.483 1.514-1.368v-.046c0-.953-.561-1.323-1.513-1.323h-1.088v2.737h1.088zm-2.578-3.891h2.579c1.793 0 2.97.795 2.97 2.477v.046c0 1.693-1.222 2.444-2.937 2.444h-1.121v3.05h-1.491v-8.017z"/>
        <path fill="#F0BB70" d="M452.178 87.218s.436 4.306 1.905 5.54c1.468 1.234 3.4-2.378 3.394-4.094-.008-2.226-.532-3.406-2.788-4.3-2.256-.893-5.409 2.883-5.409 2.883l2.898-.029z"/>
        <path fill="#0679A4" d="M481.864 10.625L462.31 27.198s-1.408-8.011 4.587-13.453c5.613-5.095 14.968-3.12 14.968-3.12"/>
        <path fill="#FDD455" d="M463.154 18.944h32.431s-2.65-12.53-16.215-12.53c-15.28 0-16.216 12.53-16.216 12.53"/>
        <path fill="#F0BB70" d="M463.154 18.32h32.431s-4.365 5.615-15.28 5.615c-12.317 0-17.151-5.615-17.151-5.615"/>
        <path fill="#79E7F4" d="M497.363 254.776h6.538v-10.19h-7.692zM476.366 254.776h6.538v-10.19h-7.693z"/>
        <path fill="#DF71DB" d="M255.486 165.946l13.546 88.788h5.838l.127-91.012z"/>
        <path fill="url(#b)" d="M256.333 171.57h18.632v10.884h-17.093z"/>
        <path fill="#0679A4" d="M274.87 254.734h-5.837s-6.831.404-7.513 4.044l.1 1.82h13.427l-.177-5.864z"/>
        <path fill="#DF71DB" d="M276.513 165.946l13.546 88.788h5.838l.127-91.012z"/>
        <path fill="#0679A4" d="M295.897 254.734h-5.838s-6.83.404-7.511 4.044l.1 1.82h13.426l-.177-5.864z"/>
        <path fill="url(#b)" d="M277.347 171.57h18.618v10.884h-16.887z"/>
        <path fill="#0679A4" d="M258.721 120.036v19.72h30.833l-1.718-20.933z"/>
        <path fill="#F0BB70" d="M254.38 27.198c0 9.441 7.78 17.094 17.373 17.094 9.595 0 17.373-7.653 17.373-17.094 0-9.44-7.778-17.093-17.373-17.093-1.866 0-3.664.29-5.35.825-6.976 2.22-12.022 8.664-12.022 16.268"/>
        <path fill="#F0BB70" d="M267.266 36.404v19.417l13.344-.608-1.668-18.202z"/>
        <path fill="#FDD455" d="M288.214 33.195s-10.233-11.353-11.041-16.814c0 0-9.401-.099-15.215-3.385 0 0 3.893-3.084 8.591-3.084 11.742 0 21.76 9.404 17.665 23.283"/>
        <path fill="#F0BB70" d="M285.106 25.535c0 1.634-1.053 2.958-2.351 2.958s-2.35-1.324-2.35-2.958c0-1.634 1.052-2.958 2.35-2.958s2.35 1.324 2.35 2.958"/>
        <path fill="#0679A4" d="M248.41 64.62c3.235-9.203 18.5-15.27 18.5-15.27l6.065 4.55 7.279-4.55s13.242 6.674 20.117 23.36l-3.64 2.831-.808 2.023 1.997 32.677-34.094-2.08-14.137-2.911 3.978-21.576-7.784-8.84s1.56-7.462 2.527-10.214"/>
        <path fill="url(#d)" d="M248.059 74.027h34.745V103.142h-32.175c-.501-5.243-.954-10.095-1.356-14.558-.402-4.462-.807-9.314-1.214-14.557z" transform="matrix(1 0 0 -1 0 177.169)"/>
        <path fill="#F0BB70" d="M254.948 27.958s-2.564 4.037-2.564 4.843c0 1.14 5.126 1.14 5.126 1.14l-2.562-5.983z"/>
        <path fill="#79E7F4" d="M249.69 105.25l-8.19.303 4.383-30.72 10.917 1.821zM300.37 72.71l16.983 36-5.863 2.831-23.048-36.607z"/>
        <path fill="#DF71DB" d="M276.78 104.139s12.675 6.172 15.708 13.857c3.033 7.686 4.044 30.337 4.044 30.337l-47.715 2.832-2.224-34.585s7.279-11.73 8.694-11.527c1.415.202 21.493-.914 21.493-.914"/>
        <path fill="#FDD455" d="M195.796 172.02h126.479v-69.597h-126.48z"/>
        <path fill="url(#e)" d="M185.04 115.374h70.084v43.614H185.04z" transform="rotate(-90 220.082 137.18)"/>
        <path fill="#61A1E7" d="M218.303 127.916h1.328c.093.746.394 1.37 1.65 1.37.82 0 1.4-.457 1.4-1.142 0-.684-.342-.944-1.546-1.142-1.774-.238-2.613-.778-2.613-2.168 0-1.214 1.037-2.128 2.582-2.128 1.598 0 2.552.727 2.697 2.149h-1.265c-.135-.778-.582-1.111-1.432-1.111-.84 0-1.276.405-1.276.975 0 .603.25.903 1.535 1.09 1.743.239 2.645.737 2.645 2.22 0 1.287-1.089 2.294-2.728 2.294-2.022 0-2.873-1.007-2.977-2.407M226.6 123.89h-2.064v-1.09h5.519v1.09h-2.064v6.33h-1.39zM236.527 126.536v-.083c0-1.526-.851-2.657-2.303-2.657-1.453 0-2.313 1.069-2.313 2.667v.083c0 1.619.985 2.667 2.334 2.667 1.4 0 2.282-1.069 2.282-2.677m-6.059.02v-.083c0-2.168 1.556-3.777 3.756-3.777 2.209 0 3.734 1.567 3.734 3.747v.082c0 2.169-1.483 3.798-3.734 3.798-2.272 0-3.756-1.63-3.756-3.767M241.67 126.4c.912 0 1.4-.446 1.4-1.265v-.042c0-.882-.52-1.224-1.4-1.224h-1.006v2.531h1.006zm-2.386-3.6h2.386c1.66 0 2.748.737 2.748 2.293v.042c0 1.566-1.13 2.262-2.717 2.262h-1.037v2.822h-1.38V122.8zM248.068 122.8h4.594v1.1h-3.215v2.21h2.531v1.07h-2.53v3.04h-1.38zM256.354 126.235c.923 0 1.41-.395 1.41-1.183v-.042c0-.85-.528-1.141-1.41-1.141h-1.11v2.366h1.11zm-2.49-3.435h2.49c1.628 0 2.77.665 2.77 2.179v.042c0 1.162-.727 1.753-1.65 1.992l2.086 3.206h-1.495l-1.94-2.999h-.88v3h-1.38v-7.42zM262.286 127.376h2.189l-1.09-3.445-1.1 3.445zm.28-4.576h1.805l2.448 7.42h-1.431l-.592-1.838h-2.832l-.58 1.838h-1.297l2.479-7.42zM267.17 126.556v-.083c0-2.23 1.536-3.787 3.6-3.787 1.701 0 3.018.85 3.185 2.594h-1.4c-.156-.986-.706-1.494-1.775-1.494-1.307 0-2.157 1.017-2.157 2.677v.083c0 1.67.798 2.656 2.168 2.656 1.026 0 1.753-.519 1.898-1.567h1.349c-.218 1.786-1.483 2.688-3.247 2.688-2.324 0-3.62-1.484-3.62-3.767M275.229 122.8h1.38v3.362l2.842-3.362h1.483l-3.07 3.538 3.225 3.882h-1.628l-2.852-3.466v3.466h-1.38zM282.104 130.22h1.39v-7.42h-1.39zM285.247 122.8h1.65l3.121 5.365V122.8h1.256v7.42h-1.432l-3.34-5.687v5.687h-1.255zM292.599 126.556v-.083c0-2.21 1.535-3.787 3.703-3.787 1.587 0 2.998.727 3.195 2.501h-1.38c-.165-.986-.829-1.411-1.793-1.411-1.453 0-2.293 1.078-2.293 2.708v.083c0 1.588.736 2.677 2.293 2.677 1.39 0 1.96-.84 2.002-1.868h-1.868v-1.038h3.226v.685c0 2.055-1.286 3.3-3.382 3.3-2.375 0-3.703-1.577-3.703-3.767"/>
        <path fill="#F0BB70" d="M298.612 150.257h-79.154a6.522 6.522 0 0 1-6.52-6.523 6.521 6.521 0 0 1 6.52-6.522h79.154c3.6 0 6.52 2.92 6.52 6.522a6.522 6.522 0 0 1-6.52 6.523"/>
        <path fill="#61A1E7" d="M284.201 150.257h-64.743a6.522 6.522 0 0 1-6.52-6.523 6.521 6.521 0 0 1 6.52-6.522H284.2v13.045z"/>
        <path fill="#FDD455" d="M219.783 144.435h.725c.042.45.294.786.87.786.556 0 .815-.27.815-.696 0-.468-.252-.702-.774-.702h-.33v-.57h.306c.492 0 .713-.228.713-.629 0-.348-.22-.605-.665-.605-.455 0-.749.275-.797.707h-.708c.042-.744.6-1.314 1.517-1.314.894 0 1.415.516 1.415 1.152 0 .486-.282.78-.695.936.497.114.827.468.827 1.037 0 .792-.623 1.284-1.607 1.284-1.02 0-1.576-.564-1.612-1.386M226.079 144.381c0-.516-.312-.864-.804-.864-.486 0-.827.343-.827.816 0 .57.341.9.827.9.48 0 .804-.342.804-.852m-2.47-.57v-.102c0-1.487.748-2.297 1.774-2.297.78 0 1.295.384 1.397 1.134h-.743c-.078-.324-.247-.516-.66-.516-.576 0-.953.51-.977 1.487.197-.33.551-.551 1.061-.551.821 0 1.41.564 1.41 1.397 0 .87-.613 1.458-1.584 1.458-1.247 0-1.679-.876-1.679-2.01M227.361 144.531h.744c.066.396.228.672.78.672.49 0 .773-.342.773-.87 0-.516-.3-.846-.774-.846-.437 0-.701.15-.893.373h-.408l.037-2.387h2.602v.629h-1.99l-.007 1.164c.168-.192.468-.36.923-.36.774 0 1.319.54 1.319 1.44 0 .904-.653 1.474-1.576 1.474-1.008 0-1.482-.55-1.53-1.289M230.714 146.3l.545-1.42.69.275-.785 1.343zM235.096 143.71v-.21c0-.912-.348-1.464-.989-1.464-.647 0-1 .516-1 1.47v.216c0 .971.37 1.463 1.013 1.463.658 0 .976-.504.976-1.476m-2.793.018v-.215c0-1.302.72-2.1 1.798-2.1 1.086 0 1.793.792 1.793 2.081v.216c0 1.29-.672 2.111-1.793 2.111-1.09 0-1.798-.803-1.798-2.093M239.3 143.71v-.21c0-.912-.348-1.464-.989-1.464-.647 0-1 .516-1 1.47v.216c0 .971.37 1.463 1.013 1.463.658 0 .976-.504.976-1.476m-2.793.018v-.215c0-1.302.719-2.1 1.798-2.1 1.086 0 1.792.792 1.792 2.081v.216c0 1.29-.67 2.111-1.792 2.111-1.091 0-1.798-.803-1.798-2.093M243.503 143.71v-.21c0-.912-.348-1.464-.989-1.464-.647 0-1 .516-1 1.47v.216c0 .971.37 1.463 1.013 1.463.659 0 .976-.504.976-1.476m-2.793.018v-.215c0-1.302.719-2.1 1.798-2.1 1.086 0 1.792.792 1.792 2.081v.216c0 1.29-.67 2.111-1.792 2.111-1.09 0-1.798-.803-1.798-2.093M246.227 144.783h.683c.036.318.198.504.624.504.39 0 .563-.138.563-.402 0-.258-.21-.354-.671-.432-.828-.131-1.134-.365-1.134-.954 0-.63.588-.941 1.176-.941.641 0 1.15.24 1.229.948h-.672c-.06-.289-.222-.42-.557-.42-.312 0-.498.15-.498.372 0 .227.15.318.647.402.738.114 1.175.293 1.175.96 0 .635-.449 1-1.253 1-.809 0-1.283-.372-1.312-1.037M249.446 145.76h.725v-3.136h-.725v3.136zm-.078-4.066c0-.24.192-.42.432-.42s.432.18.432.42a.419.419 0 0 1-.432.414.419.419 0 0 1-.432-.414zM253.284 144.117v-.041c0-.595-.325-.948-.845-.948-.54 0-.852.39-.852.96v.047c0 .582.359.942.827.942.504 0 .87-.36.87-.96m-2.405 1.752h.731c.06.312.3.491.774.491.564 0 .875-.281.875-.846v-.461a1.22 1.22 0 0 1-1.025.582c-.785 0-1.39-.588-1.39-1.494v-.042c0-.881.6-1.541 1.409-1.541.515 0 .827.234 1.006.546v-.48h.726v2.903c-.006.923-.623 1.385-1.595 1.385-.983 0-1.427-.443-1.51-1.043M254.849 142.624h.725v.498c.15-.306.498-.564 1.013-.564.63 0 1.074.366 1.074 1.23v1.972h-.726v-1.906c0-.474-.192-.69-.623-.69-.408 0-.738.252-.738.75v1.846h-.725v-3.136zM260.264 144.663v-.312h-.373c-.55 0-.905.126-.905.51 0 .264.144.438.504.438.444 0 .774-.234.774-.636m-1.997.228c0-.732.708-.995 1.607-.995h.39v-.162c0-.42-.144-.63-.57-.63-.378 0-.564.18-.6.491h-.701c.06-.732.641-1.037 1.342-1.037.702 0 1.254.288 1.254 1.146v2.057h-.713v-.384c-.204.27-.48.443-.96.443-.575 0-1.049-.275-1.049-.929M261.937 144.885v-1.715h-.42v-.546h.42v-.69h.725v.69h.69v.546h-.69v1.65c0 .275.132.4.36.4a.883.883 0 0 0 .354-.06v.577c-.115.042-.27.078-.492.078-.624 0-.947-.337-.947-.93M264 144.633v-2.01h.725v1.926c0 .474.197.69.617.69.39 0 .731-.252.731-.75v-1.865h.726v3.137h-.726v-.492c-.155.306-.485.551-.995.551-.617 0-1.078-.353-1.078-1.187M267.657 142.624h.725v.587c.198-.395.492-.629 1.02-.635v.678c-.636.006-1.02.21-1.02.875v1.631h-.725v-3.136zM272.083 143.865c-.037-.54-.312-.78-.762-.78-.438 0-.732.295-.803.78h1.565zm-2.321.36v-.048c0-.971.666-1.62 1.559-1.62.779 0 1.48.463 1.48 1.584v.21h-2.295c.024.594.323.93.862.93.439 0 .667-.174.72-.48h.702c-.102.66-.636 1.02-1.439 1.02-.923 0-1.59-.606-1.59-1.596zM273.24 144.783h.683c.036.318.198.504.624.504.39 0 .563-.138.563-.402 0-.258-.21-.354-.67-.432-.829-.131-1.135-.365-1.135-.954 0-.63.588-.941 1.176-.941.642 0 1.151.24 1.23.948h-.673c-.06-.289-.222-.42-.557-.42-.312 0-.498.15-.498.372 0 .227.15.318.648.402.737.114 1.175.293 1.175.96 0 .635-.45 1-1.253 1-.81 0-1.283-.372-1.313-1.037"/>
        <use fill="#000" filter="url(#f)" xlink:href="#g"/>
        <path fill="#F0BB70" d="M239.245 102.396s-.436 4.306-1.904 5.54c-1.47 1.235-3.4-2.378-3.394-4.093.007-2.227.531-3.407 2.787-4.3 2.256-.893 5.41 2.882 5.41 2.882l-2.899-.029zM322.106 124.526s-3.648 3.631-4.259 5.45c-.611 1.819 3.637 1.222 4.852.012 1.217-1.21 1.826-2.423 1.832-4.85.006-2.427-2.415-4.708-2.415-4.708l-.01 4.096z"/>
        <path fill="#FF8F8F" d="M335.027 163.272v91.296h6.003l7.51-93.584z"/>
        <path fill="#7086F4" d="M381.543 96.099h-81.39a6.706 6.706 0 0 1-6.705-6.707 6.706 6.706 0 0 1 6.704-6.707h81.391a6.706 6.706 0 0 1 6.705 6.707 6.706 6.706 0 0 1-6.705 6.707"/>
        <path fill="#D27777" d="M335.235 121.99l-.312 59.999h12.162l4.057-59.945z"/>
        <path fill="#FF8F8F" d="M365.275 163.896l12.266 83.185 6.653-.312-8.212-87.033z"/>
        <path fill="#D27777" d="M357.791 122.524l9.356 59.049h11.018l-5.405-59.53z"/>
        <path fill="#79E7F4" d="M375.047 230.756h7.587l1.196 11.334-7.172.104z"/>
        <path fill="#D27777" d="M376.398 240.842h7.38l1.404 11.023s6.184.415 7.431 4.158c1.248 3.744.416 4.576.416 4.576h-13.877l-2.754-19.757z"/>
        <path fill="#F0BB70" d="M334.883 116.064v20.276h39.852l-2.221-21.524z"/>
        <path fill="#D27777" d="M371.72 147.05h6.445l1.455 17.262-4.573 4.575"/>
        <path fill="#FF8F8F" d="M336.073 20.602c0 9.708 7.998 17.577 17.864 17.577S371.8 30.31 371.8 20.602c0-9.708-7.997-17.577-17.863-17.577-1.92 0-3.768.299-5.501.85-7.174 2.282-12.363 8.909-12.363 16.727"/>
        <path fill="#FF8F8F" d="M349.322 30.069v19.964l13.721-.624-1.715-18.717z"/>
        <path fill="#0679A4" d="M370.862 26.769S360.341 15.095 359.51 9.48c0 0-8.627 10.556-23.752 8.944 0 0 3.223-15.597 16.94-15.597 12.075 0 22.375 9.67 18.165 23.942"/>
        <path fill="#FF8F8F" d="M367.666 18.892c0 1.68-1.081 3.042-2.417 3.042-1.334 0-2.416-1.362-2.416-3.042 0-1.68 1.082-3.041 2.416-3.041 1.336 0 2.417 1.362 2.417 3.041"/>
        <path fill="#F0BB70" d="M335.55 48.371l13.406-4.991 6.236 4.68 7.485-4.68 10.917 5.615z"/>
        <path fill="url(#b)" d="M336.268 36.29h35.093l-9.223 4.8v7.002l-12.532-1.402v-5.6z" transform="matrix(1 0 0 -1 0 84.382)"/>
        <path fill="#FF8F8F" d="M336.656 21.383s-2.636 4.152-2.636 4.98c0 1.172 5.272 1.172 5.272 1.172l-2.636-6.152z"/>
        <path fill="#DF71DB" d="M359.104 48.678s13.034 6.346 16.153 14.249c3.118 7.902 4.158 31.194 4.158 31.194l-49.064 2.912-2.286-35.562s7.484-12.062 8.94-11.854c1.454.208 22.1-.94 22.1-.94"/>
        <path fill="#61A1E7" d="M275.832 118.477h130.053V46.914H275.832z"/>
        <path fill="#FDD455" d="M294.855 73.126h1.365c.096.768.405 1.41 1.696 1.41.843 0 1.44-.47 1.44-1.175 0-.704-.352-.971-1.59-1.174-1.823-.245-2.688-.8-2.688-2.23 0-1.25 1.067-2.188 2.657-2.188 1.643 0 2.624.747 2.773 2.209h-1.3c-.14-.8-.598-1.142-1.473-1.142-.864 0-1.312.416-1.312 1.003 0 .62.256.929 1.579 1.12 1.792.246 2.72.758 2.72 2.284 0 1.324-1.12 2.359-2.806 2.359-2.08 0-2.955-1.035-3.061-2.476M303.515 72.571h2.25l-1.12-3.543-1.13 3.543zm.288-4.706h1.856l2.518 7.63h-1.473l-.607-1.889h-2.913l-.598 1.89h-1.333l2.55-7.631zM307.96 67.865h1.484l1.984 6.19 1.995-6.19h1.333l-2.581 7.63h-1.644zM315.873 67.865h4.769v1.12h-3.35v2.092h2.689v1.067h-2.69v2.231h3.532v1.12h-4.95zM326.164 68.985h-2.123v-1.12h5.676v1.12h-2.123v6.51h-1.43zM330.855 67.865h1.42v3.244h3.424v-3.244h1.43v7.63h-1.43V72.25h-3.425v3.244h-1.419zM338.864 67.865h4.769v1.12h-3.35v2.092h2.689v1.067h-2.69v2.231h3.532v1.12h-4.95zM347.63 67.865h4.726v1.13h-3.307v2.274h2.603v1.1h-2.603v3.126h-1.42zM359.33 71.707v-.086c0-1.568-.874-2.732-2.368-2.732-1.493 0-2.379 1.1-2.379 2.743v.085c0 1.666 1.013 2.743 2.4 2.743 1.44 0 2.347-1.1 2.347-2.753m-6.23.02v-.085c0-2.23 1.6-3.884 3.862-3.884 2.272 0 3.84 1.612 3.84 3.853v.085c0 2.23-1.525 3.906-3.84 3.906-2.337 0-3.862-1.675-3.862-3.874M364.725 71.397c.95 0 1.45-.405 1.45-1.216v-.043c0-.875-.543-1.174-1.45-1.174h-1.141v2.433h1.14zm-2.56-3.532h2.56c1.675 0 2.848.683 2.848 2.241v.043c0 1.195-.746 1.803-1.696 2.049l2.144 3.297h-1.536l-1.995-3.084h-.906v3.084h-1.42v-7.63zM369.15 67.865h4.768v1.12h-3.35v2.092h2.689v1.067h-2.689v2.231h3.531v1.12h-4.95zM374.919 73.126h1.365c.096.768.405 1.41 1.696 1.41.843 0 1.44-.47 1.44-1.175 0-.704-.352-.971-1.59-1.174-1.823-.245-2.688-.8-2.688-2.23 0-1.25 1.067-2.188 2.657-2.188 1.643 0 2.624.747 2.773 2.209h-1.3c-.14-.8-.598-1.142-1.473-1.142-.864 0-1.312.416-1.312 1.003 0 .62.256.929 1.579 1.12 1.792.246 2.72.758 2.72 2.284 0 1.324-1.12 2.359-2.806 2.359-2.08 0-2.955-1.035-3.061-2.476M383.45 68.985h-2.122v-1.12h5.675v1.12h-2.123v6.51h-1.43z"/>
        <path fill="#7086F4" d="M381.553 96.099h-81.39a6.706 6.706 0 0 1-6.705-6.707 6.706 6.706 0 0 1 6.705-6.707h81.39a6.706 6.706 0 0 1 6.705 6.707 6.706 6.706 0 0 1-6.705 6.707"/>
        <path fill="#FDD455" d="M366.736 96.099h-66.573a6.706 6.706 0 0 1-6.705-6.707 6.706 6.706 0 0 1 6.705-6.707h66.573V96.1z"/>
        <path fill="#7086F4" d="M300.497 90.112h.746c.044.463.303.809.895.809.573 0 .839-.278.839-.716 0-.481-.26-.722-.796-.722h-.34v-.585h.315c.506 0 .734-.235.734-.648 0-.359-.228-.623-.685-.623-.469 0-.77.284-.82.728h-.727c.043-.766.616-1.352 1.56-1.352.919 0 1.456.53 1.456 1.185 0 .5-.29.802-.716.962.512.117.85.481.85 1.067 0 .815-.64 1.32-1.652 1.32-1.048 0-1.621-.58-1.659-1.425M306.972 90.057c0-.531-.321-.889-.826-.889-.5 0-.85.352-.85.84 0 .585.35.925.85.925.493 0 .826-.352.826-.876m-2.54-.586v-.105c0-1.53.77-2.363 1.825-2.363.802 0 1.331.395 1.436 1.166h-.764c-.08-.333-.253-.53-.678-.53-.592 0-.98.524-1.006 1.53.204-.34.568-.568 1.092-.568.845 0 1.45.58 1.45 1.438 0 .894-.63 1.498-1.63 1.498-1.282 0-1.726-.9-1.726-2.066M308.291 90.21h.765c.067.408.235.692.801.692.506 0 .796-.352.796-.894 0-.53-.308-.87-.796-.87-.45 0-.721.154-.918.382h-.42l.037-2.455h2.677v.648h-2.047l-.006 1.196c.172-.197.48-.37.949-.37.796 0 1.356.556 1.356 1.48 0 .932-.671 1.518-1.621 1.518-1.037 0-1.524-.567-1.573-1.326M311.738 92.03l.56-1.461.71.283-.808 1.382zM316.246 89.366v-.216c0-.938-.358-1.505-1.018-1.505-.666 0-1.03.53-1.03 1.511v.223c0 .999.383 1.505 1.042 1.505.679 0 1.006-.518 1.006-1.518m-2.874.019v-.223c0-1.338.74-2.159 1.85-2.159 1.116 0 1.843.815 1.843 2.141v.222c0 1.326-.69 2.171-1.843 2.171-1.122 0-1.85-.827-1.85-2.152M320.568 89.366v-.216c0-.938-.358-1.505-1.018-1.505-.666 0-1.03.53-1.03 1.511v.223c0 .999.382 1.505 1.042 1.505.679 0 1.006-.518 1.006-1.518m-2.874.019v-.223c0-1.338.74-2.159 1.85-2.159 1.116 0 1.843.815 1.843 2.141v.222c0 1.326-.69 2.171-1.843 2.171-1.122 0-1.85-.827-1.85-2.152M324.89 89.366v-.216c0-.938-.358-1.505-1.018-1.505-.666 0-1.03.53-1.03 1.511v.223c0 .999.383 1.505 1.043 1.505.678 0 1.005-.518 1.005-1.518m-2.874.019v-.223c0-1.338.74-2.159 1.85-2.159 1.116 0 1.844.815 1.844 2.141v.222c0 1.326-.69 2.171-1.844 2.171-1.122 0-1.85-.827-1.85-2.152M327.688 90.47h.703c.038.327.204.518.641.518.401 0 .58-.141.58-.413 0-.265-.215-.364-.69-.444-.851-.136-1.166-.376-1.166-.98 0-.648.605-.97 1.209-.97.66 0 1.184.247 1.264.976h-.69c-.063-.297-.229-.433-.574-.433-.321 0-.512.154-.512.383 0 .234.155.327.666.413.758.118 1.208.302 1.208.987 0 .654-.462 1.03-1.288 1.03-.832 0-1.32-.381-1.35-1.067M331 91.476h.745V88.25H331v3.226zm-.08-4.183c0-.247.197-.432.444-.432.246 0 .444.185.444.432 0 .24-.198.426-.444.426a.43.43 0 0 1-.445-.426zM334.947 89.786v-.043c0-.612-.334-.976-.87-.976-.555 0-.876.402-.876.987v.05c0 .598.37.969.85.969.519 0 .896-.37.896-.987m-2.474 1.8h.753c.062.322.308.506.796.506.578 0 .9-.29.9-.869v-.475c-.18.309-.58.598-1.054.598-.809 0-1.431-.605-1.431-1.536v-.043c0-.907.616-1.585 1.449-1.585.53 0 .85.24 1.036.561v-.493h.746v2.985c-.007.95-.642 1.425-1.64 1.425-1.012 0-1.468-.456-1.555-1.073M336.555 88.25h.746v.511c.154-.314.512-.58 1.042-.58.648 0 1.105.377 1.105 1.265v2.03h-.747v-1.962c0-.488-.198-.709-.641-.709-.42 0-.759.259-.759.771v1.9h-.746V88.25zM342.123 90.347v-.32h-.382c-.567 0-.931.128-.931.523 0 .272.147.45.518.45.456 0 .795-.24.795-.653m-2.054.234c0-.752.728-1.024 1.653-1.024h.401v-.166c0-.432-.148-.648-.586-.648-.388 0-.58.185-.617.506h-.72c.06-.753.659-1.068 1.38-1.068.721 0 1.289.297 1.289 1.179v2.116h-.733v-.395c-.21.278-.494.456-.987.456-.593 0-1.08-.283-1.08-.956M343.842 90.575v-1.764h-.43v-.562h.43v-.709h.747v.71h.71v.56h-.71v1.697c0 .284.135.414.37.414a.93.93 0 0 0 .363-.062v.592c-.116.043-.276.08-.505.08-.641 0-.975-.345-.975-.956M345.964 90.316v-2.067h.746v1.98c0 .489.204.71.635.71.401 0 .753-.259.753-.77v-1.92h.746v3.227h-.746v-.506c-.16.315-.5.567-1.024.567-.635 0-1.11-.363-1.11-1.221M349.725 88.25h.746v.604c.203-.407.506-.647 1.048-.654v.697c-.653.007-1.048.216-1.048.9v1.679h-.746V88.25zM354.276 89.526c-.038-.555-.32-.802-.784-.802-.45 0-.752.302-.826.802h1.61zm-2.386.37v-.049c0-.999.684-1.665 1.602-1.665.802 0 1.524.474 1.524 1.628v.217h-2.362c.025.61.333.955.888.955.45 0 .685-.179.74-.493h.722c-.105.679-.654 1.049-1.48 1.049-.95 0-1.634-.623-1.634-1.641zM355.465 90.47h.703c.038.327.204.518.641.518.401 0 .58-.141.58-.413 0-.265-.215-.364-.69-.444-.851-.136-1.166-.376-1.166-.98 0-.648.605-.97 1.209-.97.66 0 1.184.247 1.264.976h-.69c-.063-.297-.229-.433-.574-.433-.321 0-.512.154-.512.383 0 .234.155.327.666.413.758.118 1.208.302 1.208.987 0 .654-.462 1.03-1.288 1.03-.832 0-1.32-.381-1.35-1.067"/>
        <path fill="#FF8F8F" d="M275.68 70.057s3.752 3.734 4.38 5.604c.627 1.87-3.74 1.257-4.99.012-1.25-1.245-1.877-2.491-1.883-4.987-.006-2.495 2.483-4.84 2.483-4.84l.01 4.21zM405.712 70.057s-3.751 3.734-4.378 5.604c-.63 1.87 3.739 1.257 4.99.012 1.248-1.245 1.875-2.491 1.881-4.987.007-2.495-2.482-4.84-2.482-4.84l-.01 4.21z"/>
        <path fill="#79E7F4" d="M343.135 230.756h-8.186l.007 11.334 7.188.104z"/>
        <path fill="#D27777" d="M342.355 240.842h-7.484l.006 11.023s-7.024.415-7.724 4.158c-.7 3.744.253 4.576.253 4.576h13.234l1.715-19.757z"/>
        <path fill="url(#b)" d="M334.917 118.54h37.99l1.05 10.883h-39.04z"/>
        <path fill="#D27777" d="M336.223 147.102h-4.21v17.313l4.365 4.68"/>
        <path fill="#61A1E7" d="M338.876 10.625l-7.692 2.912 40.85 7.59s.728-18.716-16.527-18.716c-13.409 0-16.631 8.214-16.631 8.214"/>
        <path fill="#D27777" d="M376.131 148.298h-41.248V128.75h38.877z"/>
        <use fill="#000" filter="url(#h)" xlink:href="#i"/>
        <path fill="#036D8E" d="M168.345 253.43l-.71 3.676s4.399 2.93 7.104 3.676 10.655 0 10.655 0 0-4.411-8.524-7.352c-9.65-3.328-8.525 0-8.525 0M177.58 103.291s16.407 62.642 16.407 66.818c0 4.176-1.49 85.193-1.49 85.193h8.525s5.175-83.678 5.175-92.03c0-8.353-5.613-50.839-5.613-50.839l-23.004-9.142z"/>
        <path fill="#0679A4" d="M170.91 112.793s.755 9.889 2.65 23.247c1.896 13.356 5.441 31.694 5.441 34.07 0 4.175-10.655 83.522-10.655 83.522h8.524s13.497-81.852 13.497-90.205c0-8.352 3.551-61.806 3.551-61.806l-23.008 11.172z"/>
        <path fill="url(#d)" d="M7.317 112.3H33.53l2.357 19.965H9.584c-.443-3.595-.841-6.922-1.196-9.982-.355-3.06-.712-6.387-1.07-9.982z" transform="translate(167.147)"/>
        <path fill="#FDD455" d="M207.703 17.687c0 9.708-7.998 17.577-17.864 17.577-9.865 0-17.863-7.87-17.863-17.577S179.974.11 189.839.11c1.92 0 3.768.298 5.5.85 7.175 2.282 12.364 8.908 12.364 16.727"/>
        <path fill="#FDD455" d="M207.41 16.808s2.636 4.151 2.636 4.98c0 1.172-5.272 1.172-5.272 1.172l2.636-6.152z"/>
        <path fill="#0679A4" d="M202.666 5.42s-8.434 15.782-18.977 12.267c-3.76-1.254-2.343.586-2.343.586l-2.9 12.935s-4.162-3.132-5.692-8.422c-1.761-6.094-.492-15.41 6.731-19.757 13.305-8.007 23.18 2.392 23.18 2.392"/>
        <path fill="#FDD455" d="M178.418 18.566c0 2.103 1.443 3.808 3.221 3.808 1.78 0 3.222-1.705 3.222-3.808 0-2.103-1.442-3.808-3.222-3.808-1.778 0-3.22 1.705-3.22 3.808M194.454 27.153v19.965l-13.721-.624 1.715-18.717z"/>
        <path fill="#61A1E7" d="M181.356 39.631s-4.937 1.323-8.731 10.092c-1.248 2.883-1.715 63.07-1.715 63.07l29.674-.36s-3.658-18.543-3.119-32.243c.624-15.858-2.388-34.072-2.388-34.072l-13.72-6.487z"/>
        <path fill="url(#b)" d="M14.345 35.103l17.702-8.297 3.229 21.095-20.931-4.145z" transform="matrix(1 0 0 -1 167.147 74.707)"/>
        <path fill="#DF71DB" d="M193.674 97.156h53.48V25.593h-53.48z"/>
        <path fill="#79E7F4" d="M208.43 46.018h1.906l3.61 6.202v-6.202h1.45v8.577h-1.654l-3.862-6.574v6.574h-1.45zM223.932 50.337v-.097c0-1.763-.983-3.07-2.662-3.07-1.679 0-2.674 1.235-2.674 3.082v.097c0 1.871 1.14 3.082 2.699 3.082 1.618 0 2.637-1.236 2.637-3.094m-7.002.023v-.095c0-2.508 1.798-4.366 4.34-4.366 2.554 0 4.317 1.81 4.317 4.33v.095c0 2.508-1.715 4.391-4.317 4.391-2.626 0-4.34-1.883-4.34-4.355M226.042 46.018h1.667l2.23 6.957 2.243-6.957h1.498l-2.902 8.577h-1.846zM211.82 64.489l-4.248 2.899v-3.294l4.67-3.321h3.35V80.9h-3.772zM218.885 80.224l7.598-8.022c1.914-2.027 3.068-3.8 3.068-5.715 0-1.886-1.07-3.068-3.012-3.068-1.998 0-3.264 1.154-3.602 3.997h-3.433c.253-4.391 2.899-6.925 7.148-6.925 4.165 0 6.641 2.393 6.641 5.94 0 2.618-1.548 4.898-3.94 7.206l-4.474 4.364h8.555v2.9h-14.549v-.677zM206.099 40.18h28.63v-2.864H206.1z"/>
        <path fill="url(#j)" d="M26.818 72.996l19.72 4.674 33.761-4.674V92.96H26.82z" transform="translate(167.147)"/>
        <path fill="#FDD455" d="M192.476 56.794l18.713 18.087 31.964-2.652.162 4.21s-35.764 6.813-36.336 6.397c-.301-.22-20.623-15.653-24.038-18.674a.54.54 0 0 1 .057-.85l9.478-6.518z"/>
        <path fill="#FDD455" d="M241.986 72.212l1.775-3.732c.573-.716 1.715-.31 1.627.578l-.416 2.08c-.074.227 1.393-.238 1.715-.884.574-1.152.468-1.248.468-1.248 1.559-.38 1.987 4.834-.193 6.157-1.981 1.203-3.738 1.25-4.588 1.415a.115.115 0 0 1-.14-.107l-.276-4.172a.126.126 0 0 1 .028-.087M219.089 25.593s3.742 3.744 5.613 4.368c1.871.624 1.248-3.744 0-4.991-1.247-1.248-2.495-1.872-4.99-1.872-2.494 0-4.833 2.495-4.833 2.495h4.21z"/>
        <path fill="#61A1E7" d="M191.436 55.13l10.395 10.554-9.355 9.203-13.978-10.508z"/>
        <path fill="#036D8E" d="M192.497 254.092v5.955h19.42s-.74-4.329-10.789-5.955c-8.63-1.396-8.63 0-8.63 0"/>
        <path fill="#FF8F8F" d="M141.134 216.23l1.242 35.75 6.756.48 1.106-36.23z"/>
        <path fill="#61A1E7" d="M131.046 122.524l10.088 93.705h9.104l.35-94.186z"/>
        <path fill="#FDD455" d="M142.48 247.174s.416 4.325 3.326 3.844c2.911-.48 3.535-.961 3.535-.961l-.52 10.091h-19.23l12.89-12.974z"/>
        <path fill="#FF8F8F" d="M155.271 216.23l1.242 35.75 6.756.48 1.106-36.23z"/>
        <path fill="#61A1E7" d="M145.183 122.524l10.088 93.705h9.104l.35-94.186z"/>
        <path fill="url(#k)" d="M133.988 150.358h30.568v19.965h-28.365c-.411-3.595-.794-6.922-1.149-9.982-.355-3.06-.706-6.388-1.054-9.983z"/>
        <path fill="#FDD455" d="M156.617 247.174s.416 4.325 3.326 3.844c2.91-.48 3.534-.961 3.534-.961l-.52 10.091h-19.23l12.89-12.974z"/>
        <path fill="#61A1E7" d="M160.411 16.187a7.173 7.173 0 1 0 14.345 0 7.173 7.173 0 1 0-14.345 0"/>
        <path fill="#FF8F8F" d="M131.778 20.602c0 9.708 7.997 17.577 17.863 17.577s17.864-7.869 17.864-17.577c0-9.708-7.998-17.577-17.864-17.577-1.92 0-3.767.299-5.5.85-7.175 2.282-12.363 8.909-12.363 16.727"/>
        <path fill="#FF8F8F" d="M145.027 30.069v19.964l13.72-.624-1.714-18.717z"/>
        <path fill="url(#b)" d="M145.044 33.103h13.553l-1.052 14.973h-12.5z" transform="matrix(1 0 0 -1 0 81.18)"/>
        <path fill="#61A1E7" d="M167.48 18.422s-11.435-3.327-12.267-8.942c0 0-14.136 14.713-29.26 13.102 0 0 3.898-19.653 21.36-19.653 12.075 0 18.4 5.615 20.166 15.493"/>
        <path fill="#DF71DB" d="M154.809 48.678s13.034 6.346 16.152 14.249c3.119 7.902 4.158 31.194 4.158 31.194l-49.063 2.912-2.286-35.562s7.484-12.062 8.939-11.854c1.455.208 22.1-.94 22.1-.94"/>
        <path fill="#DF71DB" d="M175.12 94.122l3.742 56.274h-55.924l3.118-55.862z"/>
        <path fill="url(#d)" d="M124.736 74.867h48.648l1.866 18.935 2.024 44.662h-52.538z"/>
        <path fill="url(#l)" d="M124.736 117.292h37.99v10.285l-38.544.598z"/>
        <path fill="#FDD455" d="M109.684 118.477h53.481V46.914h-53.48z"/>
        <path fill="#61A1E7" d="M131.509 71.657v-.096c0-1.763-.983-3.071-2.662-3.071-1.68 0-2.675 1.235-2.675 3.083v.096c0 1.871 1.14 3.082 2.7 3.082 1.618 0 2.637-1.236 2.637-3.094m-7.003.023v-.095c0-2.507 1.799-4.366 4.34-4.366 2.555 0 4.317 1.81 4.317 4.33v.095c0 2.508-1.714 4.391-4.316 4.391-2.627 0-4.341-1.883-4.341-4.355M134.265 71.68v-.095c0-2.58 1.775-4.378 4.16-4.378 1.967 0 3.49.983 3.682 2.999h-1.619c-.18-1.14-.815-1.728-2.05-1.728-1.51 0-2.494 1.176-2.494 3.095v.096c0 1.93.923 3.07 2.506 3.07 1.187 0 2.026-.6 2.194-1.81h1.56c-.253 2.063-1.716 3.106-3.754 3.106-2.686 0-4.185-1.715-4.185-4.354M145.176 68.598h-2.386v-1.26h6.379v1.26h-2.386v7.317h-1.607zM120.233 101.545l7.598-8.023c1.914-2.026 3.068-3.8 3.068-5.715 0-1.886-1.07-3.068-3.012-3.068-1.998 0-3.264 1.154-3.602 3.998h-3.433c.253-4.392 2.899-6.926 7.148-6.926 4.165 0 6.641 2.393 6.641 5.94 0 2.618-1.548 4.898-3.94 7.207l-4.474 4.363h8.555v2.9h-14.549v-.676zM137.063 95.999h3.406c.196 2.111 1.379 3.688 4.08 3.688 2.617 0 3.827-1.267 3.827-3.266 0-2.196-1.182-3.294-3.63-3.294h-1.548v-2.674h1.435c2.307 0 3.349-1.07 3.349-2.955 0-1.633-1.042-2.844-3.124-2.844-2.139 0-3.518 1.296-3.743 3.322h-3.32c.197-3.49 2.814-6.164 7.12-6.164 4.193 0 6.64 2.42 6.64 5.404 0 2.28-1.322 3.66-3.264 4.391 2.336.535 3.883 2.196 3.883 4.871 0 3.715-2.926 6.024-7.54 6.024-4.785 0-7.402-2.646-7.57-6.503M122.11 61.5h28.63v-2.864h-28.63z"/>
        <path fill="#FF8F8F" d="M163.161 74.777l-.021 17.261-34.277 22.149 3.898 2.963s33.876-16.403 36.07-18.483c.294-.28 4.244-24.196 3.105-23.89h-8.775z"/>
        <path fill="#FF8F8F" d="M129.846 113.494l-3.738 1.762c-.718.57-.316 1.715.572 1.63l2.08-.408c.228-.074-.266 1.164-.913 1.483-1.154.57-4.158.52-4.158.52 1.767 1.638 7.757 2.178 9.088.002 1.21-1.977 1.263-3.735 1.432-4.584a.115.115 0 0 0-.108-.14l-4.168-.292a.127.127 0 0 0-.087.027M109.637 80.87s3.752 3.735 4.379 5.605c.629 1.87-3.739 1.257-4.99.012-1.25-1.245-1.876-2.49-1.882-4.986-.006-2.496 2.482-4.841 2.482-4.841l.011 4.21z"/>
        <path fill="#DDA25B" d="M82.967 136.09v28.907h45.736l-2.779-2.34a14.572 14.572 0 0 0-7.212-3.265l-22.177-3.35-1.091-10.406-12.477-9.545z"/>
        <path fill="#79E7F4" d="M125.557 268.724h6.888v-97.488h-6.888z"/>
        <path fill="#C660C6" d="M132.445 172.484H82.911v-7.486h45.756a3.779 3.779 0 0 1 3.778 3.78v3.706z"/>
        <path fill="#DF71DB" d="M124.987 264.57l-5.168 7.404-11.996-76.808 5.912-2.717z"/>
        <path fill="#DF71DB" d="M119.348 273.555h29.001v-6.239h-29.001z"/>
        <path fill="#79E7F4" d="M40.244 240.303h7.1v-50.055h-7.1z"/>
        <path fill="#DF71DB" d="M84.376 200.44h-38.01a6.434 6.434 0 0 1-6.433-6.435v-62.332a6.434 6.434 0 0 1 6.433-6.436h38.01a6.434 6.434 0 0 1 6.432 6.436v62.332a6.434 6.434 0 0 1-6.432 6.435"/>
        <path fill="#F0BB70" d="M60.67 116.542c0-5.973 5.585-10.814 12.474-10.814 6.888 0 12.473 4.841 12.473 10.814 0 5.972-5.585 10.814-12.473 10.814-6.89 0-12.474-4.842-12.474-10.814"/>
        <path fill="#0679A4" d="M87.049 93.217c-6.776 10.36-20.694 12.41-31.087 4.58-10.394-7.83-13.326-22.576-6.55-32.934 6.775-10.36 20.693-12.41 31.087-4.58 10.393 7.83 13.325 22.576 6.55 32.934"/>
        <path fill="#F0BB70" d="M92.404 86.438c0 8.803-7.252 15.938-16.198 15.938-8.946 0-16.199-7.135-16.199-15.938S67.26 70.5 76.207 70.5c1.74 0 3.416.27 4.987.77 6.505 2.07 11.21 8.078 11.21 15.168"/>
        <path fill="#F0BB70" d="M79.52 94.489v19.415l-13.345-.606 1.669-18.203z"/>
        <path fill="#0679A4" d="M76.628 75.828s4.621-.205 10.435-3.492c0 0-3.893-3.084-8.591-3.084-11.742 0-21.76 9.404-17.666 23.284 0 0 15.822 0 15.822-16.708z"/>
        <path fill="#61A1E7" d="M95.443 145.635h-8.107v-22.094l5.069-.21z"/>
        <path fill="#F0BB70" d="M91.838 86.043S94.4 90.08 94.4 90.886c0 1.14-5.127 1.14-5.127 1.14l2.564-5.983z"/>
        <path fill="#61A1E7" d="M45.962 127.98c-.832 9.15 0 26.412 0 26.412l5.044 9.96.361 11.876 41.163 7.076v-57.82c0-12.478-12.654-18.05-12.654-18.05s8.912 12.644-3.978 12.644c-17.047 0-9.366-12.644-9.366-12.644s-19.739 11.396-20.57 20.546z"/>
        <path fill="url(#m)" d="M51.142 136.633h41.163v42.425H51.142z" transform="matrix(1 0 0 -1 0 315.69)"/>
        <path fill="#F0BB70" d="M45.546 136.09v28.907h64.447l-1.59-1.338a17.037 17.037 0 0 0-9.995-3.979l-41.22-2.377v-21.629l-11.642.417z"/>
        <path fill="#EF7373" d="M124.289 186.812L141.44 264.8l-13.097.624z"/>
        <path fill="#FF8F8F" d="M51.367 176.228v8.622a8.013 8.013 0 0 0 8.012 8.015l54.356-.416 9.147 68.836 8.732 1.664-4.158-80.482-47.816-5.823-28.273-.416z"/>
        <path fill="#DF71DB" d="M44.219 204.927h69.516v-12.478H44.219a4.287 4.287 0 0 0-4.286 4.287v3.903a4.287 4.287 0 0 0 4.286 4.288"/>
        <path fill="#0679A4" d="M130.72 260.245h7.91s9.254.488 10.177 4.876l-.136 2.195h-18.19l.239-7.07z"/>
        <path fill="#61A1E7" d="M123.45 260.245h7.91s9.255.488 10.177 4.876l-.135 2.195H123.21l.24-7.07z"/>
        <path fill="#0679A4" d="M43.795 199.386c-21.053 0-38.182 17.135-38.182 38.196 0 21.061 17.129 38.196 38.182 38.196 21.055 0 38.183-17.135 38.183-38.196 0-21.061-17.128-38.196-38.183-38.196m0 82.007C19.646 281.393 0 261.739 0 237.583c0-24.159 19.646-43.812 43.795-43.812 24.15 0 43.797 19.653 43.797 43.811 0 24.157-19.647 43.81-43.797 43.81"/>
        <path fill="#DF71DB" d="M53.19 237.582c0 5.19-4.206 9.398-9.395 9.398-5.188 0-9.394-4.208-9.394-9.398 0-5.19 4.206-9.398 9.394-9.398 5.19 0 9.395 4.209 9.395 9.398"/>
        <path fill="#79E7F4" d="M110.29 268.724a3.444 3.444 0 0 1-3.443-3.445v-94.042h6.888v94.042a3.444 3.444 0 0 1-3.444 3.445"/>
        <path fill="#0679A4" d="M110.114 254.184c-5.952 0-10.794 4.843-10.794 10.797 0 5.953 4.842 10.797 10.794 10.797 5.951 0 10.793-4.844 10.793-10.797 0-5.954-4.842-10.797-10.793-10.797m0 27.209c-9.047 0-16.407-7.362-16.407-16.412 0-9.05 7.36-16.413 16.407-16.413s16.407 7.363 16.407 16.413-7.36 16.412-16.407 16.412"/>
        <path fill="#DF71DB" d="M113.735 172.484H45.49v-7.486h64.467a3.779 3.779 0 0 1 3.778 3.78v3.706z"/>
        <path fill="#DDA25B" d="M118.572 163.624s4.996 7.278 5.829 6.369c.833-.91-1.25-6.369-1.25-6.369h-4.579z"/>
        <path fill="#DF71DB" d="M114.735 264.98a4.622 4.622 0 1 1-9.242 0 4.622 4.622 0 1 1 9.242 0"/>
        <path fill="#0679A4" d="M500.107 156.305s5.345 2.643 7.484 7.174c2.651 5.615 2.495 7.955 2.495 7.955l-3.742.312s-3.118-2.651-4.99-7.643c-1.87-4.99-1.247-7.798-1.247-7.798"/>
        <path fill="#F0BB70" d="M498.966 152.686v13.857l-7.715-.43.96-12.99z"/>
        <path fill="#FDD455" d="M521.312 82.373v24.644l1.666 32.093 4.64 3.257 1.439-38.781-.884-21.213z"/>
        <path fill="#61A1E7" d="M526.157 64.929l44.082 4.442-4.578-37.347-39.897-1.453z"/>
        <path fill="url(#b)" d="M526.233 49.478l43.594-4.016-2.549 21.09-41.045-2.676z" transform="matrix(1 0 0 -1 0 112.015)"/>
        <path fill="#0679A4" d="M547.195 122.926l10.915 131.642 7.77-2.783-.08-129.339z"/>
        <path fill="#61A1E7" d="M558.228 249.77a4.433 4.433 0 0 0 4.366 1.653c2.906-.48 3.53-.96 3.53-.96l-.518 10.088h-19.228l11.85-10.78z"/>
        <path fill="#0679A4" d="M529.108 122.926l10.915 131.642 7.77-2.783-.08-129.339z"/>
        <path fill="url(#d)" d="M529.506 125.029l18.292-1.498v24.874h-16.347z"/>
        <path fill="url(#d)" d="M547.593 124.7l18.292-1.169v19.416h-16.348z"/>
        <path fill="#61A1E7" d="M540.142 249.77a4.433 4.433 0 0 0 4.365 1.653c2.906-.48 3.53-.96 3.53-.96l-.518 10.088h-19.227l11.85-10.78z"/>
        <path fill="#FDD455" d="M552.235 37.334V57.3l-13.721-.624 1.715-18.717z"/>
        <path fill="#FDD455" d="M554.106 56.856s-1.03 8.491-8.732 8.073c-7.702-.418-6.86-9.009-6.86-9.009l15.592.936z"/>
        <path fill="#FF8F8F" d="M538.514 55.945s-10.16.574-14.071 8.11l4.354 63.239 37.109-.936s-.343-40.834.592-56.12c.936-15.285-10.933-13.57-12.392-13.363-.724.106-8.732 8.073-8.732 8.073l-6.86-9.003z"/>
        <path fill="#F0BB70" d="M484.946 168.839c-4.017-.836-4.796 4.311-4.796 4.311l-1.791 21.138-6.493 19.883 3.076 1.117 7.702-17.806 2.614-18.88s2.263-7.08-.312-9.763"/>
        <path fill="#FDD455" d="M563.099 75.198l5.77 31.04-4.43 33.619 5.271.393 7.266-34.013-4.002-30.622z"/>
        <path fill="#F0BB70" d="M474.83 216.754l.973 3.574a.806.806 0 0 1-1.442.556l-.935-1.653c-.081-.2-.624.855-.48 1.485.286 1.117 1.627 2.04 1.172 2.607-.455.568-1.87.256-2.987-.904a4.743 4.743 0 0 1-.96-4.449 14.085 14.085 0 0 1 1.87-3.955.1.1 0 0 1 .14-.016c.007.005.011.01.016.016l2.782 1.098s-.15 1.61-.15 1.64"/>
        <path fill="#FDD455" d="M563.617 31.95c.148 9.87-7.731 17.993-17.599 18.141-9.867.148-17.986-7.734-18.134-17.604-.148-9.87 7.73-17.993 17.598-18.141l.272-.002a18.15 18.15 0 0 1 5.495.861 17.612 17.612 0 0 1 12.368 16.745"/>
        <path fill="#61A1E7" d="M543.884 19.242s1.129 22.266 21.71 18.523c1.718-.313-1.46-25.942-19.983-25.942-19.21 0-20.126 18.624-20.126 18.624s11.108 2.327 18.399-11.205"/>
        <path fill="#F0BB70" d="M482.014 198.418l3.76 65.24 5.234-2.427.243-63.05zM499.62 198.418l2.601 65.24 5.763-2.427.867-63.05zM500.038 166.374s.568 3.12-4.266 2.82c-4.833-.3-4.365-3.468-4.365-3.468l8.631.648z"/>
        <path fill="#DF71DB" d="M491.376 164.571s-8.42 3.432-9.368 4.76l-.195 60.073 33.574-.416-5.379-54.356-5.769-7.838-5.38-2.535s.281 3.107-3.542 3.12c-3.655.006-3.941-2.808-3.941-2.808"/>
        <path fill="#0679A4" d="M491.705 158.426s.77 4.572-1.204 9.005c-2.254 5.059-4.874 6.545-4.874 6.545s-1.621-3.546-.38-7.984c1.243-4.438 4.623-9.346 4.623-9.346l1.835 1.78z"/>
        <path fill="#F0BB70" d="M508.39 149.067c.103 6.85-5.364 12.486-12.21 12.59-6.848.103-12.482-5.366-12.585-12.215-.104-6.85 5.363-12.486 12.21-12.59h.204c1.297.01 2.585.22 3.818.623a12.229 12.229 0 0 1 8.563 11.592"/>
        <path fill="#0679A4" d="M499.483 142.267s-6.548 7.019-19.334 5.927c-1.205-.103 2.907-13.07 15.76-13.07 13.335 0 12.774 14.786 12.774 14.786s-9.717 2.776-9.2-7.643"/>
        <path fill="#DF71DB" d="M502.165 262.16h5.882v-5.515l-6.138-.76zM485.476 262.16h5.588v-5.515l-5.825-.76z"/>
        <path fill="#FDD455" d="M502.77 260.87a3.83 3.83 0 0 0 3.118.81 9.364 9.364 0 0 0 2.533-.474l-.374 4.991h-13.765l8.488-5.327zM485.364 260.483s.835.624 2.943.41c2.108-.211 2.819.338 2.819.338l-.193 4.991h-14.756l9.187-5.74z"/>
        <path fill="#FF8F8F" d="M521 84.245s-1.247-15.285 3.743-21.836c2.494-3.376 3.43-3.65 7.29-4.93 2.296-.76 3.275 2.852.998 3.607-2.831.942-5.226 1.91-7.153 3.743l8.45 4.555-6.442 16.845s-7.175-1.515-6.886-1.984M573.39 78.318c.211-.51-1.083-10.011-4.158-14.142-2.495-3.375-6.55-6.472-11.085-7.32-2.37-.443-4.26 2.227-1.983 2.982 2.831.942 5.226 1.91 7.153 3.744l-8.45 4.554 6.436 16.845 12.087-6.663z"/>
        <path fill="#F0BB70" d="M504.785 175.957c2.576 2.683 5.223-1.325 5.223-1.325l16.606 2.417-3.38-26.203-3.369-.082-.06 19.37-15.566-3.34s-2.03 6.48.546 9.163"/>
        <path fill="#FDD455" d="M526.639 145.118v6.57a1.422 1.422 0 0 1-2.72.28l-.817-3.25c-.05-.38-1.49 1.167-1.509 2.309-.031 2.034 1.821 4.23.786 4.99-1.035.762-3.3 4.568-4.665 2.072-1.51-2.751-.742-6.239.418-8.017 2.008-3.07 3.873-10.07 4.989-10.88a.18.18 0 0 1 .274.056l4.235 3.157c.038.006-.979 2.67-.991 2.713"/>
        <path fill="#F0BB70" d="M521.805 152.355s-3.867-3.306-2.17-6.357c.623-1.092 3.598 1.597 3.866 2.814.269 1.216.05 2.071-1.353 3.12l-.343.423zM510.008 174.632l.936 8.578s-7.407-3.743-7.407-11.854c0-8.11 6.471 3.276 6.471 3.276"/>
        <path fill="#FDD455" d="M564.44 139.857s-2.9 8.337-2.9 10.52c0 2.184 3.41 7.45 4.522 7.28 2.702-.417 1.091-5.408 1.403-8.215.312-2.808 2.245-9.192 2.245-9.192l-5.27-.393z"/>
        <path fill="#FF8F8F" d="M607.848 242.425l-7.692-5.47.73 13.468h6.962z"/>
        <path fill="#FDD455" d="M591.25 117.916l8.993 124.706 7.889.71.493-125.404z"/>
        <path fill="url(#b)" d="M594.369 162.836l14.135 1.665v10.894h-12.757zM595.664 177.98l12.84 8.442v24.832l-10.734-6.044z"/>
        <path fill="#D27777" d="M600.398 247.77c.976 1.35 2.58 1.997 4.146 1.674 2.76-.489 3.353-.977 3.353-.977l-.492 10.26h-18.267l11.26-10.957z"/>
        <path fill="#FF8F8F" d="M624.688 242.425l-7.692-5.47.73 13.468h6.962z"/>
        <path fill="#FDD455" d="M604.972 117.916l11.694 124.706 7.89.71.492-125.404z"/>
        <path fill="#D27777" d="M617.238 247.77c.976 1.35 2.58 1.997 4.145 1.674 2.76-.489 3.353-.977 3.353-.977l-.492 10.26h-18.267l11.26-10.957z"/>
        <path fill="#FF8F8F" d="M597.88 42.31v32.442l15.373-.624-1.925-31.195z"/>
        <path fill="url(#b)" d="M609.337 164.708l15.214 1.664v10.895H610.92zM612.456 198.398l12.054 9.34 1.437 9.341-11.644-2.356z"/>
        <path fill="#FF8F8F" d="M596.284 74.334s1.035 8.485 8.731 8.073c7.697-.412 6.861-8.99 6.861-8.99l-15.592.917zM586.767 36.919c-.152 9.87 7.724 17.995 17.591 18.147 9.867.151 17.99-7.728 18.141-17.598.152-9.871-7.725-17.995-17.592-18.148a18.37 18.37 0 0 0-5.798.853 17.63 17.63 0 0 0-12.342 16.746"/>
        <path fill="#61A1E7" d="M621.032 67.727c-4.109-7.562-8.355-7.244-8.355-7.244s.806 3.638-7.109 4.548c-8.413.961-7.266-4.011-8.033-4.117-.766-.106-7.207.455-8.354 1.123-2.267.938-5.199 2.452-6.51 8.067-1.2 1.387-1.797 35.041-1.797 35.041L568.4 132.13l4.232 2.395 16.55-25.844 1.66 16.73 34.529.012V77.07l-4.339-9.343z"/>
        <path fill="url(#n)" d="M578.784 80.757l16.238-1.749 40.733 3.83v32.4h-56.97z" transform="rotate(-90 607.27 97.123)"/>
        <path fill="url(#b)" d="M591.776 125.403h32.948v20.933h-31.421z"/>
        <path fill="#61A1E7" d="M606.341 66.104c8.519-3.175 5.334-5.515 6.1-5.615.768-.1 13.694.672 17.19 4.415 6.988 5.2 2.926 20.816 2.926 20.816l-3.801 21.609-35.478 29.677-3.517-4.305 27.638-28.283 5.287-32.049"/>
        <path fill="#036D8E" d="M604.797 20.28c-9.433 0-17.107 7.678-17.107 17.113 0 9.436 7.674 17.113 17.107 17.113 9.432 0 17.107-7.677 17.107-17.113 0-9.435-7.675-17.112-17.107-17.112m0 35.473c-10.12 0-18.355-8.237-18.355-18.36 0-10.125 8.234-18.361 18.355-18.361 10.12 0 18.354 8.236 18.354 18.36 0 10.124-8.234 18.361-18.354 18.361"/>
        <path fill="#036D8E" d="M592.86 22.432s1.958 14.462-7.859 14.462c-1.746 0 1.248-20.07 19.771-20.07 19.21 0 20.133 18.622 20.133 18.622s-23.763 5.703-32.045-13.014"/>
        <path fill="#DF71DB" d="M585.22 30.992c.194-10.932 9.21-19.636 20.137-19.442 10.654.19 19.246 8.784 19.435 19.442"/>
        <path fill="#79E7F4" d="M581.616 161.572l77.711 10.437v-4.723l-77.71-10.444z"/>
        <path fill="#79E7F4" d="M581.616 161.572l61.62 73.47 2.364-4.73-61.62-73.47zM715.265 219.893l-66.578 10.775-.811 5.122 67.39-11.168z"/>
        <path fill="#79E7F4" d="M647.876 235.79l20.9-96.08-4.727-.786-20.9 96.08z"/>
        <path fill="#036D8E" d="M581.654 158.745h6.723V139.73h-6.723z"/>
        <path fill="#036D8E" d="M588.377 143.971v-4.99a.874.874 0 0 0-.798-.868l-37.877-3.213a.867.867 0 0 0-.942.867v4.991a.868.868 0 0 0 .793.868l37.882 3.213a.866.866 0 0 0 .942-.868"/>
        <path fill="#79E7F4" d="M581.654 160.405h6.723v-5.34h-6.723z"/>
        <path fill="#036D8E" d="M563.28 162.152c2.45.018 4.871-.517 7.085-1.566a2.733 2.733 0 0 0 1.181-3.68l-.033-.063a2.818 2.818 0 0 0-3.774-1.142 10.923 10.923 0 0 1-8.613.087c-4.24-1.753-4.59-11.311-4.721-14.91 0-.419 0-.793-.05-1.124a2.81 2.81 0 1 0-5.613.256c0 .316.012.671.037 1.067.2 5.415.624 16.676 8.152 19.796a16.4 16.4 0 0 0 6.349 1.279M671.058 140.546c4.778-.823 7.665-7.66 7.665-7.66 1.379-1.386 2.545-3.201 1.821-4.062-1.247-1.248-5.133-3.357-6.516-1.978l-34.054 9.49.517 4.547c-1.359 1.41 25.815.48 30.567-.337M554.43 166.432c30.573 0 55.358 24.793 55.358 55.376 0 30.584-24.785 55.377-55.358 55.377-30.574 0-55.358-24.793-55.358-55.377 0-30.583 24.784-55.376 55.358-55.376m0 4.729c-27.963 0-50.63 22.675-50.63 50.647 0 27.972 22.667 50.648 50.63 50.648 27.962 0 50.63-22.676 50.63-50.648-.034-27.957-22.681-50.613-50.63-50.647M713.618 166.432c30.574 0 55.358 24.793 55.358 55.376 0 30.584-24.784 55.377-55.358 55.377-30.573 0-55.358-24.793-55.358-55.377 0-30.583 24.785-55.376 55.358-55.376m0 4.729c-27.962 0-50.63 22.675-50.63 50.647 0 27.972 22.668 50.648 50.63 50.648 27.963 0 50.63-22.676 50.63-50.648-.03-27.959-22.68-50.617-50.63-50.647"/>
        <path fill="#79E7F4" d="M558.378 219.887l30.273-62.059-5.507-.187-30.28 62.052z"/>
        <path fill="#036D8E" d="M554.423 216.337a5.47 5.47 0 0 0-5.47 5.472 5.47 5.47 0 1 0 10.94 0 5.471 5.471 0 0 0-5.47-5.472"/>
        <path fill="#79E7F4" d="M715.265 220.686l-55.551-46.468-2.364 3.943 55.552 46.462z"/>
        <path fill="#036D8E" d="M713.618 216.337a5.47 5.47 0 0 0-5.47 5.472 5.47 5.47 0 1 0 10.94 0 5.471 5.471 0 0 0-5.47-5.472M645.6 213.404c-8.918 0-16.173 7.258-16.173 16.179 0 8.92 7.255 16.177 16.173 16.177 8.917 0 16.172-7.257 16.172-16.177s-7.255-16.179-16.172-16.179m0 34.227c-9.95 0-18.044-8.096-18.044-18.048 0-9.953 8.095-18.05 18.044-18.05s18.043 8.097 18.043 18.05c0 9.952-8.094 18.048-18.043 18.048"/>
        <path fill="#FF8F8F" d="M569.762 137.238l-5.37-.14c.18-.31-2.476 1.207-3.136 2.055-1.185 1.524-1.026 2.901-2.233 2.946-1.206.045-2.233-.744-1.86-3.338.43-2.833 2.989-5.085 4.864-5.844 3.257-1.31 7.26-1.886 7.27-1.8.002.013 3.103 3.296 3.103 3.296-.018.019-.556 1.57-1.111 1.944-.581.393-1.51.866-1.527.881M593.278 137.006s-3.1 3.182-4.556 3.39c-1.455.207-4.99.207-4.99.207s-1.02 4.892-4.366 5.408c-2.702.416-5.362-9.023-1.662-9.983 5.613-1.455 12.057-3.327 12.057-3.327l3.517 4.305z"/>
    </g>
</svg>
