<svg xmlns="http://www.w3.org/2000/svg" width="123" height="128" viewBox="0 0 123 128">
    <g fill="none" fill-rule="evenodd">
        <path stroke="#0F91C2" stroke-width="1.3" d="M113.085 66.822c0 28.248-22.9 51.148-51.147 51.148-28.25 0-51.15-22.9-51.15-51.148 0-28.248 22.9-51.147 51.15-51.147 28.248 0 51.147 22.899 51.147 51.147zM122.52 6.239L1.353 127.406M122.52 127.406L1.353 6.239"/>
        <path fill="#DF71DB" d="M9.083 96.645l.777 9.948h29.223l.31-9.636S30.69 87.319 26.96 86.853c-3.73-.467-17.876 9.792-17.876 9.792"/>
        <path fill="#F0BB70" d="M10.882 98.04c0 7.255 5.98 13.137 13.356 13.137 7.377 0 13.357-5.882 13.357-13.137 0-7.256-5.98-13.138-13.357-13.138a13.56 13.56 0 0 0-4.113.635c-5.363 1.706-9.243 6.658-9.243 12.503"/>
        <path fill="#DF71DB" d="M25.632 88.563S16.9 98.041 9.56 98.041c-1.303 0 .933-15.003 14.78-15.003 14.366 0 15.054 13.919 15.054 13.919s-7.57 5.595-13.762-8.394"/>
        <path fill="#FF8F8F" d="M81.698 27.26c0 7.256 5.98 13.138 13.356 13.138 7.377 0 13.357-5.882 13.357-13.138s-5.98-13.138-13.357-13.138c-1.434 0-2.817.223-4.112.635-5.364 1.706-9.244 6.658-9.244 12.503"/>
        <path fill="#0679A4" d="M108.578 26.638s-8.891-3.806-9.513-8.002c0 0-6.45 7.89-17.758 6.685 0 0 2.409-11.658 12.666-11.658 9.028 0 14.138 5.36 14.605 12.975"/>
        <path fill="#61A1E7" d="M103.274 94.793A5.364 5.364 0 1 0 114 94.79a5.364 5.364 0 0 0-10.725.003"/>
        <path fill="#FF8F8F" d="M81.865 98.093c0 7.256 5.98 13.138 13.356 13.138 7.377 0 13.357-5.882 13.357-13.138s-5.98-13.138-13.357-13.138c-1.434 0-2.817.223-4.112.635-5.364 1.706-9.244 6.66-9.244 12.503"/>
        <path fill="#61A1E7" d="M108.56 96.464s-8.55-2.487-9.172-6.685c0 0-10.57 10.998-21.878 9.793 0 0 2.914-14.688 15.971-14.688 9.027 0 13.757 4.196 15.078 11.58"/>
        <path fill="#0679A4" d="M23.26 35.765c-9.168-.386-16.264-8.7-15.849-18.574C7.828 7.32 15.598-.372 24.765.014c9.169.386 16.264 8.701 15.85 18.573-.416 9.873-8.186 17.564-17.355 17.178"/>
        <path fill="#F0BB70" d="M37.117 27.622c0 7.056-5.815 12.776-12.989 12.776s-12.99-5.72-12.99-12.776c0-7.057 5.816-12.776 12.99-12.776 1.395 0 2.74.215 4 .617 5.217 1.658 8.989 6.475 8.989 12.159"/>
        <path fill="#0679A4" d="M17.193 15.653s1.554 6.373-6.373 9.793c-5.737 2.475 2.331-9.638 2.331-9.638l4.042-.155zM30.178 15.653s-1.555 6.373 6.373 9.793c5.737 2.475-2.332-9.638-2.332-9.638l-4.04-.155z"/>
        <path fill="#0679A4" d="M15.794 15.808s1.555 2.643 7.928 2.643 10.103-2.798 10.103-2.798l-13.99-2.488-4.041 2.643z"/>
        <path fill="#0F91C2" d="M84.187 66.822c0 12.289-9.962 22.25-22.25 22.25-12.289 0-22.25-9.961-22.25-22.25 0-12.288 9.961-22.25 22.25-22.25 12.288 0 22.25 9.962 22.25 22.25"/>
        <path fill="#FFF" d="M56.089 66.359v-.096c0-1.762-.983-3.07-2.662-3.07-1.68 0-2.675 1.235-2.675 3.082v.096c0 1.87 1.14 3.083 2.698 3.083 1.619 0 2.639-1.236 2.639-3.095m-7.004.024v-.096c0-2.506 1.799-4.365 4.342-4.365 2.555 0 4.317 1.81 4.317 4.33v.095c0 2.507-1.715 4.39-4.317 4.39-2.627 0-4.342-1.883-4.342-4.354M62.163 66.011c1.067 0 1.63-.456 1.63-1.367v-.048c0-.983-.611-1.319-1.63-1.319h-1.284v2.734h1.284zm-2.88-3.97h2.88c1.883 0 3.202.768 3.202 2.52v.047c0 1.343-.84 2.027-1.907 2.302l2.41 3.706h-1.726l-2.244-3.465h-1.02v3.465h-1.594v-8.575zM66.593 66.383v-.097c0-2.553 1.775-4.377 4.28-4.377 1.836 0 3.468.84 3.696 2.891h-1.595c-.193-1.14-.96-1.632-2.075-1.632-1.68 0-2.651 1.248-2.651 3.131v.096c0 1.835.852 3.094 2.65 3.094 1.608 0 2.267-.97 2.315-2.159h-2.158v-1.199h3.729v.791c0 2.375-1.487 3.815-3.91 3.815-2.746 0-4.281-1.824-4.281-4.354"/>
    </g>
</svg>
