<svg xmlns="http://www.w3.org/2000/svg" xmlns:xlink="http://www.w3.org/1999/xlink" width="134" height="113" viewBox="0 0 134 113">
    <defs>
        <path id="a" d="M.339.518h62.687v60.613H.339z"/>
        <path id="c" d="M.194.7h66.832V43H.194z"/>
        <path id="e" d="M.317.235h15.709v20.752H.316z"/>
        <path id="g" d="M.04.354h41.578v21.153H.04z"/>
    </defs>
    <g fill="none" fill-rule="evenodd">
        <path fill="#E2E2E2" d="M94.848 26.34l-.933 34.778 17.147-3.215-2.839-30.869z"/>
        <g transform="translate(70 40.646)">
            <mask id="b" fill="#fff">
                <use xlink:href="#a"/>
            </mask>
            <path fill="#999" d="M63.027 29.7C63.027 8.684 39.725.518 39.725.518s-6.462 6.738-8.338 6.738c-2.231 0-6.947-6.738-6.947-6.738S5.117 7.434 1.412 17.972C.302 21.124.352 29.7.352 29.7L.34 49.711l5.09-.014 2.293 1.07 50.725 10.364-.118-12.298 3.243-.124L63.027 29.7z" mask="url(#b)"/>
        </g>
        <path fill="#E2E2E2" d="M75.293 86.547l-3.792-7.015-6.445.19 2.843 8.721z"/>
        <g transform="translate(66 69.646)">
            <mask id="d" fill="#fff">
                <use xlink:href="#c"/>
            </mask>
            <path fill="#E2E2E2" d="M67.027.7V43L.194 21.64l.758-8.531 52.387 14.978V.914" mask="url(#d)"/>
        </g>
        <path fill="#999" d="M72.333 91.477l-7.176 3.932a2.811 2.811 0 0 1-3.817-1.116l-9.592-17.506a2.814 2.814 0 0 1 1.115-3.82l7.176-3.93a2.81 2.81 0 0 1 3.817 1.115l9.592 17.508a2.811 2.811 0 0 1-1.115 3.817"/>
        <path fill="#E2E2E2" d="M56.43 75.334a1.352 1.352 0 1 1-2.37 1.3 1.352 1.352 0 0 1 2.37-1.3M72.755 84.086l-18.126-.858-.189 2.46 1.518 1.331.29 2.7 2.61 1.208 1.093 2.162 5.47.33 9.872-.995z"/>
        <g transform="translate(117 67.646)">
            <mask id="f" fill="#fff">
                <use xlink:href="#e"/>
            </mask>
            <path fill="#999" d="M16.027.235v20.318l-15.71.434V.48" mask="url(#f)"/>
        </g>
        <path fill="#E2E2E2" d="M70.102 23.96c1.779 10.858 12.172 18.194 23.212 16.385 11.04-1.809 18.548-12.079 16.768-22.939C108.302 6.548 97.91-.789 86.87 1.021a20.495 20.495 0 0 0-6 1.96c-7.61 3.867-12.202 12.231-10.768 20.978"/>
        <g transform="translate(69 -.354)">
            <mask id="h" fill="#fff">
                <use xlink:href="#g"/>
            </mask>
            <path fill="#999" d="M41.618 20.611s-19.653-3.79-21.928-8.91c0 0-2.43 8.836-19.65 9.806 0 0 2.023-20.424 17.565-21.118 16.418-.73 23.001 9.86 24.013 20.222" mask="url(#h)"/>
        </g>
        <path fill="#E2E2E2" d="M71.787 27.008l.638 10.141 6.91-4.719zM99.646 12.755c1.297 1.724 1.239 3.956-.13 4.986-1.368 1.031-3.53.47-4.827-1.255-1.298-1.723-1.24-3.956.129-4.986 1.369-1.03 3.53-.469 4.828 1.255M52.683 64.413H25.424a7.761 7.761 0 0 1-7.761-7.76V44.005a7.76 7.76 0 0 1 7.761-7.76h27.259a7.76 7.76 0 0 1 7.76 7.76v12.646a7.761 7.761 0 0 1-7.76 7.761"/>
        <path stroke="#999" stroke-width="1.5" d="M22.802 44.527l16.251 9 16.252-9"/>
        <path fill="#999" d="M20.658 27.21H4.175A4.174 4.174 0 0 1 0 23.033v-8a4.175 4.175 0 0 1 4.174-4.176h16.483a4.175 4.175 0 0 1 4.175 4.175v8.001a4.175 4.175 0 0 1-4.175 4.175"/>
        <path stroke="#E2E2E2" stroke-width="1.5" d="M2.983 15.665l9.434 5.225 9.433-5.225"/>
        <path fill="#E2E2E2" d="M60.581 31.087H48.645a2.388 2.388 0 0 1-2.388-2.389v-6.227a2.388 2.388 0 0 1 2.388-2.389h11.936a2.39 2.39 0 0 1 2.39 2.39v6.226a2.39 2.39 0 0 1-2.39 2.39"/>
        <path stroke="#999" stroke-width="1.5" d="M48.265 23.318l6.349 3.516 6.349-3.516"/>
        <path fill="#E2E2E2" d="M14.592 76.455H2.656a2.388 2.388 0 0 1-2.388-2.389V67.84a2.388 2.388 0 0 1 2.388-2.389h11.936a2.389 2.389 0 0 1 2.39 2.39v6.225c0 1.32-1.07 2.39-2.39 2.39"/>
        <path stroke="#999" stroke-width="1.5" d="M2.276 68.687l6.349 3.516 6.349-3.516"/>
        <path fill="#999" d="M50.486 106.268H38.55a2.388 2.388 0 0 1-2.388-2.39v-6.225c0-1.32 1.069-2.39 2.388-2.39h11.936a2.39 2.39 0 0 1 2.39 2.39v6.226a2.39 2.39 0 0 1-2.39 2.389"/>
        <path stroke="#E2E2E2" stroke-width="1.5" d="M38.17 98.498l6.348 3.517 6.35-3.517"/>
        <path fill="#E2E2E2" d="M43.01 85.47H25.996a3.91 3.91 0 0 1-3.91-3.91v-8.53a3.91 3.91 0 0 1 3.91-3.911H43.01a3.91 3.91 0 0 1 3.91 3.911v8.53a3.91 3.91 0 0 1-3.91 3.91"/>
        <path stroke="#999" stroke-width="1.5" d="M25.07 73.926l9.434 5.225 9.433-5.225"/>
    </g>
</svg>
