<svg xmlns="http://www.w3.org/2000/svg" xmlns:xlink="http://www.w3.org/1999/xlink" width="156" height="90" viewBox="0 0 156 90">
    <defs>
        <path id="a" d="M.266.215h26.261v16.617H.266z"/>
        <path id="c" d="M.266.215h26.261v16.617H.266z"/>
        <path id="e" d="M.224.568h50.09V90H.223z"/>
        <path id="g" d="M0 90h156V1H0z"/>
    </defs>
    <g fill="none" fill-rule="evenodd">
        <path fill="#E2E2E2" d="M54.076 41H35.924C33.757 41 32 39.256 32 37.103v-9.206C32 25.745 33.757 24 35.924 24h18.152C56.243 24 58 25.745 58 27.897v9.206C58 39.256 56.243 41 54.076 41"/>
        <path stroke="#999" stroke-width="1.5" d="M36 29l10 5 10-5"/>
        <path fill="#E2E2E2" d="M22.076 41H3.924C1.757 41 0 39.256 0 37.103v-9.206C0 25.745 1.757 24 3.924 24h18.152C24.243 24 26 25.745 26 27.897v9.206C26 39.256 24.243 41 22.076 41"/>
        <path stroke="#999" stroke-width="1.5" d="M3 29l10 5 10-5"/>
        <g transform="translate(129 24)">
            <mask id="b" fill="#fff">
                <use xlink:href="#a"/>
            </mask>
            <path fill="#999" d="M22.564 16.832H4.229c-2.189 0-3.963-1.705-3.963-3.809v-9C.266 1.92 2.04.216 4.229.216h18.335c2.189 0 3.963 1.705 3.963 3.809v9c0 2.103-1.774 3.808-3.963 3.808" mask="url(#b)"/>
        </g>
        <path stroke="#E2E2E2" stroke-width="1.5" d="M133 29l10 5 10-5"/>
        <path fill="#999" d="M119.076 41h-18.152C98.757 41 97 39.256 97 37.103v-9.206C97 25.745 98.757 24 100.924 24h18.152c2.167 0 3.924 1.745 3.924 3.897v9.206c0 2.153-1.757 3.897-3.924 3.897"/>
        <path stroke="#E2E2E2" stroke-width="1.5" d="M100 29l10 5 10-5"/>
        <path fill="#E2E2E2" d="M54.076 65H35.924C33.757 65 32 63.256 32 61.103v-9.206C32 49.745 33.757 48 35.924 48h18.152C56.243 48 58 49.745 58 51.897v9.206C58 63.256 56.243 65 54.076 65"/>
        <path stroke="#999" stroke-width="1.5" d="M36 53l10 5 10-5"/>
        <path fill="#E2E2E2" d="M22.076 65H3.924C1.757 65 0 63.256 0 61.103v-9.206C0 49.745 1.757 48 3.924 48h18.152C24.243 48 26 49.745 26 51.897v9.206C26 63.256 24.243 65 22.076 65"/>
        <path stroke="#999" stroke-width="1.5" d="M3 53l10 5 10-5"/>
        <g transform="translate(129 48)">
            <mask id="d" fill="#fff">
                <use xlink:href="#c"/>
            </mask>
            <path fill="#999" d="M22.564 16.832H4.229c-2.189 0-3.963-1.705-3.963-3.809v-9C.266 1.92 2.04.216 4.229.216h18.335c2.189 0 3.963 1.705 3.963 3.809v9c0 2.103-1.774 3.808-3.963 3.808" mask="url(#d)"/>
        </g>
        <path stroke="#E2E2E2" stroke-width="1.5" d="M133 53l10 5 10-5"/>
        <path fill="#999" d="M119.076 65h-18.152C98.757 65 97 63.256 97 61.103v-9.206C97 49.745 98.757 48 100.924 48h18.152c2.167 0 3.924 1.745 3.924 3.897v9.206c0 2.153-1.757 3.897-3.924 3.897"/>
        <path stroke="#E2E2E2" stroke-width="1.5" d="M100 53l10 5 10-5"/>
        <g transform="translate(52)">
            <mask id="f" fill="#fff">
                <use xlink:href="#e"/>
            </mask>
            <path fill="#999" d="M40.827 90H9.71C4.47 90 .224 85.717.224 80.434V10.133C.224 4.851 4.47.567 9.71.567h31.117c5.24 0 9.486 4.284 9.486 9.566v70.301c0 5.283-4.246 9.566-9.486 9.566" mask="url(#f)"/>
        </g>
        <mask id="h" fill="#fff">
            <use xlink:href="#g"/>
        </mask>
        <path fill="#E2E2E2" d="M56 78h44V11H56z" mask="url(#h)"/>
        <path stroke="#E2E2E2" stroke-width="1.5" d="M74 6h8" mask="url(#h)"/>
        <path fill="#E2E2E2" d="M81 84.5a3.5 3.5 0 1 1-7 0 3.5 3.5 0 0 1 7 0" mask="url(#h)"/>
        <path fill="#999" d="M87.076 41H68.924C66.757 41 65 39.256 65 37.103v-9.206C65 25.745 66.757 24 68.924 24h18.152C89.243 24 91 25.745 91 27.897v9.206C91 39.256 89.243 41 87.076 41" mask="url(#h)"/>
        <path stroke="#E2E2E2" stroke-width="1.5" d="M68 29l10 5 10-5" mask="url(#h)"/>
        <path fill="#999" d="M87.076 65H68.924C66.757 65 65 63.256 65 61.103v-9.206C65 49.745 66.757 48 68.924 48h18.152C89.243 48 91 49.745 91 51.897v9.206C91 63.256 89.243 65 87.076 65" mask="url(#h)"/>
        <path stroke="#E2E2E2" stroke-width="1.5" d="M68 53l10 5 10-5" mask="url(#h)"/>
    </g>
</svg>
