<svg xmlns="http://www.w3.org/2000/svg" xmlns:xlink="http://www.w3.org/1999/xlink" width="174" height="112" viewBox="0 0 174 112">
    <defs>
        <path id="a" d="M.301.725h26.713V27H.301z"/>
        <path id="c" d="M.47.725h26.713V27H.47z"/>
        <path id="e" d="M.38.2h10.725v10.724H.38z"/>
        <path id="g" d="M.971.725h26.713V27H.971z"/>
        <path id="i" d="M0 .602h33.238v35.78H0z"/>
    </defs>
    <g fill="none" fill-rule="evenodd">
        <path stroke="#999" stroke-width="1.3" d="M18.179 72.936V61.102h136.834v26.5M62.679 61.102v24.623M107.23 61.102v25.5"/>
        <path fill="#999" d="M47.502 97.468l.777 9.948h29.223l.311-9.637s-8.705-9.637-12.435-10.104c-3.73-.466-17.876 9.793-17.876 9.793"/>
        <g transform="translate(49 85)">
            <mask id="b" fill="#fff">
                <use xlink:href="#a"/>
            </mask>
            <path fill="#E2E2E2" d="M.301 13.862C.301 21.118 6.281 27 13.657 27c7.377 0 13.357-5.882 13.357-13.138 0-7.255-5.98-13.137-13.357-13.137-1.434 0-2.817.223-4.112.634C4.181 3.065.301 8.02.301 13.862" mask="url(#b)"/>
        </g>
        <path fill="#999" d="M64.051 89.385s-8.73 9.478-16.072 9.478c-1.303 0 .933-15.002 14.782-15.002 14.364 0 15.052 13.918 15.052 13.918s-7.569 5.595-13.762-8.394"/>
        <g transform="translate(94 85)">
            <mask id="d" fill="#fff">
                <use xlink:href="#c"/>
            </mask>
            <path fill="#E2E2E2" d="M.47 13.862C.47 21.118 6.45 27 13.826 27c7.377 0 13.357-5.882 13.357-13.138 0-7.255-5.98-13.137-13.357-13.137-1.434 0-2.816.223-4.112.634C4.35 3.065.47 8.02.47 13.862" mask="url(#d)"/>
        </g>
        <path fill="#999" d="M121.35 98.241s-8.891-3.806-9.512-8.003c0 0-6.451 7.891-17.76 6.686 0 0 2.41-11.659 12.668-11.659 9.027 0 14.138 5.36 14.604 12.976"/>
        <g transform="translate(162 90)">
            <mask id="f" fill="#fff">
                <use xlink:href="#e"/>
            </mask>
            <path fill="#999" d="M.38 5.563A5.362 5.362 0 1 0 5.742.2 5.362 5.362 0 0 0 .38 5.563" mask="url(#f)"/>
        </g>
        <g transform="translate(140 85)">
            <mask id="h" fill="#fff">
                <use xlink:href="#g"/>
            </mask>
            <path fill="#E2E2E2" d="M.971 13.862C.971 21.118 6.95 27 14.327 27c7.376 0 13.357-5.882 13.357-13.138 0-7.255-5.981-13.137-13.357-13.137-1.435 0-2.817.223-4.113.634C4.851 3.065.971 8.02.971 13.862" mask="url(#h)"/>
        </g>
        <path fill="#999" d="M167.664 97.233s-8.549-2.487-9.17-6.684c0 0-10.57 10.997-21.879 9.792 0 0 2.915-14.688 15.972-14.688 9.027 0 13.756 4.196 15.077 11.58"/>
        <g transform="translate(0 71)">
            <mask id="j" fill="#fff">
                <use xlink:href="#i"/>
            </mask>
            <path fill="#999" d="M15.867 36.368C6.697 35.982-.4 27.666.017 17.794.432 7.921 8.2.23 17.37.616c9.169.386 16.265 8.702 15.85 18.574-.417 9.872-8.185 17.564-17.354 17.178" mask="url(#j)"/>
        </g>
        <path fill="#E2E2E2" d="M29.723 99.224c0 7.057-5.815 12.776-12.989 12.776s-12.99-5.72-12.99-12.776 5.816-12.776 12.99-12.776c1.395 0 2.739.216 4 .617 5.216 1.659 8.989 6.475 8.989 12.159"/>
        <path fill="#999" d="M9.798 87.255s1.555 6.373-6.373 9.793c-5.737 2.476 2.332-9.637 2.332-9.637l4.041-.156zM22.785 87.255s-1.555 6.373 6.372 9.793c5.738 2.476-2.331-9.637-2.331-9.637l-4.041-.156z"/>
        <path fill="#999" d="M8.4 87.411s1.555 2.642 7.928 2.642 10.103-2.798 10.103-2.798l-13.99-2.487L8.4 87.411z"/>
        <path stroke="#999" stroke-width="1.3" d="M86.461 43.935V61.27"/>
        <path fill="#999" d="M109.022 22.33c0 12.288-9.962 22.25-22.25 22.25-12.29 0-22.25-9.962-22.25-22.25S74.482.08 86.772.08c12.288 0 22.25 9.962 22.25 22.25"/>
        <path fill="#FFF" d="M80.923 21.867v-.096c0-1.762-.983-3.07-2.662-3.07-1.68 0-2.675 1.235-2.675 3.082v.096c0 1.871 1.14 3.083 2.698 3.083 1.62 0 2.64-1.236 2.64-3.095m-7.005.024v-.096c0-2.506 1.8-4.365 4.342-4.365 2.555 0 4.317 1.811 4.317 4.33v.095c0 2.507-1.715 4.39-4.317 4.39-2.627 0-4.342-1.883-4.342-4.354M86.997 21.52c1.067 0 1.631-.456 1.631-1.367v-.048c0-.983-.612-1.32-1.63-1.32h-1.285v2.735h1.284zm-2.879-3.97h2.88c1.882 0 3.201.767 3.201 2.518v.048c0 1.343-.84 2.027-1.907 2.303l2.41 3.706h-1.726l-2.244-3.465h-1.019v3.465h-1.595v-8.576zM91.427 21.892v-.097c0-2.553 1.775-4.377 4.281-4.377 1.835 0 3.467.84 3.695 2.89h-1.595c-.193-1.14-.96-1.631-2.075-1.631-1.679 0-2.65 1.248-2.65 3.13v.097c0 1.835.851 3.094 2.65 3.094 1.607 0 2.266-.971 2.314-2.16H95.89V21.64h3.73v.79c0 2.376-1.488 3.816-3.91 3.816-2.747 0-4.282-1.824-4.282-4.354"/>
    </g>
</svg>
