<svg xmlns="http://www.w3.org/2000/svg" xmlns:xlink="http://www.w3.org/1999/xlink" width="242" height="142" viewBox="0 0 242 142">
    <defs>
        <path id="a" d="M0 .584h71.287V71.87H0z"/>
        <path id="c" d="M0 141.819h241.9V0H0z"/>
    </defs>
    <g fill="none" fill-rule="evenodd">
        <g transform="translate(0 22.819)">
            <mask id="b" fill="#fff">
                <use xlink:href="#a"/>
            </mask>
            <path fill="#0679A4" d="M63.749 71.87l-56.44-.182a7.332 7.332 0 0 1-7.31-7.355L.184 7.892A7.33 7.33 0 0 1 7.538.584l56.44.181a7.334 7.334 0 0 1 7.309 7.356l-.183 56.441a7.33 7.33 0 0 1-7.355 7.308" mask="url(#b)"/>
        </g>
        <path fill="#61A1E7" d="M49.795 53.514a9.427 9.427 0 0 0 9.397 9.458 9.427 9.427 0 0 0 9.458-9.397 9.427 9.427 0 0 0-9.397-9.458 9.427 9.427 0 0 0-9.458 9.397"/>
        <path fill="#FF8F8F" d="M12.14 59.195c-.042 12.755 10.437 23.129 23.405 23.17 12.968.043 23.514-10.263 23.555-23.02.041-12.754-10.439-23.128-23.406-23.17a23.795 23.795 0 0 0-7.234 1.093c-9.44 2.968-16.288 11.653-16.32 21.927"/>
        <path fill="#61A1E7" d="M59.076 56.482S44.06 52.061 42.992 44.68c0 0-18.645 19.273-38.518 17.091 0 0 5.207-25.807 28.162-25.732 15.87.05 24.16 7.455 26.44 20.443"/>
        <path stroke="#0679A4" stroke-width="1.5" d="M105.648 59.046H67.595"/>
        <path fill="#0F91C2" d="M126.856 118.091h77.191a6.945 6.945 0 0 0 6.946-6.945V6.946A6.946 6.946 0 0 0 204.047 0h-77.19a6.945 6.945 0 0 0-6.945 6.945v104.201a6.944 6.944 0 0 0 6.944 6.945"/>
        <mask id="d" fill="#fff">
            <use xlink:href="#c"/>
        </mask>
        <path fill="#FFF" d="M138.921 53.085h7.216V45.87h-7.216z" mask="url(#d)"/>
        <path stroke="#FFF" stroke-width="1.5" d="M156.925 49.477h38.6" mask="url(#d)"/>
        <path fill="#FFF" d="M138.921 72.222h7.216v-7.215h-7.216z" mask="url(#d)"/>
        <path stroke="#FFF" stroke-width="1.5" d="M156.925 68.615h38.6" mask="url(#d)"/>
        <path fill="#FFF" d="M138.921 91.359h7.216v-7.215h-7.216z" mask="url(#d)"/>
        <path stroke="#FFF" stroke-width="1.5" d="M156.925 87.752h38.6" mask="url(#d)"/>
        <path stroke="#0679A4" stroke-dasharray="3.059,3.059" stroke-width="1.5" d="M149.114 36.937l-9.913-.032a7.334 7.334 0 0 1-7.309-7.356l.034-9.912a7.33 7.33 0 0 1 7.355-7.308l9.912.032a7.333 7.333 0 0 1 7.309 7.355l-.033 9.912a7.33 7.33 0 0 1-7.355 7.31z" mask="url(#d)"/>
        <path fill="#FDD455" d="M144.197 27.698l-4.229 2.943 1.492-4.932-4.106-3.113 5.152-.105 1.691-4.867 1.691 4.867 5.153.105-4.107 3.113 1.492 4.932z" mask="url(#d)"/>
        <path fill="#79E7F4" d="M241.9 67.694c0 17.072-30.91 74.125-30.91 74.125s-30.91-57.053-30.91-74.125c0-17.071 13.838-30.91 30.91-30.91 17.07 0 30.91 13.839 30.91 30.91" mask="url(#d)"/>
        <path fill="#0F91C2" d="M229.436 67.844c0 10.188-8.259 18.447-18.447 18.447-10.188 0-18.448-8.259-18.448-18.447 0-10.188 8.26-18.447 18.448-18.447s18.447 8.26 18.447 18.447" mask="url(#d)"/>
        <path fill="#FFF" d="M222.048 67.844c0 6.107-4.951 11.06-11.06 11.06-6.106 0-11.057-4.953-11.057-11.06 0-6.108 4.95-11.059 11.058-11.059s11.059 4.951 11.059 11.06" mask="url(#d)"/>
        <path fill="#0679A4" d="M111.85 59.022l-8.778-5.068V64.09z" mask="url(#d)"/>
    </g>
</svg>
