<svg xmlns="http://www.w3.org/2000/svg" xmlns:xlink="http://www.w3.org/1999/xlink" width="348" height="245"><defs><path id="a" d="M0 .139h320v58.394H0z"/><path id="c" d="M10.878 20.29c-5.498 0-9.955-4.457-9.955-9.955S5.38.38 10.878.38h123.08c5.498 0 9.955 4.457 9.955 9.955s-4.457 9.955-9.955 9.955H10.878z"/><linearGradient id="d" x1="35.304%" x2="35.304%" y1="100%" y2="0%"><stop offset="0%" stop-opacity="0"/><stop offset="100%" stop-opacity=".15"/></linearGradient></defs><g fill="none" fill-rule="evenodd"><path fill="#79E7F4" d="M298.795 329H21.205C9.492 329 0 319.506 0 307.795V56.11h320v251.685c0 11.71-9.494 21.205-21.205 21.205"/><mask id="b" fill="#fff"><use xlink:href="#a"/></mask><path fill="#0679A4" d="M320 58.533H0v-37.19C0 9.634 9.493.14 21.204.14h277.591C310.506.139 320 9.633 320 21.344v37.189z" mask="url(#b)"/><g transform="translate(157 19)"><mask id="e" fill="#fff"><use xlink:href="#c"/></mask><use fill="#79E7F4" xlink:href="#c"/><path fill="url(#d)" d="M1 .03h142.99V13H1z" mask="url(#e)"/></g><path fill="#FDD455" d="M167.879 39.29c-5.498 0-9.956-4.457-9.956-9.955s4.458-9.955 9.956-9.955h77.572c-.072 0 .045 19.91 0 19.91h-77.572z"/><path fill="#FFF" d="M47.234 29.335c0 8.681-7.037 15.72-15.718 15.72-8.681 0-15.72-7.039-15.72-15.72 0-8.68 7.039-15.719 15.72-15.719 8.68 0 15.718 7.038 15.718 15.72"/><path fill="#0F91C2" d="M55.698 148.802h208.604v-19.91H55.698zm0 55.205h135.226v-19.91H55.698z"/><path fill="#F0BB70" d="M282.493 188.384s-4.513-5.357-4.079-6.74c.433-1.382 6.59 4.41 6.59 4.41l-2.51 2.33zm38.877-58.421l-27.539 18.471-22.375-28.25-3.417 3.166 22.167 36.584 39.608-23.082z"/><path fill="#61A1E7" d="M320.14 127.476l-13.738 11.68 4.023 9.72 12.065-5.595z"/><path fill="#61A1E7" d="M344.445 174.795s.707-22.265-1.688-30.02c-2.396-7.756-13.36-15.67-13.36-15.67s-7.995 2.414-10.218.674c0 0-6.016 7.121-9.256 13.548-3.241 6.426-7.746 60.471-7.746 60.471l38.924 2.478 3.344-31.48z"/><path fill="#F0BB70" d="M327.872 156.496l-6.952 14.955-40.394 15.065 2.555 4.668s38.45-10.282 41.86-10.893c.46-.082 14.694-18.673 13.234-19.026l-10.303-4.769zm15.621-39.748c-5.822 7.826-16.99 9.371-24.947 3.452-7.956-5.919-9.686-17.062-3.865-24.888 5.823-7.825 16.993-9.37 24.95-3.45a18.226 18.226 0 013.925 3.984c4.416 6.144 4.626 14.6-.063 20.902"/><path fill="#F0BB70" d="M332.268 115.555l-.223 12.72a6.376 6.376 0 11-12.712-.805l1.26-11.514 11.675-.4z"/><path fill="#DF71DB" d="M339.745 100.821s-.58 3.453-6.146 9.391c-5.566 5.938-8.612 7.052-8.612 7.052l12.768 9.5s7.058-6.526 8.922-13.552c1.862-7.026.582-17.063-7.7-22.214-8.28-5.152-15.854-2.207-15.854-2.207s1.832 5.905 8.392 5.907c5.945.001 8.23 6.123 8.23 6.123"/><path fill="#DF71DB" d="M331.235 92.135s-5.651 11.44 4.278 17.314c4.555 2.694 8.229-8.346 8.229-8.346l-5.584-5.836-6.923-3.132z"/><path fill="#F0BB70" d="M315.98 94.191s-4.766 1.823-5.278 2.513c-.726.975 3.663 4.24 3.663 4.24l1.615-6.753z"/><path fill="#0F91C2" d="M280.834 197.866a1 1 0 01-1.129-.853l-21.75-155.769 1.982-.276 21.75 155.77a1.002 1.002 0 01-.853 1.128"/><path fill="#F0BB70" d="M283.156 184.623c-6.055 1.15-5.25-4.66-6.3-4.332-2.925.915-3.04 6.71-1.471 8.057 1.57 1.347 2.418 4 8.166 2.59 5.365-1.316 3.326-4.553 3.326-4.553l-3.721-1.762zM266.331 114.1s3.25-2 4.125-.5 2.375 4.5 1.75 5.876c-.175.383-.616.846-1.267 1.096-1.817.695-1.758 3.52-2.483 3.778l-1.5-2.25s-2.875-2.25-1.75-5.124l1.125-2.876z"/><path fill="#0A85B3" d="M302.177 203.799l10.695 75.635 25.334 1.334 2.895-74.491z"/><path fill="url(#d)" d="M302 204l38.982 1.999-.753 23.217-34.571-.896z"/><path fill="#FDD455" d="M249 47.659L258.39 30c4.875 2.592 6.727 8.648 4.134 13.524-2.592 4.876-8.648 6.727-13.524 4.135z"/></g></svg>