<svg xmlns="http://www.w3.org/2000/svg" xmlns:xlink="http://www.w3.org/1999/xlink" width="424" height="361"><defs><linearGradient id="e" x1="35.304%" x2="35.304%" y1="121.027%" y2="0%"><stop offset="0%" stop-opacity="0"/><stop offset="100%" stop-opacity=".15"/></linearGradient><linearGradient id="f" x1="35.304%" x2="35.304%" y1="100%" y2="0%"><stop offset="0%" stop-opacity="0"/><stop offset="100%" stop-opacity=".15"/></linearGradient><path id="a" d="M.91.514h17.84v65.943H.91z"/><path id="c" d="M.208.514h17.84v65.943H.207z"/></defs><g fill="none" fill-rule="evenodd"><path fill="#0679A4" d="M387.534 58.302c0-14.455-11.8-26.174-26.359-26.174H121.654c-14.558 0-26.358 11.72-26.358 26.174v57.061h292.238V58.302z"/><g transform="translate(137.287 .754)"><mask id="b" fill="#fff"><use xlink:href="#a"/></mask><path fill="#79E7F4" d="M9.83 66.457c-4.927 0-8.92-3.483-8.92-7.78V8.295c0-4.297 3.993-7.78 8.92-7.78s8.92 3.483 8.92 7.78v50.384c0 4.296-3.993 7.78-8.92 7.78" mask="url(#b)"/></g><g transform="translate(326.585 .754)"><mask id="d" fill="#fff"><use xlink:href="#c"/></mask><path fill="#79E7F4" d="M9.127 66.457c-4.927 0-8.92-3.483-8.92-7.78V8.295c0-4.297 3.993-7.78 8.92-7.78s8.92 3.483 8.92 7.78v50.384c0 4.296-3.993 7.78-8.92 7.78" mask="url(#d)"/></g><path fill="#66D3E0" d="M95.295 115.364v161.044c0 14.456 11.8 26.174 26.358 26.174h239.522c14.559 0 26.358-11.718 26.358-26.174V115.364H95.295z"/><path fill="#0F91C2" d="M168.355 190.725h146.119v-21.933h-146.12z"/><path fill="url(#e)" d="M95.22 115.659h292.24v187.219H95.22z"/><path fill="#FF8F8F" d="M388.666 168.989l-17.28 7.995.93-20.695-5.625 2.997s-5.561 26.99-2.775 26.453c.375-.072 34.305-8.667 33.25-9l-8.5-7.75z"/><path fill="#79E7F4" d="M95.295 115.364c-1.55 35.615-33.278 85.419-95.181 121.034h292.239c61.904-35.615 93.63-85.419 95.18-121.034H95.295z"/><path fill="#0F91C2" d="M300.277 160.929h-146.12c2.805-4.715 5.194-9.393 7.17-13.992h146.119c-1.975 4.599-4.365 9.278-7.169 13.992m-51.59 30.526h-90.76c4.595-4.668 8.777-9.393 12.54-14.131h90.759a178.03 178.03 0 01-12.539 14.13"/><path fill="#FF8F8F" d="M387.78 319.146l1.166 33.544 6.342.45 1.038-33.994z"/><path fill="#61A1E7" d="M378.311 231.222l9.47 87.923h8.545l.328-88.374z"/><path fill="#FDD455" d="M389.043 348.18s.392 4.059 3.123 3.608c2.731-.451 3.317-.901 3.317-.901l-.488 9.468h-18.05l12.099-12.174z"/><path fill="#FF8F8F" d="M401.05 319.146l1.165 33.544 6.342.45 1.037-33.994z"/><path fill="#61A1E7" d="M391.58 231.222l9.47 87.923h8.545l.329-88.374z"/><path fill="url(#f)" d="M381.023 255.39l28.959-.634-.687 21.32-26.011-1.139z"/><path fill="#FDD455" d="M402.313 348.18s.39 4.059 3.122 3.608c2.732-.451 3.317-.901 3.317-.901l-.488 9.468h-18.05l12.099-12.174z"/><path fill="#DF71DB" d="M402.416 160.739s10.75 4 13.36 14.563c1.913 7.739 7.89 79.937 7.89 79.937l-53.25.5s5.75-75.5 7.75-81.75 7.5-13.25 14.5-13.75c1.375-.098 9.75.5 9.75.5"/><path fill="#61A1E7" d="M405.873 131.446a6.733 6.733 0 1013.466-.001 6.733 6.733 0 00-13.466.001"/><path fill="#FF8F8F" d="M378.998 135.59c0 9.107 7.507 16.491 16.767 16.491s16.768-7.384 16.768-16.492-7.507-16.492-16.768-16.492c-1.801 0-3.537.28-5.162.796-6.735 2.142-11.605 8.36-11.605 15.696"/><path fill="#FF8F8F" d="M391.434 144.471l-.396 19.309a6.2 6.2 0 1012.377-.54l-.712-18.184-11.269-.585z"/><path fill="#61A1E7" d="M412.508 133.544s-10.732-3.122-11.513-8.391c0 0-13.269 13.806-27.465 12.294 0 0 3.66-18.44 20.05-18.44 11.333 0 17.27 5.268 18.928 14.537"/><path fill="#FF8F8F" d="M395.515 178.686l-17.506 10.796-35.27 4.834-.219 5.365s35.51-1.393 38.145-2.442c.355-.14 24.85-12.87 23.75-13l-8.9-5.553z"/><path fill="#FF8F8F" d="M345.925 199.086s.341-.34-3.405.595c-3.31.827-11.116.634-12.355-.442-1.265-1.1.695-5.358 6.466-6.12 1.567-.206 2.56-.515 4.032.432 1.2.77 5.134.314 5.134.314l.128 5.22z"/><path fill="#FF8F8F" d="M340.664 193.55s-3.884-2.827-4.378-1.966c-.493.86 2.145 2.725 2.145 2.725l2.233-.758z"/></g></svg>