<svg width="205" height="35" xmlns="http://www.w3.org/2000/svg"><g fill="#FFF" fill-rule="evenodd"><path d="M196.952 10.459h-7.193l-2.67 18.845h-5.2l2.67-18.845h-7.193l.68-4.796h19.585l-.68 4.796zm-22.036-.068h-12.798l-.713 5.033h11.279l-.67 4.728h-11.278l-1.296 9.152h-5.2l3.349-23.641h17.997l-.67 4.728zm-26.58 18.913h-5.202l3.35-23.641h5.2l-3.349 23.641zm-11.102 0h-5.2l1.344-9.49h-9.59l-1.345 9.49h-5.199l3.349-23.641h5.2l-1.326 9.356h9.59l1.325-9.356h5.201l-3.349 23.641zM100.582.031l-1.17 8.16c1.703-1.798 4.274-2.866 7.221-2.866 3.444 0 6.229 1.081 8.353 3.006l-3.257 3.918c-1.887-1.452-3.822-2.33-5.814-2.33-1.994 0-3.17.912-3.332 2.06l-.01.067c-.22 1.554.723 2.06 4.66 3.107 4.618 1.25 7.076 2.972 6.492 7.093l-.01.067c-.664 4.695-4.617 7.33-9.716 7.33-2.643 0-5.206-.687-7.364-2.063l-1.055 7.356h99.45l2.283-15.925 5.053-2.622L204.71.031H100.582z"/><path d="M104.75 25.049c2.128 0 3.53-.844 3.727-2.23l.01-.066c.187-1.318-.529-1.994-4.335-3.007-2.729-.722-4.832-1.498-5.968-2.98l-.895 6.242.811-.83c1.878 1.757 3.949 2.87 6.65 2.87M6.585 20.158c-4.372 0-7.096-3.369-6.505-7.525l.008-.054c.591-4.156 4.255-7.58 8.71-7.58 2.74 0 4.32.924 5.461 2.446l-2.911 2.716c-.783-.978-1.618-1.603-3.086-1.603-2.063 0-3.79 1.82-4.094 3.967l-.008.054c-.317 2.227.867 4.02 3.12 4.02 1.386 0 2.423-.598 3.562-1.548l2.068 2.444c-1.632 1.55-3.42 2.663-6.325 2.663M26.87 12.579c.306-2.147-.977-4.02-3.257-4.02-2.363 0-4.034 1.82-4.34 3.966l-.006.054c-.306 2.145.974 4.02 3.256 4.02 2.362 0 4.034-1.82 4.34-3.966l.007-.054zm-4.908 7.58c-4.508 0-7.371-3.342-6.775-7.526l.007-.054c.596-4.185 4.446-7.58 8.98-7.58 4.509 0 7.372 3.341 6.776 7.526l-.007.054c-.596 4.182-4.446 7.58-8.98 7.58zM42.112 19.832l1.157-8.123c.278-1.956-.503-2.961-2.078-2.961-1.574 0-2.722 1.005-3 2.961l-1.157 8.123h-4.128L34.98 5.27h4.127l-.294 2.065C39.938 6.113 41.318 5 43.408 5c3.123 0 4.649 2.065 4.173 5.406l-1.342 9.427h-4.127zM54.713 20.076c-2.525 0-4.091-1.005-3.612-4.374l.981-6.9h-1.739l.503-3.532h1.739l.53-3.722h4.127l-.53 3.722h3.423l-.504 3.533H56.21l-.884 6.22c-.136.952.206 1.414 1.128 1.414.762 0 1.467-.19 2.11-.517l-.47 3.314c-.943.516-1.995.842-3.38.842M71.158 9.318c-2.74 0-4.66 1.658-5.155 5.135l-.766 5.379h-4.128L63.18 5.27h4.13l-.419 2.934c1.126-2.01 2.671-3.313 5.098-3.205l-.614 4.32h-.218zM84.06 12.579c.305-2.147-.977-4.02-3.255-4.02-2.363 0-4.035 1.82-4.34 3.966l-.008.054c-.305 2.145.976 4.02 3.256 4.02 2.362 0 4.035-1.82 4.34-3.966l.008-.054zm-4.907 7.58c-4.508 0-7.372-3.342-6.776-7.526l.008-.054c.596-4.185 4.445-7.58 8.98-7.58 4.508 0 7.372 3.341 6.776 7.526l-.007.054c-.596 4.182-4.447 7.58-8.981 7.58zM90.287 19.832L93.111 0h4.127l-2.822 19.832z"/></g></svg>