<svg xmlns="http://www.w3.org/2000/svg" width="214" height="25"><g fill="#FFF" fill-rule="evenodd"><path d="M53.966 20.176L47.09 2.754C46.756 1.909 47.392 1 48.316 1h2.114c.554 0 1.05.34 1.237.852l5.347 14.53 5.317-14.528A1.314 1.314 0 0163.569 1h2.115c.923 0 1.559.908 1.227 1.752l-6.85 17.423a1.315 1.315 0 01-1.227.825h-3.642c-.543 0-1.03-.327-1.226-.824m15.461-.492V7.53c0-.727.634-1.316 1.414-1.316h1.35c.781 0 1.414.59 1.414 1.316v12.154c0 .727-.633 1.316-1.414 1.316h-1.35c-.78 0-1.414-.59-1.414-1.316zM69 2.296C69 1.01 70.151 0 71.5 0 72.88 0 74 1.01 74 2.296c0 1.285-1.119 2.326-2.5 2.326-1.349 0-2.5-1.04-2.5-2.326zm7.205 15.505l.32-.482c.387-.588 1.21-.787 1.841-.43 1.193.676 2.807 1.212 4.213 1.212 1.74 0 2.563-.65 2.563-1.539 0-2.367-9.078-.443-9.078-6.065C76.064 8.101 78.31 6 82.327 6c2.006 0 3.691.496 5.054 1.241.644.352.848 1.134.471 1.736l-.192.306c-.378.604-1.208.812-1.852.456a7.274 7.274 0 00-3.45-.869c-1.455 0-2.404.621-2.404 1.42 0 2.13 9.046.355 9.046 6.124C89 19.018 86.628 21 82.39 21c-2.134 0-4.207-.534-5.776-1.465a1.218 1.218 0 01-.409-1.734m15.223 1.883V7.53c0-.727.633-1.316 1.414-1.316h1.35c.78 0 1.413.59 1.413 1.316v12.154c0 .727-.633 1.316-1.414 1.316h-1.35c-.78 0-1.413-.59-1.413-1.316zM91 2.296C91 1.01 92.151 0 93.5 0 94.881 0 96 1.01 96 2.296c0 1.285-1.119 2.326-2.5 2.326-1.349 0-2.5-1.04-2.5-2.326zM100.281 17V9.364h-1.055C98.549 9.364 98 8.78 98 8.06v-.758C98 6.583 98.549 6 99.226 6h1.055V3.303c0-.72.549-1.303 1.226-1.303h1.198c.677 0 1.225.583 1.225 1.303V6h1.569c.677 0 1.225.583 1.225 1.303v.758c0 .72-.548 1.303-1.225 1.303h-1.569v6.606c0 .909.456 1.606 1.255 1.606.076 0 .153-.005.227-.012a1.298 1.298 0 011.395.979l.147.553c.173.657-.155 1.35-.76 1.58-.52.198-1.183.324-2.007.324-2.538 0-3.906-1.394-3.906-4m13.584 2.711V4.748h-4.572A1.291 1.291 0 01108 3.458V2.29A1.29 1.29 0 01109.293 1h13.414A1.29 1.29 0 01124 2.289v1.17c0 .712-.579 1.289-1.293 1.289h-4.542V19.71a1.29 1.29 0 01-1.292 1.29h-1.716a1.291 1.291 0 01-1.292-1.289M137.41 21c-.733 0-1.326-.577-1.326-1.289v-7.527c0-2.009-1.08-2.638-2.776-2.638-1.51 0-2.714.84-3.392 1.709v8.456c0 .712-.593 1.289-1.325 1.289h-1.265c-.733 0-1.326-.577-1.326-1.289V2.289c0-.712.593-1.289 1.326-1.289h1.265c.732 0 1.325.577 1.325 1.289v6.117c.956-1.11 2.806-2.249 5.243-2.249 3.268 0 4.841 1.74 4.841 4.558v8.996c0 .712-.594 1.289-1.326 1.289h-1.265m14.213-12.012c-2.409 0-3.445 1.746-3.628 3.166h7.256c-.091-1.361-1.067-3.166-3.628-3.166zM144 13.485C144 9.343 147.14 6 151.622 6c4.39 0 7.378 3.195 7.378 7.87v.828h-10.945c.244 1.805 1.738 3.314 4.238 3.314.893 0 2.034-.272 2.959-.75.596-.31 1.334-.16 1.715.383l.25.355c.435.619.225 1.46-.445 1.832-1.389.77-3.156 1.168-4.906 1.168-4.482 0-7.866-2.929-7.866-7.515zM180.427 21c-.718 0-1.3-.583-1.3-1.303v-7.94c0-1.363-.606-2.333-2.179-2.333-1.362 0-2.482.91-3.027 1.697v8.576c0 .72-.582 1.303-1.3 1.303h-1.272a1.3 1.3 0 01-1.3-1.303v-7.94c0-1.363-.606-2.333-2.18-2.333-1.331 0-2.45.91-3.026 1.727v8.546c0 .72-.582 1.303-1.3 1.303H162.3a1.301 1.301 0 01-1.301-1.303V7.667c0-.72.582-1.303 1.3-1.303h1.242c.719 0 1.301.583 1.301 1.302v.607c.606-.88 2.542-2.273 4.781-2.273 2.15 0 3.51 1 4.056 2.666.847-1.333 2.783-2.666 5.023-2.666C181.396 6 183 7.424 183 10.424v9.273c0 .72-.582 1.303-1.3 1.303h-1.273M186 21c0-1.087.913-2 2-2s2 .913 2 2-.913 2-2 2-2-.913-2-2m11.934-3.008c0-1.183-.705-2.209-1.942-2.209s-1.925 1.026-1.925 2.209c0 1.2.688 2.225 1.925 2.225s1.942-1.026 1.942-2.225zm-5.934 0c0-2.161 1.503-3.992 3.992-3.992 2.505 0 4.008 1.83 4.008 3.992 0 2.178-1.503 4.008-4.008 4.008-2.489 0-3.992-1.83-3.992-4.008zm9 3.313V14.89c0-.384.342-.695.765-.695h.73c.423 0 .765.31.765.695v.372c.605-.695 1.672-1.261 2.74-1.261v2.004a3.292 3.292 0 00-.623-.048c-.747 0-1.743.388-2.117.889v4.46c0 .384-.342.695-.765.695h-.73c-.423 0-.765-.311-.765-.695m10.828-2.162v-2.489c-.32-.51-1.018-.878-1.656-.878-1.093 0-1.852.798-1.852 2.123 0 1.324.759 2.122 1.852 2.122.638 0 1.337-.383 1.656-.878zm-4.866 4.178l.155-.263c.19-.323.599-.43.9-.22.506.354 1.107.502 1.79.502.927 0 2.02-.431 2.02-1.947v-.782c-.577.766-1.366 1.213-2.262 1.213-1.837 0-3.234-1.357-3.234-3.925 0-2.522 1.381-3.926 3.234-3.926.88 0 1.67.4 2.263 1.181v-.303c0-.38.292-.686.652-.686h.639c.36 0 .652.307.652.686v6.494c0 2.936-2.156 3.654-3.963 3.654-1.033 0-1.872-.204-2.651-.743a.71.71 0 01-.195-.935zM.708 15.45a.703.703 0 01-.62-.378.74.74 0 01.28-.988L24.69.362a.698.698 0 01.96.289.74.74 0 01-.28.989L1.047 15.36a.692.692 0 01-.34.09m7.063 3.918a.705.705 0 01-.624-.392c-.188-.366-.062-.825.282-1.025l24.46-14.226a.69.69 0 01.966.299c.188.366.062.824-.282 1.025L8.112 19.276a.677.677 0 01-.341.092m6.839 3.496a.72.72 0 01-.344-1.347l24.56-13.514a.713.713 0 01.97.285.719.719 0 01-.284.973L14.953 22.776a.707.707 0 01-.343.088"/><path d="M39.169 15.218a.71.71 0 01-.343-.088L14.266 1.615a.72.72 0 01-.283-.974.714.714 0 01.97-.284l24.56 13.514a.72.72 0 01-.344 1.347m-6.949 3.823a.71.71 0 01-.342-.088L7.318 5.438a.719.719 0 01-.282-.974.713.713 0 01.97-.284l24.559 13.515a.72.72 0 01-.344 1.346m-6.948 3.823a.71.71 0 01-.343-.088L.371 9.26a.718.718 0 01-.283-.973.712.712 0 01.97-.285l24.559 13.515a.719.719 0 01-.344 1.346"/></g></svg>