<svg xmlns="http://www.w3.org/2000/svg" width="54" height="48"><g fill="none" fill-rule="evenodd"><path stroke="#0F91C2" stroke-width="1.5" d="M46.537 22.93c.022-.285.052-.568.056-.859.098-7.376-5.802-13.436-13.179-13.535-5.275-.07-9.865 2.936-12.095 7.35a8.356 8.356 0 00-3.805-.977A8.404 8.404 0 009 23.2c-.004.347.018.688.056 1.025A7.423 7.423 0 00.75 31.492a7.421 7.421 0 007.321 7.518l36.637.49a8.374 8.374 0 008.485-8.263c.055-4.075-2.81-7.505-6.656-8.307z"/><path fill="#0F91C2" d="M25.42 27.11a5.096 5.096 0 01-10.189-.135 5.095 5.095 0 0110.19.136"/><path stroke="#0F91C2" stroke-width="1.5" d="M20.257 32.137l-.203 15.283"/><path fill="#0F91C2" d="M30.194 27.098a5.095 5.095 0 1110.19 0 5.095 5.095 0 01-10.19 0"/><path stroke="#0F91C2" stroke-width="1.5" d="M35.288 22.003V.67"/></g></svg>