<svg xmlns="http://www.w3.org/2000/svg" width="28" height="46"><g fill="none" fill-rule="evenodd"><path stroke="#0F91C2" stroke-width="1.5" d="M21.668 20.57l-4.089-4.242c2.996-1.025 3.992-3.858 3.992-7.201a7.617 7.617 0 00-15.232 0c0 3.343.996 6.176 3.992 7.2l-4.09 4.244a12.612 12.612 0 00-4.684 9.81v8.293h24.796V30.38c0-3.81-1.722-7.415-4.685-9.81z"/><path fill="#0F91C2" d="M20.85 45.554H7.06a1.16 1.16 0 01-1.16-1.16v-11.92c0-.64.52-1.16 1.16-1.16h13.79c.64 0 1.16.52 1.16 1.16v11.92c0 .64-.52 1.16-1.16 1.16"/><path stroke="#0F91C2" stroke-width="1.5" d="M17.983 35.471H9.928v-7.704a3.469 3.469 0 013.469-3.469h1.117a3.47 3.47 0 013.469 3.47v7.703z"/><path stroke="#FFF" stroke-width="1.5" d="M9.928 35.471h8.055m-8.055 3.243h8.055m-8.055 3.245h8.055"/></g></svg>