<svg xmlns="http://www.w3.org/2000/svg" xmlns:xlink="http://www.w3.org/1999/xlink" width="124" height="306" viewBox="0 0 124 306">
    <defs>
        <path id="a" d="M.823.816H67.63v67.203H.823z"/>
        <path id="c" d="M0 305.151h123.63V0H0z"/>
    </defs>
    <g fill="none" fill-rule="evenodd">
        <path fill="#0F91C2" fill-opacity=".15" d="M30.657 299.935h78.785v5.216H30.657z"/>
        <path fill="#FF8F8F" d="M68.05 101.373c-1.8.52-44.408 25.945-44.408 25.945l3.387 2.656 38.976-18.193 2.045-10.408zM78.561 250.789l1.483 42.693 8.072.574 1.32-43.267z"/>
        <path fill="#61A1E7" d="M73.96 138.885l4.602 111.904h10.875l.418-112.477z"/>
        <path fill="#DF71DB" d="M80.169 287.743s.497 5.165 3.974 4.59c3.476-.572 4.22-1.147 4.22-1.147l-.62 12.05H64.772l15.398-15.493z"/>
        <path fill="#FF8F8F" d="M95.449 250.789l1.483 42.693 8.072.574 1.32-43.267z"/>
        <path fill="#61A1E7" d="M90.847 138.885l4.602 111.904h10.875l.42-112.477z"/>
        <path fill="#DF71DB" d="M97.056 287.743s.497 5.165 3.974 4.59c3.477-.572 4.222-1.147 4.222-1.147l-.62 12.05H81.658l15.397-15.493zM94.897 50.696s15.57 7.58 19.296 17.018c3.725 9.437 4.967 37.253 4.967 37.253l-55.734 22.535-.205-35.874c-.033-5.824.448-11.648 1.606-17.356 1.303-6.423 3.3-12.081 7.704-16.655 4.317-4.486 6.726-5.799 9.35-5.799 1.757 0 13.016-1.122 13.016-1.122"/>
        <g transform="translate(56 104.151)">
            <mask id="b" fill="#fff">
                <use xlink:href="#a"/>
            </mask>
            <path fill="#DF71DB" d="M63.16.816l4.47 67.203H.824l8.08-63.616z" mask="url(#b)"/>
        </g>
        <path fill="#61A1E7" d="M97.98 15.833a8.569 8.569 0 1 0 17.136-.002 8.569 8.569 0 0 0-17.136.002"/>
        <path fill="#FF8F8F" d="M63.774 21.106c0 11.593 9.555 20.99 21.34 20.99 11.786 0 21.341-9.397 21.341-20.99 0-11.593-9.555-20.99-21.341-20.99-2.293 0-4.501.355-6.571 1.013-8.571 2.726-14.769 10.64-14.769 19.977"/>
        <path fill="#FF8F8F" d="M79.602 32.41l.172 21a7.837 7.837 0 0 0 8.193 7.83c4.465-.203 7.857-4.094 7.448-8.545l-1.47-19.54-14.343-.744z"/>
        <path fill="#61A1E7" d="M106.424 18.503s-13.66-3.974-14.653-10.68c0 0-16.888 17.572-34.956 15.647 0 0 4.657-23.47 25.518-23.47 14.424 0 21.98 6.706 24.091 18.503"/>
        <path fill="#FF8F8F" d="M65.076 128.101l-4.466 2.104c-.857.681-.378 2.047.684 1.946l2.485-.487c.272-.087-.32 1.39-1.092 1.772-1.378.68-4.966.62-4.966.62 2.11 1.956 9.267 2.602 10.857.003 1.445-2.36 1.508-4.46 1.709-5.475a.137.137 0 0 0-.128-.167l-4.98-.349a.153.153 0 0 0-.103.033"/>
        <path fill="#FDD455" d="M84.47 69.65c0-3.809-16.93-6.896-37.816-6.896-20.885 0-37.816 3.087-37.816 6.896v86.637c0 3.808 16.931 6.896 37.816 6.896s37.816-3.088 37.816-6.896V69.65z"/>
        <path stroke="#E5A65C" d="M8.838 88.378c0-3.652 16.931-6.612 37.816-6.612 20.886 0 37.816 2.96 37.816 6.612M8.838 109.869c0-3.652 16.931-6.612 37.816-6.612 20.886 0 37.816 2.96 37.816 6.612M8.838 131.36c0-3.652 16.931-6.613 37.816-6.613 20.886 0 37.816 2.961 37.816 6.613"/>
        <path fill="#61A1E7" d="M77.341 74.739a2.997 2.997 0 1 1-5.994 0 2.997 2.997 0 0 1 5.994 0M77.341 93.854a2.997 2.997 0 1 1-5.994-.002 2.997 2.997 0 0 1 5.994.002M77.341 115.216a2.996 2.996 0 1 1-5.992-.001 2.996 2.996 0 0 1 5.992 0"/>
        <mask id="d" fill="#fff">
            <use xlink:href="#c"/>
        </mask>
        <path fill="#0F91C2" d="M0 186.473h69.824v-57.37H0z" mask="url(#d)"/>
        <path fill="#0679A4" d="M70.459 143.796h18.408v-5.597H70.459v5.597zm-9.522 42.677h34.912v-57.37H60.937v57.37z" mask="url(#d)"/>
        <path fill="#FF8F8F" d="M105.472 77.763l5.446 27.715-33.096 32.358 1.845 4.061s39.283-30.303 40.93-33.517c.221-.43-4.076-34.898-5.237-34.1l-9.888 3.483z" mask="url(#d)"/>
        <path fill="#FF8F8F" d="M70.398 138.208v2.235l1.128 1.49 8.142-.036.798-3.69z" mask="url(#d)"/>
        <path fill="#FF8F8F" d="M78.437 137.85l-6.902-4.932-.987.987 4.931 5.916z" mask="url(#d)"/>
    </g>
</svg>
