<svg xmlns="http://www.w3.org/2000/svg" width="42" height="42"><g fill="none" fill-rule="evenodd"><path stroke="#0F91C2" stroke-width="1.5" d="M28.288 40.441H13.251c-6.6 0-12-5.4-12-12V13.404c0-6.601 5.4-12 12-12h15.037c6.6 0 12 5.399 12 12v15.037c0 6.6-5.4 12-12 12z"/><path fill="#0F91C2" d="M27.657 15.699a5.465 5.465 0 001.23-5.832l-3.635 3.636-3.138-3.138 3.637-3.636a5.467 5.467 0 00-5.833 1.23 5.465 5.465 0 00-1.231 5.834L6.739 25.74a2.22 2.22 0 003.138 3.138L21.825 16.93a5.465 5.465 0 005.832-1.231m.098 15.731a3.118 3.118 0 113.119-3.118 3.118 3.118 0 01-3.119 3.117zm8.372-1.923v-2.392H33.65a5.982 5.982 0 00-.882-2.124l1.754-1.754-1.692-1.692-1.754 1.754a5.99 5.99 0 00-2.124-.882v-2.479h-2.39v2.48a5.994 5.994 0 00-2.126.881l-1.754-1.754-1.692 1.692 1.754 1.754a5.962 5.962 0 00-.88 2.124h-2.48v2.392h2.48c.155.772.46 1.49.88 2.123l-1.754 1.755 1.692 1.691 1.754-1.754a5.956 5.956 0 002.125.881v2.48h2.391v-2.48a5.951 5.951 0 002.124-.88l1.754 1.753 1.692-1.69-1.754-1.756a5.992 5.992 0 00.882-2.123h2.478z"/><path stroke="#0F91C2" stroke-width="1.5" d="M6.918 20.6v-6.074c0-4.1 3.354-7.456 7.456-7.456h3.081m1.015 27.704h-4.096a7.42 7.42 0 01-4.878-1.828M28.663 7.222c3.39.698 5.958 3.716 5.958 7.304V18.6"/></g></svg>