<svg xmlns="http://www.w3.org/2000/svg" xmlns:xlink="http://www.w3.org/1999/xlink" width="995" height="452" viewBox="0 0 995 452">
    <defs>
        <linearGradient id="a" x1="78.94%" x2="16.373%" y1="72.609%" y2="72.609%">
            <stop offset="0%" stop-opacity="0"/>
            <stop offset="100%" stop-opacity=".15"/>
        </linearGradient>
        <linearGradient id="b" x1="50%" x2="50%" y1="70.583%" y2="0%">
            <stop offset="0%" stop-opacity="0"/>
            <stop offset="100%" stop-opacity=".15"/>
        </linearGradient>
        <linearGradient id="c" x1="61.257%" x2="16.373%" y1="72.609%" y2="72.609%">
            <stop offset="0%" stop-opacity="0"/>
            <stop offset="100%" stop-opacity=".15"/>
        </linearGradient>
        <linearGradient id="d" x1="35.304%" x2="35.304%" y1="100%" y2="0%">
            <stop offset="0%" stop-opacity="0"/>
            <stop offset="100%" stop-opacity=".15"/>
        </linearGradient>
        <linearGradient id="e" x1="37.8%" x2="37.8%" y1="63.556%" y2="9.393%">
            <stop offset="0%" stop-opacity="0"/>
            <stop offset="100%" stop-opacity=".15"/>
        </linearGradient>
        <path id="g" d="M478.788 240.837H351.875c-5.774 0-10.455-4.68-10.455-10.455 0-5.774 4.681-10.454 10.455-10.454h126.913c5.773 0 10.454 4.68 10.454 10.454 0 5.774-4.68 10.455-10.454 10.455"/>
        <filter id="f" width="104.7%" height="133.5%" x="-2.4%" y="-16.7%" filterUnits="objectBoundingBox">
            <feGaussianBlur in="SourceAlpha" result="shadowBlurInner1" stdDeviation="2"/>
            <feOffset dy="3" in="shadowBlurInner1" result="shadowOffsetInner1"/>
            <feComposite in="shadowOffsetInner1" in2="SourceAlpha" k2="-1" k3="1" operator="arithmetic" result="shadowInnerInner1"/>
            <feColorMatrix in="shadowInnerInner1" values="0 0 0 0 0.0666666667 0 0 0 0 0.0666666667 0 0 0 0 0.0666666667 0 0 0 0.2 0"/>
        </filter>
        <path id="i" d="M611.775 154.03h-130.5c-5.937 0-10.75-4.812-10.75-10.75 0-5.936 4.813-10.75 10.75-10.75h130.5c5.937 0 10.75 4.814 10.75 10.75 0 5.938-4.813 10.75-10.75 10.75"/>
        <filter id="h" width="104.6%" height="132.6%" x="-2.3%" y="-16.3%" filterUnits="objectBoundingBox">
            <feGaussianBlur in="SourceAlpha" result="shadowBlurInner1" stdDeviation="2"/>
            <feOffset dy="3" in="shadowBlurInner1" result="shadowOffsetInner1"/>
            <feComposite in="shadowOffsetInner1" in2="SourceAlpha" k2="-1" k3="1" operator="arithmetic" result="shadowInnerInner1"/>
            <feColorMatrix in="shadowInnerInner1" values="0 0 0 0 0.0666666667 0 0 0 0 0.0666666667 0 0 0 0 0.0666666667 0 0 0 0.2 0"/>
        </filter>
        <linearGradient id="j" x1="35.304%" x2="35.304%" y1="100%" y2="19.214%">
            <stop offset="0%" stop-opacity="0"/>
            <stop offset="100%" stop-opacity=".15"/>
        </linearGradient>
        <linearGradient id="k" x1="35.304%" x2="35.304%" y1="100%" y2="1.689%">
            <stop offset="0%" stop-opacity="0"/>
            <stop offset="100%" stop-opacity=".1"/>
        </linearGradient>
        <linearGradient id="l" x1="50%" x2="47.283%" y1="50%" y2="-24.476%">
            <stop offset="0%" stop-opacity="0"/>
            <stop offset="100%" stop-opacity=".15"/>
        </linearGradient>
        <linearGradient id="m" x1="35.304%" x2="35.304%" y1="100%" y2="10.817%">
            <stop offset="0%" stop-opacity="0"/>
            <stop offset="100%" stop-opacity=".15"/>
        </linearGradient>
        <linearGradient id="n" x1="55.567%" x2="16.373%" y1="28.336%" y2="87.939%">
            <stop offset="0%" stop-opacity="0"/>
            <stop offset="100%" stop-opacity=".15"/>
        </linearGradient>
    </defs>
    <g fill="none" fill-rule="evenodd">
        <g fill="#0679A4" opacity=".298" transform="translate(7 413)">
            <rect width="228" height="7" y="31" rx="3.5"/>
            <rect width="124" height="7" x="210" rx="3.5"/>
            <rect width="70" height="7" x="405" rx="3.5"/>
            <rect width="114" height="7" x="512" rx="3.5"/>
            <rect width="173" height="7" x="636" rx="3.5"/>
            <rect width="70" height="7" x="834" rx="3.5"/>
            <rect width="113" height="7" x="700" y="10" rx="3.5"/>
            <rect width="70" height="7" x="941" rx="3.5"/>
            <rect width="406" height="7" x="807" y="26" rx="3.5"/>
        </g>
        <path fill="#DF71DB" d="M780.612 72.53c-4.41 0-8 4.038-8 9 0 4.964 3.59 9 8 9 4.411 0 8-4.036 8-9 0-4.962-3.589-9-8-9m0 21c-6.065 0-11-5.382-11-12 0-6.616 4.935-12 11-12s11 5.384 11 12c0 6.618-4.935 12-11 12"/>
        <path fill="#DF71DB" d="M804.492 76.53h-54.377c-8.56 0-15.503 6.333-15.503 14.143v77.06c0 7.81 6.942 14.142 15.503 14.142h54.377c8.562 0 15.503-6.332 15.503-14.142v-77.06c0-7.81-6.94-14.142-15.503-14.142"/>
        <path fill="#FF8F8F" d="M742.696 265.985l21.72 142.312h9.36l.203-145.878z"/>
        <path fill="#61A1E7" d="M773.776 408.296h-9.36s-10.952.649-12.045 6.483l.161 2.918h21.528l-.284-9.4z"/>
        <path fill="#FF8F8F" d="M776.41 265.985l21.72 142.312h9.36l.203-145.878z"/>
        <path fill="#61A1E7" d="M807.49 408.296h-9.36s-10.952.649-12.045 6.483l.161 2.918h21.528l-.284-9.4z"/>
        <path fill="#0679A4" d="M747.883 192.398v31.607h49.437l-2.755-33.552z"/>
        <path fill="#FF8F8F" d="M740.924 43.594c0 15.132 12.472 27.398 27.855 27.398 15.384 0 27.855-12.266 27.855-27.398s-12.471-27.398-27.855-27.398c-2.993 0-5.876.464-8.578 1.323-11.186 3.558-19.277 13.887-19.277 26.075"/>
        <path fill="#FF8F8F" d="M761.584 58.35l-1.305 48.681 24-4.5-3.974-43.208z"/>
        <path fill="#0679A4" d="M796.634 43.594s-17.87-8.584-19.166-17.337c0 0-15.073-.16-24.394-5.427 0 0 6.25-4.536 13.774-4.944 15.765-.855 30.453 8.375 29.786 27.708"/>
        <path fill="#61A1E7" d="M728.78 103.53c5.186-14.75 32.232-24.43 32.232-24.43s-1.817 19.93 9.725 19.93 11.67-19.93 11.67-19.93 32.614 11.43 32.614 40.846l-6.194 1.134-1.296 3.242 3.203 89.709-65.789-12-11.544-33.333 6.378-34.583-12.48-14.17s-.072-12.003 1.48-16.414"/>
        <path fill="url(#a)" d="M727.644 112.227l95.935-3.308 3.78 12.168 2.222 10.055-6.002 39.777h-95.935z" transform="rotate(-90 778.612 139.919)"/>
        <path fill="#0679A4" d="M737.78 171.03l-10.5-1.846.018-49.238 17.505 2.918zM794.28 184.03l18.706-12.791 2.035-51.293-17.505 2.918 4.096 38.542-19.333 13.625zM808.945 241.364v62H746.28l-8.667-50z"/>
        <path fill="#DF71DB" d="M794.112 85.03l3.404 37.834 2.304 21.959s-8.54-1.46-8.708-13.792l-4.25-50.125 7.25 4.125zM744.804 122.863l4.476-38.666 7.5-3.5s-5.586 49.196-6.834 54.5c-1.5 6.375-8.25 8.375-8.25 8.375l3.108-20.709zM639.945 36.53l1.667 21.334h62.667l.666-20.666S686.28 16.53 678.28 15.53s-38.334 21-38.334 21"/>
        <path fill="#61A1E7" d="M704.297 196.386l-18.685 212.312-12.086-7.898-.562-205.185z"/>
        <path fill="#DF71DB" d="M687.112 399.53s-2.815 3.58-7.482 2.81c-4.666-.77-7.105-1.54-7.105-1.54l.42 16.175h37.685l-23.518-17.444z"/>
        <path fill="#61A1E7" d="M674.63 196.386l-16.018 212.312-13.315-7.898-2-222.769z"/>
        <path fill="url(#b)" d="M643 187.644l61.913 9.103 1.682 168.417L644 322.718z"/>
        <path fill="#DF71DB" d="M660.612 399.53s-4.982 3.58-9.648 2.81c-4.667-.77-5.667-1.54-5.667-1.54l.833 16.175h30.834l-16.352-17.444z"/>
        <path fill="#F0BB70" d="M643.804 39.522c0 15.56 12.823 28.173 28.642 28.173 15.819 0 28.642-12.613 28.642-28.173 0-15.56-12.823-28.173-28.642-28.173-3.078 0-6.041.478-8.82 1.361-11.503 3.66-19.822 14.28-19.822 26.812"/>
        <path fill="#F0BB70" d="M662.047 48.195v32l22-1-2.75-30z"/>
        <path fill="#79E7F4" d="M684.047 78.022s16.29 5.923 22.565 18.01c4.154 8 8.5 25.061 10 32 5.279 24.411-12.667 62.666-12.667 62.666l-56.648 4.918s-12.338-58.585-13.838-83.085c-1.5-24.5 26.255-33.336 28.588-33.003 2.333.333 22-1.506 22-1.506"/>
        <path fill="url(#c)" d="M622.901 115.97l102.98-3.308 4.057 12.167 2.385 10.055-6.442 39.778H622.9z" transform="rotate(-90 677.612 143.662)"/>
        <path fill="#F0BB70" d="M631.28 126.364l-3.668 50 36 38.333 5.018-18.31-25.685-28.356 5-35.667z"/>
        <path fill="#DF71DB" d="M675.433 19.198s-18.723 20.324-34.466 20.324c-2.794 0 2.002-32.173 31.699-32.173 30.804 0 32.28 29.849 32.28 29.849s-16.232 12-29.513-18"/>
        <path fill="#FF8F8F" d="M605.304 129.623s6.015 5.986 7.02 8.983c1.009 2.998-5.994 2.015-8 .019-2.003-1.995-3.008-3.992-3.017-7.992-.01-4 3.98-7.76 3.98-7.76l.017 6.75z"/>
        <path fill="#F0BB70" d="M662.047 79.528s-1.435 12.17 10.898 11.503c12.334-.667 11.102-13.009 11.102-13.009l-22 1.506zM721.945 155.364H705.28v-27.333h11.333z"/>
        <path fill="#FDD455" d="M817.806 224.403c0 47.167-85.402 204.801-85.402 204.801S647 271.57 647 224.403 685.237 139 732.404 139c47.166 0 85.402 38.236 85.402 85.403"/>
        <path fill="#61A1E7" d="M798.281 224.515c0 36.248-29.385 65.633-65.633 65.633-36.249 0-65.634-29.385-65.634-65.633 0-36.248 29.385-65.633 65.634-65.633 36.248 0 65.633 29.385 65.633 65.633"/>
        <path fill="#FDD455" d="M783.616 224.515c0 28.15-22.819 50.968-50.968 50.968-28.149 0-50.969-22.819-50.969-50.968 0-28.149 22.82-50.968 50.97-50.968 28.148 0 50.967 22.82 50.967 50.968"/>
        <path fill="#61A1E7" d="M704.296 208.885h2.39v10.946h5.483v1.906h-7.873zM723.567 215.356v-.144c0-2.642-1.474-4.6-3.99-4.6-2.517 0-4.009 1.85-4.009 4.618v.144c0 2.804 1.708 4.62 4.045 4.62 2.426 0 3.954-1.852 3.954-4.638m-10.497.036v-.144c0-3.757 2.696-6.543 6.507-6.543 3.828 0 6.47 2.714 6.47 6.49v.142c0 3.757-2.57 6.58-6.47 6.58-3.937 0-6.507-2.823-6.507-6.525M727.704 215.392v-.145c0-3.864 2.66-6.56 6.237-6.56 2.948 0 5.231 1.474 5.518 4.494h-2.426c-.27-1.708-1.223-2.589-3.074-2.589-2.265 0-3.738 1.762-3.738 4.638v.143c0 2.895 1.383 4.602 3.755 4.602 1.781 0 3.04-.898 3.291-2.714h2.336c-.378 3.092-2.57 4.655-5.627 4.655-4.026 0-6.272-2.57-6.272-6.524M744.225 216.812h3.793l-1.888-5.968-1.905 5.968zm.485-7.927h3.128l4.242 12.852h-2.48l-1.025-3.182h-4.908l-1.005 3.182h-2.248l4.296-12.852zM754.041 208.885h2.391v10.946h5.482v1.906h-7.873zM701.42 236.966v-.145c0-3.827 2.66-6.56 6.417-6.56 2.75 0 5.194 1.258 5.536 4.333h-2.39c-.29-1.708-1.44-2.445-3.11-2.445-2.516 0-3.973 1.87-3.973 4.691v.144c0 2.75 1.277 4.637 3.973 4.637 2.408 0 3.397-1.456 3.469-3.234h-3.235v-1.798h5.589v1.186c0 3.558-2.228 5.715-5.86 5.715-4.115 0-6.416-2.732-6.416-6.524M720.313 236.409c1.6 0 2.445-.683 2.445-2.05v-.071c0-1.474-.918-1.978-2.445-1.978h-1.923v4.099h1.923zm-4.313-5.95h4.313c2.822 0 4.8 1.15 4.8 3.775v.07c0 2.015-1.259 3.04-2.859 3.453l3.613 5.554h-2.587l-3.362-5.194h-1.529v5.194H716V230.46zM737.446 236.93v-.144c0-2.642-1.474-4.6-3.99-4.6-2.517 0-4.009 1.85-4.009 4.618v.144c0 2.804 1.708 4.62 4.045 4.62 2.426 0 3.954-1.852 3.954-4.638m-10.497.036v-.144c0-3.757 2.696-6.543 6.507-6.543 3.828 0 6.47 2.714 6.47 6.49v.142c0 3.757-2.57 6.58-6.47 6.58-3.937 0-6.507-2.823-6.507-6.525M742.122 238.422v-7.963h2.408v7.782c0 2.356.755 3.326 2.66 3.326 1.852 0 2.786-.827 2.786-3.487v-7.62h2.41v7.817c0 3.363-1.816 5.214-5.213 5.214-3.218 0-5.05-1.762-5.05-5.07M759.362 236.697c1.582 0 2.427-.773 2.427-2.193v-.073c0-1.527-.9-2.121-2.427-2.121h-1.744v4.387h1.744zm-4.135-6.237h4.135c2.876 0 4.763 1.275 4.763 3.97v.074c0 2.714-1.959 3.918-4.709 3.918h-1.798v4.889h-2.39V230.46z"/>
        <path fill="#F0BB70" d="M725.014 139.797s.699 6.901 3.054 8.879c2.354 1.978 5.45-3.811 5.442-6.562-.013-3.568-.852-5.459-4.47-6.891-3.617-1.432-8.672 4.619-8.672 4.619l4.646-.045z"/>
        <path fill="#0679A4" d="M772.612 17.03l-31.355 26.564S739 30.753 748.612 22.03c9-8.167 24-5 24-5"/>
        <path fill="#FDD455" d="M742.612 30.364h52s-4.25-20.083-26-20.083c-24.5 0-26 20.083-26 20.083"/>
        <path fill="#F0BB70" d="M742.612 29.364h52s-7 9-24.5 9c-19.75 0-27.5-9-27.5-9"/>
        <path fill="#79E7F4" d="M797.462 408.364h10.483V392.03h-12.333zM763.796 408.364h10.483V392.03h-12.334z"/>
        <path fill="#DF71DB" d="M409.642 265.985l21.72 142.312h9.36l.203-145.878z"/>
        <path fill="url(#b)" d="M411 275h29.874v17.444h-27.406z"/>
        <path fill="#0679A4" d="M440.722 408.296h-9.36s-10.952.649-12.045 6.483l.16 2.918h21.529l-.284-9.4z"/>
        <path fill="#DF71DB" d="M443.356 265.985l21.72 142.312h9.36l.203-145.878z"/>
        <path fill="#0679A4" d="M474.435 408.296h-9.36s-10.952.649-12.043 6.483l.16 2.918h21.527l-.284-9.4z"/>
        <path fill="url(#b)" d="M444.693 275h29.852v17.444h-27.077z"/>
        <path fill="#0679A4" d="M414.83 192.398v31.607h49.435l-2.755-33.552z"/>
        <path fill="#F0BB70" d="M407.87 43.594c0 15.132 12.471 27.398 27.854 27.398 15.384 0 27.855-12.266 27.855-27.398s-12.47-27.398-27.855-27.398c-2.993 0-5.876.464-8.578 1.323-11.186 3.558-19.277 13.887-19.277 26.075"/>
        <path fill="#F0BB70" d="M428.53 58.35v31.121l21.395-.973-2.675-29.175z"/>
        <path fill="#FDD455" d="M462.117 53.207s-16.407-18.197-17.704-26.95c0 0-15.073-.16-24.394-5.426 0 0 6.241-4.944 13.774-4.944 18.827 0 34.888 15.074 28.324 37.32"/>
        <path fill="#F0BB70" d="M457.133 40.929c0 2.618-1.687 4.74-3.77 4.74-2.08 0-3.767-2.122-3.767-4.74 0-2.62 1.687-4.741 3.768-4.741 2.082 0 3.769 2.122 3.769 4.74"/>
        <path fill="#0679A4" d="M398.296 103.575c5.187-14.75 29.662-24.475 29.662-24.475l9.725 7.294 11.67-7.294s21.233 10.698 32.256 37.442l-5.835 4.538-1.297 3.242 3.203 52.376-54.666-3.333-22.667-4.667 6.378-34.582-12.481-14.17s2.5-11.96 4.052-16.371"/>
        <path fill="url(#d)" d="M397.732 118.653h55.71v46.667h-51.588c-.804-8.403-1.53-16.181-2.174-23.333-.645-7.153-1.294-14.93-1.948-23.334z" transform="matrix(1 0 0 -1 0 283.973)"/>
        <path fill="#F0BB70" d="M408.778 44.812s-4.11 6.471-4.11 7.763c0 1.826 8.22 1.826 8.22 1.826l-4.11-9.589z"/>
        <path fill="#79E7F4" d="M400.347 168.698l-13.13.486 7.027-49.238 17.505 2.918zM481.608 116.542l27.23 57.703-9.4 4.538-36.956-58.675z"/>
        <path fill="#DF71DB" d="M443.783 166.917s20.324 9.893 25.187 22.212c4.862 12.318 6.483 48.625 6.483 48.625l-76.505 4.54-3.565-55.435s11.67-18.8 13.94-18.477c2.268.324 34.46-1.465 34.46-1.465"/>
        <path fill="#FDD455" d="M313.935 275.719h202.794V164.168H313.935z"/>
        <path fill="url(#e)" d="M296.689 184.925H409.06v69.906H296.69z" transform="rotate(-90 352.875 219.878)"/>
        <path fill="#61A1E7" d="M350.023 205.028h2.13c.148 1.197.631 2.195 2.643 2.195 1.315 0 2.246-.731 2.246-1.829 0-1.097-.549-1.513-2.478-1.83-2.845-.382-4.19-1.247-4.19-3.475 0-1.947 1.662-3.411 4.14-3.411 2.561 0 4.091 1.165 4.324 3.444h-2.029c-.216-1.247-.932-1.781-2.295-1.781-1.347 0-2.046.65-2.046 1.564 0 .965.4 1.447 2.461 1.747 2.795.382 4.241 1.181 4.241 3.559 0 2.062-1.746 3.675-4.374 3.675-3.243 0-4.607-1.613-4.773-3.858M363.327 198.575h-3.31v-1.746h8.848v1.746h-3.309v10.146h-2.229zM379.242 202.816v-.133c0-2.445-1.364-4.258-3.692-4.258-2.329 0-3.709 1.713-3.709 4.275v.133c0 2.594 1.58 4.274 3.742 4.274 2.245 0 3.66-1.713 3.66-4.29m-9.715.032v-.133c0-3.476 2.495-6.054 6.022-6.054 3.542 0 5.987 2.511 5.987 6.005v.132c0 3.476-2.378 6.087-5.987 6.087-3.643 0-6.022-2.61-6.022-6.037M387.488 202.6c1.463 0 2.245-.716 2.245-2.029v-.067c0-1.414-.832-1.963-2.245-1.963h-1.613v4.058h1.613zm-3.825-5.772h3.825c2.661 0 4.407 1.181 4.407 3.676v.067c0 2.51-1.812 3.626-4.357 3.626h-1.663v4.523h-2.212v-11.892zM397.747 196.829h7.367v1.763h-5.155v3.543h4.058v1.713h-4.058v4.873h-2.212zM411.033 202.334c1.48 0 2.262-.632 2.262-1.896v-.067c0-1.363-.848-1.83-2.262-1.83h-1.779v3.793h1.78zm-3.99-5.505h3.99c2.611 0 4.44 1.065 4.44 3.492v.067c0 1.863-1.164 2.81-2.644 3.193l3.344 5.14h-2.396l-3.11-4.807h-1.413v4.807h-2.212v-11.892zM420.544 204.163h3.51l-1.746-5.521-1.764 5.52zm.449-7.334h2.895l3.925 11.892h-2.295l-.95-2.945h-4.54l-.93 2.945h-2.08l3.975-11.892zM428.376 202.85v-.134c0-3.576 2.462-6.07 5.771-6.07 2.728 0 4.84 1.363 5.107 4.157h-2.245c-.25-1.58-1.131-2.394-2.845-2.394-2.096 0-3.459 1.63-3.459 4.291v.132c0 2.678 1.28 4.258 3.476 4.258 1.646 0 2.811-.832 3.044-2.512h2.162c-.35 2.862-2.378 4.308-5.206 4.308-3.726 0-5.805-2.378-5.805-6.037M441.297 196.829h2.212v5.389l4.557-5.39h2.378l-4.922 5.672 5.17 6.22h-2.61l-4.573-5.554v5.555h-2.212zM452.321 208.721h2.229v-11.892h-2.229zM457.36 196.829h2.644l5.005 8.599v-8.6h2.013v11.893h-2.296l-5.355-9.115v9.115h-2.012zM469.147 202.85v-.134c0-3.543 2.463-6.07 5.939-6.07 2.543 0 4.806 1.164 5.123 4.008h-2.212c-.267-1.58-1.33-2.262-2.877-2.262-2.33 0-3.677 1.73-3.677 4.341v.133c0 2.545 1.182 4.291 3.677 4.291 2.228 0 3.142-1.347 3.21-2.995h-2.995V202.5h5.173v1.098c0 3.294-2.063 5.29-5.422 5.29-3.81 0-5.939-2.528-5.939-6.038"/>
        <path fill="#F0BB70" d="M478.788 240.837H351.875c-5.774 0-10.455-4.68-10.455-10.455 0-5.774 4.681-10.454 10.455-10.454h126.913c5.773 0 10.454 4.68 10.454 10.454 0 5.774-4.68 10.455-10.454 10.455"/>
        <path fill="#61A1E7" d="M455.683 240.837H351.875c-5.774 0-10.455-4.68-10.455-10.455 0-5.774 4.68-10.454 10.455-10.454h103.808v20.91z"/>
        <path fill="#FDD455" d="M352.396 231.506h1.162c.067.721.471 1.26 1.394 1.26.894 0 1.308-.433 1.308-1.115 0-.75-.404-1.126-1.24-1.126h-.53v-.913h.49c.79 0 1.144-.365 1.144-1.008 0-.559-.355-.972-1.067-.972-.73 0-1.2.441-1.278 1.135h-1.135c.067-1.194.962-2.106 2.433-2.106 1.433 0 2.269.827 2.269 1.845 0 .78-.452 1.25-1.115 1.5.798.184 1.327.75 1.327 1.663 0 1.27-1 2.057-2.577 2.057-1.635 0-2.527-.904-2.585-2.22M362.49 231.42c0-.827-.5-1.385-1.288-1.385-.779 0-1.327.549-1.327 1.308 0 .913.548 1.442 1.327 1.442.768 0 1.288-.548 1.288-1.365m-3.96-.913v-.164c0-2.384 1.2-3.682 2.845-3.682 1.25 0 2.076.615 2.24 1.818h-1.192c-.125-.52-.395-.828-1.058-.828-.923 0-1.528.818-1.567 2.384.317-.528.884-.884 1.702-.884 1.316 0 2.26.904 2.26 2.24 0 1.394-.982 2.336-2.54 2.336-1.999 0-2.69-1.404-2.69-3.22M364.547 231.66h1.192c.106.635.366 1.077 1.25 1.077.788 0 1.24-.55 1.24-1.394 0-.827-.481-1.356-1.24-1.356-.702 0-1.125.24-1.432.597h-.654l.058-3.826h4.172v1.008h-3.191l-.01 1.866c.269-.308.75-.577 1.48-.577 1.24 0 2.114.865 2.114 2.307 0 1.45-1.047 2.364-2.527 2.364-1.615 0-2.375-.883-2.452-2.066M369.923 234.496l.874-2.278 1.105.442-1.258 2.153zM376.95 230.342v-.336c0-1.46-.559-2.346-1.587-2.346-1.038 0-1.605.828-1.605 2.356v.346c0 1.557.595 2.345 1.625 2.345 1.056 0 1.566-.807 1.566-2.365m-4.479.03v-.346c0-2.087 1.153-3.366 2.883-3.366 1.741 0 2.874 1.27 2.874 3.336v.346c0 2.067-1.076 3.384-2.874 3.384-1.749 0-2.883-1.288-2.883-3.355M383.69 230.342v-.336c0-1.46-.558-2.346-1.587-2.346-1.038 0-1.605.828-1.605 2.356v.346c0 1.557.596 2.345 1.625 2.345 1.057 0 1.567-.807 1.567-2.365m-4.48.03v-.346c0-2.087 1.154-3.366 2.884-3.366 1.74 0 2.873 1.27 2.873 3.336v.346c0 2.067-1.075 3.384-2.873 3.384-1.75 0-2.883-1.288-2.883-3.355M390.429 230.342v-.336c0-1.46-.558-2.346-1.586-2.346-1.038 0-1.605.828-1.605 2.356v.346c0 1.557.595 2.345 1.625 2.345 1.057 0 1.566-.807 1.566-2.365m-4.48.03v-.346c0-2.087 1.154-3.366 2.884-3.366 1.74 0 2.874 1.27 2.874 3.336v.346c0 2.067-1.076 3.384-2.874 3.384-1.75 0-2.883-1.288-2.883-3.355M394.795 232.063h1.096c.057.51.317.808 1 .808.625 0 .903-.22.903-.644 0-.413-.336-.567-1.076-.692-1.327-.21-1.818-.586-1.818-1.529 0-1.009.943-1.509 1.885-1.509 1.029 0 1.846.384 1.97 1.52h-1.076c-.096-.463-.356-.674-.894-.674-.5 0-.798.241-.798.596 0 .365.24.51 1.038.645 1.183.182 1.884.47 1.884 1.538 0 1.018-.72 1.604-2.01 1.604-1.296 0-2.056-.596-2.104-1.663M399.957 233.63h1.163v-5.027h-1.163v5.027zm-.125-6.517c0-.385.308-.673.692-.673.385 0 .693.288.693.673 0 .375-.308.663-.693.663-.384 0-.692-.288-.692-.663zM406.11 230.997v-.067c0-.953-.52-1.52-1.355-1.52-.866 0-1.366.625-1.366 1.539v.076c0 .933.576 1.51 1.326 1.51.808 0 1.395-.577 1.395-1.538m-3.855 2.807h1.172c.097.5.481.788 1.241.788.903 0 1.403-.451 1.403-1.356v-.74a1.956 1.956 0 0 1-1.644.933c-1.259 0-2.23-.942-2.23-2.394v-.067c0-1.413.962-2.471 2.26-2.471.826 0 1.326.375 1.614.875v-.77h1.163v4.654c-.01 1.48-.999 2.22-2.557 2.22-1.576 0-2.288-.71-2.422-1.672M408.62 228.603h1.163v.798c.24-.49.798-.904 1.624-.904 1.01 0 1.721.586 1.721 1.97v3.163h-1.163v-3.056c0-.76-.308-1.106-.999-1.106-.655 0-1.183.404-1.183 1.201v2.961h-1.163v-5.027zM417.302 231.872v-.5h-.597c-.883 0-1.451.2-1.451.816 0 .424.23.703.808.703.71 0 1.24-.375 1.24-1.02m-3.201.366c0-1.173 1.134-1.595 2.576-1.595h.625v-.26c0-.673-.231-1.01-.913-1.01-.607 0-.904.289-.962.788h-1.125c.097-1.173 1.029-1.663 2.153-1.663 1.125 0 2.01.462 2.01 1.837v3.297h-1.144v-.615c-.327.432-.77.71-1.54.71-.921 0-1.68-.441-1.68-1.49M419.984 232.227v-2.749h-.673v-.875h.673v-1.105h1.163v1.105h1.106v.875h-1.106v2.644c0 .441.211.643.576.643.232 0 .405-.028.568-.096v.923a2.223 2.223 0 0 1-.788.125c-1 0-1.519-.539-1.519-1.49M423.292 231.823v-3.22h1.163v3.086c0 .759.316 1.106.99 1.106.624 0 1.172-.405 1.172-1.202v-2.99h1.164v5.028h-1.164v-.788c-.249.49-.778.883-1.596.883-.99 0-1.729-.566-1.729-1.903M429.156 228.603h1.163v.941c.317-.633.788-1.008 1.634-1.018v1.086c-1.019.01-1.634.337-1.634 1.403v2.615h-1.163v-5.027zM436.252 230.592c-.058-.865-.5-1.249-1.221-1.249-.702 0-1.173.471-1.288 1.25h2.509zm-3.721.577v-.077c0-1.557 1.068-2.596 2.5-2.596 1.249 0 2.374.741 2.374 2.538v.337h-3.681c.038.951.518 1.49 1.383 1.49.703 0 1.068-.279 1.155-.769h1.124c-.163 1.058-1.019 1.634-2.307 1.634-1.48 0-2.548-.97-2.548-2.557zM438.107 232.063h1.096c.057.51.317.808 1 .808.625 0 .903-.22.903-.644 0-.413-.336-.567-1.076-.692-1.327-.21-1.818-.586-1.818-1.529 0-1.009.943-1.509 1.885-1.509 1.03 0 1.846.384 1.971 1.52h-1.077c-.096-.463-.356-.674-.894-.674-.5 0-.798.241-.798.596 0 .365.241.51 1.038.645 1.183.182 1.884.47 1.884 1.538 0 1.018-.72 1.604-2.009 1.604-1.297 0-2.057-.596-2.105-1.663"/>
        <use fill="#000" filter="url(#f)" xlink:href="#g"/>
        <path fill="#F0BB70" d="M383.602 164.125s-.7 6.9-3.054 8.879c-2.355 1.979-5.451-3.811-5.442-6.561.012-3.57.852-5.46 4.47-6.892 3.617-1.431 8.672 4.62 8.672 4.62l-4.646-.046zM516.459 199.594s-5.85 5.821-6.829 8.736c-.98 2.915 5.831 1.96 7.78.02 1.95-1.94 2.927-3.884 2.937-7.774.009-3.89-3.872-7.546-3.872-7.546l-.016 6.564z"/>
        <path fill="#FF8F8F" d="M537.176 261.698V408.03h9.625l12.042-150z"/>
        <path fill="#7086F4" d="M611.759 154.03h-130.5c-5.937 0-10.75-4.812-10.75-10.75 0-5.936 4.813-10.75 10.75-10.75h130.5c5.937 0 10.75 4.814 10.75 10.75 0 5.938-4.813 10.75-10.75 10.75"/>
        <path fill="#D27777" d="M537.509 195.53l-.5 96.168h19.5l6.505-96.082z"/>
        <path fill="#FF8F8F" d="M585.676 262.698l19.667 133.333 10.666-.5-13.166-139.5z"/>
        <path fill="#D27777" d="M573.676 196.386l15 94.645h17.667l-8.667-95.416z"/>
        <path fill="#79E7F4" d="M601.343 369.864h12.166l1.917 18.167-11.5.167z"/>
        <path fill="#D27777" d="M603.509 386.03h11.834l2.25 17.668s9.916.666 11.916 6.666.667 7.334.667 7.334h-22.25l-4.417-31.667z"/>
        <path fill="#F0BB70" d="M536.945 186.03v32.5h63.897l-3.56-34.5z"/>
        <path fill="#D27777" d="M596.009 235.698h10.334l2.333 27.667-7.333 7.333"/>
        <path fill="#FF8F8F" d="M538.854 33.022c0 15.56 12.822 28.173 28.641 28.173 15.82 0 28.643-12.613 28.643-28.173 0-15.56-12.824-28.173-28.643-28.173-3.077 0-6.04.478-8.82 1.361-11.502 3.66-19.821 14.28-19.821 26.812"/>
        <path fill="#FF8F8F" d="M560.097 48.195v32l22-1-2.75-30z"/>
        <path fill="#0679A4" d="M594.634 42.906s-16.87-18.711-18.204-27.711c0 0-13.833 16.919-38.083 14.336 0 0 5.167-25 27.162-25 19.359 0 35.875 15.5 29.125 38.375"/>
        <path fill="#FF8F8F" d="M589.509 30.28c0 2.693-1.734 4.876-3.875 4.876-2.14 0-3.875-2.183-3.875-4.875s1.735-4.875 3.875-4.875c2.14 0 3.875 2.183 3.875 4.875"/>
        <path fill="#F0BB70" d="M538.014 77.53l21.495-8 10 7.5 12-7.5 17.505 9z"/>
        <path fill="url(#b)" d="M539.166 58.167h56.267l-14.788 7.694v11.222l-20.093-2.247V65.86z" transform="matrix(1 0 0 -1 0 135.25)"/>
        <path fill="#FF8F8F" d="M539.787 34.274s-4.226 6.654-4.226 7.982c0 1.878 8.453 1.878 8.453 1.878l-4.227-9.86z"/>
        <path fill="#DF71DB" d="M575.781 78.022s20.898 10.173 25.898 22.84c5 12.666 6.667 50 6.667 50l-78.667 4.666-3.666-57s12-19.333 14.333-19c2.333.333 35.435-1.506 35.435-1.506"/>
        <path fill="#61A1E7" d="M442.264 189.899h208.524V75.195H442.264z"/>
        <path fill="#FDD455" d="M472.765 117.21h2.189c.154 1.23.65 2.258 2.72 2.258 1.35 0 2.309-.753 2.309-1.882 0-1.13-.565-1.557-2.55-1.882-2.924-.393-4.31-1.283-4.31-3.575 0-2.001 1.71-3.506 4.26-3.506 2.634 0 4.208 1.197 4.447 3.54h-2.086c-.223-1.282-.958-1.83-2.361-1.83-1.386 0-2.104.667-2.104 1.608 0 .993.41 1.489 2.532 1.796 2.873.394 4.36 1.214 4.36 3.66 0 2.122-1.795 3.78-4.497 3.78-3.336 0-4.738-1.658-4.91-3.967M486.65 116.32h3.608l-1.796-5.679-1.813 5.679zm.461-7.544h2.976l4.038 12.231h-2.362l-.974-3.028h-4.67l-.958 3.028h-2.138l4.088-12.231zM493.778 108.776h2.378l3.181 9.921 3.2-9.921h2.137l-4.139 12.23H497.9zM506.465 108.776h7.646v1.796h-5.371v3.353h4.31v1.71h-4.31v3.576h5.662v1.795h-7.937zM522.966 110.572h-3.404v-1.796h9.1v1.796h-3.404v10.435h-2.292zM530.487 108.776h2.275v5.2h5.491v-5.2h2.292v12.23h-2.292v-5.2h-5.49v5.2h-2.276zM543.328 108.776h7.646v1.796h-5.37v3.353h4.31v1.71h-4.31v3.576h5.661v1.795h-7.937zM557.383 108.776h7.578v1.813h-5.303v3.644h4.174v1.762h-4.174v5.011h-2.275zM576.144 114.934v-.137c0-2.514-1.402-4.379-3.798-4.379-2.394 0-3.814 1.762-3.814 4.396v.137c0 2.67 1.625 4.396 3.848 4.396 2.31 0 3.764-1.762 3.764-4.413m-9.99.034v-.137c0-3.575 2.566-6.226 6.192-6.226 3.644 0 6.158 2.583 6.158 6.175v.136c0 3.576-2.446 6.261-6.158 6.261-3.746 0-6.191-2.685-6.191-6.209M584.793 114.438c1.522 0 2.326-.65 2.326-1.95v-.069c0-1.402-.872-1.88-2.326-1.88h-1.83v3.9h1.83zm-4.105-5.662h4.105c2.686 0 4.567 1.095 4.567 3.593v.068c0 1.915-1.197 2.891-2.719 3.284l3.437 5.285h-2.463l-3.198-4.943h-1.454v4.943h-2.275v-12.23zM591.887 108.776h7.646v1.796h-5.371v3.353h4.31v1.71h-4.31v3.576h5.662v1.795h-7.937zM601.138 117.21h2.189c.154 1.23.65 2.258 2.72 2.258 1.35 0 2.309-.753 2.309-1.882 0-1.13-.565-1.557-2.55-1.882-2.924-.393-4.31-1.283-4.31-3.575 0-2.001 1.71-3.506 4.26-3.506 2.634 0 4.208 1.197 4.447 3.54h-2.086c-.223-1.282-.958-1.83-2.361-1.83-1.386 0-2.104.667-2.104 1.608 0 .993.41 1.489 2.532 1.796 2.873.394 4.36 1.214 4.36 3.66 0 2.122-1.795 3.78-4.497 3.78-3.336 0-4.738-1.658-4.91-3.967M614.817 110.572h-3.404v-1.796h9.1v1.796h-3.404v10.435h-2.292z"/>
        <path fill="#7086F4" d="M611.775 154.03h-130.5c-5.937 0-10.75-4.812-10.75-10.75 0-5.936 4.813-10.75 10.75-10.75h130.5c5.937 0 10.75 4.814 10.75 10.75 0 5.938-4.813 10.75-10.75 10.75"/>
        <path fill="#FDD455" d="M588.018 154.03H481.276c-5.937 0-10.75-4.812-10.75-10.75 0-5.936 4.813-10.75 10.75-10.75h106.742v21.5z"/>
        <path fill="#7086F4" d="M481.812 144.435h1.195c.07.742.486 1.296 1.435 1.296.92 0 1.346-.445 1.346-1.148 0-.77-.416-1.156-1.276-1.156h-.545v-.939h.505c.81 0 1.177-.376 1.177-1.038 0-.575-.366-.999-1.099-.999-.752 0-1.236.455-1.315 1.167h-1.166c.07-1.227.988-2.166 2.501-2.166 1.474 0 2.334.85 2.334 1.898 0 .802-.464 1.286-1.147 1.543.822.188 1.365.771 1.365 1.71 0 1.306-1.029 2.116-2.65 2.116-1.681 0-2.6-.929-2.66-2.284M492.193 144.346c0-.85-.515-1.424-1.325-1.424-.8 0-1.364.564-1.364 1.345 0 .94.563 1.483 1.364 1.483.791 0 1.325-.563 1.325-1.404m-4.074-.939v-.168c0-2.453 1.236-3.788 2.927-3.788 1.286 0 2.135.633 2.303 1.87h-1.225c-.129-.535-.406-.85-1.088-.85-.949 0-1.572.84-1.612 2.451.327-.544.91-.909 1.75-.909 1.355 0 2.324.93 2.324 2.304 0 1.433-1.008 2.402-2.61 2.402-2.057 0-2.769-1.443-2.769-3.312M494.309 144.593h1.226c.108.653.376 1.107 1.285 1.107.81 0 1.275-.563 1.275-1.433 0-.85-.494-1.394-1.275-1.394-.722 0-1.157.247-1.473.613h-.673l.06-3.935h4.29v1.038h-3.281l-.01 1.918c.276-.316.77-.594 1.522-.594 1.276 0 2.175.891 2.175 2.373 0 1.494-1.077 2.433-2.6 2.433-1.662 0-2.443-.909-2.521-2.126M499.834 147.51l.9-2.343 1.137.454-1.295 2.215zM507.063 143.239v-.346c0-1.503-.575-2.413-1.632-2.413-1.067 0-1.651.85-1.651 2.423v.357c0 1.6.613 2.412 1.67 2.412 1.089 0 1.613-.83 1.613-2.433m-4.608.03v-.356c0-2.146 1.185-3.461 2.966-3.461 1.79 0 2.956 1.306 2.956 3.432v.355c0 2.126-1.108 3.48-2.957 3.48-1.798 0-2.966-1.325-2.966-3.45M513.992 143.239v-.346c0-1.503-.574-2.413-1.632-2.413-1.067 0-1.65.85-1.65 2.423v.357c0 1.6.612 2.412 1.67 2.412 1.088 0 1.612-.83 1.612-2.433m-4.608.03v-.356c0-2.146 1.186-3.461 2.966-3.461 1.79 0 2.956 1.306 2.956 3.432v.355c0 2.126-1.107 3.48-2.956 3.48-1.799 0-2.966-1.325-2.966-3.45M520.923 143.239v-.346c0-1.503-.574-2.413-1.632-2.413-1.068 0-1.651.85-1.651 2.423v.357c0 1.6.613 2.412 1.67 2.412 1.089 0 1.613-.83 1.613-2.433m-4.608.03v-.356c0-2.146 1.186-3.461 2.966-3.461 1.789 0 2.956 1.306 2.956 3.432v.355c0 2.126-1.107 3.48-2.956 3.48-1.8 0-2.966-1.325-2.966-3.45M525.41 145.01h1.126c.06.522.326.83 1.028.83.643 0 .93-.228.93-.663 0-.426-.346-.584-1.107-.712-1.365-.218-1.87-.603-1.87-1.572 0-1.038.97-1.553 1.94-1.553 1.056 0 1.897.396 2.025 1.563h-1.107c-.099-.475-.365-.693-.919-.693-.515 0-.82.247-.82.613 0 .376.247.525 1.067.663 1.216.188 1.937.484 1.937 1.582 0 1.048-.74 1.651-2.066 1.651-1.334 0-2.115-.612-2.165-1.71M530.718 146.621h1.196v-5.171h-1.196v5.171zm-.128-6.704c0-.396.316-.693.712-.693.395 0 .712.297.712.693 0 .385-.317.682-.712.682-.396 0-.712-.297-.712-.682zM537.047 143.912v-.07c0-.98-.534-1.562-1.395-1.562-.89 0-1.404.643-1.404 1.582v.079c0 .959.594 1.553 1.364 1.553.83 0 1.435-.594 1.435-1.582m-3.966 2.887h1.207c.099.514.494.81 1.276.81.928 0 1.443-.464 1.443-1.393v-.762c-.287.495-.93.959-1.69.959-1.296 0-2.294-.97-2.294-2.462v-.07c0-1.452.988-2.54 2.323-2.54.85 0 1.364.385 1.66.9v-.791h1.197v4.785c-.01 1.523-1.028 2.284-2.63 2.284-1.622 0-2.353-.731-2.492-1.72M539.626 141.45h1.196v.82c.247-.504.821-.93 1.671-.93 1.038 0 1.771.604 1.771 2.028v3.253h-1.198v-3.145c0-.781-.316-1.136-1.027-1.136-.673 0-1.217.415-1.217 1.236v3.045h-1.196v-5.171zM548.554 144.811v-.514h-.613c-.91 0-1.493.207-1.493.84 0 .436.237.722.83.722.732 0 1.276-.385 1.276-1.048m-3.293.376c0-1.206 1.167-1.642 2.65-1.642h.643v-.266c0-.693-.237-1.038-.94-1.038-.622 0-.93.296-.99.81h-1.155c.099-1.206 1.058-1.71 2.215-1.71 1.156 0 2.066.474 2.066 1.888v3.392h-1.176v-.633c-.336.445-.791.731-1.582.731-.95 0-1.731-.454-1.731-1.532M551.31 145.177v-2.828h-.69v-.9h.69v-1.137h1.198v1.137h1.136v.9h-1.136v2.72c0 .454.216.662.592.662.237 0 .415-.03.583-.099v.95a2.3 2.3 0 0 1-.81.127c-1.029 0-1.563-.553-1.563-1.532M554.712 144.761v-3.312h1.196v3.174c0 .782.327 1.137 1.019 1.137.643 0 1.207-.415 1.207-1.235v-3.076h1.196v5.171h-1.196v-.81c-.258.504-.802.91-1.642.91-1.018 0-1.78-.584-1.78-1.959M560.742 141.45h1.196v.969c.326-.653.811-1.038 1.681-1.048v1.117c-1.048.01-1.68.346-1.68 1.443v2.69h-1.197v-5.171zM568.04 143.496c-.06-.89-.515-1.285-1.257-1.285-.722 0-1.206.484-1.325 1.285h2.581zm-3.827.594v-.08c0-1.601 1.097-2.67 2.57-2.67 1.285 0 2.443.762 2.443 2.61v.348h-3.788c.04.978.535 1.532 1.424 1.532.722 0 1.098-.287 1.187-.791h1.157c-.168 1.088-1.048 1.68-2.373 1.68-1.523 0-2.62-.997-2.62-2.63zM569.946 145.01h1.127c.06.522.326.83 1.028.83.643 0 .93-.228.93-.663 0-.426-.346-.584-1.107-.712-1.365-.218-1.87-.603-1.87-1.572 0-1.038.97-1.553 1.94-1.553 1.056 0 1.897.396 2.025 1.563h-1.107c-.099-.475-.365-.693-.919-.693-.515 0-.82.247-.82.613 0 .376.247.525 1.067.663 1.216.188 1.937.484 1.937 1.582 0 1.048-.74 1.651-2.066 1.651-1.334 0-2.115-.612-2.165-1.71"/>
        <path fill="#FF8F8F" d="M442.02 112.29s6.016 5.985 7.022 8.983c1.007 2.997-5.995 2.015-8 .019-2.004-1.995-3.01-3.993-3.02-7.993-.01-4 3.981-7.76 3.981-7.76l.018 6.75zM650.512 112.29s-6.015 5.985-7.021 8.983c-1.008 2.997 5.995 2.015 8 .019 2.003-1.995 3.008-3.993 3.018-7.993.01-4-3.98-7.76-3.98-7.76l-.017 6.75z"/>
        <path fill="#79E7F4" d="M550.176 369.864H537.05l.012 18.167 11.524.167z"/>
        <path fill="#D27777" d="M548.926 386.03h-12l.01 17.668s-11.262.666-12.385 6.666c-1.123 6 .405 7.334.405 7.334h21.22l2.75-31.667z"/>
        <path fill="url(#b)" d="M537 190h60.913l1.682 17.444H537z"/>
        <path fill="#D27777" d="M539.093 235.78h-6.75v27.75l7 7.5"/>
        <path fill="#61A1E7" d="M543.347 17.03l-12.333 4.668 65.5 12.166s1.166-30-26.5-30c-21.5 0-26.667 13.167-26.667 13.167"/>
        <path fill="#D27777" d="M603.082 237.698h-66.137v-31.333h62.334z"/>
        <use fill="#000" filter="url(#h)" xlink:href="#i"/>
        <path fill="#036D8E" d="M269.922 406.208l-1.14 5.892s7.054 4.695 11.39 5.89c4.338 1.197 17.085 0 17.085 0s0-7.07-13.667-11.782c-15.472-5.335-13.668 0-13.668 0M284.728 165.559s26.307 100.405 26.307 107.099c0 6.693-2.389 136.55-2.389 136.55h13.668s8.298-134.123 8.298-147.51c0-13.388-9-81.486-9-81.486l-36.884-14.653z"/>
        <path fill="#0679A4" d="M274.033 180.79s1.212 15.85 4.25 37.26c3.04 21.408 8.724 50.8 8.724 54.607 0 6.694-17.085 133.874-17.085 133.874h13.668s21.64-131.196 21.64-144.584c0-13.387 5.695-99.066 5.695-99.066l-36.892 17.908z"/>
        <path fill="url(#d)" d="M11.732 180h42.029l3.779 32H15.366a2307.54 2307.54 0 0 1-1.917-16 1019.537 1019.537 0 0 1-1.717-16z" transform="translate(268)"/>
        <path fill="#FDD455" d="M333.027 28.35c0 15.56-12.824 28.172-28.643 28.172-15.818 0-28.642-12.613-28.642-28.173 0-15.559 12.824-28.173 28.642-28.173 3.078 0 6.041.478 8.82 1.361 11.503 3.66 19.823 14.28 19.823 26.812"/>
        <path fill="#FDD455" d="M332.558 26.94s4.226 6.655 4.226 7.983c0 1.879-8.453 1.879-8.453 1.879l4.227-9.861z"/>
        <path fill="#0679A4" d="M324.95 8.689s-13.522 25.295-30.426 19.66c-6.028-2.01-3.757.94-3.757.94l-4.65 20.733s-6.673-5.021-9.126-13.5c-2.825-9.767-.79-24.7 10.792-31.666 21.333-12.834 37.167 3.833 37.167 3.833"/>
        <path fill="#FDD455" d="M286.072 29.758c0 3.371 2.313 6.104 5.165 6.104 2.853 0 5.165-2.733 5.165-6.104s-2.312-6.104-5.165-6.104c-2.852 0-5.165 2.733-5.165 6.104M311.783 43.522v32l-22-1 2.75-30z"/>
        <path fill="#61A1E7" d="M290.783 63.522s-7.917 2.12-14 16.175c-2 4.621-2.75 101.092-2.75 101.092l47.58-.578s-5.865-29.72-5-51.68c1-25.418-3.83-54.61-3.83-54.61l-22-10.399z"/>
        <path fill="url(#b)" d="M23 56.265l28.384-13.3 5.177 33.812L23 70.134z" transform="matrix(1 0 0 -1 268 119.743)"/>
        <path fill="#DF71DB" d="M310.533 155.726h85.75V41.022h-85.75z"/>
        <path fill="#79E7F4" d="M334.191 73.76h3.058l5.787 9.94v-9.94h2.326v13.746h-2.653l-6.19-10.536v10.536h-2.328zM359.049 80.681v-.154c0-2.826-1.576-4.922-4.268-4.922-2.692 0-4.288 1.98-4.288 4.941v.155c0 3 1.827 4.94 4.327 4.94 2.595 0 4.229-1.98 4.229-4.96m-11.228.038v-.153c0-4.019 2.884-6.998 6.96-6.998 4.095 0 6.92 2.902 6.92 6.94v.153c0 4.02-2.748 7.038-6.92 7.038-4.211 0-6.96-3.019-6.96-6.98M362.432 73.76h2.672l3.576 11.15 3.596-11.15h2.403l-4.653 13.746h-2.961zM339.629 103.365l-6.812 4.647v-5.28l7.489-5.323h5.369v32.26h-6.046zM350.956 128.587l12.183-12.86c3.068-3.247 4.918-6.09 4.918-9.16 0-3.022-1.715-4.917-4.829-4.917-3.203 0-5.233 1.85-5.775 6.408h-5.504c.405-7.04 4.647-11.1 11.46-11.1 6.678 0 10.65 3.835 10.65 9.52 0 4.196-2.483 7.85-6.318 11.55l-7.175 6.995h13.717v4.647h-23.327v-1.083zM330.455 64.402h45.906v-4.591h-45.906z"/>
        <path fill="url(#j)" d="M43 117l31.617 7.492L128.75 117v32H43z" transform="translate(268)"/>
        <path fill="#FDD455" d="M308.612 91.03l30.004 28.992 51.25-4.25.26 6.746s-57.343 10.92-58.26 10.254c-.483-.351-33.066-25.088-38.542-29.93a.866.866 0 0 1 .091-1.363l15.197-10.448z"/>
        <path fill="#FDD455" d="M387.995 115.745l2.847-5.983c.92-1.147 2.75-.496 2.608.927l-.667 3.333c-.119.365 2.234-.381 2.75-1.416.92-1.847.75-2 .75-2 2.5-.61 3.187 7.748-.309 9.869-3.177 1.928-5.994 2.002-7.356 2.267a.185.185 0 0 1-.224-.172l-.444-6.687a.201.201 0 0 1 .045-.138M351.283 41.022s6 6 9 7 2-6 0-8-4-3-8-3-7.75 4-7.75 4h6.75z"/>
        <path fill="#61A1E7" d="M306.945 88.364l16.667 16.917-15 14.75-22.412-16.843z"/>
        <path fill="#036D8E" d="M308.647 407.268v9.544h31.137s-1.186-6.938-17.298-9.544c-13.84-2.238-13.84 0-13.84 0"/>
        <path fill="#FF8F8F" d="M226.292 346.58l1.991 57.302 10.833.77 1.773-58.071z"/>
        <path fill="#61A1E7" d="M210.116 196.386l16.176 150.194h14.596l.562-150.965z"/>
        <path fill="#FDD455" d="M228.45 396.18s.666 6.931 5.333 6.16c4.667-.769 5.667-1.54 5.667-1.54l-.834 16.175h-30.833l20.667-20.796z"/>
        <path fill="#FF8F8F" d="M248.959 346.58l1.991 57.302 10.833.77 1.773-58.071z"/>
        <path fill="#61A1E7" d="M232.783 196.386L248.96 346.58h14.596l.561-150.965z"/>
        <path fill="url(#k)" d="M214.834 241h49.012v32h-45.48c-.66-5.762-1.273-11.096-1.842-16a853.687 853.687 0 0 1-1.69-16z"/>
        <path fill="#FDD455" d="M251.116 396.18s.667 6.931 5.334 6.16c4.666-.769 5.666-1.54 5.666-1.54l-.833 16.175H230.45l20.666-20.796z"/>
        <path fill="#61A1E7" d="M257.2 25.945c0 6.351 5.148 11.5 11.5 11.5 6.351 0 11.5-5.149 11.5-11.5 0-6.352-5.149-11.5-11.5-11.5-6.352 0-11.5 5.148-11.5 11.5"/>
        <path fill="#FF8F8F" d="M211.29 33.022c0 15.56 12.823 28.173 28.642 28.173 15.819 0 28.642-12.613 28.642-28.173 0-15.56-12.823-28.173-28.642-28.173-3.078 0-6.041.478-8.82 1.361-11.503 3.66-19.822 14.28-19.822 26.812"/>
        <path fill="#FF8F8F" d="M232.533 48.195v32l22-1-2.75-30z"/>
        <path fill="url(#b)" d="M232.561 53.059h21.731l-1.688 24h-20.043z" transform="matrix(1 0 0 -1 0 130.117)"/>
        <path fill="#61A1E7" d="M268.533 29.528s-18.333-5.333-19.667-14.333c0 0-22.666 23.583-46.916 21 0 0 6.25-31.5 34.25-31.5 19.36 0 29.5 9 32.333 24.833"/>
        <path fill="#DF71DB" d="M248.218 78.022s20.898 10.173 25.898 22.84c5 12.666 6.667 50 6.667 50l-78.667 4.666-3.666-57s12-19.333 14.333-19c2.333.333 35.435-1.506 35.435-1.506"/>
        <path fill="#DF71DB" d="M280.783 150.862l6 90.198h-89.667l5-89.537z"/>
        <path fill="url(#d)" d="M200 120h78l2.993 30.35 3.245 71.586H200z"/>
        <path fill="url(#l)" d="M200 188h60.913v16.485l-61.802.959z"/>
        <path fill="#FDD455" d="M175.866 189.899h85.75V75.195h-85.75z"/>
        <path fill="#61A1E7" d="M210.858 114.854v-.154c0-2.826-1.576-4.922-4.268-4.922-2.692 0-4.288 1.98-4.288 4.941v.155c0 3 1.827 4.94 4.327 4.94 2.595 0 4.23-1.98 4.23-4.96m-11.229.038v-.153c0-4.019 2.884-6.998 6.96-6.998 4.095 0 6.921 2.902 6.921 6.94v.153c0 4.02-2.749 7.038-6.92 7.038-4.212 0-6.96-3.019-6.96-6.98M215.278 114.892v-.153c0-4.134 2.845-7.018 6.671-7.018 3.153 0 5.595 1.576 5.902 4.807h-2.595c-.289-1.827-1.307-2.769-3.288-2.769-2.422 0-3.999 1.884-3.999 4.96v.154c0 3.095 1.481 4.922 4.02 4.922 1.902 0 3.248-.962 3.517-2.903h2.5c-.405 3.307-2.75 4.98-6.018 4.98-4.307 0-6.71-2.75-6.71-6.98M232.773 109.952h-3.827v-2.02h10.228v2.02h-3.826v11.728h-2.576zM192.78 162.76l12.182-12.86c3.068-3.248 4.918-6.09 4.918-9.16 0-3.023-1.715-4.918-4.829-4.918-3.203 0-5.233 1.85-5.775 6.408h-5.504c.405-7.039 4.647-11.1 11.46-11.1 6.678 0 10.65 3.835 10.65 9.521 0 4.195-2.483 7.85-6.318 11.55l-7.175 6.994h13.717v4.647H192.78v-1.083zM219.765 153.87h5.46c.315 3.385 2.21 5.912 6.542 5.912 4.196 0 6.137-2.03 6.137-5.234 0-3.52-1.896-5.28-5.821-5.28H229.6v-4.286h2.302c3.699 0 5.369-1.715 5.369-4.737 0-2.617-1.67-4.558-5.01-4.558-3.428 0-5.64 2.077-6 5.325h-5.324c.316-5.595 4.513-9.881 11.416-9.881 6.723 0 10.648 3.88 10.648 8.663 0 3.654-2.121 5.865-5.234 7.038 3.745.857 6.226 3.519 6.226 7.807 0 5.955-4.692 9.655-12.091 9.655-7.671 0-11.867-4.241-12.138-10.423M195.788 98.575h45.907v-4.591h-45.907z"/>
        <path fill="#FF8F8F" d="M261.61 119.856l-.035 27.667-54.959 35.5 6.25 4.75s54.316-26.292 57.834-29.625c.472-.45 6.805-38.783 4.98-38.292h-14.07z"/>
        <path fill="#FF8F8F" d="M208.192 181.913l-5.993 2.824c-1.15.914-.507 2.748.917 2.612l3.336-.654c.364-.118-.428 1.866-1.465 2.378-1.85.913-6.667.833-6.667.833 2.834 2.625 12.438 3.49 14.572.004 1.941-3.17 2.025-5.987 2.295-7.348a.185.185 0 0 0-.172-.224l-6.684-.47a.203.203 0 0 0-.139.045M175.79 129.623s6.015 5.986 7.021 8.983c1.008 2.998-5.995 2.015-8 .019-2.004-1.995-3.008-3.992-3.018-7.992-.01-4 3.98-7.76 3.98-7.76l.017 6.75z"/>
        <path fill="#DDA25B" d="M133.027 218.131v46.333h73.333l-4.456-3.752a23.368 23.368 0 0 0-11.564-5.232l-35.558-5.369-1.75-16.681-20.005-15.299z"/>
        <path fill="#79E7F4" d="M201.315 430.72h11.045V274.464h-11.045z"/>
        <path fill="#C660C6" d="M212.36 276.464h-79.422v-12h73.364a6.058 6.058 0 0 1 6.058 6.058v5.942z"/>
        <path fill="#DF71DB" d="M200.402 424.062l-8.286 11.868-19.235-123.11 9.48-4.356z"/>
        <path fill="#DF71DB" d="M191.36 438.464h46.5v-10h-46.5z"/>
        <path fill="#79E7F4" d="M64.527 385.166H75.91v-80.23H64.527z"/>
        <path fill="#DF71DB" d="M135.286 321.273H74.342c-5.697 0-10.315-4.618-10.315-10.315V211.05c0-5.697 4.618-10.315 10.315-10.315h60.944c5.696 0 10.314 4.618 10.314 10.315v99.908c0 5.697-4.618 10.315-10.314 10.315"/>
        <path fill="#F0BB70" d="M97.277 186.798c0-9.573 8.954-17.334 20-17.334 11.045 0 20 7.76 20 17.334 0 9.572-8.955 17.333-20 17.333-11.046 0-20-7.76-20-17.333"/>
        <path fill="#0679A4" d="M139.573 149.412c-10.865 16.604-33.18 19.89-49.845 7.34-16.664-12.55-21.366-36.184-10.502-52.788 10.863-16.604 33.18-19.89 49.844-7.34 16.664 12.551 21.366 36.185 10.503 52.788"/>
        <path fill="#F0BB70" d="M148.16 138.546c0 14.11-11.629 25.547-25.972 25.547-14.344 0-25.974-11.437-25.974-25.547 0-14.109 11.63-25.546 25.974-25.546 2.79 0 5.478.433 7.997 1.234 10.43 3.317 17.974 12.948 17.974 24.312"/>
        <path fill="#F0BB70" d="M127.5 151.45v31.12l-21.396-.972 2.675-29.176z"/>
        <path fill="#0679A4" d="M122.863 121.54s7.41-.329 16.731-5.597c0 0-6.242-4.943-13.774-4.943-18.827 0-34.889 15.073-28.325 37.32 0 0 25.368 0 25.368-26.78z"/>
        <path fill="#61A1E7" d="M153.032 233.43h-13v-35.413l8.128-.337z"/>
        <path fill="#F0BB70" d="M147.251 137.912s4.109 6.471 4.109 7.763c0 1.826-8.219 1.826-8.219 1.826l4.11-9.589z"/>
        <path fill="#61A1E7" d="M73.694 205.13c-1.333 14.668 0 42.335 0 42.335l8.088 15.965.579 19.035 66 11.342V201.13c0-20-20.29-28.931-20.29-28.931s14.29 20.265-6.377 20.265c-27.333 0-15.018-20.265-15.018-20.265s-31.648 18.265-32.982 32.93z"/>
        <path fill="url(#m)" d="M82 219h66v68H82z" transform="matrix(1 0 0 -1 0 506)"/>
        <path fill="#F0BB70" d="M73.027 218.131v46.333H176.36l-2.548-2.145a27.322 27.322 0 0 0-16.026-6.378l-66.093-3.81v-34.667l-18.666.667z"/>
        <path fill="#EF7373" d="M199.282 299.43l27.5 125-21 1z"/>
        <path fill="#FF8F8F" d="M82.36 282.464v13.82c0 7.096 5.752 12.846 12.847 12.846l87.153-.666 14.667 110.334 14 2.666-6.667-129-76.667-9.332-45.333-.668z"/>
        <path fill="#DF71DB" d="M70.9 328.464h111.46v-20H70.9a6.872 6.872 0 0 0-6.873 6.873v6.255a6.872 6.872 0 0 0 6.872 6.873"/>
        <path fill="#0679A4" d="M209.594 417.13h12.682s14.839.783 16.318 7.817l-.218 3.517H209.21l.384-11.334z"/>
        <path fill="#61A1E7" d="M197.939 417.13h12.681s14.84.783 16.319 7.817l-.219 3.517h-29.166l.385-11.334z"/>
        <path fill="#0679A4" d="M70.22 319.584C36.465 319.584 9 347.048 9 380.806c0 33.757 27.464 61.22 61.22 61.22 33.759 0 61.223-27.463 61.223-61.22 0-33.758-27.464-61.222-61.222-61.222m0 131.443C31.5 451.027 0 419.526 0 380.806c0-38.721 31.5-70.222 70.22-70.222 38.722 0 70.223 31.5 70.223 70.222 0 38.72-31.501 70.22-70.222 70.22"/>
        <path fill="#DF71DB" d="M85.283 380.805c0 8.32-6.743 15.063-15.063 15.063-8.318 0-15.062-6.744-15.062-15.063 0-8.318 6.744-15.063 15.062-15.063 8.32 0 15.063 6.745 15.063 15.063"/>
        <path fill="#79E7F4" d="M176.838 430.72a5.522 5.522 0 0 1-5.522-5.522V274.464h11.044v150.734a5.522 5.522 0 0 1-5.522 5.522"/>
        <path fill="#0679A4" d="M176.555 407.415c-9.543 0-17.307 7.764-17.307 17.306 0 9.543 7.764 17.306 17.307 17.306 9.542 0 17.306-7.763 17.306-17.306 0-9.542-7.764-17.306-17.306-17.306m0 43.612c-14.506 0-26.307-11.8-26.307-26.306 0-14.505 11.8-26.306 26.307-26.306 14.505 0 26.306 11.8 26.306 26.306s-11.801 26.306-26.306 26.306"/>
        <path fill="#DF71DB" d="M182.36 276.464H72.938v-12h103.364a6.058 6.058 0 0 1 6.058 6.058v5.942z"/>
        <path fill="#DDA25B" d="M190.116 262.263s8.011 11.665 9.346 10.207c1.335-1.458-2.003-10.207-2.003-10.207h-7.343z"/>
        <path fill="#DF71DB" d="M183.964 424.72a7.41 7.41 0 1 1-7.409-7.409 7.409 7.409 0 0 1 7.409 7.41"/>
        <path fill="#0679A4" d="M801.862 250.53s8.57 4.238 12 11.5c4.25 9 4 12.75 4 12.75l-6 .5s-5-4.25-8-12.25-2-12.5-2-12.5"/>
        <path fill="#F0BB70" d="M800.032 244.731v22.21l-12.37-.69 1.54-20.82z"/>
        <path fill="#FDD455" d="M835.862 132.03v39.5l2.67 51.44 7.44 5.22 2.307-62.16-1.417-34z"/>
        <path fill="#61A1E7" d="M843.63 104.07l70.68 7.12-7.34-59.86L843 49z"/>
        <path fill="url(#b)" d="M843.751 79.306l69.898-6.438-4.086 33.805-65.812-4.29z" transform="matrix(1 0 0 -1 0 179.541)"/>
        <path fill="#0679A4" d="M877.362 197.03l17.5 211 12.46-4.46-.13-207.31z"/>
        <path fill="#61A1E7" d="M895.053 400.341a7.11 7.11 0 0 0 7 2.65c4.659-.77 5.659-1.54 5.659-1.54l-.83 16.17h-30.83l19-17.28z"/>
        <path fill="#0679A4" d="M848.362 197.03l17.5 211 12.46-4.46-.13-207.31z"/>
        <path fill="url(#d)" d="M849 200.4l29.33-2.4v39.87h-26.212z"/>
        <path fill="url(#d)" d="M878 199.874L907.33 198v31.121h-26.212z"/>
        <path fill="#61A1E7" d="M866.053 400.341a7.11 7.11 0 0 0 7 2.65c4.659-.77 5.659-1.54 5.659-1.54l-.83 16.17h-30.83l19-17.28z"/>
        <path fill="#FDD455" d="M885.442 59.841v32l-22-1 2.75-30z"/>
        <path fill="#FDD455" d="M888.442 91.131s-1.65 13.61-14 12.94c-12.35-.67-11-14.44-11-14.44l25 1.5z"/>
        <path fill="#FF8F8F" d="M863.442 89.671s-16.29.92-22.56 13l6.98 101.36 59.5-1.5s-.55-65.45.95-89.95-17.53-21.75-19.87-21.42c-1.16.17-14 12.94-14 12.94l-11-14.43z"/>
        <path fill="#F0BB70" d="M777.553 270.621c-6.44-1.34-7.69 6.91-7.69 6.91l-2.871 33.88-10.41 31.87 4.93 1.79 12.35-28.54 4.19-30.26s3.63-11.35-.5-15.65"/>
        <path fill="#FDD455" d="M902.862 120.53l9.25 49.75-7.1 53.888 8.45.63 11.65-54.517-6.417-49.083z"/>
        <path fill="#F0BB70" d="M761.332 347.42l1.561 5.73a1.291 1.291 0 0 1-2.311.89l-1.5-2.648c-.13-.321-1 1.37-.77 2.38.46 1.79 2.61 3.269 1.88 4.179-.73.91-3 .41-4.79-1.45a7.6 7.6 0 0 1-1.54-7.13 22.572 22.572 0 0 1 3-6.34.16.16 0 0 1 .225-.025c.01.008.017.017.025.025l4.46 1.76s-.24 2.58-.24 2.63"/>
        <path fill="#FDD455" d="M903.692 51.211c.237 15.821-12.396 28.84-28.217 29.077-15.82.237-28.839-12.396-29.077-28.217-.237-15.82 12.396-28.839 28.217-29.077a29.112 29.112 0 0 1 9.247 1.377 28.23 28.23 0 0 1 19.83 26.84"/>
        <path fill="#61A1E7" d="M872.053 30.841s1.81 35.69 34.81 29.69c2.754-.501-2.34-41.58-32.04-41.58-30.8 0-32.27 29.85-32.27 29.85s17.81 3.73 29.5-17.96"/>
        <path fill="#F0BB70" d="M772.852 318.03l6.03 104.57 8.39-3.89.39-101.06zM801.082 318.03l4.17 104.57 9.24-3.89 1.39-101.06zM801.752 266.671s.91 5-6.84 4.52c-7.75-.48-7-5.56-7-5.56l13.84 1.04z"/>
        <path fill="#DF71DB" d="M787.862 263.78s-13.5 5.5-15.02 7.63l-.313 96.288 53.833-.667-8.625-87.125-9.25-12.562-8.625-4.063s.45 4.98-5.68 5c-5.86.01-6.32-4.5-6.32-4.5"/>
        <path fill="#0679A4" d="M788.39 253.932s1.236 7.328-1.93 14.432c-3.614 8.109-7.814 10.49-7.814 10.49s-2.6-5.682-.61-12.796c1.993-7.113 7.412-14.98 7.412-14.98l2.943 2.854z"/>
        <path fill="#F0BB70" d="M815.143 238.93c.165 10.98-8.6 20.013-19.578 20.179-10.98.166-20.012-8.6-20.178-19.578-.166-10.978 8.6-20.012 19.578-20.178l.327-.002c2.08.018 4.144.354 6.12 1a19.602 19.602 0 0 1 13.73 18.58"/>
        <path fill="#0679A4" d="M800.862 228.03s-10.5 11.25-31 9.5c-1.933-.164 4.66-20.95 25.27-20.95 21.38 0 20.48 23.7 20.48 23.7s-15.58 4.45-14.75-12.25"/>
        <path fill="#DF71DB" d="M805.162 420.2h9.431v-8.84l-9.84-1.22zM778.402 420.2h8.96v-8.84l-9.34-1.22z"/>
        <path fill="#FDD455" d="M806.132 418.132a6.143 6.143 0 0 0 5 1.3 15.02 15.02 0 0 0 4.06-.762l-.6 8h-22.07l13.61-8.538zM778.223 417.511s1.34 1 4.72.66c3.38-.34 4.519.54 4.519.54l-.31 8h-23.66l14.73-9.2z"/>
        <path fill="#FF8F8F" d="M835.362 135.03s-2-24.5 6-35c4-5.41 5.5-5.85 11.69-7.9 3.68-1.22 5.25 4.57 1.6 5.78-4.54 1.51-8.38 3.06-11.47 6l13.55 7.3-10.33 27s-11.504-2.427-11.04-3.18M919.362 125.53c.34-.816-1.736-16.045-6.667-22.666-4-5.41-10.503-10.373-17.773-11.733-3.8-.71-6.83 3.57-3.18 4.78 4.54 1.51 8.38 3.06 11.47 6l-13.55 7.3 10.32 27 19.38-10.68z"/>
        <path fill="#F0BB70" d="M809.362 282.03c4.13 4.3 8.375-2.124 8.375-2.124l26.625 3.875-5.42-42-5.4-.13-.097 31.047-24.958-5.355s-3.255 10.388.875 14.688"/>
        <path fill="#FDD455" d="M844.402 232.601v10.53a2.28 2.28 0 0 1-4.36.45l-1.31-5.21c-.08-.61-2.39 1.87-2.42 3.7-.05 3.26 2.92 6.78 1.26 8-1.66 1.22-5.29 7.32-7.48 3.32-2.42-4.41-1.19-10 .67-12.85 3.22-4.92 6.21-16.14 8-17.44a.289.289 0 0 1 .44.09l6.79 5.06c.06.01-1.57 4.28-1.59 4.35"/>
        <path fill="#F0BB70" d="M836.652 244.2s-6.2-5.3-3.48-10.19c1-1.75 5.77 2.56 6.2 4.51.43 1.95.08 3.32-2.17 5l-.55.68zM817.737 279.906l1.5 13.75s-11.875-6-11.875-19 10.375 5.25 10.375 5.25"/>
        <path fill="#FDD455" d="M905.013 224.168s-4.65 13.363-4.65 16.863 5.467 11.94 7.25 11.667c4.333-.667 1.75-8.667 2.25-13.167s3.599-14.733 3.599-14.733l-8.45-.63z"/>
        <path fill="#FF8F8F" d="M974.612 388.568L962.28 379.8l1.171 21.587h11.162z"/>
        <path fill="#FDD455" d="M948 189l14.418 199.883 12.649 1.139.79-201.002z"/>
        <path fill="url(#b)" d="M953 261l22.664 2.668v17.462H955.21zM955.077 285.272l20.587 13.532v39.801l-17.21-9.686z"/>
        <path fill="#D27777" d="M962.667 397.134c1.565 2.164 4.136 3.202 6.647 2.683 4.426-.783 5.376-1.566 5.376-1.566l-.789 16.446h-29.289l18.055-17.563z"/>
        <path fill="#FF8F8F" d="M1001.612 388.568L989.28 379.8l1.171 21.587h11.162z"/>
        <path fill="#FDD455" d="M970 189l18.751 199.883 12.649 1.139.79-201.002z"/>
        <path fill="#D27777" d="M989.667 397.134c1.565 2.164 4.136 3.202 6.647 2.683 4.426-.783 5.376-1.566 5.376-1.566l-.789 16.446h-29.289l18.055-17.563z"/>
        <path fill="#FF8F8F" d="M958.63 67.815v52l24.649-1-3.087-50z"/>
        <path fill="url(#b)" d="M977 264l24.394 2.668v17.462h-21.857zM982 318l19.328 14.971 2.304 14.971-18.67-3.776z"/>
        <path fill="#FF8F8F" d="M956.07 119.145s1.66 13.6 14 12.94c12.34-.66 11-14.41 11-14.41l-25 1.47zM940.81 59.175c-.242 15.82 12.386 28.844 28.207 29.087 15.82.242 28.843-12.386 29.087-28.208.242-15.82-12.387-28.843-28.208-29.087a29.463 29.463 0 0 0-9.297 1.367 28.26 28.26 0 0 0-19.788 26.84"/>
        <path fill="#61A1E7" d="M995.751 108.555c-6.588-12.12-13.396-11.61-13.396-11.61s1.292 5.83-11.398 7.29c-13.49 1.54-11.651-6.43-12.881-6.6-1.228-.17-11.556.73-13.394 1.8-3.636 1.504-8.336 3.93-10.438 12.93-1.923 2.224-2.882 56.166-2.882 56.166l-20 43.25 6.785 3.839 26.535-41.424 2.662 26.815 55.364.02v-77.5l-6.957-14.976z"/>
        <path fill="url(#n)" d="M928.012 129.44l26.035-2.802 65.31 6.14v51.93h-91.345z" transform="rotate(-90 973.685 155.673)"/>
        <path fill="url(#b)" d="M948.843 201h52.828v33.552H951.29z"/>
        <path fill="#61A1E7" d="M972.196 105.955c13.658-5.09 8.552-8.84 9.781-9 1.23-.16 21.956 1.076 27.56 7.076 11.206 8.334 4.693 33.364 4.693 33.364l-6.095 34.636-56.885 47.568-5.638-6.901 44.313-45.333 8.478-51.369"/>
        <path fill="#036D8E" d="M969.72 32.507c-15.124 0-27.43 12.305-27.43 27.428 0 15.124 12.306 27.43 27.43 27.43s27.429-12.305 27.429-27.43c0-15.123-12.305-27.428-27.43-27.428m0 56.858c-16.226 0-29.428-13.203-29.428-29.43s13.202-29.429 29.429-29.429c16.227 0 29.429 13.203 29.429 29.43 0 16.226-13.202 29.429-29.43 29.429"/>
        <path fill="#036D8E" d="M950.58 35.955s3.14 23.18-12.6 23.18c-2.8 0 2-32.17 31.7-32.17 30.8 0 32.28 29.85 32.28 29.85s-38.1 9.14-51.38-20.86"/>
        <path fill="#DF71DB" d="M938.33 49.675c.312-17.521 14.767-31.473 32.288-31.162 17.083.303 30.858 14.079 31.162 31.162"/>
        <path fill="#79E7F4" d="M932.553 258.973l124.6 16.73v-7.57l-124.6-16.74z"/>
        <path fill="#79E7F4" d="M932.553 258.973l98.8 117.76 3.79-7.58-98.8-117.76zM1146.843 352.453l-106.75 17.27-1.301 8.21 108.05-17.9z"/>
        <path fill="#79E7F4" d="M1038.792 377.933l33.511-154-7.58-1.26-33.511 154z"/>
        <path fill="#036D8E" d="M932.613 254.443h10.78v-30.48h-10.78z"/>
        <path fill="#036D8E" d="M943.393 230.763v-8a1.4 1.4 0 0 0-1.28-1.39l-60.731-5.15a1.39 1.39 0 0 0-1.51 1.39v8a1.39 1.39 0 0 0 1.27 1.39l60.74 5.15a1.388 1.388 0 0 0 1.51-1.39"/>
        <path fill="#79E7F4" d="M932.613 257.103h10.78v-8.56h-10.78z"/>
        <path fill="#036D8E" d="M903.152 259.903a26.087 26.087 0 0 0 11.36-2.51 4.38 4.38 0 0 0 1.894-5.898l-.054-.102a4.52 4.52 0 0 0-6.05-1.83 17.52 17.52 0 0 1-13.81.14c-6.8-2.81-7.36-18.13-7.57-23.9 0-.67 0-1.27-.08-1.8a4.504 4.504 0 1 0-9 .41c0 .507.02 1.076.06 1.71.32 8.68 1 26.73 13.07 31.73a26.305 26.305 0 0 0 10.18 2.05M1075.962 225.273c7.66-1.32 12.29-12.28 12.29-12.28 2.21-2.22 4.08-5.13 2.92-6.51-2-2-8.23-5.38-10.45-3.17l-54.6 15.21.83 7.29c-2.18 2.26 41.39.77 49.01-.54M888.962 266.763c49.02 0 88.76 39.739 88.76 88.76 0 49.02-39.74 88.76-88.76 88.76-49.021 0-88.76-39.74-88.76-88.76 0-49.021 39.739-88.76 88.76-88.76m0 7.58c-44.834 0-81.18 36.345-81.18 81.18 0 44.834 36.346 81.18 81.18 81.18 44.835 0 81.18-36.346 81.18-81.18-.055-44.811-36.367-81.125-81.18-81.18M1144.202 266.763c49.021 0 88.76 39.739 88.76 88.76 0 49.02-39.739 88.76-88.76 88.76-49.02 0-88.76-39.74-88.76-88.76 0-49.021 39.74-88.76 88.76-88.76m0 7.58c-44.834 0-81.18 36.345-81.18 81.18 0 44.834 36.346 81.18 81.18 81.18 44.835 0 81.18-36.346 81.18-81.18-.049-44.814-36.366-81.131-81.18-81.18"/>
        <path fill="#79E7F4" d="M895.292 352.443l48.54-99.47-8.83-.3-48.55 99.459z"/>
        <path fill="#036D8E" d="M888.952 346.753a8.77 8.77 0 0 0 0 17.54 8.77 8.77 0 1 0 0-17.54"/>
        <path fill="#79E7F4" d="M1146.843 353.723l-89.07-74.48-3.79 6.32 89.07 74.47z"/>
        <path fill="#036D8E" d="M1144.202 346.753a8.77 8.77 0 0 0 0 17.54 8.77 8.77 0 1 0 0-17.54M1035.143 342.052c-14.298 0-25.931 11.633-25.931 25.931 0 14.298 11.633 25.93 25.93 25.93 14.299 0 25.93-11.632 25.93-25.93s-11.631-25.93-25.93-25.93m0 54.86c-15.951 0-28.93-12.978-28.93-28.93s12.979-28.93 28.93-28.93c15.953 0 28.93 12.978 28.93 28.93s-12.977 28.93-28.93 28.93"/>
        <path fill="#FF8F8F" d="M913.545 219.97l-8.608-.223c.287-.5-3.971 1.933-5.03 3.293-1.9 2.442-1.645 4.65-3.58 4.722-1.934.072-3.581-1.192-2.981-5.351.687-4.54 4.79-8.15 7.798-9.367 5.222-2.1 11.639-3.022 11.656-2.885.003.022 4.975 5.284 4.975 5.284-.028.029-.891 2.516-1.781 3.116-.932.629-2.422 1.387-2.45 1.412M951.25 219.598s-4.971 5.1-7.305 5.433c-2.333.333-8 .333-8 .333s-1.636 7.841-7 8.667c-4.333.667-8.598-14.462-2.666-16 9-2.333 19.333-5.333 19.333-5.333l5.638 6.9z"/>
    </g>
</svg>
