<svg xmlns="http://www.w3.org/2000/svg" xmlns:xlink="http://www.w3.org/1999/xlink" width="54" height="180" viewBox="0 0 54 180">
    <defs>
        <path id="a" d="M0 180h53.246V0H0z"/>
    </defs>
    <g fill="none" fill-rule="evenodd">
        <path fill="#0F91C2" d="M18 180h11.492L45 158H33.686z" opacity=".15"/>
        <path fill="#F0BB70" d="M47.615 70.752l-1.96 22.019 4.061.52 3.53-22.64-3.52-23.966-8.534-2.553zM4.482 47.391L.474 68.788l-.215 27 4.223-.152 2.714-25.79L13.38 46.32z"/>
        <g>
            <path fill="#0679A4" d="M31.628 163.655s-.163 2.71 1.194 2.935c1.357.226 4.75-.226 4.75-.226s6.108-7.918 4.298-9.275c-1.809-1.357-7.238 2.941-7.238 2.941l-3.004 3.625z"/>
            <path fill="#4891D3" d="M16.23 81.52l9.366 38.096 6.032 44.04 5.732-.303-2.715-53.044-6.032-38.006z"/>
            <path fill="#61A1E7" d="M28.21 73.112v43.927l-8.145 52.498 4.726 3.368 13.875-52.183 1.377-39.213z"/>
            <mask id="b" fill="#fff">
                <use xlink:href="#a"/>
            </mask>
            <path fill="#F0BB70" d="M21.352 32.061H32.95v-8.446H21.352z" mask="url(#b)"/>
            <path fill="#F0BB70" d="M16.178 13.14C16.178 5.882 21.295 0 27.608 0c6.31 0 11.427 5.882 11.427 13.14 0 7.257-5.117 13.14-11.428 13.14-6.312 0-11.429-5.883-11.429-13.14" mask="url(#b)"/>
            <path fill="#0679A4" d="M15.993 11.23c0 5.93 5.359 7.037 11.879 7.037 8.684 0 11.54-1.944 11.54-7.873 0 0-.495-10.394-11.2-10.394-11.555 0-12.219 11.23-12.219 11.23" mask="url(#b)"/>
            <path fill="#FF8F8F" d="M21.273 28.423s-11.008 2.75-14.24 10.732c-2.386 5.898-2.551 8.237-2.551 8.237h4.814L16.23 81.52l23.844.089 2.582-34.925h7.07s-1.228-6.653-3.117-9.213c-4.525-6.133-13.674-8.848-13.674-8.848l-11.663-.201z" mask="url(#b)"/>
            <path fill="#0679A4" d="M19.714 171.497s4.424 8.194 7.742 8.496c3.318.302-1.86-9.25-1.86-9.25s-6.486-4.072-5.882.754" mask="url(#b)"/>
            <path fill="#F0BB70" d="M4.391 94.848l2.527 4.674c.121 1.755-2.558-.627-2.558-.627s.095 5.127-.516 5.662c-.611.534-2.903.382-3.564-1.31-.662-1.69.059-7.755.059-7.755l4.052-.644zM45.921 91.733l-3.534 3.968c-.522 1.68 2.634-.023 2.634-.023s-2.1 4.577-1.628 5.24c.471.66 2.737 1.04 3.77-.456 1.032-1.494 2.553-7.17 2.553-7.17l-3.795-1.559z" mask="url(#b)"/>
            <path fill="#FF8F8F" d="M4.482 47.391l-1.66 8.58 7.542 2.413 1.357-4.976-.302-8.145zM49.727 46.684l1.508 8.985-6.787 2.113-3.318-12.368h4.525z" mask="url(#b)"/>
        </g>
    </g>
</svg>
