<svg xmlns="http://www.w3.org/2000/svg" xmlns:xlink="http://www.w3.org/1999/xlink" width="386" height="221"><defs><path id="a" d="M0 220.868h385.687V0H0z"/></defs><g fill="none" fill-rule="evenodd"><path fill="#DF71DB" d="M378.829 98.529h-27.13A6.699 6.699 0 01345 91.83V64.699A6.7 6.7 0 01351.699 58h27.13c3.7 0 6.699 3 6.699 6.699V91.83c0 3.7-2.999 6.699-6.699 6.699"/><path fill="#F0BB70" d="M352 78.185c0 7.282 6.002 13.185 13.405 13.185s13.405-5.903 13.405-13.185c0-7.282-6.002-13.185-13.405-13.185-1.44 0-2.828.224-4.128.637C355.894 67.35 352 72.32 352 78.185"/><path fill="#FDD455" d="M378.921 75.062s-3.394 1.287-5.967-5.265c0 0-7.605 2.73-18.954 1.521 0 0 3.873-6.283 10.998-6.318 8.924-.043 12.753 5.265 13.923 10.062"/><path fill="#7086F4" d="M150.829 220.529h-27.13A6.7 6.7 0 01117 213.83v-27.131c0-3.7 2.999-6.699 6.699-6.699h27.13a6.7 6.7 0 016.7 6.699v27.131a6.7 6.7 0 01-6.7 6.699"/><path fill="#FF8F8F" d="M124 199.822c0 7.082 5.837 12.822 13.036 12.822 7.2 0 13.036-5.74 13.036-12.822 0-7.082-5.836-12.822-13.036-12.822-1.4 0-2.749.217-4.014.619-5.235 1.665-9.022 6.499-9.022 12.203"/><path fill="#0679A4" d="M150.386 199.993s-8.362-4.018-8.969-8.114c0 0-7.054-.074-11.417-2.54 0 0 2.926-2.122 6.447-2.313 7.377-.401 14.251 3.919 13.939 12.967"/><path fill="#0679A4" d="M139.783 187.283l-14.675 12.432s-1.055-6.01 3.443-10.092c4.21-3.822 11.232-2.34 11.232-2.34"/><path fill="#FDD455" d="M125 194.399h24.336S147.347 185 137.168 185c-11.467 0-12.168 9.399-12.168 9.399"/><path fill="#F0BB70" d="M125 194h24.336s-3.276 4.212-11.467 4.212C128.627 198.212 125 194 125 194"/><path fill="#61A1E7" d="M261.829 220.529h-27.13A6.7 6.7 0 01228 213.83v-27.131c0-3.7 2.999-6.699 6.699-6.699h27.13a6.7 6.7 0 016.7 6.699v27.131a6.7 6.7 0 01-6.7 6.699"/><path fill="#FDD455" d="M235 200.185c0 7.282 6.002 13.185 13.404 13.185 7.404 0 13.406-5.903 13.406-13.185 0-7.282-6.002-13.185-13.406-13.185-1.439 0-2.827.224-4.127.637-5.383 1.712-9.277 6.683-9.277 12.548"/><path fill="#0679A4" d="M262.369 199.022s-8.923-3.819-9.547-8.031c0 0-6.474 7.918-17.822 6.709 0 0 2.418-11.7 12.712-11.7 9.059 0 14.189 5.378 14.657 13.022"/><path fill="#0F91C2" d="M306.536 158.042H79c-5.523 0-10-4.477-10-10V10c0-5.523 4.477-10 10-10h227.536c5.523 0 10 4.477 10 10v138.042c0 5.523-4.477 10-10 10"/><path fill="#FF8F8F" d="M93.473 18.236A5.237 5.237 0 1183 18.235a5.237 5.237 0 0110.473.001"/><path fill="#FDD455" d="M111.473 18.236A5.237 5.237 0 11101 18.235a5.237 5.237 0 0110.473.001"/><path fill="#7AF5A3" d="M129.473 18.236A5.237 5.237 0 11119 18.235a5.237 5.237 0 0110.473.001"/><path fill="#0679A4" d="M231.11 57.774A6.774 6.774 0 00224.336 51h-61.561A6.774 6.774 0 00156 57.774v14.769h75.11V57.774z"/><path fill="#79E7F4" d="M156 72v41.682a6.775 6.775 0 006.775 6.775h61.561a6.774 6.774 0 006.774-6.775V72H156z"/><path fill="#FFF" d="M169.293 61.433A2.292 2.292 0 01167 59.141V44.293a2.293 2.293 0 114.586 0v14.848a2.292 2.292 0 01-2.293 2.292m48 0A2.292 2.292 0 01215 59.141V44.293a2.293 2.293 0 114.585 0v14.848a2.292 2.292 0 01-2.292 2.292"/><mask id="b" fill="#fff"><use xlink:href="#a"/></mask><path fill="#0F91C2" d="M175 91.677h37.555V86H175zm7 12h23.327V98H182z" mask="url(#b)"/><path stroke="#0679A4" stroke-width="1.5" d="M40 79h62.666" mask="url(#b)"/><path fill="#0679A4" d="M103.778 78.068L95 73v10.136z" mask="url(#b)"/><path stroke="#0679A4" stroke-width="1.5" d="M346.667 79H284" mask="url(#b)"/><path fill="#0679A4" d="M283 78.068L291.778 73v10.136z" mask="url(#b)"/><path fill="#FF8F8F" d="M33.83 98.529H6.699A6.699 6.699 0 010 91.83V64.699A6.7 6.7 0 016.699 58H33.83a6.7 6.7 0 016.699 6.699V91.83c0 3.7-3 6.699-6.699 6.699" mask="url(#b)"/><path fill="#61A1E7" d="M4 88.776h33.813L34.378 78.09 4.44 77z" mask="url(#b)"/><path fill="#FDD455" d="M33.815 78.207c.11 7.404-5.801 13.497-13.205 13.608-7.404.111-13.497-5.801-13.608-13.206-.112-7.404 5.8-13.496 13.205-13.608l.205-.001c1.399.002 2.79.22 4.123.646a13.21 13.21 0 019.28 12.561" mask="url(#b)"/><path fill="#61A1E7" d="M18.806 68.564s.847 16.703 16.291 13.895C36.386 82.225 34.002 63 20.103 63 5.688 63 5 76.969 5 76.969s8.335 1.746 13.806-8.405" mask="url(#b)"/><path stroke="#0679A4" stroke-width="1.5" d="M138 180.667V118" mask="url(#b)"/><path fill="#0679A4" d="M137.068 117L132 125.778h10.136z" mask="url(#b)"/><path stroke="#0679A4" stroke-width="1.5" d="M249 180.667V118" mask="url(#b)"/><path fill="#0679A4" d="M249.068 117L244 125.778h10.136z" mask="url(#b)"/></g></svg>