<svg xmlns="http://www.w3.org/2000/svg" xmlns:xlink="http://www.w3.org/1999/xlink" width="328" height="110" viewBox="0 0 328 110">
    <defs>
        <path id="a" d="M0 110h328V0H0z"/>
    </defs>
    <g fill="none" fill-rule="evenodd">
        <path fill="#0F91C2" d="M228 28.805c0-4.862-3.877-8.805-8.66-8.805h-78.682c-4.782 0-8.658 3.943-8.658 8.805V48h96V28.805z"/>
        <path fill="#79E7F4" d="M132 48v53.332c0 4.788 3.876 8.668 8.658 8.668h78.682c4.783 0 8.66-3.88 8.66-8.668V48h-96zM149.549 33h-1.098c-1.354 0-2.451-1.079-2.451-2.41V10.41C146 9.08 147.097 8 148.451 8h1.098C150.9 8 152 9.079 152 10.41v20.18c0 1.331-1.099 2.41-2.451 2.41M211.55 33h-1.1c-1.352 0-2.45-1.079-2.45-2.41V10.41C208 9.08 209.098 8 210.45 8h1.1c1.352 0 2.45 1.079 2.45 2.41v20.18c0 1.331-1.098 2.41-2.45 2.41"/>
        <mask id="b" fill="#fff">
            <use xlink:href="#a"/>
        </mask>
        <path fill="#0F91C2" d="M156 72h48v-7h-48zM165 88h30v-7h-30z" mask="url(#b)"/>
        <path fill="#79E7F4" d="M328 32.371C328 50.249 295.501 110 295.501 110S263 50.25 263 32.371C263 14.493 277.551 0 295.501 0 313.45 0 328 14.493 328 32.371" mask="url(#b)"/>
        <path fill="#0F91C2" d="M315 32.5c0 10.77-8.73 19.5-19.5 19.5-10.769 0-19.5-8.73-19.5-19.5S284.731 13 295.5 13c10.77 0 19.5 8.73 19.5 19.5" mask="url(#b)"/>
        <path fill="#FFF" d="M307 32.5c0 6.352-5.15 11.5-11.5 11.5S284 38.852 284 32.5 289.15 21 295.5 21 307 26.148 307 32.5" mask="url(#b)"/>
        <path fill="#79E7F4" d="M89.638 110H6.361C2.848 110 0 107.146 0 103.628V28h96v75.628c0 3.518-2.848 6.372-6.362 6.372" mask="url(#b)"/>
        <path fill="#0F91C2" d="M96 29H0V17.536C0 13.926 2.848 11 6.36 11h83.278C93.152 11 96 13.926 96 17.536V29z" mask="url(#b)"/>
        <path fill="#79E7F4" d="M88.627 23H50.374A2.376 2.376 0 0 1 48 20.622v-1.244A2.376 2.376 0 0 1 50.374 17h38.253A2.376 2.376 0 0 1 91 19.378v1.244A2.376 2.376 0 0 1 88.627 23" mask="url(#b)"/>
        <path fill="#FDD455" d="M68.658 23H50.344C49.049 23 48 21.935 48 20.622v-1.244C48 18.065 49.05 17 50.344 17h18.314C69.952 17 71 18.065 71 19.378v1.244C71 21.935 69.952 23 68.658 23" mask="url(#b)"/>
        <path fill="#FFF" d="M14 19.5a4.5 4.5 0 1 1-8.999.001A4.5 4.5 0 0 1 14 19.5" mask="url(#b)"/>
        <path fill="#0F91C2" d="M17 56h63v-6H17zM17 72h41v-6H17z" mask="url(#b)"/>
    </g>
</svg>
