<svg xmlns="http://www.w3.org/2000/svg" xmlns:xlink="http://www.w3.org/1999/xlink" width="386" height="221"><defs><path id="a" d="M.158.889h40.529v40.529H.158z"/><path id="c" d="M0 .889h40.529v40.529H0z"/><path id="e" d="M.975.471h40.529V41H.974z"/><path id="g" d="M.183.471h40.53V41H.182z"/></defs><g fill="none" fill-rule="evenodd"><path fill="#0F91C2" d="M306.535 158.042H79c-5.524 0-10-4.478-10-10V10c0-5.523 4.476-10 10-10h227.535c5.523 0 10 4.477 10 10v138.042c0 5.522-4.477 10-10 10"/><path fill="#FF8F8F" d="M93.473 18.236A5.237 5.237 0 1183 18.235a5.237 5.237 0 0110.473.001"/><path fill="#FDD455" d="M111.473 18.236A5.237 5.237 0 11101 18.235a5.237 5.237 0 0110.473.001"/><path fill="#7AF5A3" d="M129.473 18.236A5.237 5.237 0 11119 18.235a5.237 5.237 0 0110.473.001"/><path fill="#79E7F4" d="M217 70.72c0 13.653-24.5 59.28-24.5 59.28S168 84.373 168 70.72C168 57.068 178.97 46 192.5 46S217 57.068 217 70.72"/><path fill="#0F91C2" d="M207 70.5c0 8.008-6.492 14.5-14.5 14.5S178 78.508 178 70.5 184.492 56 192.5 56 207 62.492 207 70.5"/><path fill="#FFF" d="M201 71c0 4.97-3.805 9-8.5 9-4.694 0-8.5-4.03-8.5-9 0-4.972 3.806-9 8.5-9 4.695 0 8.5 4.028 8.5 9"/><path fill="#0679A4" d="M297.354 52.793l-26.045-.084A7.333 7.333 0 01264 45.353l.084-26.044A7.333 7.333 0 01271.44 12l26.045.084a7.332 7.332 0 017.308 7.356l-.084 26.044a7.332 7.332 0 01-7.355 7.309"/><path fill="#61A1E7" d="M292 29.38a5.397 5.397 0 1010.795.035A5.397 5.397 0 00292 29.38"/><path fill="#FF8F8F" d="M271 33.18c-.024 7.302 5.976 13.242 13.4 13.266 7.424.024 13.462-5.877 13.486-13.18.023-7.302-5.977-13.242-13.4-13.266a13.635 13.635 0 00-4.142.626c-5.405 1.7-9.325 6.672-9.344 12.554"/><path fill="#61A1E7" d="M297.261 30.704s-8.597-2.53-9.209-6.757c0 0-10.674 11.035-22.052 9.785 0 0 2.981-14.775 16.122-14.732 9.087.03 13.832 4.27 15.139 11.704"/><path fill="#FDD455" d="M296.677 48.412l-2.272 1.581.801-2.649L293 45.671l2.768-.056.909-2.615.908 2.615 2.768.056-2.206 1.673.801 2.649z"/><path stroke="#0679A4" stroke-width="1.5" d="M40 79h62.667"/><path fill="#0679A4" d="M103.778 79.068L95 74v10.136z"/><path stroke="#0679A4" stroke-width="1.5" d="M346.667 79H284"/><path fill="#0679A4" d="M283 79.068L291.778 74v10.136z"/><g transform="translate(345 58)"><mask id="b" fill="#fff"><use xlink:href="#a"/></mask><path fill="#DF71DB" d="M33.987 41.418H6.857a6.7 6.7 0 01-6.699-6.7V7.589a6.7 6.7 0 016.7-6.7h27.13c3.7 0 6.7 3 6.7 6.7v27.13a6.7 6.7 0 01-6.7 6.7" mask="url(#b)"/></g><path fill="#F0BB70" d="M352 78.185c0 7.282 6.001 13.185 13.404 13.185 7.404 0 13.405-5.903 13.405-13.185 0-7.282-6.001-13.185-13.405-13.185-1.44 0-2.828.224-4.128.637C355.893 67.349 352 72.32 352 78.185"/><path fill="#FDD455" d="M378.921 75.062s-3.393 1.287-5.967-5.265c0 0-7.605 2.73-18.954 1.521 0 0 3.873-6.283 10.998-6.318 8.925-.043 12.753 5.265 13.923 10.062"/><g transform="translate(0 58)"><mask id="d" fill="#fff"><use xlink:href="#c"/></mask><path fill="#FF8F8F" d="M33.83 41.418H6.699a6.7 6.7 0 01-6.7-6.7V7.589a6.7 6.7 0 016.7-6.7h27.13c3.7 0 6.7 3 6.7 6.7v27.13a6.7 6.7 0 01-6.7 6.7" mask="url(#d)"/></g><path fill="#61A1E7" d="M4 88.776h33.813L34.378 78.09 4.44 77z"/><path fill="#FDD455" d="M32.815 78.207c.11 7.404-5.801 13.497-13.205 13.607-7.404.112-13.497-5.8-13.608-13.205-.112-7.404 5.8-13.497 13.206-13.608l.204-.001c1.399.002 2.79.22 4.123.645a13.212 13.212 0 019.28 12.562"/><path fill="#61A1E7" d="M18.806 68.564s.848 16.703 16.291 13.895C36.386 82.224 34.002 63 20.103 63 5.688 63 5 76.969 5 76.969s8.335 1.746 13.806-8.405"/><g transform="translate(116 180)"><mask id="f" fill="#fff"><use xlink:href="#e"/></mask><path fill="#7086F4" d="M34.804 41H7.674a6.7 6.7 0 01-6.7-6.7V7.17c0-3.7 3-6.699 6.7-6.699h27.13a6.7 6.7 0 016.7 6.7V34.3c0 3.7-3 6.7-6.7 6.7" mask="url(#f)"/></g><path fill="#FF8F8F" d="M124 199.823c0 7.082 5.836 12.822 13.036 12.822 7.199 0 13.036-5.74 13.036-12.822 0-7.082-5.837-12.823-13.036-12.823-1.401 0-2.75.218-4.015.62-5.235 1.665-9.021 6.499-9.021 12.203"/><path fill="#0679A4" d="M150.387 199.993s-8.363-4.018-8.97-8.114c0 0-7.054-.074-11.417-2.54 0 0 2.926-2.122 6.447-2.313 7.378-.401 14.252 3.919 13.94 12.967"/><path fill="#0679A4" d="M138.783 188.283l-14.675 12.432s-1.055-6.01 3.443-10.092c4.21-3.822 11.232-2.34 11.232-2.34"/><path fill="#FDD455" d="M125 194.399h24.336S147.347 185 137.168 185c-11.466 0-12.168 9.399-12.168 9.399"/><path fill="#F0BB70" d="M125 194h24.336s-3.276 4.212-11.466 4.212C128.627 198.212 125 194 125 194"/><path stroke="#0679A4" stroke-width="1.5" d="M137 180.667V118"/><path fill="#0679A4" d="M137.068 117L132 125.779h10.136z"/><g transform="translate(228 180)"><mask id="h" fill="#fff"><use xlink:href="#g"/></mask><path fill="#61A1E7" d="M34.014 41H6.881a6.7 6.7 0 01-6.698-6.7V7.17c0-3.7 3-6.699 6.699-6.699h27.13a6.7 6.7 0 016.7 6.7V34.3c0 3.7-3 6.7-6.7 6.7" mask="url(#h)"/></g><path fill="#FDD455" d="M235 200.185c0 7.282 6.002 13.185 13.404 13.185 7.404 0 13.406-5.903 13.406-13.185 0-7.282-6.002-13.185-13.406-13.185-1.439 0-2.827.224-4.127.637-5.383 1.712-9.277 6.683-9.277 12.548"/><path fill="#0679A4" d="M262.369 199.022s-8.923-3.819-9.546-8.031c0 0-6.475 7.918-17.823 6.709 0 0 2.418-11.7 12.712-11.7 9.059 0 14.189 5.378 14.657 13.022"/><path stroke="#0679A4" stroke-width="1.5" d="M249 180.667V118"/><path fill="#0679A4" d="M249.068 117L244 125.779h10.136z"/></g></svg>