<svg xmlns="http://www.w3.org/2000/svg" width="553" height="239"><g fill="none" fill-rule="evenodd"><path fill="#0F91C2" d="M396.536 198.042H169c-5.523 0-10-4.477-10-10V50c0-5.522 4.477-10 10-10h227.536c5.522 0 10 4.478 10 10v138.042c0 5.523-4.478 10-10 10"/><path fill="#FF8F8F" d="M183.473 59.236a5.236 5.236 0 11-10.473 0 5.236 5.236 0 0110.473 0"/><path fill="#FDD455" d="M201.473 59.236a5.236 5.236 0 11-10.473 0 5.236 5.236 0 0110.473 0"/><path fill="#7AF5A3" d="M219.473 59.236a5.236 5.236 0 11-10.473 0 5.236 5.236 0 0110.473 0"/><path stroke="#0679A4" stroke-width="1.5" d="M292 119h186.539M443.41 32L282 119.717l161.41 87.716"/><path fill="#FDD455" d="M126.091 96.529l-25.782-.083A7.333 7.333 0 0193 89.09l.083-25.782A7.332 7.332 0 01100.439 56l25.782.083a7.331 7.331 0 017.308 7.355l-.083 25.782a7.332 7.332 0 01-7.355 7.309"/><path fill="#FF8F8F" d="M100 75.864c-.022 7.128 5.833 12.925 13.08 12.95 7.247.022 13.14-5.737 13.163-12.865.024-7.128-5.833-12.925-13.08-12.949a13.289 13.289 0 00-4.042.611c-5.275 1.658-9.102 6.512-9.12 12.253"/><path fill="#0679A4" d="M126.308 76.518s-4.41-4.479-5.007-8.604c0 0-3.935 1.74-7.621 1.467-3.684-.272-7.632-2.165-8-2.302-.252-.094.287 2.806-1.43 5.02-1.757 2.266-4.25 3.127-4.25 3.127.012-3.534 3.113-13.259 13.469-13.226 8.165.027 13.183 5.412 12.839 14.518"/><path fill="#DF71DB" d="M126.091 182.529l-25.782-.083A7.332 7.332 0 0193 175.091l.083-25.783a7.332 7.332 0 017.356-7.308l25.782.083a7.331 7.331 0 017.308 7.356l-.083 25.781a7.331 7.331 0 01-7.355 7.309"/><path fill="#FF8F8F" d="M100 163.094c-.023 7.256 5.937 13.157 13.313 13.181 7.377.023 13.376-5.839 13.4-13.095.022-7.255-5.939-13.156-13.315-13.18a13.567 13.567 0 00-4.115.621c-5.369 1.69-9.264 6.63-9.283 12.473"/><path fill="#0679A4" d="M126.267 162.021s-8.878-3.834-9.486-8.033c0 0-6.476 7.87-17.781 6.63 0 0 2.448-11.652 12.704-11.618 9.028.028 14.122 5.403 14.563 13.021"/><path stroke="#0679A4" stroke-width="1.5" d="M90.477 119H228.74"/><path fill="#0679A4" d="M64.09 201.66l-25.782-.083A7.332 7.332 0 0131 194.222l.084-25.783a7.33 7.33 0 017.356-7.307l25.782.083a7.329 7.329 0 017.307 7.355l-.083 25.782a7.33 7.33 0 01-7.355 7.308"/><path fill="#61A1E7" d="M59 178.345a5.362 5.362 0 005.346 5.38A5.362 5.362 0 1064.38 173a5.364 5.364 0 00-5.38 5.345"/><path fill="#FF8F8F" d="M38 182.094c-.023 7.256 5.937 13.157 13.313 13.181 7.377.023 13.376-5.839 13.4-13.095.023-7.255-5.938-13.156-13.315-13.18a13.545 13.545 0 00-4.115.621c-5.369 1.69-9.264 6.63-9.283 12.473"/><path fill="#61A1E7" d="M64.059 179.63s-8.541-2.516-9.148-6.715c0 0-10.606 10.964-21.911 9.723 0 0 2.962-14.68 16.019-14.638 9.027.03 13.743 4.241 15.04 11.63"/><path fill="#79E7F4" d="M33.09 141.529l-25.782-.083A7.331 7.331 0 010 134.091l.083-25.783A7.332 7.332 0 017.439 101l25.782.083a7.332 7.332 0 017.308 7.356l-.084 25.782a7.33 7.33 0 01-7.355 7.308"/><path fill="#DF71DB" d="M5 119.751l.745 9.951 29.223.094.342-9.636s-8.674-9.665-12.403-10.144C19.178 109.538 5 119.751 5 119.751"/><path fill="#F0BB70" d="M7 122.094c-.023 7.255 5.937 13.157 13.313 13.18 7.377.024 13.375-5.838 13.4-13.094.022-7.255-5.939-13.157-13.315-13.18a13.536 13.536 0 00-4.115.621c-5.369 1.69-9.264 6.63-9.283 12.473"/><path fill="#DF71DB" d="M21.42 112.53s-8.76 9.45-16.103 9.425c-1.302-.005.983-15 14.831-14.955 14.364.046 15.007 13.967 15.007 13.967s-7.587 5.571-13.735-8.438"/><path fill="#FF8F8F" d="M64.09 80.662l-25.782-.083A7.333 7.333 0 0131 73.224l.084-25.783a7.331 7.331 0 017.356-7.308l25.782.083a7.33 7.33 0 017.307 7.355l-.083 25.782a7.33 7.33 0 01-7.355 7.31"/><path fill="#0679A4" d="M50.042 70.91c-8.692-.367-15.42-8.25-15.026-17.61.393-9.362 7.76-16.653 16.452-16.287 8.693.365 15.421 8.25 15.027 17.61-.393 9.36-7.76 16.652-16.453 16.286"/><path fill="#F0BB70" d="M63.631 63.113c0 6.69-5.514 12.114-12.315 12.114C44.514 75.227 39 69.803 39 63.113S44.514 51 51.316 51c1.323 0 2.597.205 3.792.585 4.946 1.573 8.523 6.139 8.523 11.528"/><path fill="#0679A4" d="M44.995 52s1.474 6.042-6.042 9.285c-5.44 2.346 2.21-9.138 2.21-9.138L44.995 52zm12.122 0s-1.474 6.042 6.043 9.285c5.439 2.346-2.211-9.138-2.211-9.138L57.117 52z"/><path fill="#0679A4" d="M43 51.505s1.474 2.505 7.516 2.505c6.043 0 9.58-2.652 9.58-2.652L46.832 49 43 51.505z"/><path fill="#FFF" d="M325.407 119.704c0 23.584-19.119 42.704-42.704 42.704-23.584 0-42.703-19.12-42.703-42.704C240 96.119 259.119 77 282.703 77c23.585 0 42.704 19.119 42.704 42.704"/><path fill="#0F91C2" d="M271.442 118.517v-.184c0-3.383-1.888-5.893-5.109-5.893-3.225 0-5.134 2.371-5.134 5.916v.183c0 3.592 2.187 5.917 5.179 5.917 3.107 0 5.064-2.371 5.064-5.939m-13.442.047v-.186c0-4.809 3.452-8.378 8.333-8.378 4.902 0 8.286 3.477 8.286 8.311v.184c0 4.811-3.291 8.424-8.286 8.424-5.042 0-8.333-3.613-8.333-8.355m25.525-.945c2.049 0 3.131-.875 3.131-2.624v-.092c0-1.887-1.176-2.532-3.131-2.532h-2.464v5.248h2.464zM278 110h5.525c3.614 0 6.146 1.473 6.146 4.834v.092c0 2.579-1.612 3.891-3.661 4.42l4.626 7.112h-3.313l-4.306-6.651h-1.956v6.651H278V110zm14 8.586v-.186c0-4.901 3.408-8.4 8.217-8.4 3.522 0 6.654 1.612 7.091 5.547h-3.061c-.369-2.187-1.843-3.131-3.983-3.131-3.222 0-5.087 2.395-5.087 6.009v.183c0 3.522 1.635 5.94 5.087 5.94 3.086 0 4.35-1.865 4.442-4.144h-4.143v-2.302h7.159v1.519c0 4.558-2.855 7.32-7.505 7.32-5.271 0-8.217-3.499-8.217-8.355m-227.183 8.276l13.047-13.047a3.408 3.408 0 00-4.818-4.817L60 122.045l4.817 4.817z"/><path fill="#FDD455" d="M59.974 122L58 128.791l6.791-1.974z"/><path fill="#0679A4" d="M58.977 125L58 128.36l3.361-.977z"/><path fill="#79E7F4" d="M549.026 149.256h-51.122a3.905 3.905 0 01-3.904-3.905V99h58.931v46.351a3.906 3.906 0 01-3.905 3.905"/><path fill="#0F91C2" d="M552.932 99.754H494v-6.849A3.905 3.905 0 01497.905 89h51.122a3.906 3.906 0 013.905 3.905v6.849z"/><path fill="#79E7F4" d="M547.5 96.667h-22.667a1.833 1.833 0 010-3.667H547.5a1.833 1.833 0 010 3.667"/><path fill="#FDD455" d="M535.436 96.667h-10.603a1.834 1.834 0 010-3.667h10.603a1.834 1.834 0 110 3.667"/><path fill="#FFF" d="M499.894 96.79a2.895 2.895 0 11.001-5.79 2.895 2.895 0 01-.001 5.79z"/><path fill="#0F91C2" d="M504 116.667h38.417V113H504zm0 10h24.903V123H504z"/><path fill="#79E7F4" d="M512.026 61.256h-51.122A3.904 3.904 0 01457 57.351V11h58.931v46.351a3.905 3.905 0 01-3.905 3.905"/><path fill="#0F91C2" d="M515.932 10.754H457V3.905A3.905 3.905 0 01460.905 0h51.122a3.906 3.906 0 013.905 3.905v6.849z"/><path fill="#79E7F4" d="M510.5 7.667h-22.667a1.833 1.833 0 110-3.667H510.5a1.833 1.833 0 010 3.667"/><path fill="#FDD455" d="M498.436 7.667h-10.603a1.833 1.833 0 010-3.667h10.603a1.834 1.834 0 110 3.667"/><path fill="#FFF" d="M465.789 5.895a2.895 2.895 0 11-5.79 0 2.895 2.895 0 015.79 0"/><path fill="#0F91C2" d="M467 27.667h38.417V24H467zm0 10h24.903V34H467z"/><path fill="#79E7F4" d="M512.026 238.256h-51.122a3.905 3.905 0 01-3.904-3.905V188h58.931v46.351a3.906 3.906 0 01-3.905 3.905"/><path fill="#0F91C2" d="M515.932 188.754H457v-6.849a3.905 3.905 0 013.905-3.905h51.122a3.906 3.906 0 013.905 3.905v6.849z"/><path fill="#79E7F4" d="M510.5 184.667h-22.667a1.833 1.833 0 010-3.667H510.5a1.833 1.833 0 110 3.667"/><path fill="#FDD455" d="M498.436 184.667h-10.603a1.834 1.834 0 010-3.667h10.603a1.834 1.834 0 110 3.667"/><path fill="#FFF" d="M465.789 182.895a2.895 2.895 0 11-5.79.002 2.895 2.895 0 015.79-.002"/><path fill="#0F91C2" d="M467 204.667h38.417V201H467zm0 9.999h24.903V211H467z"/><path fill="#0679A4" d="M233.778 119.068L225 114v10.136zm250 0L475 114v10.136zM445.137 31H435l5.069 8.778zm0 177.778H435l5.069-8.778z"/></g></svg>