<svg xmlns="http://www.w3.org/2000/svg" width="379" height="222" viewBox="0 0 379 222">
    <g fill="none" fill-rule="evenodd">
        <path fill="#0F91C2" d="M303.535 158.042H76c-5.524 0-10-4.478-10-10V10c0-5.523 4.476-10 10-10h227.535c5.523 0 10 4.477 10 10v138.042c0 5.522-4.477 10-10 10"/>
        <path fill="#FF8F8F" d="M89.473 18.236A5.237 5.237 0 1 1 79 18.235a5.237 5.237 0 0 1 10.473.001"/>
        <path fill="#FDD455" d="M107.473 18.236A5.237 5.237 0 1 1 97 18.235a5.237 5.237 0 0 1 10.473.001"/>
        <path fill="#7AF5A3" d="M126.473 18.236A5.237 5.237 0 1 1 116 18.235a5.237 5.237 0 0 1 10.473.001"/>
        <path fill="#79E7F4" d="M144.026 135.256H92.905A3.905 3.905 0 0 1 89 131.351V85h58.931v46.351a3.905 3.905 0 0 1-3.905 3.905"/>
        <path fill="#0679A4" d="M147.932 85.754H89v-6.85A3.905 3.905 0 0 1 92.906 75h51.121a3.904 3.904 0 0 1 3.905 3.904v6.85z"/>
        <path fill="#79E7F4" d="M142.5 81.667h-22.666a1.833 1.833 0 1 1 0-3.667H142.5a1.834 1.834 0 1 1 0 3.667"/>
        <path fill="#FFF" d="M97.789 79.896a2.895 2.895 0 1 1-5.79 0 2.895 2.895 0 0 1 5.79 0"/>
        <path fill="#0F91C2" d="M99 102.667h38.416V99H99zM99 112.666h24.903V109H99z"/>
        <path fill="#79E7F4" d="M215.026 135.256h-51.121a3.905 3.905 0 0 1-3.905-3.905V85h58.931v46.351a3.905 3.905 0 0 1-3.905 3.905"/>
        <path fill="#0679A4" d="M218.932 85.754H160v-6.85A3.905 3.905 0 0 1 163.906 75h51.121a3.904 3.904 0 0 1 3.905 3.904v6.85z"/>
        <path fill="#79E7F4" d="M213.5 81.667h-22.666a1.833 1.833 0 1 1 0-3.667H213.5a1.834 1.834 0 1 1 0 3.667"/>
        <path fill="#FFF" d="M168.789 79.896a2.895 2.895 0 1 1-5.79 0 2.895 2.895 0 0 1 5.79 0"/>
        <path fill="#0F91C2" d="M170 102.667h38.416V99H170zM170 112.666h24.903V109H170z"/>
        <path fill="#79E7F4" d="M286.026 135.256h-51.121a3.905 3.905 0 0 1-3.905-3.905V85h58.931v46.351a3.905 3.905 0 0 1-3.905 3.905"/>
        <path fill="#0679A4" d="M289.932 85.754H231v-6.85A3.905 3.905 0 0 1 234.906 75h51.121a3.904 3.904 0 0 1 3.905 3.904v6.85z"/>
        <path fill="#79E7F4" d="M284.5 81.667h-22.667a1.833 1.833 0 1 1 0-3.667H284.5a1.833 1.833 0 0 1 0 3.667"/>
        <path fill="#FFF" d="M239.789 79.896a2.895 2.895 0 1 1-5.79 0 2.895 2.895 0 0 1 5.79 0"/>
        <path fill="#0F91C2" d="M241 102.667h38.417V99H241zM241 112.666h24.903V109H241z"/>
        <path fill="#FFF" d="M153 33h9.044v2.124h-6.353v3.966h5.099v2.023h-5.099v4.229h6.697v2.125H153zM165 33h8.963v2.145h-6.272v4.309h4.937v2.084h-4.937v5.929H165zM177 33h8.963v2.145h-6.272v4.309h4.937v2.084h-4.937v5.929H177zM199.004 40.342v-.162c0-2.975-1.659-5.18-4.492-5.18-2.832 0-4.512 2.084-4.512 5.2v.162c0 3.156 1.922 5.2 4.553 5.2 2.731 0 4.451-2.084 4.451-5.22M187 40.526v-.162c0-4.229 3.035-7.364 7.324-7.364 4.309 0 7.284 3.054 7.284 7.303v.162c0 4.229-2.894 7.406-7.284 7.406-4.431 0-7.324-3.177-7.324-7.345M209.164 39.613c1.801 0 2.752-.77 2.752-2.307v-.081c0-1.659-1.031-2.225-2.752-2.225H207v4.613h2.164zM204 33h4.855c3.177 0 5.402 1.295 5.402 4.249v.081c0 2.265-1.416 3.419-3.216 3.885l4.067 6.252h-2.914l-3.783-5.848h-1.72v5.848H204V33zM220.026 35.124H216V33h10.763v2.124h-4.026v12.343h-2.711z"/>
        <path fill="#0679A4" d="M33.091 127.529l-25.782-.084A7.331 7.331 0 0 1 0 120.09l.083-25.783A7.332 7.332 0 0 1 7.439 87l25.782.083a7.33 7.33 0 0 1 7.308 7.355l-.083 25.782a7.332 7.332 0 0 1-7.355 7.309"/>
        <path fill="#61A1E7" d="M29 103.346a5.363 5.363 0 1 0 10.727.033A5.363 5.363 0 0 0 29 103.346"/>
        <path fill="#FF8F8F" d="M7 107.094c-.023 7.256 5.937 13.157 13.314 13.181 7.376.023 13.375-5.839 13.4-13.095.022-7.255-5.939-13.156-13.315-13.18a13.536 13.536 0 0 0-4.115.621c-5.369 1.69-9.264 6.63-9.284 12.473"/>
        <path fill="#61A1E7" d="M34.059 105.63s-8.541-2.516-9.149-6.714c0 0-10.606 10.963-21.91 9.722 0 0 2.962-14.68 16.019-14.638 9.027.03 13.742 4.241 15.04 11.63"/>
        <path fill="#79E7F4" d="M371.091 127.529l-25.782-.084A7.332 7.332 0 0 1 338 120.09l.083-25.783A7.332 7.332 0 0 1 345.439 87l25.782.083a7.33 7.33 0 0 1 7.308 7.355l-.083 25.782a7.332 7.332 0 0 1-7.355 7.309"/>
        <path fill="#DF71DB" d="M343 105.75l.745 9.951 29.222.094.342-9.636s-8.673-9.666-12.403-10.143C357.178 95.537 343 105.75 343 105.75"/>
        <path fill="#F0BB70" d="M345 107.094c-.023 7.256 5.937 13.157 13.313 13.181 7.377.023 13.376-5.839 13.4-13.094.023-7.256-5.938-13.157-13.315-13.18a13.534 13.534 0 0 0-4.114.62c-5.37 1.69-9.265 6.63-9.284 12.473"/>
        <path fill="#DF71DB" d="M360.421 97.53s-8.762 9.448-16.104 9.425c-1.302-.004.983-15 14.832-14.955 14.364.046 15.006 13.967 15.006 13.967s-7.587 5.572-13.734-8.438"/>
        <path fill="#FDD455" d="M202.091 221.528l-25.782-.083A7.332 7.332 0 0 1 169 214.09l.083-25.783a7.331 7.331 0 0 1 7.356-7.307l25.782.083a7.33 7.33 0 0 1 7.308 7.355l-.083 25.782a7.331 7.331 0 0 1-7.355 7.308"/>
        <path fill="#FF8F8F" d="M176 201.864c-.022 7.128 5.833 12.925 13.08 12.948 7.247.024 13.14-5.735 13.163-12.864.023-7.128-5.833-12.925-13.08-12.948-1.41-.005-2.768.21-4.042.61-5.275 1.66-9.102 6.513-9.12 12.254"/>
        <path fill="#0679A4" d="M202.308 201.517s-4.41-4.479-5.007-8.604c0 0-3.935 1.74-7.621 1.468-3.684-.272-7.632-2.165-8-2.302-.252-.094.287 2.806-1.43 5.02-1.757 2.266-4.25 3.126-4.25 3.126.012-3.533 3.113-13.259 13.468-13.225 8.166.027 13.184 5.412 12.84 14.517"/>
        <path fill="#DF71DB" d="M131.091 221.528l-25.782-.083A7.332 7.332 0 0 1 98 214.09l.084-25.783A7.33 7.33 0 0 1 105.44 181l25.782.083a7.329 7.329 0 0 1 7.307 7.355l-.083 25.782a7.33 7.33 0 0 1-7.355 7.308"/>
        <path fill="#FF8F8F" d="M105 201.095c-.023 7.255 5.937 13.156 13.314 13.18 7.376.024 13.375-5.838 13.4-13.094.022-7.256-5.939-13.157-13.316-13.18a13.565 13.565 0 0 0-4.114.62c-5.37 1.69-9.265 6.63-9.284 12.474"/>
        <path fill="#0679A4" d="M131.267 201.022s-8.878-3.834-9.486-8.033c0 0-6.477 7.87-17.781 6.628 0 0 2.447-11.65 12.704-11.617 9.027.03 14.121 5.404 14.563 13.022"/>
        <path fill="#FF8F8F" d="M274.091 221.528l-25.782-.083A7.332 7.332 0 0 1 241 214.09l.084-25.783A7.33 7.33 0 0 1 248.44 181l25.782.083a7.329 7.329 0 0 1 7.307 7.355l-.083 25.782a7.33 7.33 0 0 1-7.355 7.308"/>
        <path fill="#0679A4" d="M260.042 210.91c-8.692-.366-15.42-8.25-15.026-17.61.393-9.362 7.76-16.653 16.452-16.287 8.693.366 15.421 8.25 15.027 17.61-.393 9.36-7.76 16.652-16.453 16.286"/>
        <path fill="#F0BB70" d="M273.631 203.113c0 6.69-5.514 12.114-12.315 12.114-6.802 0-12.316-5.424-12.316-12.114 0-6.689 5.514-12.113 12.316-12.113 1.323 0 2.597.205 3.792.585 4.946 1.573 8.523 6.139 8.523 11.528"/>
        <path fill="#0679A4" d="M254.995 192s1.474 6.042-6.042 9.284c-5.44 2.347 2.21-9.138 2.21-9.138l3.832-.146zM267.117 192s-1.474 6.042 6.043 9.284c5.439 2.347-2.211-9.138-2.211-9.138l-3.832-.146z"/>
        <path fill="#0679A4" d="M253 192.505s1.474 2.506 7.516 2.506c6.043 0 9.58-2.652 9.58-2.652L256.832 190 253 192.505z"/>
        <path stroke="#0679A4" stroke-width="1.5" d="M118 172.77V142M190 172.77V142M261 172.77V142M81.449 106H47M331.449 106H297"/>
    </g>
</svg>
