<svg xmlns="http://www.w3.org/2000/svg" width="356" height="136"><g fill="none" fill-rule="evenodd"><path fill="#FF8F8F" d="M57.831 95.53H6.699A6.7 6.7 0 010 88.831V37.699C0 33.999 2.999 31 6.699 31h51.132a6.7 6.7 0 016.699 6.699v51.132a6.7 6.7 0 01-6.699 6.699"/><path fill="#61A1E7" d="M7 79.75h53.837l-5.47-17.014L7.7 61z"/><path fill="#FDD455" d="M52.694 63.028c.177 11.789-9.236 21.49-21.025 21.667-11.79.176-21.49-9.237-21.667-21.026-.177-11.789 9.236-21.49 21.025-21.667l.326-.002a21.7 21.7 0 016.565 1.028 21.037 21.037 0 0114.776 20"/><path fill="#61A1E7" d="M28.982 47.86s1.349 26.594 25.938 22.124C56.973 69.61 53.176 39 31.045 39 8.095 39 7 61.243 7 61.243s13.271 2.779 21.982-13.383"/><path fill="#7086F4" d="M136.831 95.53H85.699A6.7 6.7 0 0179 88.831V37.699c0-3.7 2.999-6.699 6.699-6.699h51.132a6.7 6.7 0 016.699 6.699v51.132a6.7 6.7 0 01-6.699 6.699"/><path fill="#FF8F8F" d="M91 63.416c0 11.275 9.292 20.416 20.756 20.416 11.463 0 20.756-9.141 20.756-20.416S123.219 43 111.756 43a21.07 21.07 0 00-6.392.986C97.028 46.638 91 54.334 91 63.416"/><path fill="#0679A4" d="M132.458 63.687s-13.315-6.397-14.281-12.92c0 0-11.233-.118-18.177-4.043 0 0 4.658-3.38 10.263-3.683 11.747-.638 22.692 6.24 22.195 20.646"/><path fill="#0679A4" d="M114.536 44.45L91.172 64.243s-1.682-9.568 5.48-16.067c6.706-6.086 17.884-3.726 17.884-3.726"/><path fill="#FDD455" d="M92 53.965h38.748S127.581 39 111.374 39C93.117 39 92 53.965 92 53.965"/><path fill="#F0BB70" d="M92 54h38.748s-5.217 6.707-18.257 6.707C97.774 60.707 92 54 92 54"/><path fill="#DF71DB" d="M348.831 95.53h-51.132A6.7 6.7 0 01291 88.831V37.699c0-3.7 2.999-6.699 6.699-6.699h51.132c3.7 0 6.699 2.999 6.699 6.699v51.132a6.7 6.7 0 01-6.699 6.699"/><path fill="#F0BB70" d="M302 62.993c0 11.594 9.555 20.993 21.343 20.993 11.787 0 21.342-9.399 21.342-20.993S335.13 42 323.343 42a21.66 21.66 0 00-6.572 1.014C308.198 45.74 302 53.654 302 62.993"/><path fill="#FDD455" d="M344.679 58.021s-5.402 2.05-9.5-8.383c0 0-12.109 4.347-30.179 2.422 0 0 6.166-10.005 17.511-10.06 14.21-.068 20.306 8.383 22.168 16.021"/><path fill="#61A1E7" d="M269.831 95.53h-51.132A6.7 6.7 0 01212 88.831V37.699c0-3.7 2.999-6.699 6.699-6.699h51.132c3.7 0 6.699 2.999 6.699 6.699v51.132a6.7 6.7 0 01-6.699 6.699"/><path fill="#FDD455" d="M223 62.993c0 11.594 9.556 20.993 21.343 20.993 11.788 0 21.343-9.399 21.343-20.993S256.131 42 244.343 42c-2.293 0-4.502.356-6.572 1.014C229.199 45.74 223 53.654 223 62.993"/><path fill="#0679A4" d="M265.577 62.733s-14.206-6.081-15.2-12.787c0 0-10.308 12.607-28.377 10.683 0 0 3.849-18.629 20.239-18.629 14.426 0 22.593 8.562 23.338 20.733"/><path fill="#79E7F4" d="M217.673 39.836c0 22.001-39.837 95.529-39.837 95.529S138 61.837 138 39.836C138 17.835 155.835 0 177.836 0c22.001 0 39.837 17.835 39.837 39.836"/><path fill="#0F91C2" d="M201.548 39.774c0 13.13-10.644 23.774-23.774 23.774S154 52.904 154 39.774 164.644 16 177.774 16s23.774 10.644 23.774 23.774"/><path fill="#FFF" d="M192.505 39.252c0 7.871-6.381 14.252-14.253 14.252-7.871 0-14.252-6.381-14.252-14.252S170.381 25 178.252 25c7.872 0 14.253 6.381 14.253 14.252"/></g></svg>