<svg xmlns="http://www.w3.org/2000/svg" xmlns:xlink="http://www.w3.org/1999/xlink" width="387" height="244" viewBox="0 0 387 244">
    <defs>
        <path id="a" d="M.811.471h40.53V41H.81z"/>
        <path id="c" d="M0 .528h40.529v40.529H0z"/>
    </defs>
    <g fill="none" fill-rule="evenodd">
        <path fill="#0F91C2" d="M306.845 158.042H79.309c-5.524 0-10-4.477-10-10V10c0-5.523 4.476-10 10-10h227.536c5.522 0 10 4.477 10 10v138.042c0 5.523-4.478 10-10 10"/>
        <path fill="#FF8F8F" d="M93.11 18.565a5.236 5.236 0 1 1-10.472 0 5.236 5.236 0 0 1 10.472 0"/>
        <path fill="#FDD455" d="M111.437 18.565a5.236 5.236 0 1 1-10.472 0 5.236 5.236 0 0 1 10.472 0"/>
        <path fill="#7AF5A3" d="M129.765 18.565a5.236 5.236 0 1 1-10.473 0 5.236 5.236 0 0 1 10.473 0"/>
        <path fill="#79E7F4" d="M158.206 67.542c0 11.005-19.927 47.785-19.927 47.785s-19.927-36.78-19.927-47.785c0-11.005 8.922-19.927 19.927-19.927 11.006 0 19.927 8.922 19.927 19.927"/>
        <path fill="#0F91C2" d="M150.172 67.638c0 6.568-5.324 11.892-11.893 11.892-6.567 0-11.891-5.324-11.891-11.892s5.324-11.892 11.89-11.892c6.57 0 11.894 5.324 11.894 11.892"/>
        <path fill="#FFF" d="M145.41 67.638a7.13 7.13 0 1 1-14.26 0 7.13 7.13 0 0 1 14.26 0"/>
        <path fill="#79E7F4" d="M213.003 67.542c0 11.005-19.927 47.785-19.927 47.785s-19.927-36.78-19.927-47.785c0-11.005 8.922-19.927 19.927-19.927 11.005 0 19.927 8.922 19.927 19.927"/>
        <path fill="#0F91C2" d="M204.969 67.638c0 6.568-5.324 11.892-11.893 11.892-6.567 0-11.891-5.324-11.891-11.892s5.324-11.892 11.89-11.892c6.57 0 11.894 5.324 11.894 11.892"/>
        <path fill="#FFF" d="M200.205 67.638a7.128 7.128 0 0 1-7.129 7.13 7.129 7.129 0 1 1 0-14.259 7.129 7.129 0 0 1 7.129 7.13"/>
        <path fill="#79E7F4" d="M267.8 67.542c0 11.005-19.927 47.785-19.927 47.785s-19.927-36.78-19.927-47.785c0-11.005 8.922-19.927 19.927-19.927 11.005 0 19.927 8.922 19.927 19.927"/>
        <path fill="#0F91C2" d="M259.765 67.638c0 6.568-5.324 11.892-11.892 11.892s-11.892-5.324-11.892-11.892 5.324-11.892 11.892-11.892 11.892 5.324 11.892 11.892"/>
        <path fill="#FFF" d="M255.002 67.638a7.128 7.128 0 0 1-7.13 7.13 7.129 7.129 0 1 1 0-14.259 7.129 7.129 0 0 1 7.13 7.13"/>
        <path stroke="#0679A4" stroke-width="1.5" d="M39.667 83.877h62.667"/>
        <path fill="#0679A4" d="M103.485 83.877l-8.778-5.068v10.136z"/>
        <path stroke="#0679A4" stroke-width="1.5" d="M346.485 83.877H283.82"/>
        <path fill="#0679A4" d="M282.667 83.877l8.778-5.068v10.136z"/>
        <path stroke="#0679A4" stroke-width="1.5" d="M87.95 204.889h37.118c7.39 0 13.381-5.991 13.381-13.381v-59.37"/>
        <path fill="#0679A4" d="M138.636 127.703l-5.068 8.778h10.135z"/>
        <path stroke="#0679A4" stroke-width="1.5" d="M298.203 204.889h-37.119c-7.39 0-13.38-5.991-13.38-13.381v-59.37"/>
        <path fill="#0679A4" d="M247.518 127.703l5.067 8.778H242.45z"/>
        <path stroke="#0679A4" stroke-width="1.5" d="M193.076 203.889v-75.034"/>
        <path fill="#0679A4" d="M193.076 127.703l-5.068 8.778h10.136z"/>
        <g transform="translate(172 202.476)">
            <mask id="b" fill="#fff">
                <use xlink:href="#a"/>
            </mask>
            <path fill="#FDD455" d="M33.902 41L8.12 40.917a7.333 7.333 0 0 1-7.309-7.356L.894 7.78A7.332 7.332 0 0 1 8.25.471l25.782.083A7.331 7.331 0 0 1 41.34 7.91l-.083 25.782a7.331 7.331 0 0 1-7.355 7.31" mask="url(#b)"/>
        </g>
        <path fill="#FF8F8F" d="M179.98 223.537c-.022 7.128 5.833 12.925 13.08 12.949 7.247.023 13.141-5.736 13.163-12.865.024-7.127-5.833-12.925-13.08-12.948a13.289 13.289 0 0 0-4.042.61c-5.275 1.659-9.102 6.513-9.12 12.254"/>
        <path fill="#0679A4" d="M206.224 223.621s-4.41-4.479-5.007-8.604c0 0-3.935 1.74-7.62 1.468-3.685-.273-7.633-2.165-8.001-2.303-.251-.094.287 2.807-1.43 5.02-1.757 2.266-4.25 3.127-4.25 3.127.012-3.533 3.113-13.258 13.469-13.225 8.165.026 13.183 5.411 12.839 14.517M81.061 223.798l-25.782-.084a7.333 7.333 0 0 1-7.309-7.356l.084-25.781a7.333 7.333 0 0 1 7.356-7.309l25.782.083a7.33 7.33 0 0 1 7.308 7.356l-.084 25.781a7.33 7.33 0 0 1-7.355 7.31"/>
        <path fill="#61A1E7" d="M76.285 200.386a5.364 5.364 0 1 0 10.727.033 5.364 5.364 0 0 0-10.727-.033"/>
        <path fill="#FF8F8F" d="M54.866 203.617c-.023 7.256 5.937 13.157 13.313 13.181 7.377.023 13.376-5.839 13.4-13.095.023-7.255-5.938-13.156-13.315-13.18a13.54 13.54 0 0 0-4.115.621c-5.369 1.69-9.264 6.63-9.283 12.473"/>
        <path fill="#61A1E7" d="M81.564 202.074s-8.54-2.515-9.148-6.713c0 0-10.606 10.963-21.91 9.721 0 0 2.961-14.679 16.018-14.637 9.027.03 13.743 4.241 15.04 11.63"/>
        <path fill="#79E7F4" d="M330.743 223.798l-25.782-.084a7.333 7.333 0 0 1-7.309-7.356l.083-25.781a7.332 7.332 0 0 1 7.356-7.309l25.782.083a7.331 7.331 0 0 1 7.308 7.356l-.083 25.781a7.332 7.332 0 0 1-7.355 7.31"/>
        <path fill="#DF71DB" d="M302.764 202.717l.745 9.95 29.223.094.342-9.635s-8.673-9.666-12.403-10.144c-3.728-.478-17.907 9.735-17.907 9.735"/>
        <path fill="#F0BB70" d="M304.558 204.117c-.022 7.256 5.938 13.157 13.314 13.181 7.376.023 13.375-5.839 13.4-13.095.023-7.255-5.938-13.156-13.315-13.18a13.545 13.545 0 0 0-4.115.621c-5.37 1.69-9.264 6.63-9.284 12.473"/>
        <path fill="#DF71DB" d="M319.339 194.687s-8.762 9.45-16.104 9.426c-1.302-.004.983-15 14.832-14.955 14.364.046 15.006 13.967 15.006 13.967s-7.587 5.572-13.734-8.438M378.714 101.764l-25.782-.083a7.333 7.333 0 0 1-7.31-7.356l.084-25.782a7.332 7.332 0 0 1 7.356-7.308l25.782.083a7.33 7.33 0 0 1 7.308 7.355l-.083 25.782a7.331 7.331 0 0 1-7.355 7.309"/>
        <path fill="#FF8F8F" d="M352.644 81.584c-.024 7.255 5.936 13.157 13.313 13.18 7.377.024 13.375-5.838 13.4-13.094.022-7.255-5.939-13.157-13.316-13.18a13.534 13.534 0 0 0-4.113.621c-5.37 1.69-9.265 6.63-9.284 12.473"/>
        <path fill="#0679A4" d="M379.525 81.049s-8.879-3.834-9.486-8.033c0 0-6.477 7.869-17.782 6.628 0 0 2.448-11.65 12.705-11.617 9.027.029 14.121 5.404 14.563 13.022"/>
        <g transform="translate(0 62.476)">
            <mask id="d" fill="#fff">
                <use xlink:href="#c"/>
            </mask>
            <path fill="#FF8F8F" d="M33.09 41.057L7.31 40.974a7.332 7.332 0 0 1-7.31-7.355L.084 7.836A7.333 7.333 0 0 1 7.439.528L33.22.61a7.331 7.331 0 0 1 7.308 7.356l-.083 25.782a7.331 7.331 0 0 1-7.355 7.308" mask="url(#d)"/>
        </g>
        <path fill="#0679A4" d="M19.552 93.375c-8.692-.366-15.421-8.25-15.027-17.61.394-9.361 7.76-16.652 16.453-16.286 8.693.365 15.42 8.25 15.027 17.61-.393 9.36-7.76 16.652-16.453 16.286"/>
        <path fill="#F0BB70" d="M32.69 85.653c0 6.69-5.515 12.114-12.316 12.114-6.802 0-12.316-5.424-12.316-12.114S13.572 73.54 20.374 73.54c1.323 0 2.597.205 3.792.585 4.946 1.573 8.523 6.139 8.523 11.528"/>
        <path fill="#0679A4" d="M13.799 74.306s1.474 6.042-6.043 9.284c-5.44 2.347 2.21-9.137 2.21-9.137l3.833-.147zM26.11 74.306s-1.474 6.042 6.043 9.284c5.44 2.347-2.21-9.137-2.21-9.137l-3.833-.147z"/>
        <path fill="#0679A4" d="M12.473 74.453s1.474 2.505 7.516 2.505 9.579-2.652 9.579-2.652l-13.264-2.358-3.831 2.505z"/>
    </g>
</svg>
