<svg xmlns="http://www.w3.org/2000/svg" xmlns:xlink="http://www.w3.org/1999/xlink" width="261" height="144" viewBox="0 0 261 144">
    <defs>
        <path id="a" d="M0 142h260.983V.181H0z"/>
    </defs>
    <g fill="none" fill-rule="evenodd">
        <path stroke="#0679A4" stroke-width="1.5" d="M172.83 60.046H72.69"/>
        <g transform="translate(0 .819)">
            <path fill="#0F91C2" d="M145.94 118.273h77.19a6.945 6.945 0 0 0 6.947-6.945V7.127A6.945 6.945 0 0 0 223.13.182H145.94a6.944 6.944 0 0 0-6.945 6.945v104.2a6.944 6.944 0 0 0 6.945 6.946"/>
            <mask id="b" fill="#fff">
                <use xlink:href="#a"/>
            </mask>
            <path fill="#FFF" d="M158.005 53.266h7.216v-7.215h-7.216z" mask="url(#b)"/>
            <path stroke="#FFF" stroke-width="1.5" d="M176.009 49.658h38.6" mask="url(#b)"/>
            <path fill="#FFF" d="M158.005 72.403h7.216v-7.215h-7.216z" mask="url(#b)"/>
            <path stroke="#FFF" stroke-width="1.5" d="M176.009 68.796h38.6" mask="url(#b)"/>
            <path fill="#FFF" d="M158.005 91.541h7.216v-7.215h-7.216z" mask="url(#b)"/>
            <path stroke="#FFF" stroke-width="1.5" d="M176.009 87.933h38.6" mask="url(#b)"/>
            <path fill="#0679A4" d="M168.938 37.863l-11.397-.037a7.332 7.332 0 0 1-7.31-7.356l.037-11.397a7.332 7.332 0 0 1 7.357-7.308l11.397.036a7.333 7.333 0 0 1 7.308 7.356l-.038 11.397a7.332 7.332 0 0 1-7.355 7.309" mask="url(#b)"/>
            <path fill="#61A1E7" d="M168.467 22.786a3.456 3.456 0 1 0 6.912.022 3.456 3.456 0 0 0-6.912-.022" mask="url(#b)"/>
            <path fill="#FF8F8F" d="M154.666 24.868c-.016 4.675 3.825 8.478 8.578 8.493 4.754.015 8.62-3.763 8.634-8.437.015-4.676-3.826-8.478-8.579-8.493a8.728 8.728 0 0 0-2.652.4c-3.46 1.088-5.969 4.271-5.98 8.037" mask="url(#b)"/>
            <path fill="#61A1E7" d="M171.87 23.874s-5.505-1.62-5.897-4.326c0 0-6.833 7.064-14.117 6.264 0 0 1.91-9.458 10.322-9.43 5.817.018 8.855 2.732 9.691 7.492" mask="url(#b)"/>
            <path fill="#79E7F4" d="M260.983 67.875c0 17.071-30.91 74.125-30.91 74.125s-30.91-57.054-30.91-74.125c0-17.07 13.838-30.91 30.91-30.91 17.07 0 30.91 13.84 30.91 30.91" mask="url(#b)"/>
            <path fill="#0F91C2" d="M248.52 68.025c0 10.188-8.26 18.447-18.447 18.447-10.188 0-18.448-8.259-18.448-18.447 0-10.188 8.26-18.447 18.448-18.447s18.447 8.26 18.447 18.447" mask="url(#b)"/>
            <path fill="#FFF" d="M241.13 68.025c0 6.107-4.95 11.06-11.058 11.06-6.107 0-11.058-4.953-11.058-11.06s4.95-11.059 11.058-11.059 11.059 4.952 11.059 11.06" mask="url(#b)"/>
            <path stroke="#0679A4" stroke-width="1.5" d="M64.513 94.87l-56.454-.182a7.333 7.333 0 0 1-7.31-7.356l.183-56.454a7.333 7.333 0 0 1 7.355-7.308l56.455.182a7.331 7.331 0 0 1 7.308 7.355l-.182 56.454a7.331 7.331 0 0 1-7.355 7.31z" mask="url(#b)"/>
            <path fill="#F0BB70" d="M13.374 59.793c-.04 12.533 10.256 22.727 23 22.768 12.741.04 23.104-10.086 23.144-22.62.041-12.533-10.256-22.727-22.999-22.768a23.421 23.421 0 0 0-7.108 1.074c-9.275 2.917-16.005 11.45-16.037 21.546" mask="url(#b)"/>
            <path fill="#0679A4" d="M59.518 59.941s-7.754-7.875-8.804-15.128c0 0-6.92 3.058-13.4 2.58-6.48-.479-13.42-3.807-14.067-4.049-.442-.165.505 4.935-2.514 8.827-3.091 3.984-7.472 5.498-7.472 5.498.02-6.212 5.472-23.313 23.682-23.254 14.356.046 23.179 9.514 22.575 25.526" mask="url(#b)"/>
            <path fill="#FDD455" d="M124.545 59.22c0 9.757-7.91 17.667-17.667 17.667-9.757 0-17.667-7.91-17.667-17.667 0-9.757 7.91-17.667 17.667-17.667 9.757 0 17.667 7.91 17.667 17.667" mask="url(#b)"/>
            <path stroke="#0F91C2" stroke-width="1.5" d="M97.025 58.37l7.135 7.136 12.57-12.571" mask="url(#b)"/>
        </g>
    </g>
</svg>
