<svg xmlns="http://www.w3.org/2000/svg" xmlns:xlink="http://www.w3.org/1999/xlink" width="236" height="236"><defs><path id="a" d="M0 0h236v236H0z"/><path id="c" d="M0 236h236V0H0z"/></defs><g fill="none" fill-rule="evenodd"><path fill="#0679A4" d="M187.864 195.197H48.135a7.332 7.332 0 01-7.332-7.332V48.135a7.332 7.332 0 017.332-7.331h139.73a7.332 7.332 0 017.331 7.332v139.729a7.332 7.332 0 01-7.332 7.332"/><path fill="#61A1E7" d="M132.667 111.926c-.018 5.497 4.424 9.967 9.92 9.985 5.497.017 9.967-4.424 9.984-9.92.018-5.497-4.424-9.967-9.92-9.985-5.496-.018-9.966 4.424-9.984 9.92"/><path fill="#FF8F8F" d="M92.915 117.923c-.043 13.465 11.02 24.417 24.71 24.461 13.69.044 24.822-10.836 24.865-24.3.044-13.467-11.018-24.418-24.709-24.462a25.141 25.141 0 00-7.637 1.153c-9.964 3.134-17.194 12.302-17.229 23.148"/><path fill="#61A1E7" d="M142.465 115.059s-15.851-4.667-16.979-12.46c0 0-19.683 20.347-40.662 18.044 0 0 5.496-27.244 29.729-27.166 16.754.055 25.505 7.872 27.912 21.582"/><mask id="b" fill="#fff"><use xlink:href="#a"/></mask><path fill="#0F91C2" d="M118 64.852c-29.353 0-53.148 23.795-53.148 53.148S88.647 171.148 118 171.148s53.147-23.795 53.147-53.148S147.353 64.852 118 64.852M236 118c0 65.17-52.83 118-118 118S0 183.17 0 118 52.83 0 118 0s118 52.83 118 118" mask="url(#b)"/><path fill="#0679A4" d="M87.684 37.356a2.64 2.64 0 00-2.64-2.639H61.059a2.639 2.639 0 00-2.64 2.64v5.753h29.265v-5.754z"/><path fill="#FFF" d="M58.42 43.11v16.24a2.639 2.639 0 002.64 2.64h23.984a2.64 2.64 0 002.64-2.64V43.11H58.42zm5.193-4.395h-.009a.888.888 0 01-.888-.889v-5.793c0-.49.397-.889.888-.889h.01a.89.89 0 01.888.89v5.792a.89.89 0 01-.889.89m18.885-.001h-.008a.889.889 0 01-.889-.889v-5.793a.89.89 0 01.89-.889h.007a.89.89 0 01.89.89v5.792a.889.889 0 01-.89.89"/><path stroke="#0F91C2" stroke-width="1.5" d="M65.768 49.559h14.567M68.549 54.33h9.005"/><path fill="#FFF" d="M132.236 30.75c-1.304 2.064-1.525 5.036-.242 7.09a60.42 60.42 0 0019.338 19.338c2.054 1.284 5.025 1.062 7.089-.242l1.01-.796.001-.001 1.293-1.292.71-.711a2.791 2.791 0 000-3.946l-3.722-3.723a2.79 2.79 0 00-3.947 0l-1.052 1.053a2.198 2.198 0 01-2.947.146 60.506 60.506 0 01-8.261-8.262 2.195 2.195 0 01.145-2.946l1.053-1.053a2.791 2.791 0 000-3.946l-3.724-3.723a2.79 2.79 0 00-3.945 0l-2.8 3.015z"/><path stroke="#0679A4" stroke-width="1.5" d="M157.308 42.968a8.477 8.477 0 00-11.066-11.067m15.525 11.923c1.498-4.51.472-9.672-3.12-13.263-3.59-3.59-8.751-4.616-13.261-3.118"/><path fill="#FFF" d="M210.408 110.609h-23.613a1.651 1.651 0 01-1.65-1.65v-28.74c0-.911.74-1.651 1.65-1.651h23.613c.911 0 1.65.74 1.65 1.65v28.74a1.65 1.65 0 01-1.65 1.65"/><mask id="d" fill="#fff"><use xlink:href="#c"/></mask><path fill="#0679A4" d="M190.813 80.454h15.578v-3.582h-15.578z" mask="url(#d)"/><path stroke="#0F91C2" stroke-width="1.5" d="M190.091 87.996l1.675 1.675 3.164-3.164m3.05 2.543h9.133m-17.022 6.075l1.675 1.675 3.164-3.164m3.05 2.544h9.133m-17.022 6.074l1.675 1.675 3.164-3.164m3.05 2.543h9.133" mask="url(#d)"/><path fill="#0679A4" d="M200.559 77.212a1.957 1.957 0 11-3.914 0 1.957 1.957 0 013.914 0" mask="url(#d)"/><path fill="#FFF" d="M97.588 201.971h-3.271v-3.866h3.271v-3.06c0-1.615.454-2.867 1.36-3.761.907-.892 2.111-1.337 3.612-1.337 1.218 0 2.21.056 2.974.169v3.442h-2.039c-.764 0-1.289.17-1.572.51-.228.283-.34.736-.34 1.36v2.677h3.611l-.509 3.866h-3.102v9.73h-3.995v-9.73zm40.682-5.014c0 2.04-.495 4.008-1.487 5.906-1.02 2.011-2.45 3.612-4.291 4.802-2.011 1.331-4.32 1.997-6.926 1.997-2.492 0-4.773-.666-6.841-1.997.312.028.666.042 1.063.042 2.067 0 3.923-.637 5.566-1.912-.992 0-1.862-.29-2.614-.87a4.441 4.441 0 01-1.551-2.189c.283.028.553.042.808.042.396 0 .794-.042 1.189-.127a4.498 4.498 0 01-2.55-1.572c-.678-.822-1.02-1.757-1.02-2.805v-.085a4.203 4.203 0 001.998.595 4.959 4.959 0 01-1.444-1.614 4.282 4.282 0 01-.553-2.147c0-.778.213-1.522.637-2.23a12.305 12.305 0 004.058 3.314 12.353 12.353 0 005.12 1.36 6.16 6.16 0 01-.085-1.02c0-.793.198-1.537.596-2.23a4.36 4.36 0 011.614-1.636 4.306 4.306 0 012.21-.596c.65 0 1.253.128 1.805.383a5.044 5.044 0 011.467 1.02 9.117 9.117 0 002.846-1.062c-.34 1.048-.991 1.87-1.955 2.464a9.574 9.574 0 002.55-.722 9.805 9.805 0 01-2.252 2.337c.028.113.042.297.042.552m-79.515-31.622l-3.265-3.388c2.392-.82 3.188-3.081 3.188-5.751a6.083 6.083 0 00-12.164 0c0 2.67.795 4.932 3.187 5.75l-3.265 3.389a10.07 10.07 0 00-3.742 7.833v6.623h19.802v-6.623c0-3.041-1.375-5.921-3.741-7.833" mask="url(#d)"/><path fill="#0679A4" d="M53.112 176.12a7.987 7.987 0 1015.974-.002 7.987 7.987 0 00-15.974.002" mask="url(#d)"/><path stroke="#FFF" stroke-width="1.5" d="M61.1 171.74v8.76m4.38-4.38h-8.761" mask="url(#d)"/><path fill="#FFF" d="M46.003 120.507H21.02a2.6 2.6 0 01-2.6-2.6v-14.674a2.6 2.6 0 012.6-2.6h24.984a2.6 2.6 0 012.6 2.6v14.674a2.6 2.6 0 01-2.6 2.6" mask="url(#d)"/><path stroke="#0F91C2" stroke-width="1.5" d="M22.137 106.094l11.374 7.23 11.373-7.23" mask="url(#d)"/><path fill="#0679A4" d="M198.503 161.123c0 14.01-11.358 25.369-25.368 25.369-14.01 0-25.369-11.358-25.369-25.37 0-14.01 11.358-25.368 25.37-25.368 14.01 0 25.367 11.358 25.367 25.369" mask="url(#d)"/><path fill="#79E7F4" d="M182.058 155.598c0 4.882-8.84 21.197-8.84 21.197s-8.84-16.315-8.84-21.197a8.84 8.84 0 018.84-8.839 8.839 8.839 0 018.84 8.84" mask="url(#d)"/><path fill="#0F91C2" d="M178.494 155.64a5.275 5.275 0 11-10.552 0 5.275 5.275 0 0110.552 0" mask="url(#d)"/><path fill="#FFF" d="M176.381 155.64a3.163 3.163 0 11-6.325.002 3.163 3.163 0 016.325-.001" mask="url(#d)"/></g></svg>